%TF.GenerationSoftware,KiCad,Pcbnew,9.0.5*%
%TF.CreationDate,2025-10-10T12:12:09+02:00*%
%TF.ProjectId,CART-Breakout,43415254-2d42-4726-9561-6b6f75742e6b,rev?*%
%TF.SameCoordinates,Original*%
%TF.FileFunction,Other,User*%
%FSLAX46Y46*%
G04 Gerber Fmt 4.6, Leading zero omitted, Abs format (unit mm)*
G04 Created by KiCad (PCBNEW 9.0.5) date 2025-10-10 12:12:09*
%MOMM*%
%LPD*%
G01*
G04 APERTURE LIST*
%ADD10C,0.150000*%
%ADD11C,0.100000*%
%ADD12C,0.300000*%
G04 APERTURE END LIST*
D10*
X150714285Y-125398152D02*
X150714285Y-126064819D01*
X150476190Y-125017200D02*
X150238095Y-125731485D01*
X150238095Y-125731485D02*
X150857142Y-125731485D01*
X151428571Y-125064819D02*
X151523809Y-125064819D01*
X151523809Y-125064819D02*
X151619047Y-125112438D01*
X151619047Y-125112438D02*
X151666666Y-125160057D01*
X151666666Y-125160057D02*
X151714285Y-125255295D01*
X151714285Y-125255295D02*
X151761904Y-125445771D01*
X151761904Y-125445771D02*
X151761904Y-125683866D01*
X151761904Y-125683866D02*
X151714285Y-125874342D01*
X151714285Y-125874342D02*
X151666666Y-125969580D01*
X151666666Y-125969580D02*
X151619047Y-126017200D01*
X151619047Y-126017200D02*
X151523809Y-126064819D01*
X151523809Y-126064819D02*
X151428571Y-126064819D01*
X151428571Y-126064819D02*
X151333333Y-126017200D01*
X151333333Y-126017200D02*
X151285714Y-125969580D01*
X151285714Y-125969580D02*
X151238095Y-125874342D01*
X151238095Y-125874342D02*
X151190476Y-125683866D01*
X151190476Y-125683866D02*
X151190476Y-125445771D01*
X151190476Y-125445771D02*
X151238095Y-125255295D01*
X151238095Y-125255295D02*
X151285714Y-125160057D01*
X151285714Y-125160057D02*
X151333333Y-125112438D01*
X151333333Y-125112438D02*
X151428571Y-125064819D01*
D11*
X171000000Y-118500000D02*
X171000000Y-127346420D01*
X131000000Y-118500000D02*
X131000000Y-127346420D01*
X171000000Y-126760000D02*
X131000000Y-126760000D01*
X171000000Y-126760000D02*
X169873496Y-127346421D01*
X171000000Y-126760000D02*
X169873496Y-126173579D01*
X131000000Y-126760000D02*
X132126504Y-126173579D01*
X131000000Y-126760000D02*
X132126504Y-127346421D01*
D10*
X119944819Y-93238095D02*
X119944819Y-93714285D01*
X119944819Y-93714285D02*
X120421009Y-93761904D01*
X120421009Y-93761904D02*
X120373390Y-93714285D01*
X120373390Y-93714285D02*
X120325771Y-93619047D01*
X120325771Y-93619047D02*
X120325771Y-93380952D01*
X120325771Y-93380952D02*
X120373390Y-93285714D01*
X120373390Y-93285714D02*
X120421009Y-93238095D01*
X120421009Y-93238095D02*
X120516247Y-93190476D01*
X120516247Y-93190476D02*
X120754342Y-93190476D01*
X120754342Y-93190476D02*
X120849580Y-93238095D01*
X120849580Y-93238095D02*
X120897200Y-93285714D01*
X120897200Y-93285714D02*
X120944819Y-93380952D01*
X120944819Y-93380952D02*
X120944819Y-93619047D01*
X120944819Y-93619047D02*
X120897200Y-93714285D01*
X120897200Y-93714285D02*
X120849580Y-93761904D01*
X119944819Y-92571428D02*
X119944819Y-92476190D01*
X119944819Y-92476190D02*
X119992438Y-92380952D01*
X119992438Y-92380952D02*
X120040057Y-92333333D01*
X120040057Y-92333333D02*
X120135295Y-92285714D01*
X120135295Y-92285714D02*
X120325771Y-92238095D01*
X120325771Y-92238095D02*
X120563866Y-92238095D01*
X120563866Y-92238095D02*
X120754342Y-92285714D01*
X120754342Y-92285714D02*
X120849580Y-92333333D01*
X120849580Y-92333333D02*
X120897200Y-92380952D01*
X120897200Y-92380952D02*
X120944819Y-92476190D01*
X120944819Y-92476190D02*
X120944819Y-92571428D01*
X120944819Y-92571428D02*
X120897200Y-92666666D01*
X120897200Y-92666666D02*
X120849580Y-92714285D01*
X120849580Y-92714285D02*
X120754342Y-92761904D01*
X120754342Y-92761904D02*
X120563866Y-92809523D01*
X120563866Y-92809523D02*
X120325771Y-92809523D01*
X120325771Y-92809523D02*
X120135295Y-92761904D01*
X120135295Y-92761904D02*
X120040057Y-92714285D01*
X120040057Y-92714285D02*
X119992438Y-92666666D01*
X119992438Y-92666666D02*
X119944819Y-92571428D01*
D11*
X127000000Y-68000000D02*
X121053580Y-68000000D01*
X127000000Y-118000000D02*
X121053580Y-118000000D01*
X121640000Y-68000000D02*
X121640000Y-118000000D01*
X121640000Y-68000000D02*
X122226421Y-69126504D01*
X121640000Y-68000000D02*
X121053579Y-69126504D01*
X121640000Y-118000000D02*
X121053579Y-116873496D01*
X121640000Y-118000000D02*
X122226421Y-116873496D01*
D10*
X148584798Y-57723152D02*
X148584798Y-58389819D01*
X148346703Y-57342200D02*
X148108608Y-58056485D01*
X148108608Y-58056485D02*
X148727655Y-58056485D01*
X149013370Y-57389819D02*
X149680036Y-57389819D01*
X149680036Y-57389819D02*
X149251465Y-58389819D01*
X150060989Y-58294580D02*
X150108608Y-58342200D01*
X150108608Y-58342200D02*
X150060989Y-58389819D01*
X150060989Y-58389819D02*
X150013370Y-58342200D01*
X150013370Y-58342200D02*
X150060989Y-58294580D01*
X150060989Y-58294580D02*
X150060989Y-58389819D01*
X150727655Y-57389819D02*
X150822893Y-57389819D01*
X150822893Y-57389819D02*
X150918131Y-57437438D01*
X150918131Y-57437438D02*
X150965750Y-57485057D01*
X150965750Y-57485057D02*
X151013369Y-57580295D01*
X151013369Y-57580295D02*
X151060988Y-57770771D01*
X151060988Y-57770771D02*
X151060988Y-58008866D01*
X151060988Y-58008866D02*
X151013369Y-58199342D01*
X151013369Y-58199342D02*
X150965750Y-58294580D01*
X150965750Y-58294580D02*
X150918131Y-58342200D01*
X150918131Y-58342200D02*
X150822893Y-58389819D01*
X150822893Y-58389819D02*
X150727655Y-58389819D01*
X150727655Y-58389819D02*
X150632417Y-58342200D01*
X150632417Y-58342200D02*
X150584798Y-58294580D01*
X150584798Y-58294580D02*
X150537179Y-58199342D01*
X150537179Y-58199342D02*
X150489560Y-58008866D01*
X150489560Y-58008866D02*
X150489560Y-57770771D01*
X150489560Y-57770771D02*
X150537179Y-57580295D01*
X150537179Y-57580295D02*
X150584798Y-57485057D01*
X150584798Y-57485057D02*
X150632417Y-57437438D01*
X150632417Y-57437438D02*
X150727655Y-57389819D01*
X151441941Y-57485057D02*
X151489560Y-57437438D01*
X151489560Y-57437438D02*
X151584798Y-57389819D01*
X151584798Y-57389819D02*
X151822893Y-57389819D01*
X151822893Y-57389819D02*
X151918131Y-57437438D01*
X151918131Y-57437438D02*
X151965750Y-57485057D01*
X151965750Y-57485057D02*
X152013369Y-57580295D01*
X152013369Y-57580295D02*
X152013369Y-57675533D01*
X152013369Y-57675533D02*
X151965750Y-57818390D01*
X151965750Y-57818390D02*
X151394322Y-58389819D01*
X151394322Y-58389819D02*
X152013369Y-58389819D01*
X152870512Y-57389819D02*
X152680036Y-57389819D01*
X152680036Y-57389819D02*
X152584798Y-57437438D01*
X152584798Y-57437438D02*
X152537179Y-57485057D01*
X152537179Y-57485057D02*
X152441941Y-57627914D01*
X152441941Y-57627914D02*
X152394322Y-57818390D01*
X152394322Y-57818390D02*
X152394322Y-58199342D01*
X152394322Y-58199342D02*
X152441941Y-58294580D01*
X152441941Y-58294580D02*
X152489560Y-58342200D01*
X152489560Y-58342200D02*
X152584798Y-58389819D01*
X152584798Y-58389819D02*
X152775274Y-58389819D01*
X152775274Y-58389819D02*
X152870512Y-58342200D01*
X152870512Y-58342200D02*
X152918131Y-58294580D01*
X152918131Y-58294580D02*
X152965750Y-58199342D01*
X152965750Y-58199342D02*
X152965750Y-57961247D01*
X152965750Y-57961247D02*
X152918131Y-57866009D01*
X152918131Y-57866009D02*
X152870512Y-57818390D01*
X152870512Y-57818390D02*
X152775274Y-57770771D01*
X152775274Y-57770771D02*
X152584798Y-57770771D01*
X152584798Y-57770771D02*
X152489560Y-57818390D01*
X152489560Y-57818390D02*
X152441941Y-57866009D01*
X152441941Y-57866009D02*
X152394322Y-57961247D01*
X153299084Y-57389819D02*
X153965750Y-57389819D01*
X153965750Y-57389819D02*
X153537179Y-58389819D01*
D11*
X174526740Y-67500000D02*
X174526740Y-58498580D01*
X127500000Y-67500000D02*
X127500000Y-58498580D01*
X174526740Y-59085000D02*
X127500000Y-59085000D01*
X174526740Y-59085000D02*
X173400236Y-59671421D01*
X174526740Y-59085000D02*
X173400236Y-58498579D01*
X127500000Y-59085000D02*
X128626504Y-58498579D01*
X127500000Y-59085000D02*
X128626504Y-59671421D01*
D10*
X176250057Y-110117380D02*
X176202438Y-110069761D01*
X176202438Y-110069761D02*
X176154819Y-109974523D01*
X176154819Y-109974523D02*
X176154819Y-109736428D01*
X176154819Y-109736428D02*
X176202438Y-109641190D01*
X176202438Y-109641190D02*
X176250057Y-109593571D01*
X176250057Y-109593571D02*
X176345295Y-109545952D01*
X176345295Y-109545952D02*
X176440533Y-109545952D01*
X176440533Y-109545952D02*
X176583390Y-109593571D01*
X176583390Y-109593571D02*
X177154819Y-110164999D01*
X177154819Y-110164999D02*
X177154819Y-109545952D01*
X176154819Y-108926904D02*
X176154819Y-108831666D01*
X176154819Y-108831666D02*
X176202438Y-108736428D01*
X176202438Y-108736428D02*
X176250057Y-108688809D01*
X176250057Y-108688809D02*
X176345295Y-108641190D01*
X176345295Y-108641190D02*
X176535771Y-108593571D01*
X176535771Y-108593571D02*
X176773866Y-108593571D01*
X176773866Y-108593571D02*
X176964342Y-108641190D01*
X176964342Y-108641190D02*
X177059580Y-108688809D01*
X177059580Y-108688809D02*
X177107200Y-108736428D01*
X177107200Y-108736428D02*
X177154819Y-108831666D01*
X177154819Y-108831666D02*
X177154819Y-108926904D01*
X177154819Y-108926904D02*
X177107200Y-109022142D01*
X177107200Y-109022142D02*
X177059580Y-109069761D01*
X177059580Y-109069761D02*
X176964342Y-109117380D01*
X176964342Y-109117380D02*
X176773866Y-109164999D01*
X176773866Y-109164999D02*
X176535771Y-109164999D01*
X176535771Y-109164999D02*
X176345295Y-109117380D01*
X176345295Y-109117380D02*
X176250057Y-109069761D01*
X176250057Y-109069761D02*
X176202438Y-109022142D01*
X176202438Y-109022142D02*
X176154819Y-108926904D01*
X177059580Y-108164999D02*
X177107200Y-108117380D01*
X177107200Y-108117380D02*
X177154819Y-108164999D01*
X177154819Y-108164999D02*
X177107200Y-108212618D01*
X177107200Y-108212618D02*
X177059580Y-108164999D01*
X177059580Y-108164999D02*
X177154819Y-108164999D01*
X176154819Y-107784047D02*
X176154819Y-107165000D01*
X176154819Y-107165000D02*
X176535771Y-107498333D01*
X176535771Y-107498333D02*
X176535771Y-107355476D01*
X176535771Y-107355476D02*
X176583390Y-107260238D01*
X176583390Y-107260238D02*
X176631009Y-107212619D01*
X176631009Y-107212619D02*
X176726247Y-107165000D01*
X176726247Y-107165000D02*
X176964342Y-107165000D01*
X176964342Y-107165000D02*
X177059580Y-107212619D01*
X177059580Y-107212619D02*
X177107200Y-107260238D01*
X177107200Y-107260238D02*
X177154819Y-107355476D01*
X177154819Y-107355476D02*
X177154819Y-107641190D01*
X177154819Y-107641190D02*
X177107200Y-107736428D01*
X177107200Y-107736428D02*
X177059580Y-107784047D01*
X176154819Y-106831666D02*
X176154819Y-106212619D01*
X176154819Y-106212619D02*
X176535771Y-106545952D01*
X176535771Y-106545952D02*
X176535771Y-106403095D01*
X176535771Y-106403095D02*
X176583390Y-106307857D01*
X176583390Y-106307857D02*
X176631009Y-106260238D01*
X176631009Y-106260238D02*
X176726247Y-106212619D01*
X176726247Y-106212619D02*
X176964342Y-106212619D01*
X176964342Y-106212619D02*
X177059580Y-106260238D01*
X177059580Y-106260238D02*
X177107200Y-106307857D01*
X177107200Y-106307857D02*
X177154819Y-106403095D01*
X177154819Y-106403095D02*
X177154819Y-106688809D01*
X177154819Y-106688809D02*
X177107200Y-106784047D01*
X177107200Y-106784047D02*
X177059580Y-106831666D01*
D11*
X171500000Y-118330000D02*
X178436420Y-118330000D01*
X171500000Y-98000000D02*
X178436420Y-98000000D01*
X177850000Y-118330000D02*
X177850000Y-98000000D01*
X177850000Y-118330000D02*
X177263579Y-117203496D01*
X177850000Y-118330000D02*
X178436421Y-117203496D01*
X177850000Y-98000000D02*
X178436421Y-99126504D01*
X177850000Y-98000000D02*
X177263579Y-99126504D01*
D12*
X146607144Y-122878328D02*
X145750001Y-122878328D01*
X146178572Y-122878328D02*
X146178572Y-121378328D01*
X146178572Y-121378328D02*
X146035715Y-121592614D01*
X146035715Y-121592614D02*
X145892858Y-121735471D01*
X145892858Y-121735471D02*
X145750001Y-121806900D01*
X147250000Y-122735471D02*
X147321429Y-122806900D01*
X147321429Y-122806900D02*
X147250000Y-122878328D01*
X147250000Y-122878328D02*
X147178572Y-122806900D01*
X147178572Y-122806900D02*
X147250000Y-122735471D01*
X147250000Y-122735471D02*
X147250000Y-122878328D01*
X148678572Y-121378328D02*
X147964286Y-121378328D01*
X147964286Y-121378328D02*
X147892858Y-122092614D01*
X147892858Y-122092614D02*
X147964286Y-122021185D01*
X147964286Y-122021185D02*
X148107144Y-121949757D01*
X148107144Y-121949757D02*
X148464286Y-121949757D01*
X148464286Y-121949757D02*
X148607144Y-122021185D01*
X148607144Y-122021185D02*
X148678572Y-122092614D01*
X148678572Y-122092614D02*
X148750001Y-122235471D01*
X148750001Y-122235471D02*
X148750001Y-122592614D01*
X148750001Y-122592614D02*
X148678572Y-122735471D01*
X148678572Y-122735471D02*
X148607144Y-122806900D01*
X148607144Y-122806900D02*
X148464286Y-122878328D01*
X148464286Y-122878328D02*
X148107144Y-122878328D01*
X148107144Y-122878328D02*
X147964286Y-122806900D01*
X147964286Y-122806900D02*
X147892858Y-122735471D01*
X149250000Y-121378328D02*
X150250000Y-121378328D01*
X150250000Y-121378328D02*
X149607143Y-122878328D01*
X151464286Y-121878328D02*
X151464286Y-122878328D01*
X151107143Y-121306900D02*
X150750000Y-122378328D01*
X150750000Y-122378328D02*
X151678571Y-122378328D01*
X152464285Y-122021185D02*
X152321428Y-121949757D01*
X152321428Y-121949757D02*
X152249999Y-121878328D01*
X152249999Y-121878328D02*
X152178571Y-121735471D01*
X152178571Y-121735471D02*
X152178571Y-121664042D01*
X152178571Y-121664042D02*
X152249999Y-121521185D01*
X152249999Y-121521185D02*
X152321428Y-121449757D01*
X152321428Y-121449757D02*
X152464285Y-121378328D01*
X152464285Y-121378328D02*
X152749999Y-121378328D01*
X152749999Y-121378328D02*
X152892857Y-121449757D01*
X152892857Y-121449757D02*
X152964285Y-121521185D01*
X152964285Y-121521185D02*
X153035714Y-121664042D01*
X153035714Y-121664042D02*
X153035714Y-121735471D01*
X153035714Y-121735471D02*
X152964285Y-121878328D01*
X152964285Y-121878328D02*
X152892857Y-121949757D01*
X152892857Y-121949757D02*
X152749999Y-122021185D01*
X152749999Y-122021185D02*
X152464285Y-122021185D01*
X152464285Y-122021185D02*
X152321428Y-122092614D01*
X152321428Y-122092614D02*
X152249999Y-122164042D01*
X152249999Y-122164042D02*
X152178571Y-122306900D01*
X152178571Y-122306900D02*
X152178571Y-122592614D01*
X152178571Y-122592614D02*
X152249999Y-122735471D01*
X152249999Y-122735471D02*
X152321428Y-122806900D01*
X152321428Y-122806900D02*
X152464285Y-122878328D01*
X152464285Y-122878328D02*
X152749999Y-122878328D01*
X152749999Y-122878328D02*
X152892857Y-122806900D01*
X152892857Y-122806900D02*
X152964285Y-122735471D01*
X152964285Y-122735471D02*
X153035714Y-122592614D01*
X153035714Y-122592614D02*
X153035714Y-122306900D01*
X153035714Y-122306900D02*
X152964285Y-122164042D01*
X152964285Y-122164042D02*
X152892857Y-122092614D01*
X152892857Y-122092614D02*
X152749999Y-122021185D01*
X154821427Y-122878328D02*
X154821427Y-121878328D01*
X154821427Y-121378328D02*
X154749999Y-121449757D01*
X154749999Y-121449757D02*
X154821427Y-121521185D01*
X154821427Y-121521185D02*
X154892856Y-121449757D01*
X154892856Y-121449757D02*
X154821427Y-121378328D01*
X154821427Y-121378328D02*
X154821427Y-121521185D01*
X155535713Y-121878328D02*
X155535713Y-122878328D01*
X155535713Y-122021185D02*
X155607142Y-121949757D01*
X155607142Y-121949757D02*
X155749999Y-121878328D01*
X155749999Y-121878328D02*
X155964285Y-121878328D01*
X155964285Y-121878328D02*
X156107142Y-121949757D01*
X156107142Y-121949757D02*
X156178571Y-122092614D01*
X156178571Y-122092614D02*
X156178571Y-122878328D01*
X171000000Y-118000000D02*
X171000000Y-124586420D01*
X131000000Y-118000000D02*
X131000000Y-124586420D01*
X171000000Y-124000000D02*
X131000000Y-124000000D01*
X171000000Y-124000000D02*
X169873496Y-124586421D01*
X171000000Y-124000000D02*
X169873496Y-123413579D01*
X131000000Y-124000000D02*
X132126504Y-123413579D01*
X131000000Y-124000000D02*
X132126504Y-124586421D01*
D10*
X179574819Y-83809523D02*
X179574819Y-83190476D01*
X179574819Y-83190476D02*
X179955771Y-83523809D01*
X179955771Y-83523809D02*
X179955771Y-83380952D01*
X179955771Y-83380952D02*
X180003390Y-83285714D01*
X180003390Y-83285714D02*
X180051009Y-83238095D01*
X180051009Y-83238095D02*
X180146247Y-83190476D01*
X180146247Y-83190476D02*
X180384342Y-83190476D01*
X180384342Y-83190476D02*
X180479580Y-83238095D01*
X180479580Y-83238095D02*
X180527200Y-83285714D01*
X180527200Y-83285714D02*
X180574819Y-83380952D01*
X180574819Y-83380952D02*
X180574819Y-83666666D01*
X180574819Y-83666666D02*
X180527200Y-83761904D01*
X180527200Y-83761904D02*
X180479580Y-83809523D01*
X179574819Y-82571428D02*
X179574819Y-82476190D01*
X179574819Y-82476190D02*
X179622438Y-82380952D01*
X179622438Y-82380952D02*
X179670057Y-82333333D01*
X179670057Y-82333333D02*
X179765295Y-82285714D01*
X179765295Y-82285714D02*
X179955771Y-82238095D01*
X179955771Y-82238095D02*
X180193866Y-82238095D01*
X180193866Y-82238095D02*
X180384342Y-82285714D01*
X180384342Y-82285714D02*
X180479580Y-82333333D01*
X180479580Y-82333333D02*
X180527200Y-82380952D01*
X180527200Y-82380952D02*
X180574819Y-82476190D01*
X180574819Y-82476190D02*
X180574819Y-82571428D01*
X180574819Y-82571428D02*
X180527200Y-82666666D01*
X180527200Y-82666666D02*
X180479580Y-82714285D01*
X180479580Y-82714285D02*
X180384342Y-82761904D01*
X180384342Y-82761904D02*
X180193866Y-82809523D01*
X180193866Y-82809523D02*
X179955771Y-82809523D01*
X179955771Y-82809523D02*
X179765295Y-82761904D01*
X179765295Y-82761904D02*
X179670057Y-82714285D01*
X179670057Y-82714285D02*
X179622438Y-82666666D01*
X179622438Y-82666666D02*
X179574819Y-82571428D01*
D11*
X171500000Y-98000000D02*
X181856420Y-98000000D01*
X171500000Y-68000000D02*
X181856420Y-68000000D01*
X181270000Y-98000000D02*
X181270000Y-68000000D01*
X181270000Y-98000000D02*
X180683579Y-96873496D01*
X181270000Y-98000000D02*
X181856421Y-96873496D01*
X181270000Y-68000000D02*
X181856421Y-69126504D01*
X181270000Y-68000000D02*
X180683579Y-69126504D01*
M02*
