%TF.GenerationSoftware,KiCad,Pcbnew,5.1.9+dfsg1-1+deb11u1*%
%TF.CreationDate,2025-07-24T10:09:43+02:00*%
%TF.ProjectId,CART-Breakout,43415254-2d42-4726-9561-6b6f75742e6b,rev?*%
%TF.SameCoordinates,Original*%
%TF.FileFunction,Legend,Top*%
%TF.FilePolarity,Positive*%
%FSLAX46Y46*%
G04 Gerber Fmt 4.6, Leading zero omitted, Abs format (unit mm)*
G04 Created by KiCad (PCBNEW 5.1.9+dfsg1-1+deb11u1) date 2025-07-24 10:09:43*
%MOMM*%
%LPD*%
G01*
G04 APERTURE LIST*
%ADD10C,0.300000*%
%ADD11C,0.200000*%
%ADD12C,0.120000*%
%ADD13C,0.150000*%
G04 APERTURE END LIST*
D10*
X135915714Y-102278571D02*
X135415714Y-101564285D01*
X135058571Y-102278571D02*
X135058571Y-100778571D01*
X135630000Y-100778571D01*
X135772857Y-100850000D01*
X135844285Y-100921428D01*
X135915714Y-101064285D01*
X135915714Y-101278571D01*
X135844285Y-101421428D01*
X135772857Y-101492857D01*
X135630000Y-101564285D01*
X135058571Y-101564285D01*
X137130000Y-102207142D02*
X136987142Y-102278571D01*
X136701428Y-102278571D01*
X136558571Y-102207142D01*
X136487142Y-102064285D01*
X136487142Y-101492857D01*
X136558571Y-101350000D01*
X136701428Y-101278571D01*
X136987142Y-101278571D01*
X137130000Y-101350000D01*
X137201428Y-101492857D01*
X137201428Y-101635714D01*
X136487142Y-101778571D01*
X137630000Y-101278571D02*
X138201428Y-101278571D01*
X137844285Y-100778571D02*
X137844285Y-102064285D01*
X137915714Y-102207142D01*
X138058571Y-102278571D01*
X138201428Y-102278571D01*
X138701428Y-102278571D02*
X138701428Y-101278571D01*
X138701428Y-101564285D02*
X138772857Y-101421428D01*
X138844285Y-101350000D01*
X138987142Y-101278571D01*
X139130000Y-101278571D01*
X139844285Y-102278571D02*
X139701428Y-102207142D01*
X139630000Y-102135714D01*
X139558571Y-101992857D01*
X139558571Y-101564285D01*
X139630000Y-101421428D01*
X139701428Y-101350000D01*
X139844285Y-101278571D01*
X140058571Y-101278571D01*
X140201428Y-101350000D01*
X140272857Y-101421428D01*
X140344285Y-101564285D01*
X140344285Y-101992857D01*
X140272857Y-102135714D01*
X140201428Y-102207142D01*
X140058571Y-102278571D01*
X139844285Y-102278571D01*
X141487142Y-101492857D02*
X141701428Y-101564285D01*
X141772857Y-101635714D01*
X141844285Y-101778571D01*
X141844285Y-101992857D01*
X141772857Y-102135714D01*
X141701428Y-102207142D01*
X141558571Y-102278571D01*
X140987142Y-102278571D01*
X140987142Y-100778571D01*
X141487142Y-100778571D01*
X141630000Y-100850000D01*
X141701428Y-100921428D01*
X141772857Y-101064285D01*
X141772857Y-101207142D01*
X141701428Y-101350000D01*
X141630000Y-101421428D01*
X141487142Y-101492857D01*
X140987142Y-101492857D01*
X142487142Y-102278571D02*
X142487142Y-101278571D01*
X142487142Y-100778571D02*
X142415714Y-100850000D01*
X142487142Y-100921428D01*
X142558571Y-100850000D01*
X142487142Y-100778571D01*
X142487142Y-100921428D01*
X142987142Y-101278571D02*
X143558571Y-101278571D01*
X143201428Y-100778571D02*
X143201428Y-102064285D01*
X143272857Y-102207142D01*
X143415714Y-102278571D01*
X143558571Y-102278571D01*
X145915714Y-102278571D02*
X145201428Y-102278571D01*
X145201428Y-100778571D01*
X147058571Y-102278571D02*
X147058571Y-101492857D01*
X146987142Y-101350000D01*
X146844285Y-101278571D01*
X146558571Y-101278571D01*
X146415714Y-101350000D01*
X147058571Y-102207142D02*
X146915714Y-102278571D01*
X146558571Y-102278571D01*
X146415714Y-102207142D01*
X146344285Y-102064285D01*
X146344285Y-101921428D01*
X146415714Y-101778571D01*
X146558571Y-101707142D01*
X146915714Y-101707142D01*
X147058571Y-101635714D01*
X147772857Y-102278571D02*
X147772857Y-100778571D01*
X147772857Y-101350000D02*
X147915714Y-101278571D01*
X148201428Y-101278571D01*
X148344285Y-101350000D01*
X148415714Y-101421428D01*
X148487142Y-101564285D01*
X148487142Y-101992857D01*
X148415714Y-102135714D01*
X148344285Y-102207142D01*
X148201428Y-102278571D01*
X147915714Y-102278571D01*
X147772857Y-102207142D01*
X150701428Y-102850000D02*
X150630000Y-102778571D01*
X150487142Y-102564285D01*
X150415714Y-102421428D01*
X150344285Y-102207142D01*
X150272857Y-101850000D01*
X150272857Y-101564285D01*
X150344285Y-101207142D01*
X150415714Y-100992857D01*
X150487142Y-100850000D01*
X150630000Y-100635714D01*
X150701428Y-100564285D01*
X152130000Y-102135714D02*
X152058571Y-102207142D01*
X151844285Y-102278571D01*
X151701428Y-102278571D01*
X151487142Y-102207142D01*
X151344285Y-102064285D01*
X151272857Y-101921428D01*
X151201428Y-101635714D01*
X151201428Y-101421428D01*
X151272857Y-101135714D01*
X151344285Y-100992857D01*
X151487142Y-100850000D01*
X151701428Y-100778571D01*
X151844285Y-100778571D01*
X152058571Y-100850000D01*
X152130000Y-100921428D01*
X152630000Y-102850000D02*
X152701428Y-102778571D01*
X152844285Y-102564285D01*
X152915714Y-102421428D01*
X152987142Y-102207142D01*
X153058571Y-101850000D01*
X153058571Y-101564285D01*
X152987142Y-101207142D01*
X152915714Y-100992857D01*
X152844285Y-100850000D01*
X152701428Y-100635714D01*
X152630000Y-100564285D01*
X154844285Y-100921428D02*
X154915714Y-100850000D01*
X155058571Y-100778571D01*
X155415714Y-100778571D01*
X155558571Y-100850000D01*
X155630000Y-100921428D01*
X155701428Y-101064285D01*
X155701428Y-101207142D01*
X155630000Y-101421428D01*
X154772857Y-102278571D01*
X155701428Y-102278571D01*
X156630000Y-100778571D02*
X156772857Y-100778571D01*
X156915714Y-100850000D01*
X156987142Y-100921428D01*
X157058571Y-101064285D01*
X157130000Y-101350000D01*
X157130000Y-101707142D01*
X157058571Y-101992857D01*
X156987142Y-102135714D01*
X156915714Y-102207142D01*
X156772857Y-102278571D01*
X156630000Y-102278571D01*
X156487142Y-102207142D01*
X156415714Y-102135714D01*
X156344285Y-101992857D01*
X156272857Y-101707142D01*
X156272857Y-101350000D01*
X156344285Y-101064285D01*
X156415714Y-100921428D01*
X156487142Y-100850000D01*
X156630000Y-100778571D01*
X158558571Y-102278571D02*
X157701428Y-102278571D01*
X158130000Y-102278571D02*
X158130000Y-100778571D01*
X157987142Y-100992857D01*
X157844285Y-101135714D01*
X157701428Y-101207142D01*
X159272857Y-102278571D02*
X159558571Y-102278571D01*
X159701428Y-102207142D01*
X159772857Y-102135714D01*
X159915714Y-101921428D01*
X159987142Y-101635714D01*
X159987142Y-101064285D01*
X159915714Y-100921428D01*
X159844285Y-100850000D01*
X159701428Y-100778571D01*
X159415714Y-100778571D01*
X159272857Y-100850000D01*
X159201428Y-100921428D01*
X159130000Y-101064285D01*
X159130000Y-101421428D01*
X159201428Y-101564285D01*
X159272857Y-101635714D01*
X159415714Y-101707142D01*
X159701428Y-101707142D01*
X159844285Y-101635714D01*
X159915714Y-101564285D01*
X159987142Y-101421428D01*
X161701428Y-100707142D02*
X160415714Y-102635714D01*
X162130000Y-100921428D02*
X162201428Y-100850000D01*
X162344285Y-100778571D01*
X162701428Y-100778571D01*
X162844285Y-100850000D01*
X162915714Y-100921428D01*
X162987142Y-101064285D01*
X162987142Y-101207142D01*
X162915714Y-101421428D01*
X162058571Y-102278571D01*
X162987142Y-102278571D01*
X163915714Y-100778571D02*
X164058571Y-100778571D01*
X164201428Y-100850000D01*
X164272857Y-100921428D01*
X164344285Y-101064285D01*
X164415714Y-101350000D01*
X164415714Y-101707142D01*
X164344285Y-101992857D01*
X164272857Y-102135714D01*
X164201428Y-102207142D01*
X164058571Y-102278571D01*
X163915714Y-102278571D01*
X163772857Y-102207142D01*
X163701428Y-102135714D01*
X163630000Y-101992857D01*
X163558571Y-101707142D01*
X163558571Y-101350000D01*
X163630000Y-101064285D01*
X163701428Y-100921428D01*
X163772857Y-100850000D01*
X163915714Y-100778571D01*
X164987142Y-100921428D02*
X165058571Y-100850000D01*
X165201428Y-100778571D01*
X165558571Y-100778571D01*
X165701428Y-100850000D01*
X165772857Y-100921428D01*
X165844285Y-101064285D01*
X165844285Y-101207142D01*
X165772857Y-101421428D01*
X164915714Y-102278571D01*
X165844285Y-102278571D01*
X167201428Y-100778571D02*
X166487142Y-100778571D01*
X166415714Y-101492857D01*
X166487142Y-101421428D01*
X166630000Y-101350000D01*
X166987142Y-101350000D01*
X167130000Y-101421428D01*
X167201428Y-101492857D01*
X167272857Y-101635714D01*
X167272857Y-101992857D01*
X167201428Y-102135714D01*
X167130000Y-102207142D01*
X166987142Y-102278571D01*
X166630000Y-102278571D01*
X166487142Y-102207142D01*
X166415714Y-102135714D01*
X136380000Y-98040000D02*
X137094285Y-98040000D01*
X136237142Y-98468571D02*
X136737142Y-96968571D01*
X137237142Y-98468571D01*
X137522857Y-97468571D02*
X138094285Y-97468571D01*
X137737142Y-96968571D02*
X137737142Y-98254285D01*
X137808571Y-98397142D01*
X137951428Y-98468571D01*
X138094285Y-98468571D01*
X139237142Y-98468571D02*
X139237142Y-97682857D01*
X139165714Y-97540000D01*
X139022857Y-97468571D01*
X138737142Y-97468571D01*
X138594285Y-97540000D01*
X139237142Y-98397142D02*
X139094285Y-98468571D01*
X138737142Y-98468571D01*
X138594285Y-98397142D01*
X138522857Y-98254285D01*
X138522857Y-98111428D01*
X138594285Y-97968571D01*
X138737142Y-97897142D01*
X139094285Y-97897142D01*
X139237142Y-97825714D01*
X139951428Y-98468571D02*
X139951428Y-97468571D01*
X139951428Y-97754285D02*
X140022857Y-97611428D01*
X140094285Y-97540000D01*
X140237142Y-97468571D01*
X140380000Y-97468571D01*
X140880000Y-98468571D02*
X140880000Y-97468571D01*
X140880000Y-96968571D02*
X140808571Y-97040000D01*
X140880000Y-97111428D01*
X140951428Y-97040000D01*
X140880000Y-96968571D01*
X140880000Y-97111428D01*
X142594285Y-96968571D02*
X143594285Y-98468571D01*
X143594285Y-96968571D02*
X142594285Y-98468571D01*
X144880000Y-98468571D02*
X144165714Y-98468571D01*
X144165714Y-96968571D01*
X146451428Y-96897142D02*
X145165714Y-98825714D01*
X146808571Y-96968571D02*
X147808571Y-98468571D01*
X147808571Y-96968571D02*
X146808571Y-98468571D01*
X148380000Y-97682857D02*
X148880000Y-97682857D01*
X149094285Y-98468571D02*
X148380000Y-98468571D01*
X148380000Y-96968571D01*
X149094285Y-96968571D01*
X151737142Y-98325714D02*
X151665714Y-98397142D01*
X151451428Y-98468571D01*
X151308571Y-98468571D01*
X151094285Y-98397142D01*
X150951428Y-98254285D01*
X150880000Y-98111428D01*
X150808571Y-97825714D01*
X150808571Y-97611428D01*
X150880000Y-97325714D01*
X150951428Y-97182857D01*
X151094285Y-97040000D01*
X151308571Y-96968571D01*
X151451428Y-96968571D01*
X151665714Y-97040000D01*
X151737142Y-97111428D01*
X153022857Y-98468571D02*
X153022857Y-97682857D01*
X152951428Y-97540000D01*
X152808571Y-97468571D01*
X152522857Y-97468571D01*
X152380000Y-97540000D01*
X153022857Y-98397142D02*
X152880000Y-98468571D01*
X152522857Y-98468571D01*
X152380000Y-98397142D01*
X152308571Y-98254285D01*
X152308571Y-98111428D01*
X152380000Y-97968571D01*
X152522857Y-97897142D01*
X152880000Y-97897142D01*
X153022857Y-97825714D01*
X153737142Y-98468571D02*
X153737142Y-97468571D01*
X153737142Y-97754285D02*
X153808571Y-97611428D01*
X153880000Y-97540000D01*
X154022857Y-97468571D01*
X154165714Y-97468571D01*
X154451428Y-97468571D02*
X155022857Y-97468571D01*
X154665714Y-96968571D02*
X154665714Y-98254285D01*
X154737142Y-98397142D01*
X154880000Y-98468571D01*
X155022857Y-98468571D01*
X157165714Y-97682857D02*
X157380000Y-97754285D01*
X157451428Y-97825714D01*
X157522857Y-97968571D01*
X157522857Y-98182857D01*
X157451428Y-98325714D01*
X157380000Y-98397142D01*
X157237142Y-98468571D01*
X156665714Y-98468571D01*
X156665714Y-96968571D01*
X157165714Y-96968571D01*
X157308571Y-97040000D01*
X157380000Y-97111428D01*
X157451428Y-97254285D01*
X157451428Y-97397142D01*
X157380000Y-97540000D01*
X157308571Y-97611428D01*
X157165714Y-97682857D01*
X156665714Y-97682857D01*
X158165714Y-98468571D02*
X158165714Y-97468571D01*
X158165714Y-97754285D02*
X158237142Y-97611428D01*
X158308571Y-97540000D01*
X158451428Y-97468571D01*
X158594285Y-97468571D01*
X159665714Y-98397142D02*
X159522857Y-98468571D01*
X159237142Y-98468571D01*
X159094285Y-98397142D01*
X159022857Y-98254285D01*
X159022857Y-97682857D01*
X159094285Y-97540000D01*
X159237142Y-97468571D01*
X159522857Y-97468571D01*
X159665714Y-97540000D01*
X159737142Y-97682857D01*
X159737142Y-97825714D01*
X159022857Y-97968571D01*
X161022857Y-98468571D02*
X161022857Y-97682857D01*
X160951428Y-97540000D01*
X160808571Y-97468571D01*
X160522857Y-97468571D01*
X160380000Y-97540000D01*
X161022857Y-98397142D02*
X160880000Y-98468571D01*
X160522857Y-98468571D01*
X160380000Y-98397142D01*
X160308571Y-98254285D01*
X160308571Y-98111428D01*
X160380000Y-97968571D01*
X160522857Y-97897142D01*
X160880000Y-97897142D01*
X161022857Y-97825714D01*
X161737142Y-98468571D02*
X161737142Y-96968571D01*
X161880000Y-97897142D02*
X162308571Y-98468571D01*
X162308571Y-97468571D02*
X161737142Y-98040000D01*
X163165714Y-98468571D02*
X163022857Y-98397142D01*
X162951428Y-98325714D01*
X162880000Y-98182857D01*
X162880000Y-97754285D01*
X162951428Y-97611428D01*
X163022857Y-97540000D01*
X163165714Y-97468571D01*
X163380000Y-97468571D01*
X163522857Y-97540000D01*
X163594285Y-97611428D01*
X163665714Y-97754285D01*
X163665714Y-98182857D01*
X163594285Y-98325714D01*
X163522857Y-98397142D01*
X163380000Y-98468571D01*
X163165714Y-98468571D01*
X164951428Y-97468571D02*
X164951428Y-98468571D01*
X164308571Y-97468571D02*
X164308571Y-98254285D01*
X164380000Y-98397142D01*
X164522857Y-98468571D01*
X164737142Y-98468571D01*
X164880000Y-98397142D01*
X164951428Y-98325714D01*
X165451428Y-97468571D02*
X166022857Y-97468571D01*
X165665714Y-96968571D02*
X165665714Y-98254285D01*
X165737142Y-98397142D01*
X165880000Y-98468571D01*
X166022857Y-98468571D01*
D11*
X131262380Y-94210000D02*
X130262380Y-94210000D01*
X130262380Y-93829047D01*
X130310000Y-93733809D01*
X130357619Y-93686190D01*
X130452857Y-93638571D01*
X130595714Y-93638571D01*
X130690952Y-93686190D01*
X130738571Y-93733809D01*
X130786190Y-93829047D01*
X130786190Y-94210000D01*
X131262380Y-93210000D02*
X130262380Y-93210000D01*
X130738571Y-93210000D02*
X130738571Y-92638571D01*
X131262380Y-92638571D02*
X130262380Y-92638571D01*
X131262380Y-92162380D02*
X130262380Y-92162380D01*
X130357619Y-91733809D02*
X130310000Y-91686190D01*
X130262380Y-91590952D01*
X130262380Y-91352857D01*
X130310000Y-91257619D01*
X130357619Y-91210000D01*
X130452857Y-91162380D01*
X130548095Y-91162380D01*
X130690952Y-91210000D01*
X131262380Y-91781428D01*
X131262380Y-91162380D01*
X133802380Y-93495714D02*
X133326190Y-93829047D01*
X133802380Y-94067142D02*
X132802380Y-94067142D01*
X132802380Y-93686190D01*
X132850000Y-93590952D01*
X132897619Y-93543333D01*
X132992857Y-93495714D01*
X133135714Y-93495714D01*
X133230952Y-93543333D01*
X133278571Y-93590952D01*
X133326190Y-93686190D01*
X133326190Y-94067142D01*
X132754761Y-92352857D02*
X134040476Y-93210000D01*
X132370000Y-92257619D02*
X132370000Y-91114761D01*
X132802380Y-92114761D02*
X133802380Y-91876666D01*
X133088095Y-91686190D01*
X133802380Y-91495714D01*
X132802380Y-91257619D01*
X136056666Y-93900476D02*
X136056666Y-93424285D01*
X136342380Y-93995714D02*
X135342380Y-93662380D01*
X136342380Y-93329047D01*
X136342380Y-92471904D02*
X136342380Y-93043333D01*
X136342380Y-92757619D02*
X135342380Y-92757619D01*
X135485238Y-92852857D01*
X135580476Y-92948095D01*
X135628095Y-93043333D01*
X135342380Y-91852857D02*
X135342380Y-91757619D01*
X135390000Y-91662380D01*
X135437619Y-91614761D01*
X135532857Y-91567142D01*
X135723333Y-91519523D01*
X135961428Y-91519523D01*
X136151904Y-91567142D01*
X136247142Y-91614761D01*
X136294761Y-91662380D01*
X136342380Y-91757619D01*
X136342380Y-91852857D01*
X136294761Y-91948095D01*
X136247142Y-91995714D01*
X136151904Y-92043333D01*
X135961428Y-92090952D01*
X135723333Y-92090952D01*
X135532857Y-92043333D01*
X135437619Y-91995714D01*
X135390000Y-91948095D01*
X135342380Y-91852857D01*
X138596666Y-93900476D02*
X138596666Y-93424285D01*
X138882380Y-93995714D02*
X137882380Y-93662380D01*
X138882380Y-93329047D01*
X138882380Y-92471904D02*
X138882380Y-93043333D01*
X138882380Y-92757619D02*
X137882380Y-92757619D01*
X138025238Y-92852857D01*
X138120476Y-92948095D01*
X138168095Y-93043333D01*
X138882380Y-91519523D02*
X138882380Y-92090952D01*
X138882380Y-91805238D02*
X137882380Y-91805238D01*
X138025238Y-91900476D01*
X138120476Y-91995714D01*
X138168095Y-92090952D01*
X141422380Y-93448095D02*
X140422380Y-93448095D01*
X140422380Y-93210000D01*
X140470000Y-93067142D01*
X140565238Y-92971904D01*
X140660476Y-92924285D01*
X140850952Y-92876666D01*
X140993809Y-92876666D01*
X141184285Y-92924285D01*
X141279523Y-92971904D01*
X141374761Y-93067142D01*
X141422380Y-93210000D01*
X141422380Y-93448095D01*
X140422380Y-92543333D02*
X140422380Y-91876666D01*
X141422380Y-92305238D01*
X146502380Y-93448095D02*
X145502380Y-93448095D01*
X145502380Y-93210000D01*
X145550000Y-93067142D01*
X145645238Y-92971904D01*
X145740476Y-92924285D01*
X145930952Y-92876666D01*
X146073809Y-92876666D01*
X146264285Y-92924285D01*
X146359523Y-92971904D01*
X146454761Y-93067142D01*
X146502380Y-93210000D01*
X146502380Y-93448095D01*
X145502380Y-92543333D02*
X145502380Y-91924285D01*
X145883333Y-92257619D01*
X145883333Y-92114761D01*
X145930952Y-92019523D01*
X145978571Y-91971904D01*
X146073809Y-91924285D01*
X146311904Y-91924285D01*
X146407142Y-91971904D01*
X146454761Y-92019523D01*
X146502380Y-92114761D01*
X146502380Y-92400476D01*
X146454761Y-92495714D01*
X146407142Y-92543333D01*
X148756666Y-93900476D02*
X148756666Y-93424285D01*
X149042380Y-93995714D02*
X148042380Y-93662380D01*
X149042380Y-93329047D01*
X149042380Y-92471904D02*
X149042380Y-93043333D01*
X149042380Y-92757619D02*
X148042380Y-92757619D01*
X148185238Y-92852857D01*
X148280476Y-92948095D01*
X148328095Y-93043333D01*
X148137619Y-92090952D02*
X148090000Y-92043333D01*
X148042380Y-91948095D01*
X148042380Y-91710000D01*
X148090000Y-91614761D01*
X148137619Y-91567142D01*
X148232857Y-91519523D01*
X148328095Y-91519523D01*
X148470952Y-91567142D01*
X149042380Y-92138571D01*
X149042380Y-91519523D01*
X151296666Y-93424285D02*
X151296666Y-92948095D01*
X151582380Y-93519523D02*
X150582380Y-93186190D01*
X151582380Y-92852857D01*
X151582380Y-92471904D02*
X151582380Y-92281428D01*
X151534761Y-92186190D01*
X151487142Y-92138571D01*
X151344285Y-92043333D01*
X151153809Y-91995714D01*
X150772857Y-91995714D01*
X150677619Y-92043333D01*
X150630000Y-92090952D01*
X150582380Y-92186190D01*
X150582380Y-92376666D01*
X150630000Y-92471904D01*
X150677619Y-92519523D01*
X150772857Y-92567142D01*
X151010952Y-92567142D01*
X151106190Y-92519523D01*
X151153809Y-92471904D01*
X151201428Y-92376666D01*
X151201428Y-92186190D01*
X151153809Y-92090952D01*
X151106190Y-92043333D01*
X151010952Y-91995714D01*
X153836666Y-93424285D02*
X153836666Y-92948095D01*
X154122380Y-93519523D02*
X153122380Y-93186190D01*
X154122380Y-92852857D01*
X153550952Y-92376666D02*
X153503333Y-92471904D01*
X153455714Y-92519523D01*
X153360476Y-92567142D01*
X153312857Y-92567142D01*
X153217619Y-92519523D01*
X153170000Y-92471904D01*
X153122380Y-92376666D01*
X153122380Y-92186190D01*
X153170000Y-92090952D01*
X153217619Y-92043333D01*
X153312857Y-91995714D01*
X153360476Y-91995714D01*
X153455714Y-92043333D01*
X153503333Y-92090952D01*
X153550952Y-92186190D01*
X153550952Y-92376666D01*
X153598571Y-92471904D01*
X153646190Y-92519523D01*
X153741428Y-92567142D01*
X153931904Y-92567142D01*
X154027142Y-92519523D01*
X154074761Y-92471904D01*
X154122380Y-92376666D01*
X154122380Y-92186190D01*
X154074761Y-92090952D01*
X154027142Y-92043333D01*
X153931904Y-91995714D01*
X153741428Y-91995714D01*
X153646190Y-92043333D01*
X153598571Y-92090952D01*
X153550952Y-92186190D01*
X156376666Y-93424285D02*
X156376666Y-92948095D01*
X156662380Y-93519523D02*
X155662380Y-93186190D01*
X156662380Y-92852857D01*
X155662380Y-92614761D02*
X155662380Y-91948095D01*
X156662380Y-92376666D01*
X161456666Y-93424285D02*
X161456666Y-92948095D01*
X161742380Y-93519523D02*
X160742380Y-93186190D01*
X161742380Y-92852857D01*
X160742380Y-92090952D02*
X160742380Y-92281428D01*
X160790000Y-92376666D01*
X160837619Y-92424285D01*
X160980476Y-92519523D01*
X161170952Y-92567142D01*
X161551904Y-92567142D01*
X161647142Y-92519523D01*
X161694761Y-92471904D01*
X161742380Y-92376666D01*
X161742380Y-92186190D01*
X161694761Y-92090952D01*
X161647142Y-92043333D01*
X161551904Y-91995714D01*
X161313809Y-91995714D01*
X161218571Y-92043333D01*
X161170952Y-92090952D01*
X161123333Y-92186190D01*
X161123333Y-92376666D01*
X161170952Y-92471904D01*
X161218571Y-92519523D01*
X161313809Y-92567142D01*
X163996666Y-93424285D02*
X163996666Y-92948095D01*
X164282380Y-93519523D02*
X163282380Y-93186190D01*
X164282380Y-92852857D01*
X163282380Y-92043333D02*
X163282380Y-92519523D01*
X163758571Y-92567142D01*
X163710952Y-92519523D01*
X163663333Y-92424285D01*
X163663333Y-92186190D01*
X163710952Y-92090952D01*
X163758571Y-92043333D01*
X163853809Y-91995714D01*
X164091904Y-91995714D01*
X164187142Y-92043333D01*
X164234761Y-92090952D01*
X164282380Y-92186190D01*
X164282380Y-92424285D01*
X164234761Y-92519523D01*
X164187142Y-92567142D01*
X166536666Y-93424285D02*
X166536666Y-92948095D01*
X166822380Y-93519523D02*
X165822380Y-93186190D01*
X166822380Y-92852857D01*
X166155714Y-92090952D02*
X166822380Y-92090952D01*
X165774761Y-92329047D02*
X166489047Y-92567142D01*
X166489047Y-91948095D01*
X168410000Y-93471904D02*
X168362380Y-93567142D01*
X168362380Y-93710000D01*
X168410000Y-93852857D01*
X168505238Y-93948095D01*
X168600476Y-93995714D01*
X168790952Y-94043333D01*
X168933809Y-94043333D01*
X169124285Y-93995714D01*
X169219523Y-93948095D01*
X169314761Y-93852857D01*
X169362380Y-93710000D01*
X169362380Y-93614761D01*
X169314761Y-93471904D01*
X169267142Y-93424285D01*
X168933809Y-93424285D01*
X168933809Y-93614761D01*
X169362380Y-92995714D02*
X168362380Y-92995714D01*
X169362380Y-92424285D01*
X168362380Y-92424285D01*
X169362380Y-91948095D02*
X168362380Y-91948095D01*
X168362380Y-91710000D01*
X168410000Y-91567142D01*
X168505238Y-91471904D01*
X168600476Y-91424285D01*
X168790952Y-91376666D01*
X168933809Y-91376666D01*
X169124285Y-91424285D01*
X169219523Y-91471904D01*
X169314761Y-91567142D01*
X169362380Y-91710000D01*
X169362380Y-91948095D01*
X171902380Y-93376666D02*
X171426190Y-93710000D01*
X171902380Y-93948095D02*
X170902380Y-93948095D01*
X170902380Y-93567142D01*
X170950000Y-93471904D01*
X170997619Y-93424285D01*
X171092857Y-93376666D01*
X171235714Y-93376666D01*
X171330952Y-93424285D01*
X171378571Y-93471904D01*
X171426190Y-93567142D01*
X171426190Y-93948095D01*
X171902380Y-92948095D02*
X170902380Y-92948095D01*
X170902380Y-92710000D01*
X170950000Y-92567142D01*
X171045238Y-92471904D01*
X171140476Y-92424285D01*
X171330952Y-92376666D01*
X171473809Y-92376666D01*
X171664285Y-92424285D01*
X171759523Y-92471904D01*
X171854761Y-92567142D01*
X171902380Y-92710000D01*
X171902380Y-92948095D01*
X171235714Y-91519523D02*
X171902380Y-91519523D01*
X170854761Y-91757619D02*
X171569047Y-91995714D01*
X171569047Y-91376666D01*
X170470000Y-82232380D02*
X170470000Y-81280000D01*
X171854761Y-82041904D02*
X171902380Y-81899047D01*
X171902380Y-81660952D01*
X171854761Y-81565714D01*
X171807142Y-81518095D01*
X171711904Y-81470476D01*
X171616666Y-81470476D01*
X171521428Y-81518095D01*
X171473809Y-81565714D01*
X171426190Y-81660952D01*
X171378571Y-81851428D01*
X171330952Y-81946666D01*
X171283333Y-81994285D01*
X171188095Y-82041904D01*
X171092857Y-82041904D01*
X170997619Y-81994285D01*
X170950000Y-81946666D01*
X170902380Y-81851428D01*
X170902380Y-81613333D01*
X170950000Y-81470476D01*
X170470000Y-81280000D02*
X170470000Y-80327619D01*
X171235714Y-80613333D02*
X171902380Y-80613333D01*
X170854761Y-80851428D02*
X171569047Y-81089523D01*
X171569047Y-80470476D01*
X169076666Y-81994285D02*
X169076666Y-81518095D01*
X169362380Y-82089523D02*
X168362380Y-81756190D01*
X169362380Y-81422857D01*
X168362380Y-81184761D02*
X168362380Y-80565714D01*
X168743333Y-80899047D01*
X168743333Y-80756190D01*
X168790952Y-80660952D01*
X168838571Y-80613333D01*
X168933809Y-80565714D01*
X169171904Y-80565714D01*
X169267142Y-80613333D01*
X169314761Y-80660952D01*
X169362380Y-80756190D01*
X169362380Y-81041904D01*
X169314761Y-81137142D01*
X169267142Y-81184761D01*
X166536666Y-81994285D02*
X166536666Y-81518095D01*
X166822380Y-82089523D02*
X165822380Y-81756190D01*
X166822380Y-81422857D01*
X165917619Y-81137142D02*
X165870000Y-81089523D01*
X165822380Y-80994285D01*
X165822380Y-80756190D01*
X165870000Y-80660952D01*
X165917619Y-80613333D01*
X166012857Y-80565714D01*
X166108095Y-80565714D01*
X166250952Y-80613333D01*
X166822380Y-81184761D01*
X166822380Y-80565714D01*
X163996666Y-81994285D02*
X163996666Y-81518095D01*
X164282380Y-82089523D02*
X163282380Y-81756190D01*
X164282380Y-81422857D01*
X164282380Y-80565714D02*
X164282380Y-81137142D01*
X164282380Y-80851428D02*
X163282380Y-80851428D01*
X163425238Y-80946666D01*
X163520476Y-81041904D01*
X163568095Y-81137142D01*
X161456666Y-81994285D02*
X161456666Y-81518095D01*
X161742380Y-82089523D02*
X160742380Y-81756190D01*
X161742380Y-81422857D01*
X160742380Y-80899047D02*
X160742380Y-80803809D01*
X160790000Y-80708571D01*
X160837619Y-80660952D01*
X160932857Y-80613333D01*
X161123333Y-80565714D01*
X161361428Y-80565714D01*
X161551904Y-80613333D01*
X161647142Y-80660952D01*
X161694761Y-80708571D01*
X161742380Y-80803809D01*
X161742380Y-80899047D01*
X161694761Y-80994285D01*
X161647142Y-81041904D01*
X161551904Y-81089523D01*
X161361428Y-81137142D01*
X161123333Y-81137142D01*
X160932857Y-81089523D01*
X160837619Y-81041904D01*
X160790000Y-80994285D01*
X160742380Y-80899047D01*
X156662380Y-82018095D02*
X155662380Y-82018095D01*
X155662380Y-81780000D01*
X155710000Y-81637142D01*
X155805238Y-81541904D01*
X155900476Y-81494285D01*
X156090952Y-81446666D01*
X156233809Y-81446666D01*
X156424285Y-81494285D01*
X156519523Y-81541904D01*
X156614761Y-81637142D01*
X156662380Y-81780000D01*
X156662380Y-82018095D01*
X155995714Y-80589523D02*
X156662380Y-80589523D01*
X155614761Y-80827619D02*
X156329047Y-81065714D01*
X156329047Y-80446666D01*
X154122380Y-82018095D02*
X153122380Y-82018095D01*
X153122380Y-81780000D01*
X153170000Y-81637142D01*
X153265238Y-81541904D01*
X153360476Y-81494285D01*
X153550952Y-81446666D01*
X153693809Y-81446666D01*
X153884285Y-81494285D01*
X153979523Y-81541904D01*
X154074761Y-81637142D01*
X154122380Y-81780000D01*
X154122380Y-82018095D01*
X153122380Y-80541904D02*
X153122380Y-81018095D01*
X153598571Y-81065714D01*
X153550952Y-81018095D01*
X153503333Y-80922857D01*
X153503333Y-80684761D01*
X153550952Y-80589523D01*
X153598571Y-80541904D01*
X153693809Y-80494285D01*
X153931904Y-80494285D01*
X154027142Y-80541904D01*
X154074761Y-80589523D01*
X154122380Y-80684761D01*
X154122380Y-80922857D01*
X154074761Y-81018095D01*
X154027142Y-81065714D01*
X151582380Y-82018095D02*
X150582380Y-82018095D01*
X150582380Y-81780000D01*
X150630000Y-81637142D01*
X150725238Y-81541904D01*
X150820476Y-81494285D01*
X151010952Y-81446666D01*
X151153809Y-81446666D01*
X151344285Y-81494285D01*
X151439523Y-81541904D01*
X151534761Y-81637142D01*
X151582380Y-81780000D01*
X151582380Y-82018095D01*
X150677619Y-81065714D02*
X150630000Y-81018095D01*
X150582380Y-80922857D01*
X150582380Y-80684761D01*
X150630000Y-80589523D01*
X150677619Y-80541904D01*
X150772857Y-80494285D01*
X150868095Y-80494285D01*
X151010952Y-80541904D01*
X151582380Y-81113333D01*
X151582380Y-80494285D01*
X149042380Y-82018095D02*
X148042380Y-82018095D01*
X148042380Y-81780000D01*
X148090000Y-81637142D01*
X148185238Y-81541904D01*
X148280476Y-81494285D01*
X148470952Y-81446666D01*
X148613809Y-81446666D01*
X148804285Y-81494285D01*
X148899523Y-81541904D01*
X148994761Y-81637142D01*
X149042380Y-81780000D01*
X149042380Y-82018095D01*
X149042380Y-80494285D02*
X149042380Y-81065714D01*
X149042380Y-80780000D02*
X148042380Y-80780000D01*
X148185238Y-80875238D01*
X148280476Y-80970476D01*
X148328095Y-81065714D01*
X146502380Y-82018095D02*
X145502380Y-82018095D01*
X145502380Y-81780000D01*
X145550000Y-81637142D01*
X145645238Y-81541904D01*
X145740476Y-81494285D01*
X145930952Y-81446666D01*
X146073809Y-81446666D01*
X146264285Y-81494285D01*
X146359523Y-81541904D01*
X146454761Y-81637142D01*
X146502380Y-81780000D01*
X146502380Y-82018095D01*
X145502380Y-80827619D02*
X145502380Y-80732380D01*
X145550000Y-80637142D01*
X145597619Y-80589523D01*
X145692857Y-80541904D01*
X145883333Y-80494285D01*
X146121428Y-80494285D01*
X146311904Y-80541904D01*
X146407142Y-80589523D01*
X146454761Y-80637142D01*
X146502380Y-80732380D01*
X146502380Y-80827619D01*
X146454761Y-80922857D01*
X146407142Y-80970476D01*
X146311904Y-81018095D01*
X146121428Y-81065714D01*
X145883333Y-81065714D01*
X145692857Y-81018095D01*
X145597619Y-80970476D01*
X145550000Y-80922857D01*
X145502380Y-80827619D01*
X141422380Y-82018095D02*
X140422380Y-82018095D01*
X140422380Y-81780000D01*
X140470000Y-81637142D01*
X140565238Y-81541904D01*
X140660476Y-81494285D01*
X140850952Y-81446666D01*
X140993809Y-81446666D01*
X141184285Y-81494285D01*
X141279523Y-81541904D01*
X141374761Y-81637142D01*
X141422380Y-81780000D01*
X141422380Y-82018095D01*
X140422380Y-80589523D02*
X140422380Y-80780000D01*
X140470000Y-80875238D01*
X140517619Y-80922857D01*
X140660476Y-81018095D01*
X140850952Y-81065714D01*
X141231904Y-81065714D01*
X141327142Y-81018095D01*
X141374761Y-80970476D01*
X141422380Y-80875238D01*
X141422380Y-80684761D01*
X141374761Y-80589523D01*
X141327142Y-80541904D01*
X141231904Y-80494285D01*
X140993809Y-80494285D01*
X140898571Y-80541904D01*
X140850952Y-80589523D01*
X140803333Y-80684761D01*
X140803333Y-80875238D01*
X140850952Y-80970476D01*
X140898571Y-81018095D01*
X140993809Y-81065714D01*
X137450000Y-82232380D02*
X137450000Y-81280000D01*
X138834761Y-82041904D02*
X138882380Y-81899047D01*
X138882380Y-81660952D01*
X138834761Y-81565714D01*
X138787142Y-81518095D01*
X138691904Y-81470476D01*
X138596666Y-81470476D01*
X138501428Y-81518095D01*
X138453809Y-81565714D01*
X138406190Y-81660952D01*
X138358571Y-81851428D01*
X138310952Y-81946666D01*
X138263333Y-81994285D01*
X138168095Y-82041904D01*
X138072857Y-82041904D01*
X137977619Y-81994285D01*
X137930000Y-81946666D01*
X137882380Y-81851428D01*
X137882380Y-81613333D01*
X137930000Y-81470476D01*
X137450000Y-81280000D02*
X137450000Y-80327619D01*
X137882380Y-80565714D02*
X137882380Y-81041904D01*
X138358571Y-81089523D01*
X138310952Y-81041904D01*
X138263333Y-80946666D01*
X138263333Y-80708571D01*
X138310952Y-80613333D01*
X138358571Y-80565714D01*
X138453809Y-80518095D01*
X138691904Y-80518095D01*
X138787142Y-80565714D01*
X138834761Y-80613333D01*
X138882380Y-80708571D01*
X138882380Y-80946666D01*
X138834761Y-81041904D01*
X138787142Y-81089523D01*
X135342380Y-82613333D02*
X136342380Y-82280000D01*
X135342380Y-81946666D01*
X136247142Y-81041904D02*
X136294761Y-81089523D01*
X136342380Y-81232380D01*
X136342380Y-81327619D01*
X136294761Y-81470476D01*
X136199523Y-81565714D01*
X136104285Y-81613333D01*
X135913809Y-81660952D01*
X135770952Y-81660952D01*
X135580476Y-81613333D01*
X135485238Y-81565714D01*
X135390000Y-81470476D01*
X135342380Y-81327619D01*
X135342380Y-81232380D01*
X135390000Y-81089523D01*
X135437619Y-81041904D01*
X136247142Y-80041904D02*
X136294761Y-80089523D01*
X136342380Y-80232380D01*
X136342380Y-80327619D01*
X136294761Y-80470476D01*
X136199523Y-80565714D01*
X136104285Y-80613333D01*
X135913809Y-80660952D01*
X135770952Y-80660952D01*
X135580476Y-80613333D01*
X135485238Y-80565714D01*
X135390000Y-80470476D01*
X135342380Y-80327619D01*
X135342380Y-80232380D01*
X135390000Y-80089523D01*
X135437619Y-80041904D01*
X133802380Y-81946666D02*
X133326190Y-82280000D01*
X133802380Y-82518095D02*
X132802380Y-82518095D01*
X132802380Y-82137142D01*
X132850000Y-82041904D01*
X132897619Y-81994285D01*
X132992857Y-81946666D01*
X133135714Y-81946666D01*
X133230952Y-81994285D01*
X133278571Y-82041904D01*
X133326190Y-82137142D01*
X133326190Y-82518095D01*
X133802380Y-81518095D02*
X132802380Y-81518095D01*
X132802380Y-81280000D01*
X132850000Y-81137142D01*
X132945238Y-81041904D01*
X133040476Y-80994285D01*
X133230952Y-80946666D01*
X133373809Y-80946666D01*
X133564285Y-80994285D01*
X133659523Y-81041904D01*
X133754761Y-81137142D01*
X133802380Y-81280000D01*
X133802380Y-81518095D01*
X132802380Y-80041904D02*
X132802380Y-80518095D01*
X133278571Y-80565714D01*
X133230952Y-80518095D01*
X133183333Y-80422857D01*
X133183333Y-80184761D01*
X133230952Y-80089523D01*
X133278571Y-80041904D01*
X133373809Y-79994285D01*
X133611904Y-79994285D01*
X133707142Y-80041904D01*
X133754761Y-80089523D01*
X133802380Y-80184761D01*
X133802380Y-80422857D01*
X133754761Y-80518095D01*
X133707142Y-80565714D01*
X129830000Y-83065714D02*
X129830000Y-82065714D01*
X131167142Y-82256190D02*
X131214761Y-82303809D01*
X131262380Y-82446666D01*
X131262380Y-82541904D01*
X131214761Y-82684761D01*
X131119523Y-82780000D01*
X131024285Y-82827619D01*
X130833809Y-82875238D01*
X130690952Y-82875238D01*
X130500476Y-82827619D01*
X130405238Y-82780000D01*
X130310000Y-82684761D01*
X130262380Y-82541904D01*
X130262380Y-82446666D01*
X130310000Y-82303809D01*
X130357619Y-82256190D01*
X129830000Y-82065714D02*
X129830000Y-81065714D01*
X131167142Y-81256190D02*
X131214761Y-81303809D01*
X131262380Y-81446666D01*
X131262380Y-81541904D01*
X131214761Y-81684761D01*
X131119523Y-81780000D01*
X131024285Y-81827619D01*
X130833809Y-81875238D01*
X130690952Y-81875238D01*
X130500476Y-81827619D01*
X130405238Y-81780000D01*
X130310000Y-81684761D01*
X130262380Y-81541904D01*
X130262380Y-81446666D01*
X130310000Y-81303809D01*
X130357619Y-81256190D01*
X129830000Y-81065714D02*
X129830000Y-80303809D01*
X130262380Y-80970476D02*
X130262380Y-80399047D01*
X131262380Y-80684761D02*
X130262380Y-80684761D01*
X129830000Y-80303809D02*
X129830000Y-79494285D01*
X131262380Y-79589523D02*
X131262380Y-80065714D01*
X130262380Y-80065714D01*
D12*
%TO.C,D1*%
X136750000Y-72275000D02*
X140635000Y-72275000D01*
X140635000Y-72275000D02*
X140635000Y-70005000D01*
X140635000Y-70005000D02*
X136750000Y-70005000D01*
%TO.C,P1*%
X159960000Y-78810000D02*
X159960000Y-77480000D01*
X161290000Y-78810000D02*
X159960000Y-78810000D01*
X162560000Y-78810000D02*
X162560000Y-76150000D01*
X162560000Y-76150000D02*
X172780000Y-76150000D01*
X162560000Y-78810000D02*
X172780000Y-78810000D01*
X172780000Y-78810000D02*
X172780000Y-76150000D01*
%TO.C,P2*%
X157540000Y-78800000D02*
X157540000Y-76140000D01*
X147320000Y-78800000D02*
X157540000Y-78800000D01*
X147320000Y-76140000D02*
X157540000Y-76140000D01*
X147320000Y-78800000D02*
X147320000Y-76140000D01*
X146050000Y-78800000D02*
X144720000Y-78800000D01*
X144720000Y-78800000D02*
X144720000Y-77470000D01*
%TO.C,P3*%
X129480000Y-78800000D02*
X129480000Y-77470000D01*
X130810000Y-78800000D02*
X129480000Y-78800000D01*
X132080000Y-78800000D02*
X132080000Y-76140000D01*
X132080000Y-76140000D02*
X142300000Y-76140000D01*
X132080000Y-78800000D02*
X142300000Y-78800000D01*
X142300000Y-78800000D02*
X142300000Y-76140000D01*
%TO.C,P4*%
X129480000Y-87570000D02*
X129480000Y-90230000D01*
X139700000Y-87570000D02*
X129480000Y-87570000D01*
X139700000Y-90230000D02*
X129480000Y-90230000D01*
X139700000Y-87570000D02*
X139700000Y-90230000D01*
X140970000Y-87570000D02*
X142300000Y-87570000D01*
X142300000Y-87570000D02*
X142300000Y-88900000D01*
%TO.C,P5*%
X157540000Y-87580000D02*
X157540000Y-88910000D01*
X156210000Y-87580000D02*
X157540000Y-87580000D01*
X154940000Y-87580000D02*
X154940000Y-90240000D01*
X154940000Y-90240000D02*
X144720000Y-90240000D01*
X154940000Y-87580000D02*
X144720000Y-87580000D01*
X144720000Y-87580000D02*
X144720000Y-90240000D01*
%TO.C,P6*%
X159960000Y-87570000D02*
X159960000Y-90230000D01*
X170180000Y-87570000D02*
X159960000Y-87570000D01*
X170180000Y-90230000D02*
X159960000Y-90230000D01*
X170180000Y-87570000D02*
X170180000Y-90230000D01*
X171450000Y-87570000D02*
X172780000Y-87570000D01*
X172780000Y-87570000D02*
X172780000Y-88900000D01*
%TO.C,R1*%
X130922936Y-70230000D02*
X132377064Y-70230000D01*
X130922936Y-72050000D02*
X132377064Y-72050000D01*
%TO.C,CART1*%
D13*
X132801714Y-107327571D02*
X132908857Y-107363285D01*
X133087428Y-107363285D01*
X133158857Y-107327571D01*
X133194571Y-107291857D01*
X133230285Y-107220428D01*
X133230285Y-107149000D01*
X133194571Y-107077571D01*
X133158857Y-107041857D01*
X133087428Y-107006142D01*
X132944571Y-106970428D01*
X132873142Y-106934714D01*
X132837428Y-106899000D01*
X132801714Y-106827571D01*
X132801714Y-106756142D01*
X132837428Y-106684714D01*
X132873142Y-106649000D01*
X132944571Y-106613285D01*
X133123142Y-106613285D01*
X133230285Y-106649000D01*
X168651428Y-107149000D02*
X169008571Y-107149000D01*
X168580000Y-107363285D02*
X168830000Y-106613285D01*
X169080000Y-107363285D01*
X149153333Y-107968571D02*
X148820000Y-107968571D01*
X148820000Y-108492380D02*
X148820000Y-107492380D01*
X149296190Y-107492380D01*
X149677142Y-108492380D02*
X149677142Y-107825714D01*
X149677142Y-108016190D02*
X149724761Y-107920952D01*
X149772380Y-107873333D01*
X149867619Y-107825714D01*
X149962857Y-107825714D01*
X150439047Y-108492380D02*
X150343809Y-108444761D01*
X150296190Y-108397142D01*
X150248571Y-108301904D01*
X150248571Y-108016190D01*
X150296190Y-107920952D01*
X150343809Y-107873333D01*
X150439047Y-107825714D01*
X150581904Y-107825714D01*
X150677142Y-107873333D01*
X150724761Y-107920952D01*
X150772380Y-108016190D01*
X150772380Y-108301904D01*
X150724761Y-108397142D01*
X150677142Y-108444761D01*
X150581904Y-108492380D01*
X150439047Y-108492380D01*
X151200952Y-107825714D02*
X151200952Y-108492380D01*
X151200952Y-107920952D02*
X151248571Y-107873333D01*
X151343809Y-107825714D01*
X151486666Y-107825714D01*
X151581904Y-107873333D01*
X151629523Y-107968571D01*
X151629523Y-108492380D01*
X151962857Y-107825714D02*
X152343809Y-107825714D01*
X152105714Y-107492380D02*
X152105714Y-108349523D01*
X152153333Y-108444761D01*
X152248571Y-108492380D01*
X152343809Y-108492380D01*
X153391428Y-107444761D02*
X152534285Y-108730476D01*
X153581904Y-107492380D02*
X154153333Y-107492380D01*
X153867619Y-108492380D02*
X153867619Y-107492380D01*
X154629523Y-108492380D02*
X154534285Y-108444761D01*
X154486666Y-108397142D01*
X154439047Y-108301904D01*
X154439047Y-108016190D01*
X154486666Y-107920952D01*
X154534285Y-107873333D01*
X154629523Y-107825714D01*
X154772380Y-107825714D01*
X154867619Y-107873333D01*
X154915238Y-107920952D01*
X154962857Y-108016190D01*
X154962857Y-108301904D01*
X154915238Y-108397142D01*
X154867619Y-108444761D01*
X154772380Y-108492380D01*
X154629523Y-108492380D01*
X155391428Y-107825714D02*
X155391428Y-108825714D01*
X155391428Y-107873333D02*
X155486666Y-107825714D01*
X155677142Y-107825714D01*
X155772380Y-107873333D01*
X155820000Y-107920952D01*
X155867619Y-108016190D01*
X155867619Y-108301904D01*
X155820000Y-108397142D01*
X155772380Y-108444761D01*
X155677142Y-108492380D01*
X155486666Y-108492380D01*
X155391428Y-108444761D01*
X165790000Y-111341904D02*
X165742380Y-111437142D01*
X165742380Y-111580000D01*
X165790000Y-111722857D01*
X165885238Y-111818095D01*
X165980476Y-111865714D01*
X166170952Y-111913333D01*
X166313809Y-111913333D01*
X166504285Y-111865714D01*
X166599523Y-111818095D01*
X166694761Y-111722857D01*
X166742380Y-111580000D01*
X166742380Y-111484761D01*
X166694761Y-111341904D01*
X166647142Y-111294285D01*
X166313809Y-111294285D01*
X166313809Y-111484761D01*
X166742380Y-110865714D02*
X165742380Y-110865714D01*
X166742380Y-110294285D01*
X165742380Y-110294285D01*
X166742380Y-109818095D02*
X165742380Y-109818095D01*
X165742380Y-109580000D01*
X165790000Y-109437142D01*
X165885238Y-109341904D01*
X165980476Y-109294285D01*
X166170952Y-109246666D01*
X166313809Y-109246666D01*
X166504285Y-109294285D01*
X166599523Y-109341904D01*
X166694761Y-109437142D01*
X166742380Y-109580000D01*
X166742380Y-109818095D01*
X161376666Y-111802285D02*
X161376666Y-111326095D01*
X161662380Y-111897523D02*
X160662380Y-111564190D01*
X161662380Y-111230857D01*
X160662380Y-110421333D02*
X160662380Y-110897523D01*
X161138571Y-110945142D01*
X161090952Y-110897523D01*
X161043333Y-110802285D01*
X161043333Y-110564190D01*
X161090952Y-110468952D01*
X161138571Y-110421333D01*
X161233809Y-110373714D01*
X161471904Y-110373714D01*
X161567142Y-110421333D01*
X161614761Y-110468952D01*
X161662380Y-110564190D01*
X161662380Y-110802285D01*
X161614761Y-110897523D01*
X161567142Y-110945142D01*
X158836666Y-111802285D02*
X158836666Y-111326095D01*
X159122380Y-111897523D02*
X158122380Y-111564190D01*
X159122380Y-111230857D01*
X158122380Y-110468952D02*
X158122380Y-110659428D01*
X158170000Y-110754666D01*
X158217619Y-110802285D01*
X158360476Y-110897523D01*
X158550952Y-110945142D01*
X158931904Y-110945142D01*
X159027142Y-110897523D01*
X159074761Y-110849904D01*
X159122380Y-110754666D01*
X159122380Y-110564190D01*
X159074761Y-110468952D01*
X159027142Y-110421333D01*
X158931904Y-110373714D01*
X158693809Y-110373714D01*
X158598571Y-110421333D01*
X158550952Y-110468952D01*
X158503333Y-110564190D01*
X158503333Y-110754666D01*
X158550952Y-110849904D01*
X158598571Y-110897523D01*
X158693809Y-110945142D01*
X156296666Y-111802285D02*
X156296666Y-111326095D01*
X156582380Y-111897523D02*
X155582380Y-111564190D01*
X156582380Y-111230857D01*
X155582380Y-110992761D02*
X155582380Y-110326095D01*
X156582380Y-110754666D01*
X153756666Y-111802285D02*
X153756666Y-111326095D01*
X154042380Y-111897523D02*
X153042380Y-111564190D01*
X154042380Y-111230857D01*
X153470952Y-110754666D02*
X153423333Y-110849904D01*
X153375714Y-110897523D01*
X153280476Y-110945142D01*
X153232857Y-110945142D01*
X153137619Y-110897523D01*
X153090000Y-110849904D01*
X153042380Y-110754666D01*
X153042380Y-110564190D01*
X153090000Y-110468952D01*
X153137619Y-110421333D01*
X153232857Y-110373714D01*
X153280476Y-110373714D01*
X153375714Y-110421333D01*
X153423333Y-110468952D01*
X153470952Y-110564190D01*
X153470952Y-110754666D01*
X153518571Y-110849904D01*
X153566190Y-110897523D01*
X153661428Y-110945142D01*
X153851904Y-110945142D01*
X153947142Y-110897523D01*
X153994761Y-110849904D01*
X154042380Y-110754666D01*
X154042380Y-110564190D01*
X153994761Y-110468952D01*
X153947142Y-110421333D01*
X153851904Y-110373714D01*
X153661428Y-110373714D01*
X153566190Y-110421333D01*
X153518571Y-110468952D01*
X153470952Y-110564190D01*
X151216666Y-111802285D02*
X151216666Y-111326095D01*
X151502380Y-111897523D02*
X150502380Y-111564190D01*
X151502380Y-111230857D01*
X151502380Y-110849904D02*
X151502380Y-110659428D01*
X151454761Y-110564190D01*
X151407142Y-110516571D01*
X151264285Y-110421333D01*
X151073809Y-110373714D01*
X150692857Y-110373714D01*
X150597619Y-110421333D01*
X150550000Y-110468952D01*
X150502380Y-110564190D01*
X150502380Y-110754666D01*
X150550000Y-110849904D01*
X150597619Y-110897523D01*
X150692857Y-110945142D01*
X150930952Y-110945142D01*
X151026190Y-110897523D01*
X151073809Y-110849904D01*
X151121428Y-110754666D01*
X151121428Y-110564190D01*
X151073809Y-110468952D01*
X151026190Y-110421333D01*
X150930952Y-110373714D01*
X148676666Y-111770476D02*
X148676666Y-111294285D01*
X148962380Y-111865714D02*
X147962380Y-111532380D01*
X148962380Y-111199047D01*
X148962380Y-110341904D02*
X148962380Y-110913333D01*
X148962380Y-110627619D02*
X147962380Y-110627619D01*
X148105238Y-110722857D01*
X148200476Y-110818095D01*
X148248095Y-110913333D01*
X148057619Y-109960952D02*
X148010000Y-109913333D01*
X147962380Y-109818095D01*
X147962380Y-109580000D01*
X148010000Y-109484761D01*
X148057619Y-109437142D01*
X148152857Y-109389523D01*
X148248095Y-109389523D01*
X148390952Y-109437142D01*
X148962380Y-110008571D01*
X148962380Y-109389523D01*
X141056666Y-111770476D02*
X141056666Y-111294285D01*
X141342380Y-111865714D02*
X140342380Y-111532380D01*
X141342380Y-111199047D01*
X141342380Y-110341904D02*
X141342380Y-110913333D01*
X141342380Y-110627619D02*
X140342380Y-110627619D01*
X140485238Y-110722857D01*
X140580476Y-110818095D01*
X140628095Y-110913333D01*
X141342380Y-109389523D02*
X141342380Y-109960952D01*
X141342380Y-109675238D02*
X140342380Y-109675238D01*
X140485238Y-109770476D01*
X140580476Y-109865714D01*
X140628095Y-109960952D01*
X138516666Y-111770476D02*
X138516666Y-111294285D01*
X138802380Y-111865714D02*
X137802380Y-111532380D01*
X138802380Y-111199047D01*
X138802380Y-110341904D02*
X138802380Y-110913333D01*
X138802380Y-110627619D02*
X137802380Y-110627619D01*
X137945238Y-110722857D01*
X138040476Y-110818095D01*
X138088095Y-110913333D01*
X137802380Y-109722857D02*
X137802380Y-109627619D01*
X137850000Y-109532380D01*
X137897619Y-109484761D01*
X137992857Y-109437142D01*
X138183333Y-109389523D01*
X138421428Y-109389523D01*
X138611904Y-109437142D01*
X138707142Y-109484761D01*
X138754761Y-109532380D01*
X138802380Y-109627619D01*
X138802380Y-109722857D01*
X138754761Y-109818095D01*
X138707142Y-109865714D01*
X138611904Y-109913333D01*
X138421428Y-109960952D01*
X138183333Y-109960952D01*
X137992857Y-109913333D01*
X137897619Y-109865714D01*
X137850000Y-109818095D01*
X137802380Y-109722857D01*
X136262380Y-111111714D02*
X135786190Y-111445047D01*
X136262380Y-111683142D02*
X135262380Y-111683142D01*
X135262380Y-111302190D01*
X135310000Y-111206952D01*
X135357619Y-111159333D01*
X135452857Y-111111714D01*
X135595714Y-111111714D01*
X135690952Y-111159333D01*
X135738571Y-111206952D01*
X135786190Y-111302190D01*
X135786190Y-111683142D01*
X135214761Y-109968857D02*
X136500476Y-110826000D01*
X134895000Y-109873619D02*
X134895000Y-108730761D01*
X135262380Y-109730761D02*
X136262380Y-109492666D01*
X135548095Y-109302190D01*
X136262380Y-109111714D01*
X135262380Y-108873619D01*
X133198571Y-111460952D02*
X133246190Y-111318095D01*
X133293809Y-111270476D01*
X133389047Y-111222857D01*
X133531904Y-111222857D01*
X133627142Y-111270476D01*
X133674761Y-111318095D01*
X133722380Y-111413333D01*
X133722380Y-111794285D01*
X132722380Y-111794285D01*
X132722380Y-111460952D01*
X132770000Y-111365714D01*
X132817619Y-111318095D01*
X132912857Y-111270476D01*
X133008095Y-111270476D01*
X133103333Y-111318095D01*
X133150952Y-111365714D01*
X133198571Y-111460952D01*
X133198571Y-111794285D01*
X132722380Y-110603809D02*
X132722380Y-110508571D01*
X132770000Y-110413333D01*
X132817619Y-110365714D01*
X132912857Y-110318095D01*
X133103333Y-110270476D01*
X133341428Y-110270476D01*
X133531904Y-110318095D01*
X133627142Y-110365714D01*
X133674761Y-110413333D01*
X133722380Y-110508571D01*
X133722380Y-110603809D01*
X133674761Y-110699047D01*
X133627142Y-110746666D01*
X133531904Y-110794285D01*
X133341428Y-110841904D01*
X133103333Y-110841904D01*
X132912857Y-110794285D01*
X132817619Y-110746666D01*
X132770000Y-110699047D01*
X132722380Y-110603809D01*
X132817619Y-109889523D02*
X132770000Y-109841904D01*
X132722380Y-109746666D01*
X132722380Y-109508571D01*
X132770000Y-109413333D01*
X132817619Y-109365714D01*
X132912857Y-109318095D01*
X133008095Y-109318095D01*
X133150952Y-109365714D01*
X133722380Y-109937142D01*
X133722380Y-109318095D01*
X146422380Y-111826095D02*
X145422380Y-111826095D01*
X145422380Y-111588000D01*
X145470000Y-111445142D01*
X145565238Y-111349904D01*
X145660476Y-111302285D01*
X145850952Y-111254666D01*
X145993809Y-111254666D01*
X146184285Y-111302285D01*
X146279523Y-111349904D01*
X146374761Y-111445142D01*
X146422380Y-111588000D01*
X146422380Y-111826095D01*
X145422380Y-110921333D02*
X145422380Y-110302285D01*
X145803333Y-110635619D01*
X145803333Y-110492761D01*
X145850952Y-110397523D01*
X145898571Y-110349904D01*
X145993809Y-110302285D01*
X146231904Y-110302285D01*
X146327142Y-110349904D01*
X146374761Y-110397523D01*
X146422380Y-110492761D01*
X146422380Y-110778476D01*
X146374761Y-110873714D01*
X146327142Y-110921333D01*
X163916666Y-111802285D02*
X163916666Y-111326095D01*
X164202380Y-111897523D02*
X163202380Y-111564190D01*
X164202380Y-111230857D01*
X163535714Y-110468952D02*
X164202380Y-110468952D01*
X163154761Y-110707047D02*
X163869047Y-110945142D01*
X163869047Y-110326095D01*
X143882380Y-111826095D02*
X142882380Y-111826095D01*
X142882380Y-111588000D01*
X142930000Y-111445142D01*
X143025238Y-111349904D01*
X143120476Y-111302285D01*
X143310952Y-111254666D01*
X143453809Y-111254666D01*
X143644285Y-111302285D01*
X143739523Y-111349904D01*
X143834761Y-111445142D01*
X143882380Y-111588000D01*
X143882380Y-111826095D01*
X142882380Y-110921333D02*
X142882380Y-110254666D01*
X143882380Y-110683238D01*
X169282380Y-111246666D02*
X168806190Y-111580000D01*
X169282380Y-111818095D02*
X168282380Y-111818095D01*
X168282380Y-111437142D01*
X168330000Y-111341904D01*
X168377619Y-111294285D01*
X168472857Y-111246666D01*
X168615714Y-111246666D01*
X168710952Y-111294285D01*
X168758571Y-111341904D01*
X168806190Y-111437142D01*
X168806190Y-111818095D01*
X169282380Y-110818095D02*
X168282380Y-110818095D01*
X168282380Y-110580000D01*
X168330000Y-110437142D01*
X168425238Y-110341904D01*
X168520476Y-110294285D01*
X168710952Y-110246666D01*
X168853809Y-110246666D01*
X169044285Y-110294285D01*
X169139523Y-110341904D01*
X169234761Y-110437142D01*
X169282380Y-110580000D01*
X169282380Y-110818095D01*
X168615714Y-109389523D02*
X169282380Y-109389523D01*
X168234761Y-109627619D02*
X168949047Y-109865714D01*
X168949047Y-109246666D01*
%TO.C,D1*%
X137661904Y-73632380D02*
X137661904Y-72632380D01*
X137900000Y-72632380D01*
X138042857Y-72680000D01*
X138138095Y-72775238D01*
X138185714Y-72870476D01*
X138233333Y-73060952D01*
X138233333Y-73203809D01*
X138185714Y-73394285D01*
X138138095Y-73489523D01*
X138042857Y-73584761D01*
X137900000Y-73632380D01*
X137661904Y-73632380D01*
X139185714Y-73632380D02*
X138614285Y-73632380D01*
X138900000Y-73632380D02*
X138900000Y-72632380D01*
X138804761Y-72775238D01*
X138709523Y-72870476D01*
X138614285Y-72918095D01*
%TO.C,P1*%
X165761904Y-75452380D02*
X165761904Y-74452380D01*
X166142857Y-74452380D01*
X166238095Y-74500000D01*
X166285714Y-74547619D01*
X166333333Y-74642857D01*
X166333333Y-74785714D01*
X166285714Y-74880952D01*
X166238095Y-74928571D01*
X166142857Y-74976190D01*
X165761904Y-74976190D01*
X167285714Y-75452380D02*
X166714285Y-75452380D01*
X167000000Y-75452380D02*
X167000000Y-74452380D01*
X166904761Y-74595238D01*
X166809523Y-74690476D01*
X166714285Y-74738095D01*
%TO.C,P2*%
X150261904Y-75452380D02*
X150261904Y-74452380D01*
X150642857Y-74452380D01*
X150738095Y-74500000D01*
X150785714Y-74547619D01*
X150833333Y-74642857D01*
X150833333Y-74785714D01*
X150785714Y-74880952D01*
X150738095Y-74928571D01*
X150642857Y-74976190D01*
X150261904Y-74976190D01*
X151214285Y-74547619D02*
X151261904Y-74500000D01*
X151357142Y-74452380D01*
X151595238Y-74452380D01*
X151690476Y-74500000D01*
X151738095Y-74547619D01*
X151785714Y-74642857D01*
X151785714Y-74738095D01*
X151738095Y-74880952D01*
X151166666Y-75452380D01*
X151785714Y-75452380D01*
%TO.C,P3*%
X135261904Y-75452380D02*
X135261904Y-74452380D01*
X135642857Y-74452380D01*
X135738095Y-74500000D01*
X135785714Y-74547619D01*
X135833333Y-74642857D01*
X135833333Y-74785714D01*
X135785714Y-74880952D01*
X135738095Y-74928571D01*
X135642857Y-74976190D01*
X135261904Y-74976190D01*
X136166666Y-74452380D02*
X136785714Y-74452380D01*
X136452380Y-74833333D01*
X136595238Y-74833333D01*
X136690476Y-74880952D01*
X136738095Y-74928571D01*
X136785714Y-75023809D01*
X136785714Y-75261904D01*
X136738095Y-75357142D01*
X136690476Y-75404761D01*
X136595238Y-75452380D01*
X136309523Y-75452380D01*
X136214285Y-75404761D01*
X136166666Y-75357142D01*
%TO.C,P4*%
X135261904Y-86952380D02*
X135261904Y-85952380D01*
X135642857Y-85952380D01*
X135738095Y-86000000D01*
X135785714Y-86047619D01*
X135833333Y-86142857D01*
X135833333Y-86285714D01*
X135785714Y-86380952D01*
X135738095Y-86428571D01*
X135642857Y-86476190D01*
X135261904Y-86476190D01*
X136690476Y-86285714D02*
X136690476Y-86952380D01*
X136452380Y-85904761D02*
X136214285Y-86619047D01*
X136833333Y-86619047D01*
%TO.C,P5*%
X150261904Y-86952380D02*
X150261904Y-85952380D01*
X150642857Y-85952380D01*
X150738095Y-86000000D01*
X150785714Y-86047619D01*
X150833333Y-86142857D01*
X150833333Y-86285714D01*
X150785714Y-86380952D01*
X150738095Y-86428571D01*
X150642857Y-86476190D01*
X150261904Y-86476190D01*
X151738095Y-85952380D02*
X151261904Y-85952380D01*
X151214285Y-86428571D01*
X151261904Y-86380952D01*
X151357142Y-86333333D01*
X151595238Y-86333333D01*
X151690476Y-86380952D01*
X151738095Y-86428571D01*
X151785714Y-86523809D01*
X151785714Y-86761904D01*
X151738095Y-86857142D01*
X151690476Y-86904761D01*
X151595238Y-86952380D01*
X151357142Y-86952380D01*
X151261904Y-86904761D01*
X151214285Y-86857142D01*
%TO.C,P6*%
X165761904Y-86952380D02*
X165761904Y-85952380D01*
X166142857Y-85952380D01*
X166238095Y-86000000D01*
X166285714Y-86047619D01*
X166333333Y-86142857D01*
X166333333Y-86285714D01*
X166285714Y-86380952D01*
X166238095Y-86428571D01*
X166142857Y-86476190D01*
X165761904Y-86476190D01*
X167190476Y-85952380D02*
X167000000Y-85952380D01*
X166904761Y-86000000D01*
X166857142Y-86047619D01*
X166761904Y-86190476D01*
X166714285Y-86380952D01*
X166714285Y-86761904D01*
X166761904Y-86857142D01*
X166809523Y-86904761D01*
X166904761Y-86952380D01*
X167095238Y-86952380D01*
X167190476Y-86904761D01*
X167238095Y-86857142D01*
X167285714Y-86761904D01*
X167285714Y-86523809D01*
X167238095Y-86428571D01*
X167190476Y-86380952D01*
X167095238Y-86333333D01*
X166904761Y-86333333D01*
X166809523Y-86380952D01*
X166761904Y-86428571D01*
X166714285Y-86523809D01*
%TO.C,R1*%
X131563333Y-73492380D02*
X131230000Y-73016190D01*
X130991904Y-73492380D02*
X130991904Y-72492380D01*
X131372857Y-72492380D01*
X131468095Y-72540000D01*
X131515714Y-72587619D01*
X131563333Y-72682857D01*
X131563333Y-72825714D01*
X131515714Y-72920952D01*
X131468095Y-72968571D01*
X131372857Y-73016190D01*
X130991904Y-73016190D01*
X132515714Y-73492380D02*
X131944285Y-73492380D01*
X132230000Y-73492380D02*
X132230000Y-72492380D01*
X132134761Y-72635238D01*
X132039523Y-72730476D01*
X131944285Y-72778095D01*
%TD*%
M02*
