M48
; DRILL file {KiCad 9.0.5} date 2025-10-09T13:03:05+0200
; FORMAT={-:-/ absolute / metric / decimal}
; #@! TF.CreationDate,2025-10-09T13:03:05+02:00
; #@! TF.GenerationSoftware,Kicad,Pcbnew,9.0.5
; #@! TF.FileFunction,Plated,1,2,PTH
FMAT,2
METRIC
; #@! TA.AperFunction,Plated,PTH,ViaDrill
T1C0.400
; #@! TA.AperFunction,Plated,PTH,ComponentDrill
T2C1.000
%
G90
G05
T1
X172.41Y-72.998
T2
X130.81Y-77.47
X130.81Y-88.9
X133.35Y-77.47
X133.35Y-88.9
X135.89Y-77.47
X135.89Y-88.9
X138.43Y-77.47
X138.43Y-88.9
X140.97Y-77.47
X140.97Y-88.9
X146.05Y-77.47
X146.05Y-88.91
X148.59Y-77.47
X148.59Y-88.91
X151.13Y-77.47
X151.13Y-88.91
X153.67Y-77.47
X153.67Y-88.91
X156.21Y-77.47
X156.21Y-88.91
X161.29Y-77.48
X161.29Y-88.9
X163.83Y-77.48
X163.83Y-88.9
X166.37Y-77.48
X166.37Y-88.9
X168.91Y-77.48
X168.91Y-88.9
X171.45Y-77.48
X171.45Y-88.9
M30
