M48
; DRILL file {KiCad 5.1.9+dfsg1-1+deb11u1} date Thu Jul 24 10:09:45 2025
; FORMAT={-:-/ absolute / metric / decimal}
; #@! TF.CreationDate,2025-07-24T10:09:45+02:00
; #@! TF.GenerationSoftware,Kicad,Pcbnew,5.1.9+dfsg1-1+deb11u1
; #@! TF.FileFunction,Plated,1,2,PTH
FMAT,2
METRIC
T1C1.000
%
G90
G05
T1
X130.81Y-77.47
X130.81Y-88.9
X133.35Y-77.47
X133.35Y-88.9
X135.89Y-77.47
X135.89Y-88.9
X138.43Y-77.47
X138.43Y-88.9
X140.97Y-77.47
X140.97Y-88.9
X146.05Y-77.47
X146.05Y-88.91
X148.59Y-77.47
X148.59Y-88.91
X151.13Y-77.47
X151.13Y-88.91
X153.67Y-77.47
X153.67Y-88.91
X156.21Y-77.47
X156.21Y-88.91
X161.29Y-77.48
X161.29Y-88.9
X163.83Y-77.48
X163.83Y-88.9
X166.37Y-77.48
X166.37Y-88.9
X168.91Y-77.48
X168.91Y-88.9
X171.45Y-77.48
X171.45Y-88.9
T0
M30
