%TF.GenerationSoftware,KiCad,Pcbnew,9.0.5*%
%TF.CreationDate,2025-10-09T13:03:12+02:00*%
%TF.ProjectId,CART-Breakout,43415254-2d42-4726-9561-6b6f75742e6b,rev?*%
%TF.SameCoordinates,Original*%
%TF.FileFunction,Legend,Top*%
%TF.FilePolarity,Positive*%
%FSLAX46Y46*%
G04 Gerber Fmt 4.6, Leading zero omitted, Abs format (unit mm)*
G04 Created by KiCad (PCBNEW 9.0.5) date 2025-10-09 13:03:12*
%MOMM*%
%LPD*%
G01*
G04 APERTURE LIST*
%ADD10C,0.300000*%
%ADD11C,0.200000*%
%ADD12C,0.150000*%
%ADD13C,0.120000*%
G04 APERTURE END LIST*
D10*
X135915715Y-102278328D02*
X135415715Y-101564042D01*
X135058572Y-102278328D02*
X135058572Y-100778328D01*
X135058572Y-100778328D02*
X135630001Y-100778328D01*
X135630001Y-100778328D02*
X135772858Y-100849757D01*
X135772858Y-100849757D02*
X135844287Y-100921185D01*
X135844287Y-100921185D02*
X135915715Y-101064042D01*
X135915715Y-101064042D02*
X135915715Y-101278328D01*
X135915715Y-101278328D02*
X135844287Y-101421185D01*
X135844287Y-101421185D02*
X135772858Y-101492614D01*
X135772858Y-101492614D02*
X135630001Y-101564042D01*
X135630001Y-101564042D02*
X135058572Y-101564042D01*
X137130001Y-102206900D02*
X136987144Y-102278328D01*
X136987144Y-102278328D02*
X136701430Y-102278328D01*
X136701430Y-102278328D02*
X136558572Y-102206900D01*
X136558572Y-102206900D02*
X136487144Y-102064042D01*
X136487144Y-102064042D02*
X136487144Y-101492614D01*
X136487144Y-101492614D02*
X136558572Y-101349757D01*
X136558572Y-101349757D02*
X136701430Y-101278328D01*
X136701430Y-101278328D02*
X136987144Y-101278328D01*
X136987144Y-101278328D02*
X137130001Y-101349757D01*
X137130001Y-101349757D02*
X137201430Y-101492614D01*
X137201430Y-101492614D02*
X137201430Y-101635471D01*
X137201430Y-101635471D02*
X136487144Y-101778328D01*
X137630001Y-101278328D02*
X138201429Y-101278328D01*
X137844286Y-100778328D02*
X137844286Y-102064042D01*
X137844286Y-102064042D02*
X137915715Y-102206900D01*
X137915715Y-102206900D02*
X138058572Y-102278328D01*
X138058572Y-102278328D02*
X138201429Y-102278328D01*
X138701429Y-102278328D02*
X138701429Y-101278328D01*
X138701429Y-101564042D02*
X138772858Y-101421185D01*
X138772858Y-101421185D02*
X138844287Y-101349757D01*
X138844287Y-101349757D02*
X138987144Y-101278328D01*
X138987144Y-101278328D02*
X139130001Y-101278328D01*
X139844286Y-102278328D02*
X139701429Y-102206900D01*
X139701429Y-102206900D02*
X139630000Y-102135471D01*
X139630000Y-102135471D02*
X139558572Y-101992614D01*
X139558572Y-101992614D02*
X139558572Y-101564042D01*
X139558572Y-101564042D02*
X139630000Y-101421185D01*
X139630000Y-101421185D02*
X139701429Y-101349757D01*
X139701429Y-101349757D02*
X139844286Y-101278328D01*
X139844286Y-101278328D02*
X140058572Y-101278328D01*
X140058572Y-101278328D02*
X140201429Y-101349757D01*
X140201429Y-101349757D02*
X140272858Y-101421185D01*
X140272858Y-101421185D02*
X140344286Y-101564042D01*
X140344286Y-101564042D02*
X140344286Y-101992614D01*
X140344286Y-101992614D02*
X140272858Y-102135471D01*
X140272858Y-102135471D02*
X140201429Y-102206900D01*
X140201429Y-102206900D02*
X140058572Y-102278328D01*
X140058572Y-102278328D02*
X139844286Y-102278328D01*
X141487143Y-101492614D02*
X141701429Y-101564042D01*
X141701429Y-101564042D02*
X141772858Y-101635471D01*
X141772858Y-101635471D02*
X141844286Y-101778328D01*
X141844286Y-101778328D02*
X141844286Y-101992614D01*
X141844286Y-101992614D02*
X141772858Y-102135471D01*
X141772858Y-102135471D02*
X141701429Y-102206900D01*
X141701429Y-102206900D02*
X141558572Y-102278328D01*
X141558572Y-102278328D02*
X140987143Y-102278328D01*
X140987143Y-102278328D02*
X140987143Y-100778328D01*
X140987143Y-100778328D02*
X141487143Y-100778328D01*
X141487143Y-100778328D02*
X141630001Y-100849757D01*
X141630001Y-100849757D02*
X141701429Y-100921185D01*
X141701429Y-100921185D02*
X141772858Y-101064042D01*
X141772858Y-101064042D02*
X141772858Y-101206900D01*
X141772858Y-101206900D02*
X141701429Y-101349757D01*
X141701429Y-101349757D02*
X141630001Y-101421185D01*
X141630001Y-101421185D02*
X141487143Y-101492614D01*
X141487143Y-101492614D02*
X140987143Y-101492614D01*
X142487143Y-102278328D02*
X142487143Y-101278328D01*
X142487143Y-100778328D02*
X142415715Y-100849757D01*
X142415715Y-100849757D02*
X142487143Y-100921185D01*
X142487143Y-100921185D02*
X142558572Y-100849757D01*
X142558572Y-100849757D02*
X142487143Y-100778328D01*
X142487143Y-100778328D02*
X142487143Y-100921185D01*
X142987144Y-101278328D02*
X143558572Y-101278328D01*
X143201429Y-100778328D02*
X143201429Y-102064042D01*
X143201429Y-102064042D02*
X143272858Y-102206900D01*
X143272858Y-102206900D02*
X143415715Y-102278328D01*
X143415715Y-102278328D02*
X143558572Y-102278328D01*
X145915715Y-102278328D02*
X145201429Y-102278328D01*
X145201429Y-102278328D02*
X145201429Y-100778328D01*
X147058573Y-102278328D02*
X147058573Y-101492614D01*
X147058573Y-101492614D02*
X146987144Y-101349757D01*
X146987144Y-101349757D02*
X146844287Y-101278328D01*
X146844287Y-101278328D02*
X146558573Y-101278328D01*
X146558573Y-101278328D02*
X146415715Y-101349757D01*
X147058573Y-102206900D02*
X146915715Y-102278328D01*
X146915715Y-102278328D02*
X146558573Y-102278328D01*
X146558573Y-102278328D02*
X146415715Y-102206900D01*
X146415715Y-102206900D02*
X146344287Y-102064042D01*
X146344287Y-102064042D02*
X146344287Y-101921185D01*
X146344287Y-101921185D02*
X146415715Y-101778328D01*
X146415715Y-101778328D02*
X146558573Y-101706900D01*
X146558573Y-101706900D02*
X146915715Y-101706900D01*
X146915715Y-101706900D02*
X147058573Y-101635471D01*
X147772858Y-102278328D02*
X147772858Y-100778328D01*
X147772858Y-101349757D02*
X147915716Y-101278328D01*
X147915716Y-101278328D02*
X148201430Y-101278328D01*
X148201430Y-101278328D02*
X148344287Y-101349757D01*
X148344287Y-101349757D02*
X148415716Y-101421185D01*
X148415716Y-101421185D02*
X148487144Y-101564042D01*
X148487144Y-101564042D02*
X148487144Y-101992614D01*
X148487144Y-101992614D02*
X148415716Y-102135471D01*
X148415716Y-102135471D02*
X148344287Y-102206900D01*
X148344287Y-102206900D02*
X148201430Y-102278328D01*
X148201430Y-102278328D02*
X147915716Y-102278328D01*
X147915716Y-102278328D02*
X147772858Y-102206900D01*
X150701430Y-102849757D02*
X150630001Y-102778328D01*
X150630001Y-102778328D02*
X150487144Y-102564042D01*
X150487144Y-102564042D02*
X150415716Y-102421185D01*
X150415716Y-102421185D02*
X150344287Y-102206900D01*
X150344287Y-102206900D02*
X150272858Y-101849757D01*
X150272858Y-101849757D02*
X150272858Y-101564042D01*
X150272858Y-101564042D02*
X150344287Y-101206900D01*
X150344287Y-101206900D02*
X150415716Y-100992614D01*
X150415716Y-100992614D02*
X150487144Y-100849757D01*
X150487144Y-100849757D02*
X150630001Y-100635471D01*
X150630001Y-100635471D02*
X150701430Y-100564042D01*
X152130001Y-102135471D02*
X152058573Y-102206900D01*
X152058573Y-102206900D02*
X151844287Y-102278328D01*
X151844287Y-102278328D02*
X151701430Y-102278328D01*
X151701430Y-102278328D02*
X151487144Y-102206900D01*
X151487144Y-102206900D02*
X151344287Y-102064042D01*
X151344287Y-102064042D02*
X151272858Y-101921185D01*
X151272858Y-101921185D02*
X151201430Y-101635471D01*
X151201430Y-101635471D02*
X151201430Y-101421185D01*
X151201430Y-101421185D02*
X151272858Y-101135471D01*
X151272858Y-101135471D02*
X151344287Y-100992614D01*
X151344287Y-100992614D02*
X151487144Y-100849757D01*
X151487144Y-100849757D02*
X151701430Y-100778328D01*
X151701430Y-100778328D02*
X151844287Y-100778328D01*
X151844287Y-100778328D02*
X152058573Y-100849757D01*
X152058573Y-100849757D02*
X152130001Y-100921185D01*
X152630001Y-102849757D02*
X152701430Y-102778328D01*
X152701430Y-102778328D02*
X152844287Y-102564042D01*
X152844287Y-102564042D02*
X152915716Y-102421185D01*
X152915716Y-102421185D02*
X152987144Y-102206900D01*
X152987144Y-102206900D02*
X153058573Y-101849757D01*
X153058573Y-101849757D02*
X153058573Y-101564042D01*
X153058573Y-101564042D02*
X152987144Y-101206900D01*
X152987144Y-101206900D02*
X152915716Y-100992614D01*
X152915716Y-100992614D02*
X152844287Y-100849757D01*
X152844287Y-100849757D02*
X152701430Y-100635471D01*
X152701430Y-100635471D02*
X152630001Y-100564042D01*
X154844287Y-100921185D02*
X154915715Y-100849757D01*
X154915715Y-100849757D02*
X155058573Y-100778328D01*
X155058573Y-100778328D02*
X155415715Y-100778328D01*
X155415715Y-100778328D02*
X155558573Y-100849757D01*
X155558573Y-100849757D02*
X155630001Y-100921185D01*
X155630001Y-100921185D02*
X155701430Y-101064042D01*
X155701430Y-101064042D02*
X155701430Y-101206900D01*
X155701430Y-101206900D02*
X155630001Y-101421185D01*
X155630001Y-101421185D02*
X154772858Y-102278328D01*
X154772858Y-102278328D02*
X155701430Y-102278328D01*
X156630001Y-100778328D02*
X156772858Y-100778328D01*
X156772858Y-100778328D02*
X156915715Y-100849757D01*
X156915715Y-100849757D02*
X156987144Y-100921185D01*
X156987144Y-100921185D02*
X157058572Y-101064042D01*
X157058572Y-101064042D02*
X157130001Y-101349757D01*
X157130001Y-101349757D02*
X157130001Y-101706900D01*
X157130001Y-101706900D02*
X157058572Y-101992614D01*
X157058572Y-101992614D02*
X156987144Y-102135471D01*
X156987144Y-102135471D02*
X156915715Y-102206900D01*
X156915715Y-102206900D02*
X156772858Y-102278328D01*
X156772858Y-102278328D02*
X156630001Y-102278328D01*
X156630001Y-102278328D02*
X156487144Y-102206900D01*
X156487144Y-102206900D02*
X156415715Y-102135471D01*
X156415715Y-102135471D02*
X156344286Y-101992614D01*
X156344286Y-101992614D02*
X156272858Y-101706900D01*
X156272858Y-101706900D02*
X156272858Y-101349757D01*
X156272858Y-101349757D02*
X156344286Y-101064042D01*
X156344286Y-101064042D02*
X156415715Y-100921185D01*
X156415715Y-100921185D02*
X156487144Y-100849757D01*
X156487144Y-100849757D02*
X156630001Y-100778328D01*
X158558572Y-102278328D02*
X157701429Y-102278328D01*
X158130000Y-102278328D02*
X158130000Y-100778328D01*
X158130000Y-100778328D02*
X157987143Y-100992614D01*
X157987143Y-100992614D02*
X157844286Y-101135471D01*
X157844286Y-101135471D02*
X157701429Y-101206900D01*
X159272857Y-102278328D02*
X159558571Y-102278328D01*
X159558571Y-102278328D02*
X159701428Y-102206900D01*
X159701428Y-102206900D02*
X159772857Y-102135471D01*
X159772857Y-102135471D02*
X159915714Y-101921185D01*
X159915714Y-101921185D02*
X159987143Y-101635471D01*
X159987143Y-101635471D02*
X159987143Y-101064042D01*
X159987143Y-101064042D02*
X159915714Y-100921185D01*
X159915714Y-100921185D02*
X159844286Y-100849757D01*
X159844286Y-100849757D02*
X159701428Y-100778328D01*
X159701428Y-100778328D02*
X159415714Y-100778328D01*
X159415714Y-100778328D02*
X159272857Y-100849757D01*
X159272857Y-100849757D02*
X159201428Y-100921185D01*
X159201428Y-100921185D02*
X159130000Y-101064042D01*
X159130000Y-101064042D02*
X159130000Y-101421185D01*
X159130000Y-101421185D02*
X159201428Y-101564042D01*
X159201428Y-101564042D02*
X159272857Y-101635471D01*
X159272857Y-101635471D02*
X159415714Y-101706900D01*
X159415714Y-101706900D02*
X159701428Y-101706900D01*
X159701428Y-101706900D02*
X159844286Y-101635471D01*
X159844286Y-101635471D02*
X159915714Y-101564042D01*
X159915714Y-101564042D02*
X159987143Y-101421185D01*
X161701428Y-100706900D02*
X160415714Y-102635471D01*
X162130000Y-100921185D02*
X162201428Y-100849757D01*
X162201428Y-100849757D02*
X162344286Y-100778328D01*
X162344286Y-100778328D02*
X162701428Y-100778328D01*
X162701428Y-100778328D02*
X162844286Y-100849757D01*
X162844286Y-100849757D02*
X162915714Y-100921185D01*
X162915714Y-100921185D02*
X162987143Y-101064042D01*
X162987143Y-101064042D02*
X162987143Y-101206900D01*
X162987143Y-101206900D02*
X162915714Y-101421185D01*
X162915714Y-101421185D02*
X162058571Y-102278328D01*
X162058571Y-102278328D02*
X162987143Y-102278328D01*
X163915714Y-100778328D02*
X164058571Y-100778328D01*
X164058571Y-100778328D02*
X164201428Y-100849757D01*
X164201428Y-100849757D02*
X164272857Y-100921185D01*
X164272857Y-100921185D02*
X164344285Y-101064042D01*
X164344285Y-101064042D02*
X164415714Y-101349757D01*
X164415714Y-101349757D02*
X164415714Y-101706900D01*
X164415714Y-101706900D02*
X164344285Y-101992614D01*
X164344285Y-101992614D02*
X164272857Y-102135471D01*
X164272857Y-102135471D02*
X164201428Y-102206900D01*
X164201428Y-102206900D02*
X164058571Y-102278328D01*
X164058571Y-102278328D02*
X163915714Y-102278328D01*
X163915714Y-102278328D02*
X163772857Y-102206900D01*
X163772857Y-102206900D02*
X163701428Y-102135471D01*
X163701428Y-102135471D02*
X163629999Y-101992614D01*
X163629999Y-101992614D02*
X163558571Y-101706900D01*
X163558571Y-101706900D02*
X163558571Y-101349757D01*
X163558571Y-101349757D02*
X163629999Y-101064042D01*
X163629999Y-101064042D02*
X163701428Y-100921185D01*
X163701428Y-100921185D02*
X163772857Y-100849757D01*
X163772857Y-100849757D02*
X163915714Y-100778328D01*
X164987142Y-100921185D02*
X165058570Y-100849757D01*
X165058570Y-100849757D02*
X165201428Y-100778328D01*
X165201428Y-100778328D02*
X165558570Y-100778328D01*
X165558570Y-100778328D02*
X165701428Y-100849757D01*
X165701428Y-100849757D02*
X165772856Y-100921185D01*
X165772856Y-100921185D02*
X165844285Y-101064042D01*
X165844285Y-101064042D02*
X165844285Y-101206900D01*
X165844285Y-101206900D02*
X165772856Y-101421185D01*
X165772856Y-101421185D02*
X164915713Y-102278328D01*
X164915713Y-102278328D02*
X165844285Y-102278328D01*
X167201427Y-100778328D02*
X166487141Y-100778328D01*
X166487141Y-100778328D02*
X166415713Y-101492614D01*
X166415713Y-101492614D02*
X166487141Y-101421185D01*
X166487141Y-101421185D02*
X166629999Y-101349757D01*
X166629999Y-101349757D02*
X166987141Y-101349757D01*
X166987141Y-101349757D02*
X167129999Y-101421185D01*
X167129999Y-101421185D02*
X167201427Y-101492614D01*
X167201427Y-101492614D02*
X167272856Y-101635471D01*
X167272856Y-101635471D02*
X167272856Y-101992614D01*
X167272856Y-101992614D02*
X167201427Y-102135471D01*
X167201427Y-102135471D02*
X167129999Y-102206900D01*
X167129999Y-102206900D02*
X166987141Y-102278328D01*
X166987141Y-102278328D02*
X166629999Y-102278328D01*
X166629999Y-102278328D02*
X166487141Y-102206900D01*
X166487141Y-102206900D02*
X166415713Y-102135471D01*
X136380000Y-98039757D02*
X137094286Y-98039757D01*
X136237143Y-98468328D02*
X136737143Y-96968328D01*
X136737143Y-96968328D02*
X137237143Y-98468328D01*
X137522857Y-97468328D02*
X138094285Y-97468328D01*
X137737142Y-96968328D02*
X137737142Y-98254042D01*
X137737142Y-98254042D02*
X137808571Y-98396900D01*
X137808571Y-98396900D02*
X137951428Y-98468328D01*
X137951428Y-98468328D02*
X138094285Y-98468328D01*
X139237143Y-98468328D02*
X139237143Y-97682614D01*
X139237143Y-97682614D02*
X139165714Y-97539757D01*
X139165714Y-97539757D02*
X139022857Y-97468328D01*
X139022857Y-97468328D02*
X138737143Y-97468328D01*
X138737143Y-97468328D02*
X138594285Y-97539757D01*
X139237143Y-98396900D02*
X139094285Y-98468328D01*
X139094285Y-98468328D02*
X138737143Y-98468328D01*
X138737143Y-98468328D02*
X138594285Y-98396900D01*
X138594285Y-98396900D02*
X138522857Y-98254042D01*
X138522857Y-98254042D02*
X138522857Y-98111185D01*
X138522857Y-98111185D02*
X138594285Y-97968328D01*
X138594285Y-97968328D02*
X138737143Y-97896900D01*
X138737143Y-97896900D02*
X139094285Y-97896900D01*
X139094285Y-97896900D02*
X139237143Y-97825471D01*
X139951428Y-98468328D02*
X139951428Y-97468328D01*
X139951428Y-97754042D02*
X140022857Y-97611185D01*
X140022857Y-97611185D02*
X140094286Y-97539757D01*
X140094286Y-97539757D02*
X140237143Y-97468328D01*
X140237143Y-97468328D02*
X140380000Y-97468328D01*
X140879999Y-98468328D02*
X140879999Y-97468328D01*
X140879999Y-96968328D02*
X140808571Y-97039757D01*
X140808571Y-97039757D02*
X140879999Y-97111185D01*
X140879999Y-97111185D02*
X140951428Y-97039757D01*
X140951428Y-97039757D02*
X140879999Y-96968328D01*
X140879999Y-96968328D02*
X140879999Y-97111185D01*
X142594285Y-96968328D02*
X143594285Y-98468328D01*
X143594285Y-96968328D02*
X142594285Y-98468328D01*
X144879999Y-98468328D02*
X144165713Y-98468328D01*
X144165713Y-98468328D02*
X144165713Y-96968328D01*
X146451428Y-96896900D02*
X145165714Y-98825471D01*
X146808571Y-96968328D02*
X147808571Y-98468328D01*
X147808571Y-96968328D02*
X146808571Y-98468328D01*
X148379999Y-97682614D02*
X148879999Y-97682614D01*
X149094285Y-98468328D02*
X148379999Y-98468328D01*
X148379999Y-98468328D02*
X148379999Y-96968328D01*
X148379999Y-96968328D02*
X149094285Y-96968328D01*
X151737142Y-98325471D02*
X151665714Y-98396900D01*
X151665714Y-98396900D02*
X151451428Y-98468328D01*
X151451428Y-98468328D02*
X151308571Y-98468328D01*
X151308571Y-98468328D02*
X151094285Y-98396900D01*
X151094285Y-98396900D02*
X150951428Y-98254042D01*
X150951428Y-98254042D02*
X150879999Y-98111185D01*
X150879999Y-98111185D02*
X150808571Y-97825471D01*
X150808571Y-97825471D02*
X150808571Y-97611185D01*
X150808571Y-97611185D02*
X150879999Y-97325471D01*
X150879999Y-97325471D02*
X150951428Y-97182614D01*
X150951428Y-97182614D02*
X151094285Y-97039757D01*
X151094285Y-97039757D02*
X151308571Y-96968328D01*
X151308571Y-96968328D02*
X151451428Y-96968328D01*
X151451428Y-96968328D02*
X151665714Y-97039757D01*
X151665714Y-97039757D02*
X151737142Y-97111185D01*
X153022857Y-98468328D02*
X153022857Y-97682614D01*
X153022857Y-97682614D02*
X152951428Y-97539757D01*
X152951428Y-97539757D02*
X152808571Y-97468328D01*
X152808571Y-97468328D02*
X152522857Y-97468328D01*
X152522857Y-97468328D02*
X152379999Y-97539757D01*
X153022857Y-98396900D02*
X152879999Y-98468328D01*
X152879999Y-98468328D02*
X152522857Y-98468328D01*
X152522857Y-98468328D02*
X152379999Y-98396900D01*
X152379999Y-98396900D02*
X152308571Y-98254042D01*
X152308571Y-98254042D02*
X152308571Y-98111185D01*
X152308571Y-98111185D02*
X152379999Y-97968328D01*
X152379999Y-97968328D02*
X152522857Y-97896900D01*
X152522857Y-97896900D02*
X152879999Y-97896900D01*
X152879999Y-97896900D02*
X153022857Y-97825471D01*
X153737142Y-98468328D02*
X153737142Y-97468328D01*
X153737142Y-97754042D02*
X153808571Y-97611185D01*
X153808571Y-97611185D02*
X153880000Y-97539757D01*
X153880000Y-97539757D02*
X154022857Y-97468328D01*
X154022857Y-97468328D02*
X154165714Y-97468328D01*
X154451428Y-97468328D02*
X155022856Y-97468328D01*
X154665713Y-96968328D02*
X154665713Y-98254042D01*
X154665713Y-98254042D02*
X154737142Y-98396900D01*
X154737142Y-98396900D02*
X154879999Y-98468328D01*
X154879999Y-98468328D02*
X155022856Y-98468328D01*
X157165713Y-97682614D02*
X157379999Y-97754042D01*
X157379999Y-97754042D02*
X157451428Y-97825471D01*
X157451428Y-97825471D02*
X157522856Y-97968328D01*
X157522856Y-97968328D02*
X157522856Y-98182614D01*
X157522856Y-98182614D02*
X157451428Y-98325471D01*
X157451428Y-98325471D02*
X157379999Y-98396900D01*
X157379999Y-98396900D02*
X157237142Y-98468328D01*
X157237142Y-98468328D02*
X156665713Y-98468328D01*
X156665713Y-98468328D02*
X156665713Y-96968328D01*
X156665713Y-96968328D02*
X157165713Y-96968328D01*
X157165713Y-96968328D02*
X157308571Y-97039757D01*
X157308571Y-97039757D02*
X157379999Y-97111185D01*
X157379999Y-97111185D02*
X157451428Y-97254042D01*
X157451428Y-97254042D02*
X157451428Y-97396900D01*
X157451428Y-97396900D02*
X157379999Y-97539757D01*
X157379999Y-97539757D02*
X157308571Y-97611185D01*
X157308571Y-97611185D02*
X157165713Y-97682614D01*
X157165713Y-97682614D02*
X156665713Y-97682614D01*
X158165713Y-98468328D02*
X158165713Y-97468328D01*
X158165713Y-97754042D02*
X158237142Y-97611185D01*
X158237142Y-97611185D02*
X158308571Y-97539757D01*
X158308571Y-97539757D02*
X158451428Y-97468328D01*
X158451428Y-97468328D02*
X158594285Y-97468328D01*
X159665713Y-98396900D02*
X159522856Y-98468328D01*
X159522856Y-98468328D02*
X159237142Y-98468328D01*
X159237142Y-98468328D02*
X159094284Y-98396900D01*
X159094284Y-98396900D02*
X159022856Y-98254042D01*
X159022856Y-98254042D02*
X159022856Y-97682614D01*
X159022856Y-97682614D02*
X159094284Y-97539757D01*
X159094284Y-97539757D02*
X159237142Y-97468328D01*
X159237142Y-97468328D02*
X159522856Y-97468328D01*
X159522856Y-97468328D02*
X159665713Y-97539757D01*
X159665713Y-97539757D02*
X159737142Y-97682614D01*
X159737142Y-97682614D02*
X159737142Y-97825471D01*
X159737142Y-97825471D02*
X159022856Y-97968328D01*
X161022856Y-98468328D02*
X161022856Y-97682614D01*
X161022856Y-97682614D02*
X160951427Y-97539757D01*
X160951427Y-97539757D02*
X160808570Y-97468328D01*
X160808570Y-97468328D02*
X160522856Y-97468328D01*
X160522856Y-97468328D02*
X160379998Y-97539757D01*
X161022856Y-98396900D02*
X160879998Y-98468328D01*
X160879998Y-98468328D02*
X160522856Y-98468328D01*
X160522856Y-98468328D02*
X160379998Y-98396900D01*
X160379998Y-98396900D02*
X160308570Y-98254042D01*
X160308570Y-98254042D02*
X160308570Y-98111185D01*
X160308570Y-98111185D02*
X160379998Y-97968328D01*
X160379998Y-97968328D02*
X160522856Y-97896900D01*
X160522856Y-97896900D02*
X160879998Y-97896900D01*
X160879998Y-97896900D02*
X161022856Y-97825471D01*
X161737141Y-98468328D02*
X161737141Y-96968328D01*
X161879999Y-97896900D02*
X162308570Y-98468328D01*
X162308570Y-97468328D02*
X161737141Y-98039757D01*
X163165713Y-98468328D02*
X163022856Y-98396900D01*
X163022856Y-98396900D02*
X162951427Y-98325471D01*
X162951427Y-98325471D02*
X162879999Y-98182614D01*
X162879999Y-98182614D02*
X162879999Y-97754042D01*
X162879999Y-97754042D02*
X162951427Y-97611185D01*
X162951427Y-97611185D02*
X163022856Y-97539757D01*
X163022856Y-97539757D02*
X163165713Y-97468328D01*
X163165713Y-97468328D02*
X163379999Y-97468328D01*
X163379999Y-97468328D02*
X163522856Y-97539757D01*
X163522856Y-97539757D02*
X163594285Y-97611185D01*
X163594285Y-97611185D02*
X163665713Y-97754042D01*
X163665713Y-97754042D02*
X163665713Y-98182614D01*
X163665713Y-98182614D02*
X163594285Y-98325471D01*
X163594285Y-98325471D02*
X163522856Y-98396900D01*
X163522856Y-98396900D02*
X163379999Y-98468328D01*
X163379999Y-98468328D02*
X163165713Y-98468328D01*
X164951428Y-97468328D02*
X164951428Y-98468328D01*
X164308570Y-97468328D02*
X164308570Y-98254042D01*
X164308570Y-98254042D02*
X164379999Y-98396900D01*
X164379999Y-98396900D02*
X164522856Y-98468328D01*
X164522856Y-98468328D02*
X164737142Y-98468328D01*
X164737142Y-98468328D02*
X164879999Y-98396900D01*
X164879999Y-98396900D02*
X164951428Y-98325471D01*
X165451428Y-97468328D02*
X166022856Y-97468328D01*
X165665713Y-96968328D02*
X165665713Y-98254042D01*
X165665713Y-98254042D02*
X165737142Y-98396900D01*
X165737142Y-98396900D02*
X165879999Y-98468328D01*
X165879999Y-98468328D02*
X166022856Y-98468328D01*
D11*
X131262219Y-94209999D02*
X130262219Y-94209999D01*
X130262219Y-94209999D02*
X130262219Y-93829047D01*
X130262219Y-93829047D02*
X130309838Y-93733809D01*
X130309838Y-93733809D02*
X130357457Y-93686190D01*
X130357457Y-93686190D02*
X130452695Y-93638571D01*
X130452695Y-93638571D02*
X130595552Y-93638571D01*
X130595552Y-93638571D02*
X130690790Y-93686190D01*
X130690790Y-93686190D02*
X130738409Y-93733809D01*
X130738409Y-93733809D02*
X130786028Y-93829047D01*
X130786028Y-93829047D02*
X130786028Y-94209999D01*
X131262219Y-93209999D02*
X130262219Y-93209999D01*
X130738409Y-93209999D02*
X130738409Y-92638571D01*
X131262219Y-92638571D02*
X130262219Y-92638571D01*
X131262219Y-92162380D02*
X130262219Y-92162380D01*
X130357457Y-91733809D02*
X130309838Y-91686190D01*
X130309838Y-91686190D02*
X130262219Y-91590952D01*
X130262219Y-91590952D02*
X130262219Y-91352857D01*
X130262219Y-91352857D02*
X130309838Y-91257619D01*
X130309838Y-91257619D02*
X130357457Y-91210000D01*
X130357457Y-91210000D02*
X130452695Y-91162381D01*
X130452695Y-91162381D02*
X130547933Y-91162381D01*
X130547933Y-91162381D02*
X130690790Y-91210000D01*
X130690790Y-91210000D02*
X131262219Y-91781428D01*
X131262219Y-91781428D02*
X131262219Y-91162381D01*
X133802219Y-93495714D02*
X133326028Y-93829047D01*
X133802219Y-94067142D02*
X132802219Y-94067142D01*
X132802219Y-94067142D02*
X132802219Y-93686190D01*
X132802219Y-93686190D02*
X132849838Y-93590952D01*
X132849838Y-93590952D02*
X132897457Y-93543333D01*
X132897457Y-93543333D02*
X132992695Y-93495714D01*
X132992695Y-93495714D02*
X133135552Y-93495714D01*
X133135552Y-93495714D02*
X133230790Y-93543333D01*
X133230790Y-93543333D02*
X133278409Y-93590952D01*
X133278409Y-93590952D02*
X133326028Y-93686190D01*
X133326028Y-93686190D02*
X133326028Y-94067142D01*
X132754600Y-92352857D02*
X134040314Y-93209999D01*
X132802219Y-92114761D02*
X133802219Y-91876666D01*
X133802219Y-91876666D02*
X133087933Y-91686190D01*
X133087933Y-91686190D02*
X133802219Y-91495714D01*
X133802219Y-91495714D02*
X132802219Y-91257619D01*
X132524600Y-92157619D02*
X132524600Y-91214762D01*
X136056504Y-93900475D02*
X136056504Y-93424285D01*
X136342219Y-93995713D02*
X135342219Y-93662380D01*
X135342219Y-93662380D02*
X136342219Y-93329047D01*
X136342219Y-92471904D02*
X136342219Y-93043332D01*
X136342219Y-92757618D02*
X135342219Y-92757618D01*
X135342219Y-92757618D02*
X135485076Y-92852856D01*
X135485076Y-92852856D02*
X135580314Y-92948094D01*
X135580314Y-92948094D02*
X135627933Y-93043332D01*
X135342219Y-91852856D02*
X135342219Y-91757618D01*
X135342219Y-91757618D02*
X135389838Y-91662380D01*
X135389838Y-91662380D02*
X135437457Y-91614761D01*
X135437457Y-91614761D02*
X135532695Y-91567142D01*
X135532695Y-91567142D02*
X135723171Y-91519523D01*
X135723171Y-91519523D02*
X135961266Y-91519523D01*
X135961266Y-91519523D02*
X136151742Y-91567142D01*
X136151742Y-91567142D02*
X136246980Y-91614761D01*
X136246980Y-91614761D02*
X136294600Y-91662380D01*
X136294600Y-91662380D02*
X136342219Y-91757618D01*
X136342219Y-91757618D02*
X136342219Y-91852856D01*
X136342219Y-91852856D02*
X136294600Y-91948094D01*
X136294600Y-91948094D02*
X136246980Y-91995713D01*
X136246980Y-91995713D02*
X136151742Y-92043332D01*
X136151742Y-92043332D02*
X135961266Y-92090951D01*
X135961266Y-92090951D02*
X135723171Y-92090951D01*
X135723171Y-92090951D02*
X135532695Y-92043332D01*
X135532695Y-92043332D02*
X135437457Y-91995713D01*
X135437457Y-91995713D02*
X135389838Y-91948094D01*
X135389838Y-91948094D02*
X135342219Y-91852856D01*
X138596504Y-93900475D02*
X138596504Y-93424285D01*
X138882219Y-93995713D02*
X137882219Y-93662380D01*
X137882219Y-93662380D02*
X138882219Y-93329047D01*
X138882219Y-92471904D02*
X138882219Y-93043332D01*
X138882219Y-92757618D02*
X137882219Y-92757618D01*
X137882219Y-92757618D02*
X138025076Y-92852856D01*
X138025076Y-92852856D02*
X138120314Y-92948094D01*
X138120314Y-92948094D02*
X138167933Y-93043332D01*
X138882219Y-91519523D02*
X138882219Y-92090951D01*
X138882219Y-91805237D02*
X137882219Y-91805237D01*
X137882219Y-91805237D02*
X138025076Y-91900475D01*
X138025076Y-91900475D02*
X138120314Y-91995713D01*
X138120314Y-91995713D02*
X138167933Y-92090951D01*
X141422219Y-93448094D02*
X140422219Y-93448094D01*
X140422219Y-93448094D02*
X140422219Y-93209999D01*
X140422219Y-93209999D02*
X140469838Y-93067142D01*
X140469838Y-93067142D02*
X140565076Y-92971904D01*
X140565076Y-92971904D02*
X140660314Y-92924285D01*
X140660314Y-92924285D02*
X140850790Y-92876666D01*
X140850790Y-92876666D02*
X140993647Y-92876666D01*
X140993647Y-92876666D02*
X141184123Y-92924285D01*
X141184123Y-92924285D02*
X141279361Y-92971904D01*
X141279361Y-92971904D02*
X141374600Y-93067142D01*
X141374600Y-93067142D02*
X141422219Y-93209999D01*
X141422219Y-93209999D02*
X141422219Y-93448094D01*
X140422219Y-92543332D02*
X140422219Y-91876666D01*
X140422219Y-91876666D02*
X141422219Y-92305237D01*
X146502219Y-93448094D02*
X145502219Y-93448094D01*
X145502219Y-93448094D02*
X145502219Y-93209999D01*
X145502219Y-93209999D02*
X145549838Y-93067142D01*
X145549838Y-93067142D02*
X145645076Y-92971904D01*
X145645076Y-92971904D02*
X145740314Y-92924285D01*
X145740314Y-92924285D02*
X145930790Y-92876666D01*
X145930790Y-92876666D02*
X146073647Y-92876666D01*
X146073647Y-92876666D02*
X146264123Y-92924285D01*
X146264123Y-92924285D02*
X146359361Y-92971904D01*
X146359361Y-92971904D02*
X146454600Y-93067142D01*
X146454600Y-93067142D02*
X146502219Y-93209999D01*
X146502219Y-93209999D02*
X146502219Y-93448094D01*
X145502219Y-92543332D02*
X145502219Y-91924285D01*
X145502219Y-91924285D02*
X145883171Y-92257618D01*
X145883171Y-92257618D02*
X145883171Y-92114761D01*
X145883171Y-92114761D02*
X145930790Y-92019523D01*
X145930790Y-92019523D02*
X145978409Y-91971904D01*
X145978409Y-91971904D02*
X146073647Y-91924285D01*
X146073647Y-91924285D02*
X146311742Y-91924285D01*
X146311742Y-91924285D02*
X146406980Y-91971904D01*
X146406980Y-91971904D02*
X146454600Y-92019523D01*
X146454600Y-92019523D02*
X146502219Y-92114761D01*
X146502219Y-92114761D02*
X146502219Y-92400475D01*
X146502219Y-92400475D02*
X146454600Y-92495713D01*
X146454600Y-92495713D02*
X146406980Y-92543332D01*
X148756504Y-93900475D02*
X148756504Y-93424285D01*
X149042219Y-93995713D02*
X148042219Y-93662380D01*
X148042219Y-93662380D02*
X149042219Y-93329047D01*
X149042219Y-92471904D02*
X149042219Y-93043332D01*
X149042219Y-92757618D02*
X148042219Y-92757618D01*
X148042219Y-92757618D02*
X148185076Y-92852856D01*
X148185076Y-92852856D02*
X148280314Y-92948094D01*
X148280314Y-92948094D02*
X148327933Y-93043332D01*
X148137457Y-92090951D02*
X148089838Y-92043332D01*
X148089838Y-92043332D02*
X148042219Y-91948094D01*
X148042219Y-91948094D02*
X148042219Y-91709999D01*
X148042219Y-91709999D02*
X148089838Y-91614761D01*
X148089838Y-91614761D02*
X148137457Y-91567142D01*
X148137457Y-91567142D02*
X148232695Y-91519523D01*
X148232695Y-91519523D02*
X148327933Y-91519523D01*
X148327933Y-91519523D02*
X148470790Y-91567142D01*
X148470790Y-91567142D02*
X149042219Y-92138570D01*
X149042219Y-92138570D02*
X149042219Y-91519523D01*
X151296504Y-93424285D02*
X151296504Y-92948095D01*
X151582219Y-93519523D02*
X150582219Y-93186190D01*
X150582219Y-93186190D02*
X151582219Y-92852857D01*
X151582219Y-92471904D02*
X151582219Y-92281428D01*
X151582219Y-92281428D02*
X151534600Y-92186190D01*
X151534600Y-92186190D02*
X151486980Y-92138571D01*
X151486980Y-92138571D02*
X151344123Y-92043333D01*
X151344123Y-92043333D02*
X151153647Y-91995714D01*
X151153647Y-91995714D02*
X150772695Y-91995714D01*
X150772695Y-91995714D02*
X150677457Y-92043333D01*
X150677457Y-92043333D02*
X150629838Y-92090952D01*
X150629838Y-92090952D02*
X150582219Y-92186190D01*
X150582219Y-92186190D02*
X150582219Y-92376666D01*
X150582219Y-92376666D02*
X150629838Y-92471904D01*
X150629838Y-92471904D02*
X150677457Y-92519523D01*
X150677457Y-92519523D02*
X150772695Y-92567142D01*
X150772695Y-92567142D02*
X151010790Y-92567142D01*
X151010790Y-92567142D02*
X151106028Y-92519523D01*
X151106028Y-92519523D02*
X151153647Y-92471904D01*
X151153647Y-92471904D02*
X151201266Y-92376666D01*
X151201266Y-92376666D02*
X151201266Y-92186190D01*
X151201266Y-92186190D02*
X151153647Y-92090952D01*
X151153647Y-92090952D02*
X151106028Y-92043333D01*
X151106028Y-92043333D02*
X151010790Y-91995714D01*
X153836504Y-93424285D02*
X153836504Y-92948095D01*
X154122219Y-93519523D02*
X153122219Y-93186190D01*
X153122219Y-93186190D02*
X154122219Y-92852857D01*
X153550790Y-92376666D02*
X153503171Y-92471904D01*
X153503171Y-92471904D02*
X153455552Y-92519523D01*
X153455552Y-92519523D02*
X153360314Y-92567142D01*
X153360314Y-92567142D02*
X153312695Y-92567142D01*
X153312695Y-92567142D02*
X153217457Y-92519523D01*
X153217457Y-92519523D02*
X153169838Y-92471904D01*
X153169838Y-92471904D02*
X153122219Y-92376666D01*
X153122219Y-92376666D02*
X153122219Y-92186190D01*
X153122219Y-92186190D02*
X153169838Y-92090952D01*
X153169838Y-92090952D02*
X153217457Y-92043333D01*
X153217457Y-92043333D02*
X153312695Y-91995714D01*
X153312695Y-91995714D02*
X153360314Y-91995714D01*
X153360314Y-91995714D02*
X153455552Y-92043333D01*
X153455552Y-92043333D02*
X153503171Y-92090952D01*
X153503171Y-92090952D02*
X153550790Y-92186190D01*
X153550790Y-92186190D02*
X153550790Y-92376666D01*
X153550790Y-92376666D02*
X153598409Y-92471904D01*
X153598409Y-92471904D02*
X153646028Y-92519523D01*
X153646028Y-92519523D02*
X153741266Y-92567142D01*
X153741266Y-92567142D02*
X153931742Y-92567142D01*
X153931742Y-92567142D02*
X154026980Y-92519523D01*
X154026980Y-92519523D02*
X154074600Y-92471904D01*
X154074600Y-92471904D02*
X154122219Y-92376666D01*
X154122219Y-92376666D02*
X154122219Y-92186190D01*
X154122219Y-92186190D02*
X154074600Y-92090952D01*
X154074600Y-92090952D02*
X154026980Y-92043333D01*
X154026980Y-92043333D02*
X153931742Y-91995714D01*
X153931742Y-91995714D02*
X153741266Y-91995714D01*
X153741266Y-91995714D02*
X153646028Y-92043333D01*
X153646028Y-92043333D02*
X153598409Y-92090952D01*
X153598409Y-92090952D02*
X153550790Y-92186190D01*
X156376504Y-93424285D02*
X156376504Y-92948095D01*
X156662219Y-93519523D02*
X155662219Y-93186190D01*
X155662219Y-93186190D02*
X156662219Y-92852857D01*
X155662219Y-92614761D02*
X155662219Y-91948095D01*
X155662219Y-91948095D02*
X156662219Y-92376666D01*
X161456504Y-93424285D02*
X161456504Y-92948095D01*
X161742219Y-93519523D02*
X160742219Y-93186190D01*
X160742219Y-93186190D02*
X161742219Y-92852857D01*
X160742219Y-92090952D02*
X160742219Y-92281428D01*
X160742219Y-92281428D02*
X160789838Y-92376666D01*
X160789838Y-92376666D02*
X160837457Y-92424285D01*
X160837457Y-92424285D02*
X160980314Y-92519523D01*
X160980314Y-92519523D02*
X161170790Y-92567142D01*
X161170790Y-92567142D02*
X161551742Y-92567142D01*
X161551742Y-92567142D02*
X161646980Y-92519523D01*
X161646980Y-92519523D02*
X161694600Y-92471904D01*
X161694600Y-92471904D02*
X161742219Y-92376666D01*
X161742219Y-92376666D02*
X161742219Y-92186190D01*
X161742219Y-92186190D02*
X161694600Y-92090952D01*
X161694600Y-92090952D02*
X161646980Y-92043333D01*
X161646980Y-92043333D02*
X161551742Y-91995714D01*
X161551742Y-91995714D02*
X161313647Y-91995714D01*
X161313647Y-91995714D02*
X161218409Y-92043333D01*
X161218409Y-92043333D02*
X161170790Y-92090952D01*
X161170790Y-92090952D02*
X161123171Y-92186190D01*
X161123171Y-92186190D02*
X161123171Y-92376666D01*
X161123171Y-92376666D02*
X161170790Y-92471904D01*
X161170790Y-92471904D02*
X161218409Y-92519523D01*
X161218409Y-92519523D02*
X161313647Y-92567142D01*
X163996504Y-93424285D02*
X163996504Y-92948095D01*
X164282219Y-93519523D02*
X163282219Y-93186190D01*
X163282219Y-93186190D02*
X164282219Y-92852857D01*
X163282219Y-92043333D02*
X163282219Y-92519523D01*
X163282219Y-92519523D02*
X163758409Y-92567142D01*
X163758409Y-92567142D02*
X163710790Y-92519523D01*
X163710790Y-92519523D02*
X163663171Y-92424285D01*
X163663171Y-92424285D02*
X163663171Y-92186190D01*
X163663171Y-92186190D02*
X163710790Y-92090952D01*
X163710790Y-92090952D02*
X163758409Y-92043333D01*
X163758409Y-92043333D02*
X163853647Y-91995714D01*
X163853647Y-91995714D02*
X164091742Y-91995714D01*
X164091742Y-91995714D02*
X164186980Y-92043333D01*
X164186980Y-92043333D02*
X164234600Y-92090952D01*
X164234600Y-92090952D02*
X164282219Y-92186190D01*
X164282219Y-92186190D02*
X164282219Y-92424285D01*
X164282219Y-92424285D02*
X164234600Y-92519523D01*
X164234600Y-92519523D02*
X164186980Y-92567142D01*
X166536504Y-93424285D02*
X166536504Y-92948095D01*
X166822219Y-93519523D02*
X165822219Y-93186190D01*
X165822219Y-93186190D02*
X166822219Y-92852857D01*
X166155552Y-92090952D02*
X166822219Y-92090952D01*
X165774600Y-92329047D02*
X166488885Y-92567142D01*
X166488885Y-92567142D02*
X166488885Y-91948095D01*
X168409838Y-93471904D02*
X168362219Y-93567142D01*
X168362219Y-93567142D02*
X168362219Y-93709999D01*
X168362219Y-93709999D02*
X168409838Y-93852856D01*
X168409838Y-93852856D02*
X168505076Y-93948094D01*
X168505076Y-93948094D02*
X168600314Y-93995713D01*
X168600314Y-93995713D02*
X168790790Y-94043332D01*
X168790790Y-94043332D02*
X168933647Y-94043332D01*
X168933647Y-94043332D02*
X169124123Y-93995713D01*
X169124123Y-93995713D02*
X169219361Y-93948094D01*
X169219361Y-93948094D02*
X169314600Y-93852856D01*
X169314600Y-93852856D02*
X169362219Y-93709999D01*
X169362219Y-93709999D02*
X169362219Y-93614761D01*
X169362219Y-93614761D02*
X169314600Y-93471904D01*
X169314600Y-93471904D02*
X169266980Y-93424285D01*
X169266980Y-93424285D02*
X168933647Y-93424285D01*
X168933647Y-93424285D02*
X168933647Y-93614761D01*
X169362219Y-92995713D02*
X168362219Y-92995713D01*
X168362219Y-92995713D02*
X169362219Y-92424285D01*
X169362219Y-92424285D02*
X168362219Y-92424285D01*
X169362219Y-91948094D02*
X168362219Y-91948094D01*
X168362219Y-91948094D02*
X168362219Y-91709999D01*
X168362219Y-91709999D02*
X168409838Y-91567142D01*
X168409838Y-91567142D02*
X168505076Y-91471904D01*
X168505076Y-91471904D02*
X168600314Y-91424285D01*
X168600314Y-91424285D02*
X168790790Y-91376666D01*
X168790790Y-91376666D02*
X168933647Y-91376666D01*
X168933647Y-91376666D02*
X169124123Y-91424285D01*
X169124123Y-91424285D02*
X169219361Y-91471904D01*
X169219361Y-91471904D02*
X169314600Y-91567142D01*
X169314600Y-91567142D02*
X169362219Y-91709999D01*
X169362219Y-91709999D02*
X169362219Y-91948094D01*
X171902219Y-93376666D02*
X171426028Y-93709999D01*
X171902219Y-93948094D02*
X170902219Y-93948094D01*
X170902219Y-93948094D02*
X170902219Y-93567142D01*
X170902219Y-93567142D02*
X170949838Y-93471904D01*
X170949838Y-93471904D02*
X170997457Y-93424285D01*
X170997457Y-93424285D02*
X171092695Y-93376666D01*
X171092695Y-93376666D02*
X171235552Y-93376666D01*
X171235552Y-93376666D02*
X171330790Y-93424285D01*
X171330790Y-93424285D02*
X171378409Y-93471904D01*
X171378409Y-93471904D02*
X171426028Y-93567142D01*
X171426028Y-93567142D02*
X171426028Y-93948094D01*
X171902219Y-92948094D02*
X170902219Y-92948094D01*
X170902219Y-92948094D02*
X170902219Y-92709999D01*
X170902219Y-92709999D02*
X170949838Y-92567142D01*
X170949838Y-92567142D02*
X171045076Y-92471904D01*
X171045076Y-92471904D02*
X171140314Y-92424285D01*
X171140314Y-92424285D02*
X171330790Y-92376666D01*
X171330790Y-92376666D02*
X171473647Y-92376666D01*
X171473647Y-92376666D02*
X171664123Y-92424285D01*
X171664123Y-92424285D02*
X171759361Y-92471904D01*
X171759361Y-92471904D02*
X171854600Y-92567142D01*
X171854600Y-92567142D02*
X171902219Y-92709999D01*
X171902219Y-92709999D02*
X171902219Y-92948094D01*
X171235552Y-91519523D02*
X171902219Y-91519523D01*
X170854600Y-91757618D02*
X171568885Y-91995713D01*
X171568885Y-91995713D02*
X171568885Y-91376666D01*
X171854600Y-82041904D02*
X171902219Y-81899047D01*
X171902219Y-81899047D02*
X171902219Y-81660952D01*
X171902219Y-81660952D02*
X171854600Y-81565714D01*
X171854600Y-81565714D02*
X171806980Y-81518095D01*
X171806980Y-81518095D02*
X171711742Y-81470476D01*
X171711742Y-81470476D02*
X171616504Y-81470476D01*
X171616504Y-81470476D02*
X171521266Y-81518095D01*
X171521266Y-81518095D02*
X171473647Y-81565714D01*
X171473647Y-81565714D02*
X171426028Y-81660952D01*
X171426028Y-81660952D02*
X171378409Y-81851428D01*
X171378409Y-81851428D02*
X171330790Y-81946666D01*
X171330790Y-81946666D02*
X171283171Y-81994285D01*
X171283171Y-81994285D02*
X171187933Y-82041904D01*
X171187933Y-82041904D02*
X171092695Y-82041904D01*
X171092695Y-82041904D02*
X170997457Y-81994285D01*
X170997457Y-81994285D02*
X170949838Y-81946666D01*
X170949838Y-81946666D02*
X170902219Y-81851428D01*
X170902219Y-81851428D02*
X170902219Y-81613333D01*
X170902219Y-81613333D02*
X170949838Y-81470476D01*
X171235552Y-80613333D02*
X171902219Y-80613333D01*
X170854600Y-80851428D02*
X171568885Y-81089523D01*
X171568885Y-81089523D02*
X171568885Y-80470476D01*
X170624600Y-82132381D02*
X170624600Y-80427619D01*
X169076504Y-81994285D02*
X169076504Y-81518095D01*
X169362219Y-82089523D02*
X168362219Y-81756190D01*
X168362219Y-81756190D02*
X169362219Y-81422857D01*
X168362219Y-81184761D02*
X168362219Y-80565714D01*
X168362219Y-80565714D02*
X168743171Y-80899047D01*
X168743171Y-80899047D02*
X168743171Y-80756190D01*
X168743171Y-80756190D02*
X168790790Y-80660952D01*
X168790790Y-80660952D02*
X168838409Y-80613333D01*
X168838409Y-80613333D02*
X168933647Y-80565714D01*
X168933647Y-80565714D02*
X169171742Y-80565714D01*
X169171742Y-80565714D02*
X169266980Y-80613333D01*
X169266980Y-80613333D02*
X169314600Y-80660952D01*
X169314600Y-80660952D02*
X169362219Y-80756190D01*
X169362219Y-80756190D02*
X169362219Y-81041904D01*
X169362219Y-81041904D02*
X169314600Y-81137142D01*
X169314600Y-81137142D02*
X169266980Y-81184761D01*
X166536504Y-81994285D02*
X166536504Y-81518095D01*
X166822219Y-82089523D02*
X165822219Y-81756190D01*
X165822219Y-81756190D02*
X166822219Y-81422857D01*
X165917457Y-81137142D02*
X165869838Y-81089523D01*
X165869838Y-81089523D02*
X165822219Y-80994285D01*
X165822219Y-80994285D02*
X165822219Y-80756190D01*
X165822219Y-80756190D02*
X165869838Y-80660952D01*
X165869838Y-80660952D02*
X165917457Y-80613333D01*
X165917457Y-80613333D02*
X166012695Y-80565714D01*
X166012695Y-80565714D02*
X166107933Y-80565714D01*
X166107933Y-80565714D02*
X166250790Y-80613333D01*
X166250790Y-80613333D02*
X166822219Y-81184761D01*
X166822219Y-81184761D02*
X166822219Y-80565714D01*
X163996504Y-81994285D02*
X163996504Y-81518095D01*
X164282219Y-82089523D02*
X163282219Y-81756190D01*
X163282219Y-81756190D02*
X164282219Y-81422857D01*
X164282219Y-80565714D02*
X164282219Y-81137142D01*
X164282219Y-80851428D02*
X163282219Y-80851428D01*
X163282219Y-80851428D02*
X163425076Y-80946666D01*
X163425076Y-80946666D02*
X163520314Y-81041904D01*
X163520314Y-81041904D02*
X163567933Y-81137142D01*
X161456504Y-81994285D02*
X161456504Y-81518095D01*
X161742219Y-82089523D02*
X160742219Y-81756190D01*
X160742219Y-81756190D02*
X161742219Y-81422857D01*
X160742219Y-80899047D02*
X160742219Y-80803809D01*
X160742219Y-80803809D02*
X160789838Y-80708571D01*
X160789838Y-80708571D02*
X160837457Y-80660952D01*
X160837457Y-80660952D02*
X160932695Y-80613333D01*
X160932695Y-80613333D02*
X161123171Y-80565714D01*
X161123171Y-80565714D02*
X161361266Y-80565714D01*
X161361266Y-80565714D02*
X161551742Y-80613333D01*
X161551742Y-80613333D02*
X161646980Y-80660952D01*
X161646980Y-80660952D02*
X161694600Y-80708571D01*
X161694600Y-80708571D02*
X161742219Y-80803809D01*
X161742219Y-80803809D02*
X161742219Y-80899047D01*
X161742219Y-80899047D02*
X161694600Y-80994285D01*
X161694600Y-80994285D02*
X161646980Y-81041904D01*
X161646980Y-81041904D02*
X161551742Y-81089523D01*
X161551742Y-81089523D02*
X161361266Y-81137142D01*
X161361266Y-81137142D02*
X161123171Y-81137142D01*
X161123171Y-81137142D02*
X160932695Y-81089523D01*
X160932695Y-81089523D02*
X160837457Y-81041904D01*
X160837457Y-81041904D02*
X160789838Y-80994285D01*
X160789838Y-80994285D02*
X160742219Y-80899047D01*
X156662219Y-82018094D02*
X155662219Y-82018094D01*
X155662219Y-82018094D02*
X155662219Y-81779999D01*
X155662219Y-81779999D02*
X155709838Y-81637142D01*
X155709838Y-81637142D02*
X155805076Y-81541904D01*
X155805076Y-81541904D02*
X155900314Y-81494285D01*
X155900314Y-81494285D02*
X156090790Y-81446666D01*
X156090790Y-81446666D02*
X156233647Y-81446666D01*
X156233647Y-81446666D02*
X156424123Y-81494285D01*
X156424123Y-81494285D02*
X156519361Y-81541904D01*
X156519361Y-81541904D02*
X156614600Y-81637142D01*
X156614600Y-81637142D02*
X156662219Y-81779999D01*
X156662219Y-81779999D02*
X156662219Y-82018094D01*
X155995552Y-80589523D02*
X156662219Y-80589523D01*
X155614600Y-80827618D02*
X156328885Y-81065713D01*
X156328885Y-81065713D02*
X156328885Y-80446666D01*
X154122219Y-82018094D02*
X153122219Y-82018094D01*
X153122219Y-82018094D02*
X153122219Y-81779999D01*
X153122219Y-81779999D02*
X153169838Y-81637142D01*
X153169838Y-81637142D02*
X153265076Y-81541904D01*
X153265076Y-81541904D02*
X153360314Y-81494285D01*
X153360314Y-81494285D02*
X153550790Y-81446666D01*
X153550790Y-81446666D02*
X153693647Y-81446666D01*
X153693647Y-81446666D02*
X153884123Y-81494285D01*
X153884123Y-81494285D02*
X153979361Y-81541904D01*
X153979361Y-81541904D02*
X154074600Y-81637142D01*
X154074600Y-81637142D02*
X154122219Y-81779999D01*
X154122219Y-81779999D02*
X154122219Y-82018094D01*
X153122219Y-80541904D02*
X153122219Y-81018094D01*
X153122219Y-81018094D02*
X153598409Y-81065713D01*
X153598409Y-81065713D02*
X153550790Y-81018094D01*
X153550790Y-81018094D02*
X153503171Y-80922856D01*
X153503171Y-80922856D02*
X153503171Y-80684761D01*
X153503171Y-80684761D02*
X153550790Y-80589523D01*
X153550790Y-80589523D02*
X153598409Y-80541904D01*
X153598409Y-80541904D02*
X153693647Y-80494285D01*
X153693647Y-80494285D02*
X153931742Y-80494285D01*
X153931742Y-80494285D02*
X154026980Y-80541904D01*
X154026980Y-80541904D02*
X154074600Y-80589523D01*
X154074600Y-80589523D02*
X154122219Y-80684761D01*
X154122219Y-80684761D02*
X154122219Y-80922856D01*
X154122219Y-80922856D02*
X154074600Y-81018094D01*
X154074600Y-81018094D02*
X154026980Y-81065713D01*
X151582219Y-82018094D02*
X150582219Y-82018094D01*
X150582219Y-82018094D02*
X150582219Y-81779999D01*
X150582219Y-81779999D02*
X150629838Y-81637142D01*
X150629838Y-81637142D02*
X150725076Y-81541904D01*
X150725076Y-81541904D02*
X150820314Y-81494285D01*
X150820314Y-81494285D02*
X151010790Y-81446666D01*
X151010790Y-81446666D02*
X151153647Y-81446666D01*
X151153647Y-81446666D02*
X151344123Y-81494285D01*
X151344123Y-81494285D02*
X151439361Y-81541904D01*
X151439361Y-81541904D02*
X151534600Y-81637142D01*
X151534600Y-81637142D02*
X151582219Y-81779999D01*
X151582219Y-81779999D02*
X151582219Y-82018094D01*
X150677457Y-81065713D02*
X150629838Y-81018094D01*
X150629838Y-81018094D02*
X150582219Y-80922856D01*
X150582219Y-80922856D02*
X150582219Y-80684761D01*
X150582219Y-80684761D02*
X150629838Y-80589523D01*
X150629838Y-80589523D02*
X150677457Y-80541904D01*
X150677457Y-80541904D02*
X150772695Y-80494285D01*
X150772695Y-80494285D02*
X150867933Y-80494285D01*
X150867933Y-80494285D02*
X151010790Y-80541904D01*
X151010790Y-80541904D02*
X151582219Y-81113332D01*
X151582219Y-81113332D02*
X151582219Y-80494285D01*
X149042219Y-82018094D02*
X148042219Y-82018094D01*
X148042219Y-82018094D02*
X148042219Y-81779999D01*
X148042219Y-81779999D02*
X148089838Y-81637142D01*
X148089838Y-81637142D02*
X148185076Y-81541904D01*
X148185076Y-81541904D02*
X148280314Y-81494285D01*
X148280314Y-81494285D02*
X148470790Y-81446666D01*
X148470790Y-81446666D02*
X148613647Y-81446666D01*
X148613647Y-81446666D02*
X148804123Y-81494285D01*
X148804123Y-81494285D02*
X148899361Y-81541904D01*
X148899361Y-81541904D02*
X148994600Y-81637142D01*
X148994600Y-81637142D02*
X149042219Y-81779999D01*
X149042219Y-81779999D02*
X149042219Y-82018094D01*
X149042219Y-80494285D02*
X149042219Y-81065713D01*
X149042219Y-80779999D02*
X148042219Y-80779999D01*
X148042219Y-80779999D02*
X148185076Y-80875237D01*
X148185076Y-80875237D02*
X148280314Y-80970475D01*
X148280314Y-80970475D02*
X148327933Y-81065713D01*
X146502219Y-82018094D02*
X145502219Y-82018094D01*
X145502219Y-82018094D02*
X145502219Y-81779999D01*
X145502219Y-81779999D02*
X145549838Y-81637142D01*
X145549838Y-81637142D02*
X145645076Y-81541904D01*
X145645076Y-81541904D02*
X145740314Y-81494285D01*
X145740314Y-81494285D02*
X145930790Y-81446666D01*
X145930790Y-81446666D02*
X146073647Y-81446666D01*
X146073647Y-81446666D02*
X146264123Y-81494285D01*
X146264123Y-81494285D02*
X146359361Y-81541904D01*
X146359361Y-81541904D02*
X146454600Y-81637142D01*
X146454600Y-81637142D02*
X146502219Y-81779999D01*
X146502219Y-81779999D02*
X146502219Y-82018094D01*
X145502219Y-80827618D02*
X145502219Y-80732380D01*
X145502219Y-80732380D02*
X145549838Y-80637142D01*
X145549838Y-80637142D02*
X145597457Y-80589523D01*
X145597457Y-80589523D02*
X145692695Y-80541904D01*
X145692695Y-80541904D02*
X145883171Y-80494285D01*
X145883171Y-80494285D02*
X146121266Y-80494285D01*
X146121266Y-80494285D02*
X146311742Y-80541904D01*
X146311742Y-80541904D02*
X146406980Y-80589523D01*
X146406980Y-80589523D02*
X146454600Y-80637142D01*
X146454600Y-80637142D02*
X146502219Y-80732380D01*
X146502219Y-80732380D02*
X146502219Y-80827618D01*
X146502219Y-80827618D02*
X146454600Y-80922856D01*
X146454600Y-80922856D02*
X146406980Y-80970475D01*
X146406980Y-80970475D02*
X146311742Y-81018094D01*
X146311742Y-81018094D02*
X146121266Y-81065713D01*
X146121266Y-81065713D02*
X145883171Y-81065713D01*
X145883171Y-81065713D02*
X145692695Y-81018094D01*
X145692695Y-81018094D02*
X145597457Y-80970475D01*
X145597457Y-80970475D02*
X145549838Y-80922856D01*
X145549838Y-80922856D02*
X145502219Y-80827618D01*
X141422219Y-82018094D02*
X140422219Y-82018094D01*
X140422219Y-82018094D02*
X140422219Y-81779999D01*
X140422219Y-81779999D02*
X140469838Y-81637142D01*
X140469838Y-81637142D02*
X140565076Y-81541904D01*
X140565076Y-81541904D02*
X140660314Y-81494285D01*
X140660314Y-81494285D02*
X140850790Y-81446666D01*
X140850790Y-81446666D02*
X140993647Y-81446666D01*
X140993647Y-81446666D02*
X141184123Y-81494285D01*
X141184123Y-81494285D02*
X141279361Y-81541904D01*
X141279361Y-81541904D02*
X141374600Y-81637142D01*
X141374600Y-81637142D02*
X141422219Y-81779999D01*
X141422219Y-81779999D02*
X141422219Y-82018094D01*
X140422219Y-80589523D02*
X140422219Y-80779999D01*
X140422219Y-80779999D02*
X140469838Y-80875237D01*
X140469838Y-80875237D02*
X140517457Y-80922856D01*
X140517457Y-80922856D02*
X140660314Y-81018094D01*
X140660314Y-81018094D02*
X140850790Y-81065713D01*
X140850790Y-81065713D02*
X141231742Y-81065713D01*
X141231742Y-81065713D02*
X141326980Y-81018094D01*
X141326980Y-81018094D02*
X141374600Y-80970475D01*
X141374600Y-80970475D02*
X141422219Y-80875237D01*
X141422219Y-80875237D02*
X141422219Y-80684761D01*
X141422219Y-80684761D02*
X141374600Y-80589523D01*
X141374600Y-80589523D02*
X141326980Y-80541904D01*
X141326980Y-80541904D02*
X141231742Y-80494285D01*
X141231742Y-80494285D02*
X140993647Y-80494285D01*
X140993647Y-80494285D02*
X140898409Y-80541904D01*
X140898409Y-80541904D02*
X140850790Y-80589523D01*
X140850790Y-80589523D02*
X140803171Y-80684761D01*
X140803171Y-80684761D02*
X140803171Y-80875237D01*
X140803171Y-80875237D02*
X140850790Y-80970475D01*
X140850790Y-80970475D02*
X140898409Y-81018094D01*
X140898409Y-81018094D02*
X140993647Y-81065713D01*
X138834600Y-82041904D02*
X138882219Y-81899047D01*
X138882219Y-81899047D02*
X138882219Y-81660952D01*
X138882219Y-81660952D02*
X138834600Y-81565714D01*
X138834600Y-81565714D02*
X138786980Y-81518095D01*
X138786980Y-81518095D02*
X138691742Y-81470476D01*
X138691742Y-81470476D02*
X138596504Y-81470476D01*
X138596504Y-81470476D02*
X138501266Y-81518095D01*
X138501266Y-81518095D02*
X138453647Y-81565714D01*
X138453647Y-81565714D02*
X138406028Y-81660952D01*
X138406028Y-81660952D02*
X138358409Y-81851428D01*
X138358409Y-81851428D02*
X138310790Y-81946666D01*
X138310790Y-81946666D02*
X138263171Y-81994285D01*
X138263171Y-81994285D02*
X138167933Y-82041904D01*
X138167933Y-82041904D02*
X138072695Y-82041904D01*
X138072695Y-82041904D02*
X137977457Y-81994285D01*
X137977457Y-81994285D02*
X137929838Y-81946666D01*
X137929838Y-81946666D02*
X137882219Y-81851428D01*
X137882219Y-81851428D02*
X137882219Y-81613333D01*
X137882219Y-81613333D02*
X137929838Y-81470476D01*
X137882219Y-80565714D02*
X137882219Y-81041904D01*
X137882219Y-81041904D02*
X138358409Y-81089523D01*
X138358409Y-81089523D02*
X138310790Y-81041904D01*
X138310790Y-81041904D02*
X138263171Y-80946666D01*
X138263171Y-80946666D02*
X138263171Y-80708571D01*
X138263171Y-80708571D02*
X138310790Y-80613333D01*
X138310790Y-80613333D02*
X138358409Y-80565714D01*
X138358409Y-80565714D02*
X138453647Y-80518095D01*
X138453647Y-80518095D02*
X138691742Y-80518095D01*
X138691742Y-80518095D02*
X138786980Y-80565714D01*
X138786980Y-80565714D02*
X138834600Y-80613333D01*
X138834600Y-80613333D02*
X138882219Y-80708571D01*
X138882219Y-80708571D02*
X138882219Y-80946666D01*
X138882219Y-80946666D02*
X138834600Y-81041904D01*
X138834600Y-81041904D02*
X138786980Y-81089523D01*
X137604600Y-82132381D02*
X137604600Y-80427619D01*
X135342219Y-82613332D02*
X136342219Y-82279999D01*
X136342219Y-82279999D02*
X135342219Y-81946666D01*
X136246980Y-81041904D02*
X136294600Y-81089523D01*
X136294600Y-81089523D02*
X136342219Y-81232380D01*
X136342219Y-81232380D02*
X136342219Y-81327618D01*
X136342219Y-81327618D02*
X136294600Y-81470475D01*
X136294600Y-81470475D02*
X136199361Y-81565713D01*
X136199361Y-81565713D02*
X136104123Y-81613332D01*
X136104123Y-81613332D02*
X135913647Y-81660951D01*
X135913647Y-81660951D02*
X135770790Y-81660951D01*
X135770790Y-81660951D02*
X135580314Y-81613332D01*
X135580314Y-81613332D02*
X135485076Y-81565713D01*
X135485076Y-81565713D02*
X135389838Y-81470475D01*
X135389838Y-81470475D02*
X135342219Y-81327618D01*
X135342219Y-81327618D02*
X135342219Y-81232380D01*
X135342219Y-81232380D02*
X135389838Y-81089523D01*
X135389838Y-81089523D02*
X135437457Y-81041904D01*
X136246980Y-80041904D02*
X136294600Y-80089523D01*
X136294600Y-80089523D02*
X136342219Y-80232380D01*
X136342219Y-80232380D02*
X136342219Y-80327618D01*
X136342219Y-80327618D02*
X136294600Y-80470475D01*
X136294600Y-80470475D02*
X136199361Y-80565713D01*
X136199361Y-80565713D02*
X136104123Y-80613332D01*
X136104123Y-80613332D02*
X135913647Y-80660951D01*
X135913647Y-80660951D02*
X135770790Y-80660951D01*
X135770790Y-80660951D02*
X135580314Y-80613332D01*
X135580314Y-80613332D02*
X135485076Y-80565713D01*
X135485076Y-80565713D02*
X135389838Y-80470475D01*
X135389838Y-80470475D02*
X135342219Y-80327618D01*
X135342219Y-80327618D02*
X135342219Y-80232380D01*
X135342219Y-80232380D02*
X135389838Y-80089523D01*
X135389838Y-80089523D02*
X135437457Y-80041904D01*
X133802219Y-81946666D02*
X133326028Y-82279999D01*
X133802219Y-82518094D02*
X132802219Y-82518094D01*
X132802219Y-82518094D02*
X132802219Y-82137142D01*
X132802219Y-82137142D02*
X132849838Y-82041904D01*
X132849838Y-82041904D02*
X132897457Y-81994285D01*
X132897457Y-81994285D02*
X132992695Y-81946666D01*
X132992695Y-81946666D02*
X133135552Y-81946666D01*
X133135552Y-81946666D02*
X133230790Y-81994285D01*
X133230790Y-81994285D02*
X133278409Y-82041904D01*
X133278409Y-82041904D02*
X133326028Y-82137142D01*
X133326028Y-82137142D02*
X133326028Y-82518094D01*
X133802219Y-81518094D02*
X132802219Y-81518094D01*
X132802219Y-81518094D02*
X132802219Y-81279999D01*
X132802219Y-81279999D02*
X132849838Y-81137142D01*
X132849838Y-81137142D02*
X132945076Y-81041904D01*
X132945076Y-81041904D02*
X133040314Y-80994285D01*
X133040314Y-80994285D02*
X133230790Y-80946666D01*
X133230790Y-80946666D02*
X133373647Y-80946666D01*
X133373647Y-80946666D02*
X133564123Y-80994285D01*
X133564123Y-80994285D02*
X133659361Y-81041904D01*
X133659361Y-81041904D02*
X133754600Y-81137142D01*
X133754600Y-81137142D02*
X133802219Y-81279999D01*
X133802219Y-81279999D02*
X133802219Y-81518094D01*
X132802219Y-80041904D02*
X132802219Y-80518094D01*
X132802219Y-80518094D02*
X133278409Y-80565713D01*
X133278409Y-80565713D02*
X133230790Y-80518094D01*
X133230790Y-80518094D02*
X133183171Y-80422856D01*
X133183171Y-80422856D02*
X133183171Y-80184761D01*
X133183171Y-80184761D02*
X133230790Y-80089523D01*
X133230790Y-80089523D02*
X133278409Y-80041904D01*
X133278409Y-80041904D02*
X133373647Y-79994285D01*
X133373647Y-79994285D02*
X133611742Y-79994285D01*
X133611742Y-79994285D02*
X133706980Y-80041904D01*
X133706980Y-80041904D02*
X133754600Y-80089523D01*
X133754600Y-80089523D02*
X133802219Y-80184761D01*
X133802219Y-80184761D02*
X133802219Y-80422856D01*
X133802219Y-80422856D02*
X133754600Y-80518094D01*
X133754600Y-80518094D02*
X133706980Y-80565713D01*
X131166980Y-82256190D02*
X131214600Y-82303809D01*
X131214600Y-82303809D02*
X131262219Y-82446666D01*
X131262219Y-82446666D02*
X131262219Y-82541904D01*
X131262219Y-82541904D02*
X131214600Y-82684761D01*
X131214600Y-82684761D02*
X131119361Y-82779999D01*
X131119361Y-82779999D02*
X131024123Y-82827618D01*
X131024123Y-82827618D02*
X130833647Y-82875237D01*
X130833647Y-82875237D02*
X130690790Y-82875237D01*
X130690790Y-82875237D02*
X130500314Y-82827618D01*
X130500314Y-82827618D02*
X130405076Y-82779999D01*
X130405076Y-82779999D02*
X130309838Y-82684761D01*
X130309838Y-82684761D02*
X130262219Y-82541904D01*
X130262219Y-82541904D02*
X130262219Y-82446666D01*
X130262219Y-82446666D02*
X130309838Y-82303809D01*
X130309838Y-82303809D02*
X130357457Y-82256190D01*
X131166980Y-81256190D02*
X131214600Y-81303809D01*
X131214600Y-81303809D02*
X131262219Y-81446666D01*
X131262219Y-81446666D02*
X131262219Y-81541904D01*
X131262219Y-81541904D02*
X131214600Y-81684761D01*
X131214600Y-81684761D02*
X131119361Y-81779999D01*
X131119361Y-81779999D02*
X131024123Y-81827618D01*
X131024123Y-81827618D02*
X130833647Y-81875237D01*
X130833647Y-81875237D02*
X130690790Y-81875237D01*
X130690790Y-81875237D02*
X130500314Y-81827618D01*
X130500314Y-81827618D02*
X130405076Y-81779999D01*
X130405076Y-81779999D02*
X130309838Y-81684761D01*
X130309838Y-81684761D02*
X130262219Y-81541904D01*
X130262219Y-81541904D02*
X130262219Y-81446666D01*
X130262219Y-81446666D02*
X130309838Y-81303809D01*
X130309838Y-81303809D02*
X130357457Y-81256190D01*
X130262219Y-80970475D02*
X130262219Y-80399047D01*
X131262219Y-80684761D02*
X130262219Y-80684761D01*
X131262219Y-79589523D02*
X131262219Y-80065713D01*
X131262219Y-80065713D02*
X130262219Y-80065713D01*
X129984600Y-82965714D02*
X129984600Y-79594285D01*
D12*
X131483333Y-69944819D02*
X131150000Y-69468628D01*
X130911905Y-69944819D02*
X130911905Y-68944819D01*
X130911905Y-68944819D02*
X131292857Y-68944819D01*
X131292857Y-68944819D02*
X131388095Y-68992438D01*
X131388095Y-68992438D02*
X131435714Y-69040057D01*
X131435714Y-69040057D02*
X131483333Y-69135295D01*
X131483333Y-69135295D02*
X131483333Y-69278152D01*
X131483333Y-69278152D02*
X131435714Y-69373390D01*
X131435714Y-69373390D02*
X131388095Y-69421009D01*
X131388095Y-69421009D02*
X131292857Y-69468628D01*
X131292857Y-69468628D02*
X130911905Y-69468628D01*
X132435714Y-69944819D02*
X131864286Y-69944819D01*
X132150000Y-69944819D02*
X132150000Y-68944819D01*
X132150000Y-68944819D02*
X132054762Y-69087676D01*
X132054762Y-69087676D02*
X131959524Y-69182914D01*
X131959524Y-69182914D02*
X131864286Y-69230533D01*
X138111333Y-69775819D02*
X137635143Y-69775819D01*
X137635143Y-69775819D02*
X137635143Y-68775819D01*
X138444667Y-69775819D02*
X138444667Y-68775819D01*
X138444667Y-68775819D02*
X138682762Y-68775819D01*
X138682762Y-68775819D02*
X138825619Y-68823438D01*
X138825619Y-68823438D02*
X138920857Y-68918676D01*
X138920857Y-68918676D02*
X138968476Y-69013914D01*
X138968476Y-69013914D02*
X139016095Y-69204390D01*
X139016095Y-69204390D02*
X139016095Y-69347247D01*
X139016095Y-69347247D02*
X138968476Y-69537723D01*
X138968476Y-69537723D02*
X138920857Y-69632961D01*
X138920857Y-69632961D02*
X138825619Y-69728200D01*
X138825619Y-69728200D02*
X138682762Y-69775819D01*
X138682762Y-69775819D02*
X138444667Y-69775819D01*
X139968476Y-69775819D02*
X139397048Y-69775819D01*
X139682762Y-69775819D02*
X139682762Y-68775819D01*
X139682762Y-68775819D02*
X139587524Y-68918676D01*
X139587524Y-68918676D02*
X139492286Y-69013914D01*
X139492286Y-69013914D02*
X139397048Y-69061533D01*
X132801714Y-107327450D02*
X132908857Y-107363164D01*
X132908857Y-107363164D02*
X133087428Y-107363164D01*
X133087428Y-107363164D02*
X133158857Y-107327450D01*
X133158857Y-107327450D02*
X133194571Y-107291735D01*
X133194571Y-107291735D02*
X133230285Y-107220307D01*
X133230285Y-107220307D02*
X133230285Y-107148878D01*
X133230285Y-107148878D02*
X133194571Y-107077450D01*
X133194571Y-107077450D02*
X133158857Y-107041735D01*
X133158857Y-107041735D02*
X133087428Y-107006021D01*
X133087428Y-107006021D02*
X132944571Y-106970307D01*
X132944571Y-106970307D02*
X132873142Y-106934592D01*
X132873142Y-106934592D02*
X132837428Y-106898878D01*
X132837428Y-106898878D02*
X132801714Y-106827450D01*
X132801714Y-106827450D02*
X132801714Y-106756021D01*
X132801714Y-106756021D02*
X132837428Y-106684592D01*
X132837428Y-106684592D02*
X132873142Y-106648878D01*
X132873142Y-106648878D02*
X132944571Y-106613164D01*
X132944571Y-106613164D02*
X133123142Y-106613164D01*
X133123142Y-106613164D02*
X133230285Y-106648878D01*
X168651429Y-107148878D02*
X169008572Y-107148878D01*
X168580000Y-107363164D02*
X168830000Y-106613164D01*
X168830000Y-106613164D02*
X169080000Y-107363164D01*
X149153332Y-107971009D02*
X148819999Y-107971009D01*
X148819999Y-108494819D02*
X148819999Y-107494819D01*
X148819999Y-107494819D02*
X149296189Y-107494819D01*
X149677142Y-108494819D02*
X149677142Y-107828152D01*
X149677142Y-108018628D02*
X149724761Y-107923390D01*
X149724761Y-107923390D02*
X149772380Y-107875771D01*
X149772380Y-107875771D02*
X149867618Y-107828152D01*
X149867618Y-107828152D02*
X149962856Y-107828152D01*
X150439047Y-108494819D02*
X150343809Y-108447200D01*
X150343809Y-108447200D02*
X150296190Y-108399580D01*
X150296190Y-108399580D02*
X150248571Y-108304342D01*
X150248571Y-108304342D02*
X150248571Y-108018628D01*
X150248571Y-108018628D02*
X150296190Y-107923390D01*
X150296190Y-107923390D02*
X150343809Y-107875771D01*
X150343809Y-107875771D02*
X150439047Y-107828152D01*
X150439047Y-107828152D02*
X150581904Y-107828152D01*
X150581904Y-107828152D02*
X150677142Y-107875771D01*
X150677142Y-107875771D02*
X150724761Y-107923390D01*
X150724761Y-107923390D02*
X150772380Y-108018628D01*
X150772380Y-108018628D02*
X150772380Y-108304342D01*
X150772380Y-108304342D02*
X150724761Y-108399580D01*
X150724761Y-108399580D02*
X150677142Y-108447200D01*
X150677142Y-108447200D02*
X150581904Y-108494819D01*
X150581904Y-108494819D02*
X150439047Y-108494819D01*
X151200952Y-107828152D02*
X151200952Y-108494819D01*
X151200952Y-107923390D02*
X151248571Y-107875771D01*
X151248571Y-107875771D02*
X151343809Y-107828152D01*
X151343809Y-107828152D02*
X151486666Y-107828152D01*
X151486666Y-107828152D02*
X151581904Y-107875771D01*
X151581904Y-107875771D02*
X151629523Y-107971009D01*
X151629523Y-107971009D02*
X151629523Y-108494819D01*
X151962857Y-107828152D02*
X152343809Y-107828152D01*
X152105714Y-107494819D02*
X152105714Y-108351961D01*
X152105714Y-108351961D02*
X152153333Y-108447200D01*
X152153333Y-108447200D02*
X152248571Y-108494819D01*
X152248571Y-108494819D02*
X152343809Y-108494819D01*
X153391428Y-107447200D02*
X152534286Y-108732914D01*
X153581905Y-107494819D02*
X154153333Y-107494819D01*
X153867619Y-108494819D02*
X153867619Y-107494819D01*
X154629524Y-108494819D02*
X154534286Y-108447200D01*
X154534286Y-108447200D02*
X154486667Y-108399580D01*
X154486667Y-108399580D02*
X154439048Y-108304342D01*
X154439048Y-108304342D02*
X154439048Y-108018628D01*
X154439048Y-108018628D02*
X154486667Y-107923390D01*
X154486667Y-107923390D02*
X154534286Y-107875771D01*
X154534286Y-107875771D02*
X154629524Y-107828152D01*
X154629524Y-107828152D02*
X154772381Y-107828152D01*
X154772381Y-107828152D02*
X154867619Y-107875771D01*
X154867619Y-107875771D02*
X154915238Y-107923390D01*
X154915238Y-107923390D02*
X154962857Y-108018628D01*
X154962857Y-108018628D02*
X154962857Y-108304342D01*
X154962857Y-108304342D02*
X154915238Y-108399580D01*
X154915238Y-108399580D02*
X154867619Y-108447200D01*
X154867619Y-108447200D02*
X154772381Y-108494819D01*
X154772381Y-108494819D02*
X154629524Y-108494819D01*
X155391429Y-107828152D02*
X155391429Y-108828152D01*
X155391429Y-107875771D02*
X155486667Y-107828152D01*
X155486667Y-107828152D02*
X155677143Y-107828152D01*
X155677143Y-107828152D02*
X155772381Y-107875771D01*
X155772381Y-107875771D02*
X155820000Y-107923390D01*
X155820000Y-107923390D02*
X155867619Y-108018628D01*
X155867619Y-108018628D02*
X155867619Y-108304342D01*
X155867619Y-108304342D02*
X155820000Y-108399580D01*
X155820000Y-108399580D02*
X155772381Y-108447200D01*
X155772381Y-108447200D02*
X155677143Y-108494819D01*
X155677143Y-108494819D02*
X155486667Y-108494819D01*
X155486667Y-108494819D02*
X155391429Y-108447200D01*
X165792438Y-111341904D02*
X165744819Y-111437142D01*
X165744819Y-111437142D02*
X165744819Y-111579999D01*
X165744819Y-111579999D02*
X165792438Y-111722856D01*
X165792438Y-111722856D02*
X165887676Y-111818094D01*
X165887676Y-111818094D02*
X165982914Y-111865713D01*
X165982914Y-111865713D02*
X166173390Y-111913332D01*
X166173390Y-111913332D02*
X166316247Y-111913332D01*
X166316247Y-111913332D02*
X166506723Y-111865713D01*
X166506723Y-111865713D02*
X166601961Y-111818094D01*
X166601961Y-111818094D02*
X166697200Y-111722856D01*
X166697200Y-111722856D02*
X166744819Y-111579999D01*
X166744819Y-111579999D02*
X166744819Y-111484761D01*
X166744819Y-111484761D02*
X166697200Y-111341904D01*
X166697200Y-111341904D02*
X166649580Y-111294285D01*
X166649580Y-111294285D02*
X166316247Y-111294285D01*
X166316247Y-111294285D02*
X166316247Y-111484761D01*
X166744819Y-110865713D02*
X165744819Y-110865713D01*
X165744819Y-110865713D02*
X166744819Y-110294285D01*
X166744819Y-110294285D02*
X165744819Y-110294285D01*
X166744819Y-109818094D02*
X165744819Y-109818094D01*
X165744819Y-109818094D02*
X165744819Y-109579999D01*
X165744819Y-109579999D02*
X165792438Y-109437142D01*
X165792438Y-109437142D02*
X165887676Y-109341904D01*
X165887676Y-109341904D02*
X165982914Y-109294285D01*
X165982914Y-109294285D02*
X166173390Y-109246666D01*
X166173390Y-109246666D02*
X166316247Y-109246666D01*
X166316247Y-109246666D02*
X166506723Y-109294285D01*
X166506723Y-109294285D02*
X166601961Y-109341904D01*
X166601961Y-109341904D02*
X166697200Y-109437142D01*
X166697200Y-109437142D02*
X166744819Y-109579999D01*
X166744819Y-109579999D02*
X166744819Y-109818094D01*
X161379104Y-111802285D02*
X161379104Y-111326095D01*
X161664819Y-111897523D02*
X160664819Y-111564190D01*
X160664819Y-111564190D02*
X161664819Y-111230857D01*
X160664819Y-110421333D02*
X160664819Y-110897523D01*
X160664819Y-110897523D02*
X161141009Y-110945142D01*
X161141009Y-110945142D02*
X161093390Y-110897523D01*
X161093390Y-110897523D02*
X161045771Y-110802285D01*
X161045771Y-110802285D02*
X161045771Y-110564190D01*
X161045771Y-110564190D02*
X161093390Y-110468952D01*
X161093390Y-110468952D02*
X161141009Y-110421333D01*
X161141009Y-110421333D02*
X161236247Y-110373714D01*
X161236247Y-110373714D02*
X161474342Y-110373714D01*
X161474342Y-110373714D02*
X161569580Y-110421333D01*
X161569580Y-110421333D02*
X161617200Y-110468952D01*
X161617200Y-110468952D02*
X161664819Y-110564190D01*
X161664819Y-110564190D02*
X161664819Y-110802285D01*
X161664819Y-110802285D02*
X161617200Y-110897523D01*
X161617200Y-110897523D02*
X161569580Y-110945142D01*
X158839104Y-111802285D02*
X158839104Y-111326095D01*
X159124819Y-111897523D02*
X158124819Y-111564190D01*
X158124819Y-111564190D02*
X159124819Y-111230857D01*
X158124819Y-110468952D02*
X158124819Y-110659428D01*
X158124819Y-110659428D02*
X158172438Y-110754666D01*
X158172438Y-110754666D02*
X158220057Y-110802285D01*
X158220057Y-110802285D02*
X158362914Y-110897523D01*
X158362914Y-110897523D02*
X158553390Y-110945142D01*
X158553390Y-110945142D02*
X158934342Y-110945142D01*
X158934342Y-110945142D02*
X159029580Y-110897523D01*
X159029580Y-110897523D02*
X159077200Y-110849904D01*
X159077200Y-110849904D02*
X159124819Y-110754666D01*
X159124819Y-110754666D02*
X159124819Y-110564190D01*
X159124819Y-110564190D02*
X159077200Y-110468952D01*
X159077200Y-110468952D02*
X159029580Y-110421333D01*
X159029580Y-110421333D02*
X158934342Y-110373714D01*
X158934342Y-110373714D02*
X158696247Y-110373714D01*
X158696247Y-110373714D02*
X158601009Y-110421333D01*
X158601009Y-110421333D02*
X158553390Y-110468952D01*
X158553390Y-110468952D02*
X158505771Y-110564190D01*
X158505771Y-110564190D02*
X158505771Y-110754666D01*
X158505771Y-110754666D02*
X158553390Y-110849904D01*
X158553390Y-110849904D02*
X158601009Y-110897523D01*
X158601009Y-110897523D02*
X158696247Y-110945142D01*
X156299104Y-111802285D02*
X156299104Y-111326095D01*
X156584819Y-111897523D02*
X155584819Y-111564190D01*
X155584819Y-111564190D02*
X156584819Y-111230857D01*
X155584819Y-110992761D02*
X155584819Y-110326095D01*
X155584819Y-110326095D02*
X156584819Y-110754666D01*
X153759104Y-111802285D02*
X153759104Y-111326095D01*
X154044819Y-111897523D02*
X153044819Y-111564190D01*
X153044819Y-111564190D02*
X154044819Y-111230857D01*
X153473390Y-110754666D02*
X153425771Y-110849904D01*
X153425771Y-110849904D02*
X153378152Y-110897523D01*
X153378152Y-110897523D02*
X153282914Y-110945142D01*
X153282914Y-110945142D02*
X153235295Y-110945142D01*
X153235295Y-110945142D02*
X153140057Y-110897523D01*
X153140057Y-110897523D02*
X153092438Y-110849904D01*
X153092438Y-110849904D02*
X153044819Y-110754666D01*
X153044819Y-110754666D02*
X153044819Y-110564190D01*
X153044819Y-110564190D02*
X153092438Y-110468952D01*
X153092438Y-110468952D02*
X153140057Y-110421333D01*
X153140057Y-110421333D02*
X153235295Y-110373714D01*
X153235295Y-110373714D02*
X153282914Y-110373714D01*
X153282914Y-110373714D02*
X153378152Y-110421333D01*
X153378152Y-110421333D02*
X153425771Y-110468952D01*
X153425771Y-110468952D02*
X153473390Y-110564190D01*
X153473390Y-110564190D02*
X153473390Y-110754666D01*
X153473390Y-110754666D02*
X153521009Y-110849904D01*
X153521009Y-110849904D02*
X153568628Y-110897523D01*
X153568628Y-110897523D02*
X153663866Y-110945142D01*
X153663866Y-110945142D02*
X153854342Y-110945142D01*
X153854342Y-110945142D02*
X153949580Y-110897523D01*
X153949580Y-110897523D02*
X153997200Y-110849904D01*
X153997200Y-110849904D02*
X154044819Y-110754666D01*
X154044819Y-110754666D02*
X154044819Y-110564190D01*
X154044819Y-110564190D02*
X153997200Y-110468952D01*
X153997200Y-110468952D02*
X153949580Y-110421333D01*
X153949580Y-110421333D02*
X153854342Y-110373714D01*
X153854342Y-110373714D02*
X153663866Y-110373714D01*
X153663866Y-110373714D02*
X153568628Y-110421333D01*
X153568628Y-110421333D02*
X153521009Y-110468952D01*
X153521009Y-110468952D02*
X153473390Y-110564190D01*
X151219104Y-111802285D02*
X151219104Y-111326095D01*
X151504819Y-111897523D02*
X150504819Y-111564190D01*
X150504819Y-111564190D02*
X151504819Y-111230857D01*
X151504819Y-110849904D02*
X151504819Y-110659428D01*
X151504819Y-110659428D02*
X151457200Y-110564190D01*
X151457200Y-110564190D02*
X151409580Y-110516571D01*
X151409580Y-110516571D02*
X151266723Y-110421333D01*
X151266723Y-110421333D02*
X151076247Y-110373714D01*
X151076247Y-110373714D02*
X150695295Y-110373714D01*
X150695295Y-110373714D02*
X150600057Y-110421333D01*
X150600057Y-110421333D02*
X150552438Y-110468952D01*
X150552438Y-110468952D02*
X150504819Y-110564190D01*
X150504819Y-110564190D02*
X150504819Y-110754666D01*
X150504819Y-110754666D02*
X150552438Y-110849904D01*
X150552438Y-110849904D02*
X150600057Y-110897523D01*
X150600057Y-110897523D02*
X150695295Y-110945142D01*
X150695295Y-110945142D02*
X150933390Y-110945142D01*
X150933390Y-110945142D02*
X151028628Y-110897523D01*
X151028628Y-110897523D02*
X151076247Y-110849904D01*
X151076247Y-110849904D02*
X151123866Y-110754666D01*
X151123866Y-110754666D02*
X151123866Y-110564190D01*
X151123866Y-110564190D02*
X151076247Y-110468952D01*
X151076247Y-110468952D02*
X151028628Y-110421333D01*
X151028628Y-110421333D02*
X150933390Y-110373714D01*
X148679104Y-111770475D02*
X148679104Y-111294285D01*
X148964819Y-111865713D02*
X147964819Y-111532380D01*
X147964819Y-111532380D02*
X148964819Y-111199047D01*
X148964819Y-110341904D02*
X148964819Y-110913332D01*
X148964819Y-110627618D02*
X147964819Y-110627618D01*
X147964819Y-110627618D02*
X148107676Y-110722856D01*
X148107676Y-110722856D02*
X148202914Y-110818094D01*
X148202914Y-110818094D02*
X148250533Y-110913332D01*
X148060057Y-109960951D02*
X148012438Y-109913332D01*
X148012438Y-109913332D02*
X147964819Y-109818094D01*
X147964819Y-109818094D02*
X147964819Y-109579999D01*
X147964819Y-109579999D02*
X148012438Y-109484761D01*
X148012438Y-109484761D02*
X148060057Y-109437142D01*
X148060057Y-109437142D02*
X148155295Y-109389523D01*
X148155295Y-109389523D02*
X148250533Y-109389523D01*
X148250533Y-109389523D02*
X148393390Y-109437142D01*
X148393390Y-109437142D02*
X148964819Y-110008570D01*
X148964819Y-110008570D02*
X148964819Y-109389523D01*
X141059104Y-111770475D02*
X141059104Y-111294285D01*
X141344819Y-111865713D02*
X140344819Y-111532380D01*
X140344819Y-111532380D02*
X141344819Y-111199047D01*
X141344819Y-110341904D02*
X141344819Y-110913332D01*
X141344819Y-110627618D02*
X140344819Y-110627618D01*
X140344819Y-110627618D02*
X140487676Y-110722856D01*
X140487676Y-110722856D02*
X140582914Y-110818094D01*
X140582914Y-110818094D02*
X140630533Y-110913332D01*
X141344819Y-109389523D02*
X141344819Y-109960951D01*
X141344819Y-109675237D02*
X140344819Y-109675237D01*
X140344819Y-109675237D02*
X140487676Y-109770475D01*
X140487676Y-109770475D02*
X140582914Y-109865713D01*
X140582914Y-109865713D02*
X140630533Y-109960951D01*
X138519104Y-111770475D02*
X138519104Y-111294285D01*
X138804819Y-111865713D02*
X137804819Y-111532380D01*
X137804819Y-111532380D02*
X138804819Y-111199047D01*
X138804819Y-110341904D02*
X138804819Y-110913332D01*
X138804819Y-110627618D02*
X137804819Y-110627618D01*
X137804819Y-110627618D02*
X137947676Y-110722856D01*
X137947676Y-110722856D02*
X138042914Y-110818094D01*
X138042914Y-110818094D02*
X138090533Y-110913332D01*
X137804819Y-109722856D02*
X137804819Y-109627618D01*
X137804819Y-109627618D02*
X137852438Y-109532380D01*
X137852438Y-109532380D02*
X137900057Y-109484761D01*
X137900057Y-109484761D02*
X137995295Y-109437142D01*
X137995295Y-109437142D02*
X138185771Y-109389523D01*
X138185771Y-109389523D02*
X138423866Y-109389523D01*
X138423866Y-109389523D02*
X138614342Y-109437142D01*
X138614342Y-109437142D02*
X138709580Y-109484761D01*
X138709580Y-109484761D02*
X138757200Y-109532380D01*
X138757200Y-109532380D02*
X138804819Y-109627618D01*
X138804819Y-109627618D02*
X138804819Y-109722856D01*
X138804819Y-109722856D02*
X138757200Y-109818094D01*
X138757200Y-109818094D02*
X138709580Y-109865713D01*
X138709580Y-109865713D02*
X138614342Y-109913332D01*
X138614342Y-109913332D02*
X138423866Y-109960951D01*
X138423866Y-109960951D02*
X138185771Y-109960951D01*
X138185771Y-109960951D02*
X137995295Y-109913332D01*
X137995295Y-109913332D02*
X137900057Y-109865713D01*
X137900057Y-109865713D02*
X137852438Y-109818094D01*
X137852438Y-109818094D02*
X137804819Y-109722856D01*
X136264819Y-111111714D02*
X135788628Y-111445047D01*
X136264819Y-111683142D02*
X135264819Y-111683142D01*
X135264819Y-111683142D02*
X135264819Y-111302190D01*
X135264819Y-111302190D02*
X135312438Y-111206952D01*
X135312438Y-111206952D02*
X135360057Y-111159333D01*
X135360057Y-111159333D02*
X135455295Y-111111714D01*
X135455295Y-111111714D02*
X135598152Y-111111714D01*
X135598152Y-111111714D02*
X135693390Y-111159333D01*
X135693390Y-111159333D02*
X135741009Y-111206952D01*
X135741009Y-111206952D02*
X135788628Y-111302190D01*
X135788628Y-111302190D02*
X135788628Y-111683142D01*
X135217200Y-109968857D02*
X136502914Y-110825999D01*
X135264819Y-109730761D02*
X136264819Y-109492666D01*
X136264819Y-109492666D02*
X135550533Y-109302190D01*
X135550533Y-109302190D02*
X136264819Y-109111714D01*
X136264819Y-109111714D02*
X135264819Y-108873619D01*
X134987200Y-109773619D02*
X134987200Y-108830762D01*
X133201009Y-111460952D02*
X133248628Y-111318095D01*
X133248628Y-111318095D02*
X133296247Y-111270476D01*
X133296247Y-111270476D02*
X133391485Y-111222857D01*
X133391485Y-111222857D02*
X133534342Y-111222857D01*
X133534342Y-111222857D02*
X133629580Y-111270476D01*
X133629580Y-111270476D02*
X133677200Y-111318095D01*
X133677200Y-111318095D02*
X133724819Y-111413333D01*
X133724819Y-111413333D02*
X133724819Y-111794285D01*
X133724819Y-111794285D02*
X132724819Y-111794285D01*
X132724819Y-111794285D02*
X132724819Y-111460952D01*
X132724819Y-111460952D02*
X132772438Y-111365714D01*
X132772438Y-111365714D02*
X132820057Y-111318095D01*
X132820057Y-111318095D02*
X132915295Y-111270476D01*
X132915295Y-111270476D02*
X133010533Y-111270476D01*
X133010533Y-111270476D02*
X133105771Y-111318095D01*
X133105771Y-111318095D02*
X133153390Y-111365714D01*
X133153390Y-111365714D02*
X133201009Y-111460952D01*
X133201009Y-111460952D02*
X133201009Y-111794285D01*
X132724819Y-110603809D02*
X132724819Y-110508571D01*
X132724819Y-110508571D02*
X132772438Y-110413333D01*
X132772438Y-110413333D02*
X132820057Y-110365714D01*
X132820057Y-110365714D02*
X132915295Y-110318095D01*
X132915295Y-110318095D02*
X133105771Y-110270476D01*
X133105771Y-110270476D02*
X133343866Y-110270476D01*
X133343866Y-110270476D02*
X133534342Y-110318095D01*
X133534342Y-110318095D02*
X133629580Y-110365714D01*
X133629580Y-110365714D02*
X133677200Y-110413333D01*
X133677200Y-110413333D02*
X133724819Y-110508571D01*
X133724819Y-110508571D02*
X133724819Y-110603809D01*
X133724819Y-110603809D02*
X133677200Y-110699047D01*
X133677200Y-110699047D02*
X133629580Y-110746666D01*
X133629580Y-110746666D02*
X133534342Y-110794285D01*
X133534342Y-110794285D02*
X133343866Y-110841904D01*
X133343866Y-110841904D02*
X133105771Y-110841904D01*
X133105771Y-110841904D02*
X132915295Y-110794285D01*
X132915295Y-110794285D02*
X132820057Y-110746666D01*
X132820057Y-110746666D02*
X132772438Y-110699047D01*
X132772438Y-110699047D02*
X132724819Y-110603809D01*
X132820057Y-109889523D02*
X132772438Y-109841904D01*
X132772438Y-109841904D02*
X132724819Y-109746666D01*
X132724819Y-109746666D02*
X132724819Y-109508571D01*
X132724819Y-109508571D02*
X132772438Y-109413333D01*
X132772438Y-109413333D02*
X132820057Y-109365714D01*
X132820057Y-109365714D02*
X132915295Y-109318095D01*
X132915295Y-109318095D02*
X133010533Y-109318095D01*
X133010533Y-109318095D02*
X133153390Y-109365714D01*
X133153390Y-109365714D02*
X133724819Y-109937142D01*
X133724819Y-109937142D02*
X133724819Y-109318095D01*
X146424819Y-111826094D02*
X145424819Y-111826094D01*
X145424819Y-111826094D02*
X145424819Y-111587999D01*
X145424819Y-111587999D02*
X145472438Y-111445142D01*
X145472438Y-111445142D02*
X145567676Y-111349904D01*
X145567676Y-111349904D02*
X145662914Y-111302285D01*
X145662914Y-111302285D02*
X145853390Y-111254666D01*
X145853390Y-111254666D02*
X145996247Y-111254666D01*
X145996247Y-111254666D02*
X146186723Y-111302285D01*
X146186723Y-111302285D02*
X146281961Y-111349904D01*
X146281961Y-111349904D02*
X146377200Y-111445142D01*
X146377200Y-111445142D02*
X146424819Y-111587999D01*
X146424819Y-111587999D02*
X146424819Y-111826094D01*
X145424819Y-110921332D02*
X145424819Y-110302285D01*
X145424819Y-110302285D02*
X145805771Y-110635618D01*
X145805771Y-110635618D02*
X145805771Y-110492761D01*
X145805771Y-110492761D02*
X145853390Y-110397523D01*
X145853390Y-110397523D02*
X145901009Y-110349904D01*
X145901009Y-110349904D02*
X145996247Y-110302285D01*
X145996247Y-110302285D02*
X146234342Y-110302285D01*
X146234342Y-110302285D02*
X146329580Y-110349904D01*
X146329580Y-110349904D02*
X146377200Y-110397523D01*
X146377200Y-110397523D02*
X146424819Y-110492761D01*
X146424819Y-110492761D02*
X146424819Y-110778475D01*
X146424819Y-110778475D02*
X146377200Y-110873713D01*
X146377200Y-110873713D02*
X146329580Y-110921332D01*
X163919104Y-111802285D02*
X163919104Y-111326095D01*
X164204819Y-111897523D02*
X163204819Y-111564190D01*
X163204819Y-111564190D02*
X164204819Y-111230857D01*
X163538152Y-110468952D02*
X164204819Y-110468952D01*
X163157200Y-110707047D02*
X163871485Y-110945142D01*
X163871485Y-110945142D02*
X163871485Y-110326095D01*
X143884819Y-111826094D02*
X142884819Y-111826094D01*
X142884819Y-111826094D02*
X142884819Y-111587999D01*
X142884819Y-111587999D02*
X142932438Y-111445142D01*
X142932438Y-111445142D02*
X143027676Y-111349904D01*
X143027676Y-111349904D02*
X143122914Y-111302285D01*
X143122914Y-111302285D02*
X143313390Y-111254666D01*
X143313390Y-111254666D02*
X143456247Y-111254666D01*
X143456247Y-111254666D02*
X143646723Y-111302285D01*
X143646723Y-111302285D02*
X143741961Y-111349904D01*
X143741961Y-111349904D02*
X143837200Y-111445142D01*
X143837200Y-111445142D02*
X143884819Y-111587999D01*
X143884819Y-111587999D02*
X143884819Y-111826094D01*
X142884819Y-110921332D02*
X142884819Y-110254666D01*
X142884819Y-110254666D02*
X143884819Y-110683237D01*
X169284819Y-111246666D02*
X168808628Y-111579999D01*
X169284819Y-111818094D02*
X168284819Y-111818094D01*
X168284819Y-111818094D02*
X168284819Y-111437142D01*
X168284819Y-111437142D02*
X168332438Y-111341904D01*
X168332438Y-111341904D02*
X168380057Y-111294285D01*
X168380057Y-111294285D02*
X168475295Y-111246666D01*
X168475295Y-111246666D02*
X168618152Y-111246666D01*
X168618152Y-111246666D02*
X168713390Y-111294285D01*
X168713390Y-111294285D02*
X168761009Y-111341904D01*
X168761009Y-111341904D02*
X168808628Y-111437142D01*
X168808628Y-111437142D02*
X168808628Y-111818094D01*
X169284819Y-110818094D02*
X168284819Y-110818094D01*
X168284819Y-110818094D02*
X168284819Y-110579999D01*
X168284819Y-110579999D02*
X168332438Y-110437142D01*
X168332438Y-110437142D02*
X168427676Y-110341904D01*
X168427676Y-110341904D02*
X168522914Y-110294285D01*
X168522914Y-110294285D02*
X168713390Y-110246666D01*
X168713390Y-110246666D02*
X168856247Y-110246666D01*
X168856247Y-110246666D02*
X169046723Y-110294285D01*
X169046723Y-110294285D02*
X169141961Y-110341904D01*
X169141961Y-110341904D02*
X169237200Y-110437142D01*
X169237200Y-110437142D02*
X169284819Y-110579999D01*
X169284819Y-110579999D02*
X169284819Y-110818094D01*
X168618152Y-109389523D02*
X169284819Y-109389523D01*
X168237200Y-109627618D02*
X168951485Y-109865713D01*
X168951485Y-109865713D02*
X168951485Y-109246666D01*
X165761905Y-75454819D02*
X165761905Y-74454819D01*
X165761905Y-74454819D02*
X166142857Y-74454819D01*
X166142857Y-74454819D02*
X166238095Y-74502438D01*
X166238095Y-74502438D02*
X166285714Y-74550057D01*
X166285714Y-74550057D02*
X166333333Y-74645295D01*
X166333333Y-74645295D02*
X166333333Y-74788152D01*
X166333333Y-74788152D02*
X166285714Y-74883390D01*
X166285714Y-74883390D02*
X166238095Y-74931009D01*
X166238095Y-74931009D02*
X166142857Y-74978628D01*
X166142857Y-74978628D02*
X165761905Y-74978628D01*
X167285714Y-75454819D02*
X166714286Y-75454819D01*
X167000000Y-75454819D02*
X167000000Y-74454819D01*
X167000000Y-74454819D02*
X166904762Y-74597676D01*
X166904762Y-74597676D02*
X166809524Y-74692914D01*
X166809524Y-74692914D02*
X166714286Y-74740533D01*
X150261905Y-75454819D02*
X150261905Y-74454819D01*
X150261905Y-74454819D02*
X150642857Y-74454819D01*
X150642857Y-74454819D02*
X150738095Y-74502438D01*
X150738095Y-74502438D02*
X150785714Y-74550057D01*
X150785714Y-74550057D02*
X150833333Y-74645295D01*
X150833333Y-74645295D02*
X150833333Y-74788152D01*
X150833333Y-74788152D02*
X150785714Y-74883390D01*
X150785714Y-74883390D02*
X150738095Y-74931009D01*
X150738095Y-74931009D02*
X150642857Y-74978628D01*
X150642857Y-74978628D02*
X150261905Y-74978628D01*
X151214286Y-74550057D02*
X151261905Y-74502438D01*
X151261905Y-74502438D02*
X151357143Y-74454819D01*
X151357143Y-74454819D02*
X151595238Y-74454819D01*
X151595238Y-74454819D02*
X151690476Y-74502438D01*
X151690476Y-74502438D02*
X151738095Y-74550057D01*
X151738095Y-74550057D02*
X151785714Y-74645295D01*
X151785714Y-74645295D02*
X151785714Y-74740533D01*
X151785714Y-74740533D02*
X151738095Y-74883390D01*
X151738095Y-74883390D02*
X151166667Y-75454819D01*
X151166667Y-75454819D02*
X151785714Y-75454819D01*
X135261905Y-75454819D02*
X135261905Y-74454819D01*
X135261905Y-74454819D02*
X135642857Y-74454819D01*
X135642857Y-74454819D02*
X135738095Y-74502438D01*
X135738095Y-74502438D02*
X135785714Y-74550057D01*
X135785714Y-74550057D02*
X135833333Y-74645295D01*
X135833333Y-74645295D02*
X135833333Y-74788152D01*
X135833333Y-74788152D02*
X135785714Y-74883390D01*
X135785714Y-74883390D02*
X135738095Y-74931009D01*
X135738095Y-74931009D02*
X135642857Y-74978628D01*
X135642857Y-74978628D02*
X135261905Y-74978628D01*
X136166667Y-74454819D02*
X136785714Y-74454819D01*
X136785714Y-74454819D02*
X136452381Y-74835771D01*
X136452381Y-74835771D02*
X136595238Y-74835771D01*
X136595238Y-74835771D02*
X136690476Y-74883390D01*
X136690476Y-74883390D02*
X136738095Y-74931009D01*
X136738095Y-74931009D02*
X136785714Y-75026247D01*
X136785714Y-75026247D02*
X136785714Y-75264342D01*
X136785714Y-75264342D02*
X136738095Y-75359580D01*
X136738095Y-75359580D02*
X136690476Y-75407200D01*
X136690476Y-75407200D02*
X136595238Y-75454819D01*
X136595238Y-75454819D02*
X136309524Y-75454819D01*
X136309524Y-75454819D02*
X136214286Y-75407200D01*
X136214286Y-75407200D02*
X136166667Y-75359580D01*
X135261905Y-86954819D02*
X135261905Y-85954819D01*
X135261905Y-85954819D02*
X135642857Y-85954819D01*
X135642857Y-85954819D02*
X135738095Y-86002438D01*
X135738095Y-86002438D02*
X135785714Y-86050057D01*
X135785714Y-86050057D02*
X135833333Y-86145295D01*
X135833333Y-86145295D02*
X135833333Y-86288152D01*
X135833333Y-86288152D02*
X135785714Y-86383390D01*
X135785714Y-86383390D02*
X135738095Y-86431009D01*
X135738095Y-86431009D02*
X135642857Y-86478628D01*
X135642857Y-86478628D02*
X135261905Y-86478628D01*
X136690476Y-86288152D02*
X136690476Y-86954819D01*
X136452381Y-85907200D02*
X136214286Y-86621485D01*
X136214286Y-86621485D02*
X136833333Y-86621485D01*
X150261905Y-86954819D02*
X150261905Y-85954819D01*
X150261905Y-85954819D02*
X150642857Y-85954819D01*
X150642857Y-85954819D02*
X150738095Y-86002438D01*
X150738095Y-86002438D02*
X150785714Y-86050057D01*
X150785714Y-86050057D02*
X150833333Y-86145295D01*
X150833333Y-86145295D02*
X150833333Y-86288152D01*
X150833333Y-86288152D02*
X150785714Y-86383390D01*
X150785714Y-86383390D02*
X150738095Y-86431009D01*
X150738095Y-86431009D02*
X150642857Y-86478628D01*
X150642857Y-86478628D02*
X150261905Y-86478628D01*
X151738095Y-85954819D02*
X151261905Y-85954819D01*
X151261905Y-85954819D02*
X151214286Y-86431009D01*
X151214286Y-86431009D02*
X151261905Y-86383390D01*
X151261905Y-86383390D02*
X151357143Y-86335771D01*
X151357143Y-86335771D02*
X151595238Y-86335771D01*
X151595238Y-86335771D02*
X151690476Y-86383390D01*
X151690476Y-86383390D02*
X151738095Y-86431009D01*
X151738095Y-86431009D02*
X151785714Y-86526247D01*
X151785714Y-86526247D02*
X151785714Y-86764342D01*
X151785714Y-86764342D02*
X151738095Y-86859580D01*
X151738095Y-86859580D02*
X151690476Y-86907200D01*
X151690476Y-86907200D02*
X151595238Y-86954819D01*
X151595238Y-86954819D02*
X151357143Y-86954819D01*
X151357143Y-86954819D02*
X151261905Y-86907200D01*
X151261905Y-86907200D02*
X151214286Y-86859580D01*
X165761905Y-86954819D02*
X165761905Y-85954819D01*
X165761905Y-85954819D02*
X166142857Y-85954819D01*
X166142857Y-85954819D02*
X166238095Y-86002438D01*
X166238095Y-86002438D02*
X166285714Y-86050057D01*
X166285714Y-86050057D02*
X166333333Y-86145295D01*
X166333333Y-86145295D02*
X166333333Y-86288152D01*
X166333333Y-86288152D02*
X166285714Y-86383390D01*
X166285714Y-86383390D02*
X166238095Y-86431009D01*
X166238095Y-86431009D02*
X166142857Y-86478628D01*
X166142857Y-86478628D02*
X165761905Y-86478628D01*
X167190476Y-85954819D02*
X167000000Y-85954819D01*
X167000000Y-85954819D02*
X166904762Y-86002438D01*
X166904762Y-86002438D02*
X166857143Y-86050057D01*
X166857143Y-86050057D02*
X166761905Y-86192914D01*
X166761905Y-86192914D02*
X166714286Y-86383390D01*
X166714286Y-86383390D02*
X166714286Y-86764342D01*
X166714286Y-86764342D02*
X166761905Y-86859580D01*
X166761905Y-86859580D02*
X166809524Y-86907200D01*
X166809524Y-86907200D02*
X166904762Y-86954819D01*
X166904762Y-86954819D02*
X167095238Y-86954819D01*
X167095238Y-86954819D02*
X167190476Y-86907200D01*
X167190476Y-86907200D02*
X167238095Y-86859580D01*
X167238095Y-86859580D02*
X167285714Y-86764342D01*
X167285714Y-86764342D02*
X167285714Y-86526247D01*
X167285714Y-86526247D02*
X167238095Y-86431009D01*
X167238095Y-86431009D02*
X167190476Y-86383390D01*
X167190476Y-86383390D02*
X167095238Y-86335771D01*
X167095238Y-86335771D02*
X166904762Y-86335771D01*
X166904762Y-86335771D02*
X166809524Y-86383390D01*
X166809524Y-86383390D02*
X166761905Y-86431009D01*
X166761905Y-86431009D02*
X166714286Y-86526247D01*
D13*
%TO.C,R1*%
X131422936Y-70405000D02*
X131877064Y-70405000D01*
X131422936Y-71875000D02*
X131877064Y-71875000D01*
%TO.C,LD1*%
X141237500Y-72226000D02*
X141237500Y-69956000D01*
X141237500Y-69956000D02*
X137177500Y-69956000D01*
X137177500Y-72226000D02*
X141237500Y-72226000D01*
%TO.C,P1*%
X159960000Y-78810000D02*
X159960000Y-77480000D01*
X161290000Y-78810000D02*
X159960000Y-78810000D01*
X162560000Y-78810000D02*
X162560000Y-76150000D01*
X162560000Y-76150000D02*
X172780000Y-76150000D01*
X162560000Y-78810000D02*
X172780000Y-78810000D01*
X172780000Y-78810000D02*
X172780000Y-76150000D01*
%TO.C,P2*%
X157540000Y-78800000D02*
X157540000Y-76140000D01*
X147320000Y-78800000D02*
X157540000Y-78800000D01*
X147320000Y-76140000D02*
X157540000Y-76140000D01*
X147320000Y-78800000D02*
X147320000Y-76140000D01*
X146050000Y-78800000D02*
X144720000Y-78800000D01*
X144720000Y-78800000D02*
X144720000Y-77470000D01*
%TO.C,P3*%
X129480000Y-78800000D02*
X129480000Y-77470000D01*
X130810000Y-78800000D02*
X129480000Y-78800000D01*
X132080000Y-78800000D02*
X132080000Y-76140000D01*
X132080000Y-76140000D02*
X142300000Y-76140000D01*
X132080000Y-78800000D02*
X142300000Y-78800000D01*
X142300000Y-78800000D02*
X142300000Y-76140000D01*
%TO.C,P4*%
X129480000Y-87570000D02*
X129480000Y-90230000D01*
X139700000Y-87570000D02*
X129480000Y-87570000D01*
X139700000Y-90230000D02*
X129480000Y-90230000D01*
X139700000Y-87570000D02*
X139700000Y-90230000D01*
X140970000Y-87570000D02*
X142300000Y-87570000D01*
X142300000Y-87570000D02*
X142300000Y-88900000D01*
%TO.C,P5*%
X157540000Y-87580000D02*
X157540000Y-88910000D01*
X156210000Y-87580000D02*
X157540000Y-87580000D01*
X154940000Y-87580000D02*
X154940000Y-90240000D01*
X154940000Y-90240000D02*
X144720000Y-90240000D01*
X154940000Y-87580000D02*
X144720000Y-87580000D01*
X144720000Y-87580000D02*
X144720000Y-90240000D01*
%TO.C,P6*%
X159960000Y-87570000D02*
X159960000Y-90230000D01*
X170180000Y-87570000D02*
X159960000Y-87570000D01*
X170180000Y-90230000D02*
X159960000Y-90230000D01*
X170180000Y-87570000D02*
X170180000Y-90230000D01*
X171450000Y-87570000D02*
X172780000Y-87570000D01*
X172780000Y-87570000D02*
X172780000Y-88900000D01*
%TD*%
M02*
