M48
;DRILL file {KiCad 4.0.2+dfsg1-stable} date Sun 14 Apr 2019 23:19:06 CEST
;FORMAT={-:-/ absolute / metric / decimal}
FMAT,2
METRIC,TZ
T1C1.016
%
G90
G05
M71
T1
X130.81Y-77.47
X130.81Y-88.9
X133.35Y-77.47
X133.35Y-88.9
X135.89Y-77.47
X135.89Y-88.9
X138.43Y-77.47
X138.43Y-88.9
X140.97Y-77.47
X140.97Y-88.9
X146.05Y-77.47
X146.05Y-88.9
X148.59Y-77.47
X148.59Y-88.9
X151.13Y-77.47
X151.13Y-88.9
X153.67Y-77.47
X153.67Y-88.9
X156.21Y-77.47
X156.21Y-88.9
X161.29Y-77.47
X161.29Y-88.9
X163.83Y-77.47
X163.83Y-88.9
X166.37Y-77.47
X166.37Y-88.9
X168.91Y-77.47
X168.91Y-88.9
X171.45Y-77.47
X171.45Y-88.9
T0
M30
