%TF.GenerationSoftware,KiCad,Pcbnew,4.0.2+dfsg1-stable*%
%TF.CreationDate,2019-04-14T23:19:02+02:00*%
%TF.ProjectId,CART-Breakout,434152542D427265616B6F75742E6B69,rev?*%
%TF.FileFunction,Legend,Top*%
%FSLAX46Y46*%
G04 Gerber Fmt 4.6, Leading zero omitted, Abs format (unit mm)*
G04 Created by KiCad (PCBNEW 4.0.2+dfsg1-stable) date Sun 14 Apr 2019 23:19:02 CEST*
%MOMM*%
G01*
G04 APERTURE LIST*
%ADD10C,0.100000*%
%ADD11C,0.300000*%
%ADD12C,0.200000*%
%ADD13C,0.150000*%
G04 APERTURE END LIST*
D10*
D11*
X139558573Y-102278571D02*
X139058573Y-101564286D01*
X138701430Y-102278571D02*
X138701430Y-100778571D01*
X139272858Y-100778571D01*
X139415716Y-100850000D01*
X139487144Y-100921429D01*
X139558573Y-101064286D01*
X139558573Y-101278571D01*
X139487144Y-101421429D01*
X139415716Y-101492857D01*
X139272858Y-101564286D01*
X138701430Y-101564286D01*
X140772858Y-102207143D02*
X140630001Y-102278571D01*
X140344287Y-102278571D01*
X140201430Y-102207143D01*
X140130001Y-102064286D01*
X140130001Y-101492857D01*
X140201430Y-101350000D01*
X140344287Y-101278571D01*
X140630001Y-101278571D01*
X140772858Y-101350000D01*
X140844287Y-101492857D01*
X140844287Y-101635714D01*
X140130001Y-101778571D01*
X141272858Y-101278571D02*
X141844287Y-101278571D01*
X141487144Y-100778571D02*
X141487144Y-102064286D01*
X141558572Y-102207143D01*
X141701430Y-102278571D01*
X141844287Y-102278571D01*
X142344287Y-102278571D02*
X142344287Y-101278571D01*
X142344287Y-101564286D02*
X142415715Y-101421429D01*
X142487144Y-101350000D01*
X142630001Y-101278571D01*
X142772858Y-101278571D01*
X143487144Y-102278571D02*
X143344286Y-102207143D01*
X143272858Y-102135714D01*
X143201429Y-101992857D01*
X143201429Y-101564286D01*
X143272858Y-101421429D01*
X143344286Y-101350000D01*
X143487144Y-101278571D01*
X143701429Y-101278571D01*
X143844286Y-101350000D01*
X143915715Y-101421429D01*
X143987144Y-101564286D01*
X143987144Y-101992857D01*
X143915715Y-102135714D01*
X143844286Y-102207143D01*
X143701429Y-102278571D01*
X143487144Y-102278571D01*
X145130001Y-101492857D02*
X145344287Y-101564286D01*
X145415715Y-101635714D01*
X145487144Y-101778571D01*
X145487144Y-101992857D01*
X145415715Y-102135714D01*
X145344287Y-102207143D01*
X145201429Y-102278571D01*
X144630001Y-102278571D01*
X144630001Y-100778571D01*
X145130001Y-100778571D01*
X145272858Y-100850000D01*
X145344287Y-100921429D01*
X145415715Y-101064286D01*
X145415715Y-101207143D01*
X145344287Y-101350000D01*
X145272858Y-101421429D01*
X145130001Y-101492857D01*
X144630001Y-101492857D01*
X146130001Y-102278571D02*
X146130001Y-101278571D01*
X146130001Y-100778571D02*
X146058572Y-100850000D01*
X146130001Y-100921429D01*
X146201429Y-100850000D01*
X146130001Y-100778571D01*
X146130001Y-100921429D01*
X146630001Y-101278571D02*
X147201430Y-101278571D01*
X146844287Y-100778571D02*
X146844287Y-102064286D01*
X146915715Y-102207143D01*
X147058573Y-102278571D01*
X147201430Y-102278571D01*
X149558573Y-102278571D02*
X148844287Y-102278571D01*
X148844287Y-100778571D01*
X150701430Y-102278571D02*
X150701430Y-101492857D01*
X150630001Y-101350000D01*
X150487144Y-101278571D01*
X150201430Y-101278571D01*
X150058573Y-101350000D01*
X150701430Y-102207143D02*
X150558573Y-102278571D01*
X150201430Y-102278571D01*
X150058573Y-102207143D01*
X149987144Y-102064286D01*
X149987144Y-101921429D01*
X150058573Y-101778571D01*
X150201430Y-101707143D01*
X150558573Y-101707143D01*
X150701430Y-101635714D01*
X151415716Y-102278571D02*
X151415716Y-100778571D01*
X151415716Y-101350000D02*
X151558573Y-101278571D01*
X151844287Y-101278571D01*
X151987144Y-101350000D01*
X152058573Y-101421429D01*
X152130002Y-101564286D01*
X152130002Y-101992857D01*
X152058573Y-102135714D01*
X151987144Y-102207143D01*
X151844287Y-102278571D01*
X151558573Y-102278571D01*
X151415716Y-102207143D01*
X154344287Y-102850000D02*
X154272859Y-102778571D01*
X154130002Y-102564286D01*
X154058573Y-102421429D01*
X153987144Y-102207143D01*
X153915716Y-101850000D01*
X153915716Y-101564286D01*
X153987144Y-101207143D01*
X154058573Y-100992857D01*
X154130002Y-100850000D01*
X154272859Y-100635714D01*
X154344287Y-100564286D01*
X155772859Y-102135714D02*
X155701430Y-102207143D01*
X155487144Y-102278571D01*
X155344287Y-102278571D01*
X155130002Y-102207143D01*
X154987144Y-102064286D01*
X154915716Y-101921429D01*
X154844287Y-101635714D01*
X154844287Y-101421429D01*
X154915716Y-101135714D01*
X154987144Y-100992857D01*
X155130002Y-100850000D01*
X155344287Y-100778571D01*
X155487144Y-100778571D01*
X155701430Y-100850000D01*
X155772859Y-100921429D01*
X156272859Y-102850000D02*
X156344287Y-102778571D01*
X156487144Y-102564286D01*
X156558573Y-102421429D01*
X156630002Y-102207143D01*
X156701430Y-101850000D01*
X156701430Y-101564286D01*
X156630002Y-101207143D01*
X156558573Y-100992857D01*
X156487144Y-100850000D01*
X156344287Y-100635714D01*
X156272859Y-100564286D01*
X158487144Y-100921429D02*
X158558573Y-100850000D01*
X158701430Y-100778571D01*
X159058573Y-100778571D01*
X159201430Y-100850000D01*
X159272859Y-100921429D01*
X159344287Y-101064286D01*
X159344287Y-101207143D01*
X159272859Y-101421429D01*
X158415716Y-102278571D01*
X159344287Y-102278571D01*
X160272858Y-100778571D02*
X160415715Y-100778571D01*
X160558572Y-100850000D01*
X160630001Y-100921429D01*
X160701430Y-101064286D01*
X160772858Y-101350000D01*
X160772858Y-101707143D01*
X160701430Y-101992857D01*
X160630001Y-102135714D01*
X160558572Y-102207143D01*
X160415715Y-102278571D01*
X160272858Y-102278571D01*
X160130001Y-102207143D01*
X160058572Y-102135714D01*
X159987144Y-101992857D01*
X159915715Y-101707143D01*
X159915715Y-101350000D01*
X159987144Y-101064286D01*
X160058572Y-100921429D01*
X160130001Y-100850000D01*
X160272858Y-100778571D01*
X162201429Y-102278571D02*
X161344286Y-102278571D01*
X161772858Y-102278571D02*
X161772858Y-100778571D01*
X161630001Y-100992857D01*
X161487143Y-101135714D01*
X161344286Y-101207143D01*
X162915714Y-102278571D02*
X163201429Y-102278571D01*
X163344286Y-102207143D01*
X163415714Y-102135714D01*
X163558572Y-101921429D01*
X163630000Y-101635714D01*
X163630000Y-101064286D01*
X163558572Y-100921429D01*
X163487143Y-100850000D01*
X163344286Y-100778571D01*
X163058572Y-100778571D01*
X162915714Y-100850000D01*
X162844286Y-100921429D01*
X162772857Y-101064286D01*
X162772857Y-101421429D01*
X162844286Y-101564286D01*
X162915714Y-101635714D01*
X163058572Y-101707143D01*
X163344286Y-101707143D01*
X163487143Y-101635714D01*
X163558572Y-101564286D01*
X163630000Y-101421429D01*
X136380000Y-98040000D02*
X137094286Y-98040000D01*
X136237143Y-98468571D02*
X136737143Y-96968571D01*
X137237143Y-98468571D01*
X137522857Y-97468571D02*
X138094286Y-97468571D01*
X137737143Y-96968571D02*
X137737143Y-98254286D01*
X137808571Y-98397143D01*
X137951429Y-98468571D01*
X138094286Y-98468571D01*
X139237143Y-98468571D02*
X139237143Y-97682857D01*
X139165714Y-97540000D01*
X139022857Y-97468571D01*
X138737143Y-97468571D01*
X138594286Y-97540000D01*
X139237143Y-98397143D02*
X139094286Y-98468571D01*
X138737143Y-98468571D01*
X138594286Y-98397143D01*
X138522857Y-98254286D01*
X138522857Y-98111429D01*
X138594286Y-97968571D01*
X138737143Y-97897143D01*
X139094286Y-97897143D01*
X139237143Y-97825714D01*
X139951429Y-98468571D02*
X139951429Y-97468571D01*
X139951429Y-97754286D02*
X140022857Y-97611429D01*
X140094286Y-97540000D01*
X140237143Y-97468571D01*
X140380000Y-97468571D01*
X140880000Y-98468571D02*
X140880000Y-97468571D01*
X140880000Y-96968571D02*
X140808571Y-97040000D01*
X140880000Y-97111429D01*
X140951428Y-97040000D01*
X140880000Y-96968571D01*
X140880000Y-97111429D01*
X142594286Y-96968571D02*
X143594286Y-98468571D01*
X143594286Y-96968571D02*
X142594286Y-98468571D01*
X144880000Y-98468571D02*
X144165714Y-98468571D01*
X144165714Y-96968571D01*
X146451428Y-96897143D02*
X145165714Y-98825714D01*
X146808572Y-96968571D02*
X147808572Y-98468571D01*
X147808572Y-96968571D02*
X146808572Y-98468571D01*
X148380000Y-97682857D02*
X148880000Y-97682857D01*
X149094286Y-98468571D02*
X148380000Y-98468571D01*
X148380000Y-96968571D01*
X149094286Y-96968571D01*
X151737143Y-98325714D02*
X151665714Y-98397143D01*
X151451428Y-98468571D01*
X151308571Y-98468571D01*
X151094286Y-98397143D01*
X150951428Y-98254286D01*
X150880000Y-98111429D01*
X150808571Y-97825714D01*
X150808571Y-97611429D01*
X150880000Y-97325714D01*
X150951428Y-97182857D01*
X151094286Y-97040000D01*
X151308571Y-96968571D01*
X151451428Y-96968571D01*
X151665714Y-97040000D01*
X151737143Y-97111429D01*
X153022857Y-98468571D02*
X153022857Y-97682857D01*
X152951428Y-97540000D01*
X152808571Y-97468571D01*
X152522857Y-97468571D01*
X152380000Y-97540000D01*
X153022857Y-98397143D02*
X152880000Y-98468571D01*
X152522857Y-98468571D01*
X152380000Y-98397143D01*
X152308571Y-98254286D01*
X152308571Y-98111429D01*
X152380000Y-97968571D01*
X152522857Y-97897143D01*
X152880000Y-97897143D01*
X153022857Y-97825714D01*
X153737143Y-98468571D02*
X153737143Y-97468571D01*
X153737143Y-97754286D02*
X153808571Y-97611429D01*
X153880000Y-97540000D01*
X154022857Y-97468571D01*
X154165714Y-97468571D01*
X154451428Y-97468571D02*
X155022857Y-97468571D01*
X154665714Y-96968571D02*
X154665714Y-98254286D01*
X154737142Y-98397143D01*
X154880000Y-98468571D01*
X155022857Y-98468571D01*
X157165714Y-97682857D02*
X157380000Y-97754286D01*
X157451428Y-97825714D01*
X157522857Y-97968571D01*
X157522857Y-98182857D01*
X157451428Y-98325714D01*
X157380000Y-98397143D01*
X157237142Y-98468571D01*
X156665714Y-98468571D01*
X156665714Y-96968571D01*
X157165714Y-96968571D01*
X157308571Y-97040000D01*
X157380000Y-97111429D01*
X157451428Y-97254286D01*
X157451428Y-97397143D01*
X157380000Y-97540000D01*
X157308571Y-97611429D01*
X157165714Y-97682857D01*
X156665714Y-97682857D01*
X158165714Y-98468571D02*
X158165714Y-97468571D01*
X158165714Y-97754286D02*
X158237142Y-97611429D01*
X158308571Y-97540000D01*
X158451428Y-97468571D01*
X158594285Y-97468571D01*
X159665713Y-98397143D02*
X159522856Y-98468571D01*
X159237142Y-98468571D01*
X159094285Y-98397143D01*
X159022856Y-98254286D01*
X159022856Y-97682857D01*
X159094285Y-97540000D01*
X159237142Y-97468571D01*
X159522856Y-97468571D01*
X159665713Y-97540000D01*
X159737142Y-97682857D01*
X159737142Y-97825714D01*
X159022856Y-97968571D01*
X161022856Y-98468571D02*
X161022856Y-97682857D01*
X160951427Y-97540000D01*
X160808570Y-97468571D01*
X160522856Y-97468571D01*
X160379999Y-97540000D01*
X161022856Y-98397143D02*
X160879999Y-98468571D01*
X160522856Y-98468571D01*
X160379999Y-98397143D01*
X160308570Y-98254286D01*
X160308570Y-98111429D01*
X160379999Y-97968571D01*
X160522856Y-97897143D01*
X160879999Y-97897143D01*
X161022856Y-97825714D01*
X161737142Y-98468571D02*
X161737142Y-96968571D01*
X161879999Y-97897143D02*
X162308570Y-98468571D01*
X162308570Y-97468571D02*
X161737142Y-98040000D01*
X163165714Y-98468571D02*
X163022856Y-98397143D01*
X162951428Y-98325714D01*
X162879999Y-98182857D01*
X162879999Y-97754286D01*
X162951428Y-97611429D01*
X163022856Y-97540000D01*
X163165714Y-97468571D01*
X163379999Y-97468571D01*
X163522856Y-97540000D01*
X163594285Y-97611429D01*
X163665714Y-97754286D01*
X163665714Y-98182857D01*
X163594285Y-98325714D01*
X163522856Y-98397143D01*
X163379999Y-98468571D01*
X163165714Y-98468571D01*
X164951428Y-97468571D02*
X164951428Y-98468571D01*
X164308571Y-97468571D02*
X164308571Y-98254286D01*
X164379999Y-98397143D01*
X164522857Y-98468571D01*
X164737142Y-98468571D01*
X164879999Y-98397143D01*
X164951428Y-98325714D01*
X165451428Y-97468571D02*
X166022857Y-97468571D01*
X165665714Y-96968571D02*
X165665714Y-98254286D01*
X165737142Y-98397143D01*
X165880000Y-98468571D01*
X166022857Y-98468571D01*
D12*
X131262381Y-94210000D02*
X130262381Y-94210000D01*
X130262381Y-93829047D01*
X130310000Y-93733809D01*
X130357619Y-93686190D01*
X130452857Y-93638571D01*
X130595714Y-93638571D01*
X130690952Y-93686190D01*
X130738571Y-93733809D01*
X130786190Y-93829047D01*
X130786190Y-94210000D01*
X131262381Y-93210000D02*
X130262381Y-93210000D01*
X130738571Y-93210000D02*
X130738571Y-92638571D01*
X131262381Y-92638571D02*
X130262381Y-92638571D01*
X131262381Y-92162381D02*
X130262381Y-92162381D01*
X130357619Y-91733810D02*
X130310000Y-91686191D01*
X130262381Y-91590953D01*
X130262381Y-91352857D01*
X130310000Y-91257619D01*
X130357619Y-91210000D01*
X130452857Y-91162381D01*
X130548095Y-91162381D01*
X130690952Y-91210000D01*
X131262381Y-91781429D01*
X131262381Y-91162381D01*
X133802381Y-93495714D02*
X133326190Y-93829048D01*
X133802381Y-94067143D02*
X132802381Y-94067143D01*
X132802381Y-93686190D01*
X132850000Y-93590952D01*
X132897619Y-93543333D01*
X132992857Y-93495714D01*
X133135714Y-93495714D01*
X133230952Y-93543333D01*
X133278571Y-93590952D01*
X133326190Y-93686190D01*
X133326190Y-94067143D01*
X132754762Y-92352857D02*
X134040476Y-93210000D01*
X132802381Y-92114762D02*
X133802381Y-91876667D01*
X133088095Y-91686190D01*
X133802381Y-91495714D01*
X132802381Y-91257619D01*
X132630000Y-92257619D02*
X132630000Y-91114762D01*
X136056667Y-93900476D02*
X136056667Y-93424285D01*
X136342381Y-93995714D02*
X135342381Y-93662381D01*
X136342381Y-93329047D01*
X136342381Y-92471904D02*
X136342381Y-93043333D01*
X136342381Y-92757619D02*
X135342381Y-92757619D01*
X135485238Y-92852857D01*
X135580476Y-92948095D01*
X135628095Y-93043333D01*
X135342381Y-91852857D02*
X135342381Y-91757618D01*
X135390000Y-91662380D01*
X135437619Y-91614761D01*
X135532857Y-91567142D01*
X135723333Y-91519523D01*
X135961429Y-91519523D01*
X136151905Y-91567142D01*
X136247143Y-91614761D01*
X136294762Y-91662380D01*
X136342381Y-91757618D01*
X136342381Y-91852857D01*
X136294762Y-91948095D01*
X136247143Y-91995714D01*
X136151905Y-92043333D01*
X135961429Y-92090952D01*
X135723333Y-92090952D01*
X135532857Y-92043333D01*
X135437619Y-91995714D01*
X135390000Y-91948095D01*
X135342381Y-91852857D01*
X138596667Y-93900476D02*
X138596667Y-93424285D01*
X138882381Y-93995714D02*
X137882381Y-93662381D01*
X138882381Y-93329047D01*
X138882381Y-92471904D02*
X138882381Y-93043333D01*
X138882381Y-92757619D02*
X137882381Y-92757619D01*
X138025238Y-92852857D01*
X138120476Y-92948095D01*
X138168095Y-93043333D01*
X138882381Y-91519523D02*
X138882381Y-92090952D01*
X138882381Y-91805238D02*
X137882381Y-91805238D01*
X138025238Y-91900476D01*
X138120476Y-91995714D01*
X138168095Y-92090952D01*
X141422381Y-93448095D02*
X140422381Y-93448095D01*
X140422381Y-93210000D01*
X140470000Y-93067142D01*
X140565238Y-92971904D01*
X140660476Y-92924285D01*
X140850952Y-92876666D01*
X140993810Y-92876666D01*
X141184286Y-92924285D01*
X141279524Y-92971904D01*
X141374762Y-93067142D01*
X141422381Y-93210000D01*
X141422381Y-93448095D01*
X140422381Y-92543333D02*
X140422381Y-91876666D01*
X141422381Y-92305238D01*
X146502381Y-93448095D02*
X145502381Y-93448095D01*
X145502381Y-93210000D01*
X145550000Y-93067142D01*
X145645238Y-92971904D01*
X145740476Y-92924285D01*
X145930952Y-92876666D01*
X146073810Y-92876666D01*
X146264286Y-92924285D01*
X146359524Y-92971904D01*
X146454762Y-93067142D01*
X146502381Y-93210000D01*
X146502381Y-93448095D01*
X145502381Y-92543333D02*
X145502381Y-91924285D01*
X145883333Y-92257619D01*
X145883333Y-92114761D01*
X145930952Y-92019523D01*
X145978571Y-91971904D01*
X146073810Y-91924285D01*
X146311905Y-91924285D01*
X146407143Y-91971904D01*
X146454762Y-92019523D01*
X146502381Y-92114761D01*
X146502381Y-92400476D01*
X146454762Y-92495714D01*
X146407143Y-92543333D01*
X148756667Y-93900476D02*
X148756667Y-93424285D01*
X149042381Y-93995714D02*
X148042381Y-93662381D01*
X149042381Y-93329047D01*
X149042381Y-92471904D02*
X149042381Y-93043333D01*
X149042381Y-92757619D02*
X148042381Y-92757619D01*
X148185238Y-92852857D01*
X148280476Y-92948095D01*
X148328095Y-93043333D01*
X148137619Y-92090952D02*
X148090000Y-92043333D01*
X148042381Y-91948095D01*
X148042381Y-91709999D01*
X148090000Y-91614761D01*
X148137619Y-91567142D01*
X148232857Y-91519523D01*
X148328095Y-91519523D01*
X148470952Y-91567142D01*
X149042381Y-92138571D01*
X149042381Y-91519523D01*
X151296667Y-93424286D02*
X151296667Y-92948095D01*
X151582381Y-93519524D02*
X150582381Y-93186191D01*
X151582381Y-92852857D01*
X151582381Y-92471905D02*
X151582381Y-92281429D01*
X151534762Y-92186190D01*
X151487143Y-92138571D01*
X151344286Y-92043333D01*
X151153810Y-91995714D01*
X150772857Y-91995714D01*
X150677619Y-92043333D01*
X150630000Y-92090952D01*
X150582381Y-92186190D01*
X150582381Y-92376667D01*
X150630000Y-92471905D01*
X150677619Y-92519524D01*
X150772857Y-92567143D01*
X151010952Y-92567143D01*
X151106190Y-92519524D01*
X151153810Y-92471905D01*
X151201429Y-92376667D01*
X151201429Y-92186190D01*
X151153810Y-92090952D01*
X151106190Y-92043333D01*
X151010952Y-91995714D01*
X153836667Y-93424286D02*
X153836667Y-92948095D01*
X154122381Y-93519524D02*
X153122381Y-93186191D01*
X154122381Y-92852857D01*
X153550952Y-92376667D02*
X153503333Y-92471905D01*
X153455714Y-92519524D01*
X153360476Y-92567143D01*
X153312857Y-92567143D01*
X153217619Y-92519524D01*
X153170000Y-92471905D01*
X153122381Y-92376667D01*
X153122381Y-92186190D01*
X153170000Y-92090952D01*
X153217619Y-92043333D01*
X153312857Y-91995714D01*
X153360476Y-91995714D01*
X153455714Y-92043333D01*
X153503333Y-92090952D01*
X153550952Y-92186190D01*
X153550952Y-92376667D01*
X153598571Y-92471905D01*
X153646190Y-92519524D01*
X153741429Y-92567143D01*
X153931905Y-92567143D01*
X154027143Y-92519524D01*
X154074762Y-92471905D01*
X154122381Y-92376667D01*
X154122381Y-92186190D01*
X154074762Y-92090952D01*
X154027143Y-92043333D01*
X153931905Y-91995714D01*
X153741429Y-91995714D01*
X153646190Y-92043333D01*
X153598571Y-92090952D01*
X153550952Y-92186190D01*
X156376667Y-93424286D02*
X156376667Y-92948095D01*
X156662381Y-93519524D02*
X155662381Y-93186191D01*
X156662381Y-92852857D01*
X155662381Y-92614762D02*
X155662381Y-91948095D01*
X156662381Y-92376667D01*
X161456667Y-93424286D02*
X161456667Y-92948095D01*
X161742381Y-93519524D02*
X160742381Y-93186191D01*
X161742381Y-92852857D01*
X160742381Y-92090952D02*
X160742381Y-92281429D01*
X160790000Y-92376667D01*
X160837619Y-92424286D01*
X160980476Y-92519524D01*
X161170952Y-92567143D01*
X161551905Y-92567143D01*
X161647143Y-92519524D01*
X161694762Y-92471905D01*
X161742381Y-92376667D01*
X161742381Y-92186190D01*
X161694762Y-92090952D01*
X161647143Y-92043333D01*
X161551905Y-91995714D01*
X161313810Y-91995714D01*
X161218571Y-92043333D01*
X161170952Y-92090952D01*
X161123333Y-92186190D01*
X161123333Y-92376667D01*
X161170952Y-92471905D01*
X161218571Y-92519524D01*
X161313810Y-92567143D01*
X163996667Y-93424286D02*
X163996667Y-92948095D01*
X164282381Y-93519524D02*
X163282381Y-93186191D01*
X164282381Y-92852857D01*
X163282381Y-92043333D02*
X163282381Y-92519524D01*
X163758571Y-92567143D01*
X163710952Y-92519524D01*
X163663333Y-92424286D01*
X163663333Y-92186190D01*
X163710952Y-92090952D01*
X163758571Y-92043333D01*
X163853810Y-91995714D01*
X164091905Y-91995714D01*
X164187143Y-92043333D01*
X164234762Y-92090952D01*
X164282381Y-92186190D01*
X164282381Y-92424286D01*
X164234762Y-92519524D01*
X164187143Y-92567143D01*
X166536667Y-93424286D02*
X166536667Y-92948095D01*
X166822381Y-93519524D02*
X165822381Y-93186191D01*
X166822381Y-92852857D01*
X166155714Y-92090952D02*
X166822381Y-92090952D01*
X165774762Y-92329048D02*
X166489048Y-92567143D01*
X166489048Y-91948095D01*
X168410000Y-93471904D02*
X168362381Y-93567142D01*
X168362381Y-93709999D01*
X168410000Y-93852857D01*
X168505238Y-93948095D01*
X168600476Y-93995714D01*
X168790952Y-94043333D01*
X168933810Y-94043333D01*
X169124286Y-93995714D01*
X169219524Y-93948095D01*
X169314762Y-93852857D01*
X169362381Y-93709999D01*
X169362381Y-93614761D01*
X169314762Y-93471904D01*
X169267143Y-93424285D01*
X168933810Y-93424285D01*
X168933810Y-93614761D01*
X169362381Y-92995714D02*
X168362381Y-92995714D01*
X169362381Y-92424285D01*
X168362381Y-92424285D01*
X169362381Y-91948095D02*
X168362381Y-91948095D01*
X168362381Y-91710000D01*
X168410000Y-91567142D01*
X168505238Y-91471904D01*
X168600476Y-91424285D01*
X168790952Y-91376666D01*
X168933810Y-91376666D01*
X169124286Y-91424285D01*
X169219524Y-91471904D01*
X169314762Y-91567142D01*
X169362381Y-91710000D01*
X169362381Y-91948095D01*
X171902381Y-93376666D02*
X171426190Y-93710000D01*
X171902381Y-93948095D02*
X170902381Y-93948095D01*
X170902381Y-93567142D01*
X170950000Y-93471904D01*
X170997619Y-93424285D01*
X171092857Y-93376666D01*
X171235714Y-93376666D01*
X171330952Y-93424285D01*
X171378571Y-93471904D01*
X171426190Y-93567142D01*
X171426190Y-93948095D01*
X171902381Y-92948095D02*
X170902381Y-92948095D01*
X170902381Y-92710000D01*
X170950000Y-92567142D01*
X171045238Y-92471904D01*
X171140476Y-92424285D01*
X171330952Y-92376666D01*
X171473810Y-92376666D01*
X171664286Y-92424285D01*
X171759524Y-92471904D01*
X171854762Y-92567142D01*
X171902381Y-92710000D01*
X171902381Y-92948095D01*
X171235714Y-91519523D02*
X171902381Y-91519523D01*
X170854762Y-91757619D02*
X171569048Y-91995714D01*
X171569048Y-91376666D01*
X171854762Y-82041905D02*
X171902381Y-81899048D01*
X171902381Y-81660952D01*
X171854762Y-81565714D01*
X171807143Y-81518095D01*
X171711905Y-81470476D01*
X171616667Y-81470476D01*
X171521429Y-81518095D01*
X171473810Y-81565714D01*
X171426190Y-81660952D01*
X171378571Y-81851429D01*
X171330952Y-81946667D01*
X171283333Y-81994286D01*
X171188095Y-82041905D01*
X171092857Y-82041905D01*
X170997619Y-81994286D01*
X170950000Y-81946667D01*
X170902381Y-81851429D01*
X170902381Y-81613333D01*
X170950000Y-81470476D01*
X171235714Y-80613333D02*
X171902381Y-80613333D01*
X170854762Y-80851429D02*
X171569048Y-81089524D01*
X171569048Y-80470476D01*
X170730000Y-82232381D02*
X170730000Y-80327619D01*
X169076667Y-81994286D02*
X169076667Y-81518095D01*
X169362381Y-82089524D02*
X168362381Y-81756191D01*
X169362381Y-81422857D01*
X168362381Y-81184762D02*
X168362381Y-80565714D01*
X168743333Y-80899048D01*
X168743333Y-80756190D01*
X168790952Y-80660952D01*
X168838571Y-80613333D01*
X168933810Y-80565714D01*
X169171905Y-80565714D01*
X169267143Y-80613333D01*
X169314762Y-80660952D01*
X169362381Y-80756190D01*
X169362381Y-81041905D01*
X169314762Y-81137143D01*
X169267143Y-81184762D01*
X166536667Y-81994286D02*
X166536667Y-81518095D01*
X166822381Y-82089524D02*
X165822381Y-81756191D01*
X166822381Y-81422857D01*
X165917619Y-81137143D02*
X165870000Y-81089524D01*
X165822381Y-80994286D01*
X165822381Y-80756190D01*
X165870000Y-80660952D01*
X165917619Y-80613333D01*
X166012857Y-80565714D01*
X166108095Y-80565714D01*
X166250952Y-80613333D01*
X166822381Y-81184762D01*
X166822381Y-80565714D01*
X163996667Y-81994286D02*
X163996667Y-81518095D01*
X164282381Y-82089524D02*
X163282381Y-81756191D01*
X164282381Y-81422857D01*
X164282381Y-80565714D02*
X164282381Y-81137143D01*
X164282381Y-80851429D02*
X163282381Y-80851429D01*
X163425238Y-80946667D01*
X163520476Y-81041905D01*
X163568095Y-81137143D01*
X161456667Y-81994286D02*
X161456667Y-81518095D01*
X161742381Y-82089524D02*
X160742381Y-81756191D01*
X161742381Y-81422857D01*
X160742381Y-80899048D02*
X160742381Y-80803809D01*
X160790000Y-80708571D01*
X160837619Y-80660952D01*
X160932857Y-80613333D01*
X161123333Y-80565714D01*
X161361429Y-80565714D01*
X161551905Y-80613333D01*
X161647143Y-80660952D01*
X161694762Y-80708571D01*
X161742381Y-80803809D01*
X161742381Y-80899048D01*
X161694762Y-80994286D01*
X161647143Y-81041905D01*
X161551905Y-81089524D01*
X161361429Y-81137143D01*
X161123333Y-81137143D01*
X160932857Y-81089524D01*
X160837619Y-81041905D01*
X160790000Y-80994286D01*
X160742381Y-80899048D01*
X156662381Y-82018095D02*
X155662381Y-82018095D01*
X155662381Y-81780000D01*
X155710000Y-81637142D01*
X155805238Y-81541904D01*
X155900476Y-81494285D01*
X156090952Y-81446666D01*
X156233810Y-81446666D01*
X156424286Y-81494285D01*
X156519524Y-81541904D01*
X156614762Y-81637142D01*
X156662381Y-81780000D01*
X156662381Y-82018095D01*
X155995714Y-80589523D02*
X156662381Y-80589523D01*
X155614762Y-80827619D02*
X156329048Y-81065714D01*
X156329048Y-80446666D01*
X154122381Y-82018095D02*
X153122381Y-82018095D01*
X153122381Y-81780000D01*
X153170000Y-81637142D01*
X153265238Y-81541904D01*
X153360476Y-81494285D01*
X153550952Y-81446666D01*
X153693810Y-81446666D01*
X153884286Y-81494285D01*
X153979524Y-81541904D01*
X154074762Y-81637142D01*
X154122381Y-81780000D01*
X154122381Y-82018095D01*
X153122381Y-80541904D02*
X153122381Y-81018095D01*
X153598571Y-81065714D01*
X153550952Y-81018095D01*
X153503333Y-80922857D01*
X153503333Y-80684761D01*
X153550952Y-80589523D01*
X153598571Y-80541904D01*
X153693810Y-80494285D01*
X153931905Y-80494285D01*
X154027143Y-80541904D01*
X154074762Y-80589523D01*
X154122381Y-80684761D01*
X154122381Y-80922857D01*
X154074762Y-81018095D01*
X154027143Y-81065714D01*
X151582381Y-82018095D02*
X150582381Y-82018095D01*
X150582381Y-81780000D01*
X150630000Y-81637142D01*
X150725238Y-81541904D01*
X150820476Y-81494285D01*
X151010952Y-81446666D01*
X151153810Y-81446666D01*
X151344286Y-81494285D01*
X151439524Y-81541904D01*
X151534762Y-81637142D01*
X151582381Y-81780000D01*
X151582381Y-82018095D01*
X150677619Y-81065714D02*
X150630000Y-81018095D01*
X150582381Y-80922857D01*
X150582381Y-80684761D01*
X150630000Y-80589523D01*
X150677619Y-80541904D01*
X150772857Y-80494285D01*
X150868095Y-80494285D01*
X151010952Y-80541904D01*
X151582381Y-81113333D01*
X151582381Y-80494285D01*
X149042381Y-82018095D02*
X148042381Y-82018095D01*
X148042381Y-81780000D01*
X148090000Y-81637142D01*
X148185238Y-81541904D01*
X148280476Y-81494285D01*
X148470952Y-81446666D01*
X148613810Y-81446666D01*
X148804286Y-81494285D01*
X148899524Y-81541904D01*
X148994762Y-81637142D01*
X149042381Y-81780000D01*
X149042381Y-82018095D01*
X149042381Y-80494285D02*
X149042381Y-81065714D01*
X149042381Y-80780000D02*
X148042381Y-80780000D01*
X148185238Y-80875238D01*
X148280476Y-80970476D01*
X148328095Y-81065714D01*
X146502381Y-82018095D02*
X145502381Y-82018095D01*
X145502381Y-81780000D01*
X145550000Y-81637142D01*
X145645238Y-81541904D01*
X145740476Y-81494285D01*
X145930952Y-81446666D01*
X146073810Y-81446666D01*
X146264286Y-81494285D01*
X146359524Y-81541904D01*
X146454762Y-81637142D01*
X146502381Y-81780000D01*
X146502381Y-82018095D01*
X145502381Y-80827619D02*
X145502381Y-80732380D01*
X145550000Y-80637142D01*
X145597619Y-80589523D01*
X145692857Y-80541904D01*
X145883333Y-80494285D01*
X146121429Y-80494285D01*
X146311905Y-80541904D01*
X146407143Y-80589523D01*
X146454762Y-80637142D01*
X146502381Y-80732380D01*
X146502381Y-80827619D01*
X146454762Y-80922857D01*
X146407143Y-80970476D01*
X146311905Y-81018095D01*
X146121429Y-81065714D01*
X145883333Y-81065714D01*
X145692857Y-81018095D01*
X145597619Y-80970476D01*
X145550000Y-80922857D01*
X145502381Y-80827619D01*
X141422381Y-82018095D02*
X140422381Y-82018095D01*
X140422381Y-81780000D01*
X140470000Y-81637142D01*
X140565238Y-81541904D01*
X140660476Y-81494285D01*
X140850952Y-81446666D01*
X140993810Y-81446666D01*
X141184286Y-81494285D01*
X141279524Y-81541904D01*
X141374762Y-81637142D01*
X141422381Y-81780000D01*
X141422381Y-82018095D01*
X140422381Y-80589523D02*
X140422381Y-80780000D01*
X140470000Y-80875238D01*
X140517619Y-80922857D01*
X140660476Y-81018095D01*
X140850952Y-81065714D01*
X141231905Y-81065714D01*
X141327143Y-81018095D01*
X141374762Y-80970476D01*
X141422381Y-80875238D01*
X141422381Y-80684761D01*
X141374762Y-80589523D01*
X141327143Y-80541904D01*
X141231905Y-80494285D01*
X140993810Y-80494285D01*
X140898571Y-80541904D01*
X140850952Y-80589523D01*
X140803333Y-80684761D01*
X140803333Y-80875238D01*
X140850952Y-80970476D01*
X140898571Y-81018095D01*
X140993810Y-81065714D01*
X138834762Y-82041905D02*
X138882381Y-81899048D01*
X138882381Y-81660952D01*
X138834762Y-81565714D01*
X138787143Y-81518095D01*
X138691905Y-81470476D01*
X138596667Y-81470476D01*
X138501429Y-81518095D01*
X138453810Y-81565714D01*
X138406190Y-81660952D01*
X138358571Y-81851429D01*
X138310952Y-81946667D01*
X138263333Y-81994286D01*
X138168095Y-82041905D01*
X138072857Y-82041905D01*
X137977619Y-81994286D01*
X137930000Y-81946667D01*
X137882381Y-81851429D01*
X137882381Y-81613333D01*
X137930000Y-81470476D01*
X137882381Y-80565714D02*
X137882381Y-81041905D01*
X138358571Y-81089524D01*
X138310952Y-81041905D01*
X138263333Y-80946667D01*
X138263333Y-80708571D01*
X138310952Y-80613333D01*
X138358571Y-80565714D01*
X138453810Y-80518095D01*
X138691905Y-80518095D01*
X138787143Y-80565714D01*
X138834762Y-80613333D01*
X138882381Y-80708571D01*
X138882381Y-80946667D01*
X138834762Y-81041905D01*
X138787143Y-81089524D01*
X137710000Y-82232381D02*
X137710000Y-80327619D01*
X135342381Y-82613333D02*
X136342381Y-82280000D01*
X135342381Y-81946666D01*
X136247143Y-81041904D02*
X136294762Y-81089523D01*
X136342381Y-81232380D01*
X136342381Y-81327618D01*
X136294762Y-81470476D01*
X136199524Y-81565714D01*
X136104286Y-81613333D01*
X135913810Y-81660952D01*
X135770952Y-81660952D01*
X135580476Y-81613333D01*
X135485238Y-81565714D01*
X135390000Y-81470476D01*
X135342381Y-81327618D01*
X135342381Y-81232380D01*
X135390000Y-81089523D01*
X135437619Y-81041904D01*
X136247143Y-80041904D02*
X136294762Y-80089523D01*
X136342381Y-80232380D01*
X136342381Y-80327618D01*
X136294762Y-80470476D01*
X136199524Y-80565714D01*
X136104286Y-80613333D01*
X135913810Y-80660952D01*
X135770952Y-80660952D01*
X135580476Y-80613333D01*
X135485238Y-80565714D01*
X135390000Y-80470476D01*
X135342381Y-80327618D01*
X135342381Y-80232380D01*
X135390000Y-80089523D01*
X135437619Y-80041904D01*
X133802381Y-81946666D02*
X133326190Y-82280000D01*
X133802381Y-82518095D02*
X132802381Y-82518095D01*
X132802381Y-82137142D01*
X132850000Y-82041904D01*
X132897619Y-81994285D01*
X132992857Y-81946666D01*
X133135714Y-81946666D01*
X133230952Y-81994285D01*
X133278571Y-82041904D01*
X133326190Y-82137142D01*
X133326190Y-82518095D01*
X133802381Y-81518095D02*
X132802381Y-81518095D01*
X132802381Y-81280000D01*
X132850000Y-81137142D01*
X132945238Y-81041904D01*
X133040476Y-80994285D01*
X133230952Y-80946666D01*
X133373810Y-80946666D01*
X133564286Y-80994285D01*
X133659524Y-81041904D01*
X133754762Y-81137142D01*
X133802381Y-81280000D01*
X133802381Y-81518095D01*
X132802381Y-80041904D02*
X132802381Y-80518095D01*
X133278571Y-80565714D01*
X133230952Y-80518095D01*
X133183333Y-80422857D01*
X133183333Y-80184761D01*
X133230952Y-80089523D01*
X133278571Y-80041904D01*
X133373810Y-79994285D01*
X133611905Y-79994285D01*
X133707143Y-80041904D01*
X133754762Y-80089523D01*
X133802381Y-80184761D01*
X133802381Y-80422857D01*
X133754762Y-80518095D01*
X133707143Y-80565714D01*
X131167143Y-82256190D02*
X131214762Y-82303809D01*
X131262381Y-82446666D01*
X131262381Y-82541904D01*
X131214762Y-82684762D01*
X131119524Y-82780000D01*
X131024286Y-82827619D01*
X130833810Y-82875238D01*
X130690952Y-82875238D01*
X130500476Y-82827619D01*
X130405238Y-82780000D01*
X130310000Y-82684762D01*
X130262381Y-82541904D01*
X130262381Y-82446666D01*
X130310000Y-82303809D01*
X130357619Y-82256190D01*
X131167143Y-81256190D02*
X131214762Y-81303809D01*
X131262381Y-81446666D01*
X131262381Y-81541904D01*
X131214762Y-81684762D01*
X131119524Y-81780000D01*
X131024286Y-81827619D01*
X130833810Y-81875238D01*
X130690952Y-81875238D01*
X130500476Y-81827619D01*
X130405238Y-81780000D01*
X130310000Y-81684762D01*
X130262381Y-81541904D01*
X130262381Y-81446666D01*
X130310000Y-81303809D01*
X130357619Y-81256190D01*
X130262381Y-80970476D02*
X130262381Y-80399047D01*
X131262381Y-80684762D02*
X130262381Y-80684762D01*
X131262381Y-79589523D02*
X131262381Y-80065714D01*
X130262381Y-80065714D01*
X130090000Y-83065714D02*
X130090000Y-79494285D01*
D13*
X140580000Y-70070000D02*
X136980000Y-70070000D01*
X140580000Y-72170000D02*
X136980000Y-72170000D01*
X138530000Y-71420000D02*
X138530000Y-70820000D01*
X138530000Y-70820000D02*
X138830000Y-71120000D01*
X138830000Y-71120000D02*
X138630000Y-71320000D01*
X138630000Y-71320000D02*
X138630000Y-71070000D01*
X138630000Y-71070000D02*
X138680000Y-71120000D01*
X138930000Y-71620000D02*
X138930000Y-70620000D01*
X138430000Y-71120000D02*
X137930000Y-71120000D01*
X138930000Y-71120000D02*
X138430000Y-71620000D01*
X138430000Y-71620000D02*
X138430000Y-70620000D01*
X138430000Y-70620000D02*
X138930000Y-71120000D01*
X161290000Y-79020000D02*
X159740000Y-79020000D01*
X159740000Y-79020000D02*
X159740000Y-75920000D01*
X159740000Y-75920000D02*
X161290000Y-75920000D01*
X162560000Y-76200000D02*
X172720000Y-76200000D01*
X172720000Y-76200000D02*
X172720000Y-78740000D01*
X172720000Y-78740000D02*
X162560000Y-78740000D01*
X162560000Y-76200000D02*
X162560000Y-78740000D01*
X146050000Y-79020000D02*
X144500000Y-79020000D01*
X144500000Y-79020000D02*
X144500000Y-75920000D01*
X144500000Y-75920000D02*
X146050000Y-75920000D01*
X147320000Y-76200000D02*
X157480000Y-76200000D01*
X157480000Y-76200000D02*
X157480000Y-78740000D01*
X157480000Y-78740000D02*
X147320000Y-78740000D01*
X147320000Y-76200000D02*
X147320000Y-78740000D01*
X130810000Y-79020000D02*
X129260000Y-79020000D01*
X129260000Y-79020000D02*
X129260000Y-75920000D01*
X129260000Y-75920000D02*
X130810000Y-75920000D01*
X132080000Y-76200000D02*
X142240000Y-76200000D01*
X142240000Y-76200000D02*
X142240000Y-78740000D01*
X142240000Y-78740000D02*
X132080000Y-78740000D01*
X132080000Y-76200000D02*
X132080000Y-78740000D01*
X140970000Y-87350000D02*
X142520000Y-87350000D01*
X142520000Y-87350000D02*
X142520000Y-90450000D01*
X142520000Y-90450000D02*
X140970000Y-90450000D01*
X139700000Y-90170000D02*
X129540000Y-90170000D01*
X129540000Y-90170000D02*
X129540000Y-87630000D01*
X129540000Y-87630000D02*
X139700000Y-87630000D01*
X139700000Y-90170000D02*
X139700000Y-87630000D01*
X156210000Y-87350000D02*
X157760000Y-87350000D01*
X157760000Y-87350000D02*
X157760000Y-90450000D01*
X157760000Y-90450000D02*
X156210000Y-90450000D01*
X154940000Y-90170000D02*
X144780000Y-90170000D01*
X144780000Y-90170000D02*
X144780000Y-87630000D01*
X144780000Y-87630000D02*
X154940000Y-87630000D01*
X154940000Y-90170000D02*
X154940000Y-87630000D01*
X171450000Y-87350000D02*
X173000000Y-87350000D01*
X173000000Y-87350000D02*
X173000000Y-90450000D01*
X173000000Y-90450000D02*
X171450000Y-90450000D01*
X170180000Y-90170000D02*
X160020000Y-90170000D01*
X160020000Y-90170000D02*
X160020000Y-87630000D01*
X160020000Y-87630000D02*
X170180000Y-87630000D01*
X170180000Y-90170000D02*
X170180000Y-87630000D01*
X133080000Y-72195000D02*
X131080000Y-72195000D01*
X131080000Y-70045000D02*
X133080000Y-70045000D01*
X150335810Y-106873143D02*
X150288191Y-106920762D01*
X150145334Y-106968381D01*
X150050096Y-106968381D01*
X149907238Y-106920762D01*
X149812000Y-106825524D01*
X149764381Y-106730286D01*
X149716762Y-106539810D01*
X149716762Y-106396952D01*
X149764381Y-106206476D01*
X149812000Y-106111238D01*
X149907238Y-106016000D01*
X150050096Y-105968381D01*
X150145334Y-105968381D01*
X150288191Y-106016000D01*
X150335810Y-106063619D01*
X150716762Y-106682667D02*
X151192953Y-106682667D01*
X150621524Y-106968381D02*
X150954857Y-105968381D01*
X151288191Y-106968381D01*
X152192953Y-106968381D02*
X151859619Y-106492190D01*
X151621524Y-106968381D02*
X151621524Y-105968381D01*
X152002477Y-105968381D01*
X152097715Y-106016000D01*
X152145334Y-106063619D01*
X152192953Y-106158857D01*
X152192953Y-106301714D01*
X152145334Y-106396952D01*
X152097715Y-106444571D01*
X152002477Y-106492190D01*
X151621524Y-106492190D01*
X152478667Y-105968381D02*
X153050096Y-105968381D01*
X152764381Y-106968381D02*
X152764381Y-105968381D01*
X153907239Y-106968381D02*
X153335810Y-106968381D01*
X153621524Y-106968381D02*
X153621524Y-105968381D01*
X153526286Y-106111238D01*
X153431048Y-106206476D01*
X153335810Y-106254095D01*
X132801714Y-107327571D02*
X132908857Y-107363286D01*
X133087428Y-107363286D01*
X133158857Y-107327571D01*
X133194571Y-107291857D01*
X133230286Y-107220429D01*
X133230286Y-107149000D01*
X133194571Y-107077571D01*
X133158857Y-107041857D01*
X133087428Y-107006143D01*
X132944571Y-106970429D01*
X132873143Y-106934714D01*
X132837428Y-106899000D01*
X132801714Y-106827571D01*
X132801714Y-106756143D01*
X132837428Y-106684714D01*
X132873143Y-106649000D01*
X132944571Y-106613286D01*
X133123143Y-106613286D01*
X133230286Y-106649000D01*
X168651429Y-107149000D02*
X169008572Y-107149000D01*
X168580001Y-107363286D02*
X168830001Y-106613286D01*
X169080001Y-107363286D01*
X149153333Y-107968571D02*
X148819999Y-107968571D01*
X148819999Y-108492381D02*
X148819999Y-107492381D01*
X149296190Y-107492381D01*
X149677142Y-108492381D02*
X149677142Y-107825714D01*
X149677142Y-108016190D02*
X149724761Y-107920952D01*
X149772380Y-107873333D01*
X149867618Y-107825714D01*
X149962857Y-107825714D01*
X150439047Y-108492381D02*
X150343809Y-108444762D01*
X150296190Y-108397143D01*
X150248571Y-108301905D01*
X150248571Y-108016190D01*
X150296190Y-107920952D01*
X150343809Y-107873333D01*
X150439047Y-107825714D01*
X150581905Y-107825714D01*
X150677143Y-107873333D01*
X150724762Y-107920952D01*
X150772381Y-108016190D01*
X150772381Y-108301905D01*
X150724762Y-108397143D01*
X150677143Y-108444762D01*
X150581905Y-108492381D01*
X150439047Y-108492381D01*
X151200952Y-107825714D02*
X151200952Y-108492381D01*
X151200952Y-107920952D02*
X151248571Y-107873333D01*
X151343809Y-107825714D01*
X151486667Y-107825714D01*
X151581905Y-107873333D01*
X151629524Y-107968571D01*
X151629524Y-108492381D01*
X151962857Y-107825714D02*
X152343809Y-107825714D01*
X152105714Y-107492381D02*
X152105714Y-108349524D01*
X152153333Y-108444762D01*
X152248571Y-108492381D01*
X152343809Y-108492381D01*
X153391429Y-107444762D02*
X152534286Y-108730476D01*
X153581905Y-107492381D02*
X154153334Y-107492381D01*
X153867619Y-108492381D02*
X153867619Y-107492381D01*
X154629524Y-108492381D02*
X154534286Y-108444762D01*
X154486667Y-108397143D01*
X154439048Y-108301905D01*
X154439048Y-108016190D01*
X154486667Y-107920952D01*
X154534286Y-107873333D01*
X154629524Y-107825714D01*
X154772382Y-107825714D01*
X154867620Y-107873333D01*
X154915239Y-107920952D01*
X154962858Y-108016190D01*
X154962858Y-108301905D01*
X154915239Y-108397143D01*
X154867620Y-108444762D01*
X154772382Y-108492381D01*
X154629524Y-108492381D01*
X155391429Y-107825714D02*
X155391429Y-108825714D01*
X155391429Y-107873333D02*
X155486667Y-107825714D01*
X155677144Y-107825714D01*
X155772382Y-107873333D01*
X155820001Y-107920952D01*
X155867620Y-108016190D01*
X155867620Y-108301905D01*
X155820001Y-108397143D01*
X155772382Y-108444762D01*
X155677144Y-108492381D01*
X155486667Y-108492381D01*
X155391429Y-108444762D01*
X165790000Y-111341904D02*
X165742381Y-111437142D01*
X165742381Y-111579999D01*
X165790000Y-111722857D01*
X165885238Y-111818095D01*
X165980476Y-111865714D01*
X166170952Y-111913333D01*
X166313810Y-111913333D01*
X166504286Y-111865714D01*
X166599524Y-111818095D01*
X166694762Y-111722857D01*
X166742381Y-111579999D01*
X166742381Y-111484761D01*
X166694762Y-111341904D01*
X166647143Y-111294285D01*
X166313810Y-111294285D01*
X166313810Y-111484761D01*
X166742381Y-110865714D02*
X165742381Y-110865714D01*
X166742381Y-110294285D01*
X165742381Y-110294285D01*
X166742381Y-109818095D02*
X165742381Y-109818095D01*
X165742381Y-109580000D01*
X165790000Y-109437142D01*
X165885238Y-109341904D01*
X165980476Y-109294285D01*
X166170952Y-109246666D01*
X166313810Y-109246666D01*
X166504286Y-109294285D01*
X166599524Y-109341904D01*
X166694762Y-109437142D01*
X166742381Y-109580000D01*
X166742381Y-109818095D01*
X161376667Y-111802286D02*
X161376667Y-111326095D01*
X161662381Y-111897524D02*
X160662381Y-111564191D01*
X161662381Y-111230857D01*
X160662381Y-110421333D02*
X160662381Y-110897524D01*
X161138571Y-110945143D01*
X161090952Y-110897524D01*
X161043333Y-110802286D01*
X161043333Y-110564190D01*
X161090952Y-110468952D01*
X161138571Y-110421333D01*
X161233810Y-110373714D01*
X161471905Y-110373714D01*
X161567143Y-110421333D01*
X161614762Y-110468952D01*
X161662381Y-110564190D01*
X161662381Y-110802286D01*
X161614762Y-110897524D01*
X161567143Y-110945143D01*
X158836667Y-111802286D02*
X158836667Y-111326095D01*
X159122381Y-111897524D02*
X158122381Y-111564191D01*
X159122381Y-111230857D01*
X158122381Y-110468952D02*
X158122381Y-110659429D01*
X158170000Y-110754667D01*
X158217619Y-110802286D01*
X158360476Y-110897524D01*
X158550952Y-110945143D01*
X158931905Y-110945143D01*
X159027143Y-110897524D01*
X159074762Y-110849905D01*
X159122381Y-110754667D01*
X159122381Y-110564190D01*
X159074762Y-110468952D01*
X159027143Y-110421333D01*
X158931905Y-110373714D01*
X158693810Y-110373714D01*
X158598571Y-110421333D01*
X158550952Y-110468952D01*
X158503333Y-110564190D01*
X158503333Y-110754667D01*
X158550952Y-110849905D01*
X158598571Y-110897524D01*
X158693810Y-110945143D01*
X156296667Y-111802286D02*
X156296667Y-111326095D01*
X156582381Y-111897524D02*
X155582381Y-111564191D01*
X156582381Y-111230857D01*
X155582381Y-110992762D02*
X155582381Y-110326095D01*
X156582381Y-110754667D01*
X153756667Y-111802286D02*
X153756667Y-111326095D01*
X154042381Y-111897524D02*
X153042381Y-111564191D01*
X154042381Y-111230857D01*
X153470952Y-110754667D02*
X153423333Y-110849905D01*
X153375714Y-110897524D01*
X153280476Y-110945143D01*
X153232857Y-110945143D01*
X153137619Y-110897524D01*
X153090000Y-110849905D01*
X153042381Y-110754667D01*
X153042381Y-110564190D01*
X153090000Y-110468952D01*
X153137619Y-110421333D01*
X153232857Y-110373714D01*
X153280476Y-110373714D01*
X153375714Y-110421333D01*
X153423333Y-110468952D01*
X153470952Y-110564190D01*
X153470952Y-110754667D01*
X153518571Y-110849905D01*
X153566190Y-110897524D01*
X153661429Y-110945143D01*
X153851905Y-110945143D01*
X153947143Y-110897524D01*
X153994762Y-110849905D01*
X154042381Y-110754667D01*
X154042381Y-110564190D01*
X153994762Y-110468952D01*
X153947143Y-110421333D01*
X153851905Y-110373714D01*
X153661429Y-110373714D01*
X153566190Y-110421333D01*
X153518571Y-110468952D01*
X153470952Y-110564190D01*
X151216667Y-111802286D02*
X151216667Y-111326095D01*
X151502381Y-111897524D02*
X150502381Y-111564191D01*
X151502381Y-111230857D01*
X151502381Y-110849905D02*
X151502381Y-110659429D01*
X151454762Y-110564190D01*
X151407143Y-110516571D01*
X151264286Y-110421333D01*
X151073810Y-110373714D01*
X150692857Y-110373714D01*
X150597619Y-110421333D01*
X150550000Y-110468952D01*
X150502381Y-110564190D01*
X150502381Y-110754667D01*
X150550000Y-110849905D01*
X150597619Y-110897524D01*
X150692857Y-110945143D01*
X150930952Y-110945143D01*
X151026190Y-110897524D01*
X151073810Y-110849905D01*
X151121429Y-110754667D01*
X151121429Y-110564190D01*
X151073810Y-110468952D01*
X151026190Y-110421333D01*
X150930952Y-110373714D01*
X148676667Y-111770476D02*
X148676667Y-111294285D01*
X148962381Y-111865714D02*
X147962381Y-111532381D01*
X148962381Y-111199047D01*
X148962381Y-110341904D02*
X148962381Y-110913333D01*
X148962381Y-110627619D02*
X147962381Y-110627619D01*
X148105238Y-110722857D01*
X148200476Y-110818095D01*
X148248095Y-110913333D01*
X148057619Y-109960952D02*
X148010000Y-109913333D01*
X147962381Y-109818095D01*
X147962381Y-109579999D01*
X148010000Y-109484761D01*
X148057619Y-109437142D01*
X148152857Y-109389523D01*
X148248095Y-109389523D01*
X148390952Y-109437142D01*
X148962381Y-110008571D01*
X148962381Y-109389523D01*
X141056667Y-111770476D02*
X141056667Y-111294285D01*
X141342381Y-111865714D02*
X140342381Y-111532381D01*
X141342381Y-111199047D01*
X141342381Y-110341904D02*
X141342381Y-110913333D01*
X141342381Y-110627619D02*
X140342381Y-110627619D01*
X140485238Y-110722857D01*
X140580476Y-110818095D01*
X140628095Y-110913333D01*
X141342381Y-109389523D02*
X141342381Y-109960952D01*
X141342381Y-109675238D02*
X140342381Y-109675238D01*
X140485238Y-109770476D01*
X140580476Y-109865714D01*
X140628095Y-109960952D01*
X138516667Y-111770476D02*
X138516667Y-111294285D01*
X138802381Y-111865714D02*
X137802381Y-111532381D01*
X138802381Y-111199047D01*
X138802381Y-110341904D02*
X138802381Y-110913333D01*
X138802381Y-110627619D02*
X137802381Y-110627619D01*
X137945238Y-110722857D01*
X138040476Y-110818095D01*
X138088095Y-110913333D01*
X137802381Y-109722857D02*
X137802381Y-109627618D01*
X137850000Y-109532380D01*
X137897619Y-109484761D01*
X137992857Y-109437142D01*
X138183333Y-109389523D01*
X138421429Y-109389523D01*
X138611905Y-109437142D01*
X138707143Y-109484761D01*
X138754762Y-109532380D01*
X138802381Y-109627618D01*
X138802381Y-109722857D01*
X138754762Y-109818095D01*
X138707143Y-109865714D01*
X138611905Y-109913333D01*
X138421429Y-109960952D01*
X138183333Y-109960952D01*
X137992857Y-109913333D01*
X137897619Y-109865714D01*
X137850000Y-109818095D01*
X137802381Y-109722857D01*
X136262381Y-111111714D02*
X135786190Y-111445048D01*
X136262381Y-111683143D02*
X135262381Y-111683143D01*
X135262381Y-111302190D01*
X135310000Y-111206952D01*
X135357619Y-111159333D01*
X135452857Y-111111714D01*
X135595714Y-111111714D01*
X135690952Y-111159333D01*
X135738571Y-111206952D01*
X135786190Y-111302190D01*
X135786190Y-111683143D01*
X135214762Y-109968857D02*
X136500476Y-110826000D01*
X135262381Y-109730762D02*
X136262381Y-109492667D01*
X135548095Y-109302190D01*
X136262381Y-109111714D01*
X135262381Y-108873619D01*
X135090000Y-109873619D02*
X135090000Y-108730762D01*
X133198571Y-111460952D02*
X133246190Y-111318095D01*
X133293810Y-111270476D01*
X133389048Y-111222857D01*
X133531905Y-111222857D01*
X133627143Y-111270476D01*
X133674762Y-111318095D01*
X133722381Y-111413333D01*
X133722381Y-111794286D01*
X132722381Y-111794286D01*
X132722381Y-111460952D01*
X132770000Y-111365714D01*
X132817619Y-111318095D01*
X132912857Y-111270476D01*
X133008095Y-111270476D01*
X133103333Y-111318095D01*
X133150952Y-111365714D01*
X133198571Y-111460952D01*
X133198571Y-111794286D01*
X132722381Y-110603810D02*
X132722381Y-110508571D01*
X132770000Y-110413333D01*
X132817619Y-110365714D01*
X132912857Y-110318095D01*
X133103333Y-110270476D01*
X133341429Y-110270476D01*
X133531905Y-110318095D01*
X133627143Y-110365714D01*
X133674762Y-110413333D01*
X133722381Y-110508571D01*
X133722381Y-110603810D01*
X133674762Y-110699048D01*
X133627143Y-110746667D01*
X133531905Y-110794286D01*
X133341429Y-110841905D01*
X133103333Y-110841905D01*
X132912857Y-110794286D01*
X132817619Y-110746667D01*
X132770000Y-110699048D01*
X132722381Y-110603810D01*
X132817619Y-109889524D02*
X132770000Y-109841905D01*
X132722381Y-109746667D01*
X132722381Y-109508571D01*
X132770000Y-109413333D01*
X132817619Y-109365714D01*
X132912857Y-109318095D01*
X133008095Y-109318095D01*
X133150952Y-109365714D01*
X133722381Y-109937143D01*
X133722381Y-109318095D01*
X146422381Y-111826095D02*
X145422381Y-111826095D01*
X145422381Y-111588000D01*
X145470000Y-111445142D01*
X145565238Y-111349904D01*
X145660476Y-111302285D01*
X145850952Y-111254666D01*
X145993810Y-111254666D01*
X146184286Y-111302285D01*
X146279524Y-111349904D01*
X146374762Y-111445142D01*
X146422381Y-111588000D01*
X146422381Y-111826095D01*
X145422381Y-110921333D02*
X145422381Y-110302285D01*
X145803333Y-110635619D01*
X145803333Y-110492761D01*
X145850952Y-110397523D01*
X145898571Y-110349904D01*
X145993810Y-110302285D01*
X146231905Y-110302285D01*
X146327143Y-110349904D01*
X146374762Y-110397523D01*
X146422381Y-110492761D01*
X146422381Y-110778476D01*
X146374762Y-110873714D01*
X146327143Y-110921333D01*
X163916667Y-111802286D02*
X163916667Y-111326095D01*
X164202381Y-111897524D02*
X163202381Y-111564191D01*
X164202381Y-111230857D01*
X163535714Y-110468952D02*
X164202381Y-110468952D01*
X163154762Y-110707048D02*
X163869048Y-110945143D01*
X163869048Y-110326095D01*
X143882381Y-111826095D02*
X142882381Y-111826095D01*
X142882381Y-111588000D01*
X142930000Y-111445142D01*
X143025238Y-111349904D01*
X143120476Y-111302285D01*
X143310952Y-111254666D01*
X143453810Y-111254666D01*
X143644286Y-111302285D01*
X143739524Y-111349904D01*
X143834762Y-111445142D01*
X143882381Y-111588000D01*
X143882381Y-111826095D01*
X142882381Y-110921333D02*
X142882381Y-110254666D01*
X143882381Y-110683238D01*
X169282381Y-111246666D02*
X168806190Y-111580000D01*
X169282381Y-111818095D02*
X168282381Y-111818095D01*
X168282381Y-111437142D01*
X168330000Y-111341904D01*
X168377619Y-111294285D01*
X168472857Y-111246666D01*
X168615714Y-111246666D01*
X168710952Y-111294285D01*
X168758571Y-111341904D01*
X168806190Y-111437142D01*
X168806190Y-111818095D01*
X169282381Y-110818095D02*
X168282381Y-110818095D01*
X168282381Y-110580000D01*
X168330000Y-110437142D01*
X168425238Y-110341904D01*
X168520476Y-110294285D01*
X168710952Y-110246666D01*
X168853810Y-110246666D01*
X169044286Y-110294285D01*
X169139524Y-110341904D01*
X169234762Y-110437142D01*
X169282381Y-110580000D01*
X169282381Y-110818095D01*
X168615714Y-109389523D02*
X169282381Y-109389523D01*
X168234762Y-109627619D02*
X168949048Y-109865714D01*
X168949048Y-109246666D01*
X137691905Y-73572381D02*
X137691905Y-72572381D01*
X137930000Y-72572381D01*
X138072858Y-72620000D01*
X138168096Y-72715238D01*
X138215715Y-72810476D01*
X138263334Y-73000952D01*
X138263334Y-73143810D01*
X138215715Y-73334286D01*
X138168096Y-73429524D01*
X138072858Y-73524762D01*
X137930000Y-73572381D01*
X137691905Y-73572381D01*
X139215715Y-73572381D02*
X138644286Y-73572381D01*
X138930000Y-73572381D02*
X138930000Y-72572381D01*
X138834762Y-72715238D01*
X138739524Y-72810476D01*
X138644286Y-72858095D01*
X165631905Y-75382381D02*
X165631905Y-74382381D01*
X166012858Y-74382381D01*
X166108096Y-74430000D01*
X166155715Y-74477619D01*
X166203334Y-74572857D01*
X166203334Y-74715714D01*
X166155715Y-74810952D01*
X166108096Y-74858571D01*
X166012858Y-74906190D01*
X165631905Y-74906190D01*
X167155715Y-75382381D02*
X166584286Y-75382381D01*
X166870000Y-75382381D02*
X166870000Y-74382381D01*
X166774762Y-74525238D01*
X166679524Y-74620476D01*
X166584286Y-74668095D01*
X149121905Y-75382381D02*
X149121905Y-74382381D01*
X149502858Y-74382381D01*
X149598096Y-74430000D01*
X149645715Y-74477619D01*
X149693334Y-74572857D01*
X149693334Y-74715714D01*
X149645715Y-74810952D01*
X149598096Y-74858571D01*
X149502858Y-74906190D01*
X149121905Y-74906190D01*
X150074286Y-74477619D02*
X150121905Y-74430000D01*
X150217143Y-74382381D01*
X150455239Y-74382381D01*
X150550477Y-74430000D01*
X150598096Y-74477619D01*
X150645715Y-74572857D01*
X150645715Y-74668095D01*
X150598096Y-74810952D01*
X150026667Y-75382381D01*
X150645715Y-75382381D01*
X133881905Y-75382381D02*
X133881905Y-74382381D01*
X134262858Y-74382381D01*
X134358096Y-74430000D01*
X134405715Y-74477619D01*
X134453334Y-74572857D01*
X134453334Y-74715714D01*
X134405715Y-74810952D01*
X134358096Y-74858571D01*
X134262858Y-74906190D01*
X133881905Y-74906190D01*
X134786667Y-74382381D02*
X135405715Y-74382381D01*
X135072381Y-74763333D01*
X135215239Y-74763333D01*
X135310477Y-74810952D01*
X135358096Y-74858571D01*
X135405715Y-74953810D01*
X135405715Y-75191905D01*
X135358096Y-75287143D01*
X135310477Y-75334762D01*
X135215239Y-75382381D01*
X134929524Y-75382381D01*
X134834286Y-75334762D01*
X134786667Y-75287143D01*
X135151905Y-86812381D02*
X135151905Y-85812381D01*
X135532858Y-85812381D01*
X135628096Y-85860000D01*
X135675715Y-85907619D01*
X135723334Y-86002857D01*
X135723334Y-86145714D01*
X135675715Y-86240952D01*
X135628096Y-86288571D01*
X135532858Y-86336190D01*
X135151905Y-86336190D01*
X136580477Y-86145714D02*
X136580477Y-86812381D01*
X136342381Y-85764762D02*
X136104286Y-86479048D01*
X136723334Y-86479048D01*
X149121905Y-86812381D02*
X149121905Y-85812381D01*
X149502858Y-85812381D01*
X149598096Y-85860000D01*
X149645715Y-85907619D01*
X149693334Y-86002857D01*
X149693334Y-86145714D01*
X149645715Y-86240952D01*
X149598096Y-86288571D01*
X149502858Y-86336190D01*
X149121905Y-86336190D01*
X150598096Y-85812381D02*
X150121905Y-85812381D01*
X150074286Y-86288571D01*
X150121905Y-86240952D01*
X150217143Y-86193333D01*
X150455239Y-86193333D01*
X150550477Y-86240952D01*
X150598096Y-86288571D01*
X150645715Y-86383810D01*
X150645715Y-86621905D01*
X150598096Y-86717143D01*
X150550477Y-86764762D01*
X150455239Y-86812381D01*
X150217143Y-86812381D01*
X150121905Y-86764762D01*
X150074286Y-86717143D01*
X164361905Y-86812381D02*
X164361905Y-85812381D01*
X164742858Y-85812381D01*
X164838096Y-85860000D01*
X164885715Y-85907619D01*
X164933334Y-86002857D01*
X164933334Y-86145714D01*
X164885715Y-86240952D01*
X164838096Y-86288571D01*
X164742858Y-86336190D01*
X164361905Y-86336190D01*
X165790477Y-85812381D02*
X165600000Y-85812381D01*
X165504762Y-85860000D01*
X165457143Y-85907619D01*
X165361905Y-86050476D01*
X165314286Y-86240952D01*
X165314286Y-86621905D01*
X165361905Y-86717143D01*
X165409524Y-86764762D01*
X165504762Y-86812381D01*
X165695239Y-86812381D01*
X165790477Y-86764762D01*
X165838096Y-86717143D01*
X165885715Y-86621905D01*
X165885715Y-86383810D01*
X165838096Y-86288571D01*
X165790477Y-86240952D01*
X165695239Y-86193333D01*
X165504762Y-86193333D01*
X165409524Y-86240952D01*
X165361905Y-86288571D01*
X165314286Y-86383810D01*
X131913334Y-74112381D02*
X131580000Y-73636190D01*
X131341905Y-74112381D02*
X131341905Y-73112381D01*
X131722858Y-73112381D01*
X131818096Y-73160000D01*
X131865715Y-73207619D01*
X131913334Y-73302857D01*
X131913334Y-73445714D01*
X131865715Y-73540952D01*
X131818096Y-73588571D01*
X131722858Y-73636190D01*
X131341905Y-73636190D01*
X132865715Y-74112381D02*
X132294286Y-74112381D01*
X132580000Y-74112381D02*
X132580000Y-73112381D01*
X132484762Y-73255238D01*
X132389524Y-73350476D01*
X132294286Y-73398095D01*
M02*
