%TF.GenerationSoftware,KiCad,Pcbnew,4.0.2+dfsg1-stable*%
%TF.CreationDate,2019-04-14T23:19:02+02:00*%
%TF.ProjectId,CART-Breakout,434152542D427265616B6F75742E6B69,rev?*%
%TF.FileFunction,Copper,L2,Bot,Signal*%
%FSLAX46Y46*%
G04 Gerber Fmt 4.6, Leading zero omitted, Abs format (unit mm)*
G04 Created by KiCad (PCBNEW 4.0.2+dfsg1-stable) date Sun 14 Apr 2019 23:19:02 CEST*
%MOMM*%
G01*
G04 APERTURE LIST*
%ADD10C,0.100000*%
%ADD11R,1.930400X5.588000*%
%ADD12R,1.727200X2.032000*%
%ADD13O,1.727200X2.032000*%
%ADD14C,0.400000*%
%ADD15C,0.254000*%
G04 APERTURE END LIST*
D10*
D11*
X168830000Y-115152000D03*
X166290000Y-115152000D03*
X163750000Y-115152000D03*
X161210000Y-115152000D03*
X158670000Y-115152000D03*
X156130000Y-115152000D03*
X153590000Y-115152000D03*
X151050000Y-115152000D03*
X148510000Y-115152000D03*
X145970000Y-115152000D03*
X143430000Y-115152000D03*
X140890000Y-115152000D03*
X138350000Y-115152000D03*
X135810000Y-115152000D03*
X133270000Y-115152000D03*
D12*
X161290000Y-77470000D03*
D13*
X163830000Y-77470000D03*
X166370000Y-77470000D03*
X168910000Y-77470000D03*
X171450000Y-77470000D03*
D12*
X146050000Y-77470000D03*
D13*
X148590000Y-77470000D03*
X151130000Y-77470000D03*
X153670000Y-77470000D03*
X156210000Y-77470000D03*
D12*
X130810000Y-77470000D03*
D13*
X133350000Y-77470000D03*
X135890000Y-77470000D03*
X138430000Y-77470000D03*
X140970000Y-77470000D03*
D12*
X140970000Y-88900000D03*
D13*
X138430000Y-88900000D03*
X135890000Y-88900000D03*
X133350000Y-88900000D03*
X130810000Y-88900000D03*
D12*
X156210000Y-88900000D03*
D13*
X153670000Y-88900000D03*
X151130000Y-88900000D03*
X148590000Y-88900000D03*
X146050000Y-88900000D03*
D12*
X171450000Y-88900000D03*
D13*
X168910000Y-88900000D03*
X166370000Y-88900000D03*
X163830000Y-88900000D03*
X161290000Y-88900000D03*
D14*
X171450000Y-77470000D02*
X171450000Y-86360000D01*
X168910000Y-92710000D02*
X168910000Y-115072000D01*
X170180000Y-91440000D02*
X168910000Y-92710000D01*
X170180000Y-87630000D02*
X170180000Y-91440000D01*
X171450000Y-86360000D02*
X170180000Y-87630000D01*
X168910000Y-115072000D02*
X168830000Y-115152000D01*
X168910000Y-77470000D02*
X168910000Y-86360000D01*
X166370000Y-92710000D02*
X166370000Y-115072000D01*
X167640000Y-91440000D02*
X166370000Y-92710000D01*
X167640000Y-87630000D02*
X167640000Y-91440000D01*
X168910000Y-86360000D02*
X167640000Y-87630000D01*
X166370000Y-115072000D02*
X166290000Y-115152000D01*
X166370000Y-77470000D02*
X166370000Y-86360000D01*
X163830000Y-92710000D02*
X163830000Y-115072000D01*
X165100000Y-91440000D02*
X163830000Y-92710000D01*
X165100000Y-87630000D02*
X165100000Y-91440000D01*
X166370000Y-86360000D02*
X165100000Y-87630000D01*
X163830000Y-115072000D02*
X163750000Y-115152000D01*
X163830000Y-77470000D02*
X163830000Y-86360000D01*
X161210000Y-92790000D02*
X161210000Y-115152000D01*
X162560000Y-91440000D02*
X161210000Y-92790000D01*
X162560000Y-87630000D02*
X162560000Y-91440000D01*
X163830000Y-86360000D02*
X162560000Y-87630000D01*
X161290000Y-77470000D02*
X161290000Y-86360000D01*
X158670000Y-92790000D02*
X158670000Y-115152000D01*
X160020000Y-91440000D02*
X158670000Y-92790000D01*
X160020000Y-87630000D02*
X160020000Y-91440000D01*
X161290000Y-86360000D02*
X160020000Y-87630000D01*
X156210000Y-77470000D02*
X156210000Y-86360000D01*
X156210000Y-92710000D02*
X156210000Y-115072000D01*
X154940000Y-91440000D02*
X156210000Y-92710000D01*
X154940000Y-87630000D02*
X154940000Y-91440000D01*
X156210000Y-86360000D02*
X154940000Y-87630000D01*
X156210000Y-115072000D02*
X156130000Y-115152000D01*
X135890000Y-77470000D02*
X135890000Y-86360000D01*
X138350000Y-96440000D02*
X138350000Y-115152000D01*
X137160000Y-95250000D02*
X138350000Y-96440000D01*
X137160000Y-87630000D02*
X137160000Y-95250000D01*
X135890000Y-86360000D02*
X137160000Y-87630000D01*
X153670000Y-77470000D02*
X153670000Y-86360000D01*
X153670000Y-92710000D02*
X153670000Y-115072000D01*
X152400000Y-91440000D02*
X153670000Y-92710000D01*
X152400000Y-87630000D02*
X152400000Y-91440000D01*
X153670000Y-86360000D02*
X152400000Y-87630000D01*
X153670000Y-115072000D02*
X153590000Y-115152000D01*
X151130000Y-77470000D02*
X151130000Y-86360000D01*
X151130000Y-92710000D02*
X151130000Y-115072000D01*
X149860000Y-91440000D02*
X151130000Y-92710000D01*
X149860000Y-87630000D02*
X149860000Y-91440000D01*
X151130000Y-86360000D02*
X149860000Y-87630000D01*
X151130000Y-115072000D02*
X151050000Y-115152000D01*
X148590000Y-77470000D02*
X148590000Y-86360000D01*
X148590000Y-92710000D02*
X148590000Y-115072000D01*
X147320000Y-91440000D02*
X148590000Y-92710000D01*
X147320000Y-87630000D02*
X147320000Y-91440000D01*
X148590000Y-86360000D02*
X147320000Y-87630000D01*
X148590000Y-115072000D02*
X148510000Y-115152000D01*
X146050000Y-77470000D02*
X146050000Y-86360000D01*
X145970000Y-92630000D02*
X145970000Y-115152000D01*
X144780000Y-91440000D02*
X145970000Y-92630000D01*
X144780000Y-87630000D02*
X144780000Y-91440000D01*
X146050000Y-86360000D02*
X144780000Y-87630000D01*
X140970000Y-77470000D02*
X140970000Y-86360000D01*
X143510000Y-96520000D02*
X143510000Y-115072000D01*
X142240000Y-95250000D02*
X143510000Y-96520000D01*
X142240000Y-87630000D02*
X142240000Y-95250000D01*
X140970000Y-86360000D02*
X142240000Y-87630000D01*
X143510000Y-115072000D02*
X143430000Y-115152000D01*
X138430000Y-77470000D02*
X138430000Y-86360000D01*
X140890000Y-96440000D02*
X140890000Y-115152000D01*
X139700000Y-95250000D02*
X140890000Y-96440000D01*
X139700000Y-87630000D02*
X139700000Y-95250000D01*
X138430000Y-86360000D02*
X139700000Y-87630000D01*
X133350000Y-77470000D02*
X133350000Y-86360000D01*
X135810000Y-96440000D02*
X135810000Y-115152000D01*
X134620000Y-95250000D02*
X135810000Y-96440000D01*
X134620000Y-87630000D02*
X134620000Y-95250000D01*
X133350000Y-86360000D02*
X134620000Y-87630000D01*
X130810000Y-77470000D02*
X130810000Y-86360000D01*
X133270000Y-96440000D02*
X133270000Y-115152000D01*
X132080000Y-95250000D02*
X133270000Y-96440000D01*
X132080000Y-87630000D02*
X132080000Y-95250000D01*
X130810000Y-86360000D02*
X132080000Y-87630000D01*
D15*
G36*
X169037000Y-88773000D02*
X169057000Y-88773000D01*
X169057000Y-89027000D01*
X169037000Y-89027000D01*
X169037000Y-90386217D01*
X169269026Y-90507358D01*
X169284791Y-90504709D01*
X169345000Y-90475706D01*
X169345000Y-91094132D01*
X168319566Y-92119566D01*
X168138561Y-92390459D01*
X168075000Y-92710000D01*
X168075000Y-111710560D01*
X167864800Y-111710560D01*
X167629483Y-111754838D01*
X167561378Y-111798662D01*
X167507090Y-111761569D01*
X167255200Y-111710560D01*
X167205000Y-111710560D01*
X167205000Y-93055868D01*
X168230434Y-92030434D01*
X168280837Y-91955000D01*
X168411439Y-91759541D01*
X168475000Y-91440000D01*
X168475000Y-90475706D01*
X168535209Y-90504709D01*
X168550974Y-90507358D01*
X168783000Y-90386217D01*
X168783000Y-89027000D01*
X168763000Y-89027000D01*
X168763000Y-88773000D01*
X168783000Y-88773000D01*
X168783000Y-88753000D01*
X169037000Y-88753000D01*
X169037000Y-88773000D01*
X169037000Y-88773000D01*
G37*
X169037000Y-88773000D02*
X169057000Y-88773000D01*
X169057000Y-89027000D01*
X169037000Y-89027000D01*
X169037000Y-90386217D01*
X169269026Y-90507358D01*
X169284791Y-90504709D01*
X169345000Y-90475706D01*
X169345000Y-91094132D01*
X168319566Y-92119566D01*
X168138561Y-92390459D01*
X168075000Y-92710000D01*
X168075000Y-111710560D01*
X167864800Y-111710560D01*
X167629483Y-111754838D01*
X167561378Y-111798662D01*
X167507090Y-111761569D01*
X167255200Y-111710560D01*
X167205000Y-111710560D01*
X167205000Y-93055868D01*
X168230434Y-92030434D01*
X168280837Y-91955000D01*
X168411439Y-91759541D01*
X168475000Y-91440000D01*
X168475000Y-90475706D01*
X168535209Y-90504709D01*
X168550974Y-90507358D01*
X168783000Y-90386217D01*
X168783000Y-89027000D01*
X168763000Y-89027000D01*
X168763000Y-88773000D01*
X168783000Y-88773000D01*
X168783000Y-88753000D01*
X169037000Y-88753000D01*
X169037000Y-88773000D01*
M02*
