%TF.GenerationSoftware,KiCad,Pcbnew,4.0.2+dfsg1-stable*%
%TF.CreationDate,2019-04-14T23:19:02+02:00*%
%TF.ProjectId,CART-Breakout,434152542D427265616B6F75742E6B69,rev?*%
%TF.FileFunction,Legend,Bot*%
%FSLAX46Y46*%
G04 Gerber Fmt 4.6, Leading zero omitted, Abs format (unit mm)*
G04 Created by KiCad (PCBNEW 4.0.2+dfsg1-stable) date Sun 14 Apr 2019 23:19:02 CEST*
%MOMM*%
G01*
G04 APERTURE LIST*
%ADD10C,0.100000*%
%ADD11C,0.200000*%
%ADD12C,0.150000*%
%ADD13C,0.010000*%
G04 APERTURE END LIST*
D10*
D11*
X131262381Y-91210000D02*
X130262381Y-91210000D01*
X130262381Y-91590953D01*
X130310000Y-91686191D01*
X130357619Y-91733810D01*
X130452857Y-91781429D01*
X130595714Y-91781429D01*
X130690952Y-91733810D01*
X130738571Y-91686191D01*
X130786190Y-91590953D01*
X130786190Y-91210000D01*
X131262381Y-92210000D02*
X130262381Y-92210000D01*
X130738571Y-92210000D02*
X130738571Y-92781429D01*
X131262381Y-92781429D02*
X130262381Y-92781429D01*
X131262381Y-93257619D02*
X130262381Y-93257619D01*
X130357619Y-93686190D02*
X130310000Y-93733809D01*
X130262381Y-93829047D01*
X130262381Y-94067143D01*
X130310000Y-94162381D01*
X130357619Y-94210000D01*
X130452857Y-94257619D01*
X130548095Y-94257619D01*
X130690952Y-94210000D01*
X131262381Y-93638571D01*
X131262381Y-94257619D01*
X133802381Y-91924286D02*
X133326190Y-91590952D01*
X133802381Y-91352857D02*
X132802381Y-91352857D01*
X132802381Y-91733810D01*
X132850000Y-91829048D01*
X132897619Y-91876667D01*
X132992857Y-91924286D01*
X133135714Y-91924286D01*
X133230952Y-91876667D01*
X133278571Y-91829048D01*
X133326190Y-91733810D01*
X133326190Y-91352857D01*
X132754762Y-93067143D02*
X134040476Y-92210000D01*
X132802381Y-93305238D02*
X133802381Y-93543333D01*
X133088095Y-93733810D01*
X133802381Y-93924286D01*
X132802381Y-94162381D01*
X132630000Y-93162381D02*
X132630000Y-94305238D01*
X136056667Y-91519524D02*
X136056667Y-91995715D01*
X136342381Y-91424286D02*
X135342381Y-91757619D01*
X136342381Y-92090953D01*
X136342381Y-92948096D02*
X136342381Y-92376667D01*
X136342381Y-92662381D02*
X135342381Y-92662381D01*
X135485238Y-92567143D01*
X135580476Y-92471905D01*
X135628095Y-92376667D01*
X135342381Y-93567143D02*
X135342381Y-93662382D01*
X135390000Y-93757620D01*
X135437619Y-93805239D01*
X135532857Y-93852858D01*
X135723333Y-93900477D01*
X135961429Y-93900477D01*
X136151905Y-93852858D01*
X136247143Y-93805239D01*
X136294762Y-93757620D01*
X136342381Y-93662382D01*
X136342381Y-93567143D01*
X136294762Y-93471905D01*
X136247143Y-93424286D01*
X136151905Y-93376667D01*
X135961429Y-93329048D01*
X135723333Y-93329048D01*
X135532857Y-93376667D01*
X135437619Y-93424286D01*
X135390000Y-93471905D01*
X135342381Y-93567143D01*
X138596667Y-91519524D02*
X138596667Y-91995715D01*
X138882381Y-91424286D02*
X137882381Y-91757619D01*
X138882381Y-92090953D01*
X138882381Y-92948096D02*
X138882381Y-92376667D01*
X138882381Y-92662381D02*
X137882381Y-92662381D01*
X138025238Y-92567143D01*
X138120476Y-92471905D01*
X138168095Y-92376667D01*
X138882381Y-93900477D02*
X138882381Y-93329048D01*
X138882381Y-93614762D02*
X137882381Y-93614762D01*
X138025238Y-93519524D01*
X138120476Y-93424286D01*
X138168095Y-93329048D01*
X141422381Y-91971905D02*
X140422381Y-91971905D01*
X140422381Y-92210000D01*
X140470000Y-92352858D01*
X140565238Y-92448096D01*
X140660476Y-92495715D01*
X140850952Y-92543334D01*
X140993810Y-92543334D01*
X141184286Y-92495715D01*
X141279524Y-92448096D01*
X141374762Y-92352858D01*
X141422381Y-92210000D01*
X141422381Y-91971905D01*
X140422381Y-92876667D02*
X140422381Y-93543334D01*
X141422381Y-93114762D01*
X146502381Y-91971905D02*
X145502381Y-91971905D01*
X145502381Y-92210000D01*
X145550000Y-92352858D01*
X145645238Y-92448096D01*
X145740476Y-92495715D01*
X145930952Y-92543334D01*
X146073810Y-92543334D01*
X146264286Y-92495715D01*
X146359524Y-92448096D01*
X146454762Y-92352858D01*
X146502381Y-92210000D01*
X146502381Y-91971905D01*
X145502381Y-92876667D02*
X145502381Y-93495715D01*
X145883333Y-93162381D01*
X145883333Y-93305239D01*
X145930952Y-93400477D01*
X145978571Y-93448096D01*
X146073810Y-93495715D01*
X146311905Y-93495715D01*
X146407143Y-93448096D01*
X146454762Y-93400477D01*
X146502381Y-93305239D01*
X146502381Y-93019524D01*
X146454762Y-92924286D01*
X146407143Y-92876667D01*
X148756667Y-91519524D02*
X148756667Y-91995715D01*
X149042381Y-91424286D02*
X148042381Y-91757619D01*
X149042381Y-92090953D01*
X149042381Y-92948096D02*
X149042381Y-92376667D01*
X149042381Y-92662381D02*
X148042381Y-92662381D01*
X148185238Y-92567143D01*
X148280476Y-92471905D01*
X148328095Y-92376667D01*
X148137619Y-93329048D02*
X148090000Y-93376667D01*
X148042381Y-93471905D01*
X148042381Y-93710001D01*
X148090000Y-93805239D01*
X148137619Y-93852858D01*
X148232857Y-93900477D01*
X148328095Y-93900477D01*
X148470952Y-93852858D01*
X149042381Y-93281429D01*
X149042381Y-93900477D01*
X151296667Y-91995714D02*
X151296667Y-92471905D01*
X151582381Y-91900476D02*
X150582381Y-92233809D01*
X151582381Y-92567143D01*
X151582381Y-92948095D02*
X151582381Y-93138571D01*
X151534762Y-93233810D01*
X151487143Y-93281429D01*
X151344286Y-93376667D01*
X151153810Y-93424286D01*
X150772857Y-93424286D01*
X150677619Y-93376667D01*
X150630000Y-93329048D01*
X150582381Y-93233810D01*
X150582381Y-93043333D01*
X150630000Y-92948095D01*
X150677619Y-92900476D01*
X150772857Y-92852857D01*
X151010952Y-92852857D01*
X151106190Y-92900476D01*
X151153810Y-92948095D01*
X151201429Y-93043333D01*
X151201429Y-93233810D01*
X151153810Y-93329048D01*
X151106190Y-93376667D01*
X151010952Y-93424286D01*
X153836667Y-91995714D02*
X153836667Y-92471905D01*
X154122381Y-91900476D02*
X153122381Y-92233809D01*
X154122381Y-92567143D01*
X153550952Y-93043333D02*
X153503333Y-92948095D01*
X153455714Y-92900476D01*
X153360476Y-92852857D01*
X153312857Y-92852857D01*
X153217619Y-92900476D01*
X153170000Y-92948095D01*
X153122381Y-93043333D01*
X153122381Y-93233810D01*
X153170000Y-93329048D01*
X153217619Y-93376667D01*
X153312857Y-93424286D01*
X153360476Y-93424286D01*
X153455714Y-93376667D01*
X153503333Y-93329048D01*
X153550952Y-93233810D01*
X153550952Y-93043333D01*
X153598571Y-92948095D01*
X153646190Y-92900476D01*
X153741429Y-92852857D01*
X153931905Y-92852857D01*
X154027143Y-92900476D01*
X154074762Y-92948095D01*
X154122381Y-93043333D01*
X154122381Y-93233810D01*
X154074762Y-93329048D01*
X154027143Y-93376667D01*
X153931905Y-93424286D01*
X153741429Y-93424286D01*
X153646190Y-93376667D01*
X153598571Y-93329048D01*
X153550952Y-93233810D01*
X156376667Y-91995714D02*
X156376667Y-92471905D01*
X156662381Y-91900476D02*
X155662381Y-92233809D01*
X156662381Y-92567143D01*
X155662381Y-92805238D02*
X155662381Y-93471905D01*
X156662381Y-93043333D01*
X161456667Y-91995714D02*
X161456667Y-92471905D01*
X161742381Y-91900476D02*
X160742381Y-92233809D01*
X161742381Y-92567143D01*
X160742381Y-93329048D02*
X160742381Y-93138571D01*
X160790000Y-93043333D01*
X160837619Y-92995714D01*
X160980476Y-92900476D01*
X161170952Y-92852857D01*
X161551905Y-92852857D01*
X161647143Y-92900476D01*
X161694762Y-92948095D01*
X161742381Y-93043333D01*
X161742381Y-93233810D01*
X161694762Y-93329048D01*
X161647143Y-93376667D01*
X161551905Y-93424286D01*
X161313810Y-93424286D01*
X161218571Y-93376667D01*
X161170952Y-93329048D01*
X161123333Y-93233810D01*
X161123333Y-93043333D01*
X161170952Y-92948095D01*
X161218571Y-92900476D01*
X161313810Y-92852857D01*
X163996667Y-91995714D02*
X163996667Y-92471905D01*
X164282381Y-91900476D02*
X163282381Y-92233809D01*
X164282381Y-92567143D01*
X163282381Y-93376667D02*
X163282381Y-92900476D01*
X163758571Y-92852857D01*
X163710952Y-92900476D01*
X163663333Y-92995714D01*
X163663333Y-93233810D01*
X163710952Y-93329048D01*
X163758571Y-93376667D01*
X163853810Y-93424286D01*
X164091905Y-93424286D01*
X164187143Y-93376667D01*
X164234762Y-93329048D01*
X164282381Y-93233810D01*
X164282381Y-92995714D01*
X164234762Y-92900476D01*
X164187143Y-92852857D01*
X166536667Y-91995714D02*
X166536667Y-92471905D01*
X166822381Y-91900476D02*
X165822381Y-92233809D01*
X166822381Y-92567143D01*
X166155714Y-93329048D02*
X166822381Y-93329048D01*
X165774762Y-93090952D02*
X166489048Y-92852857D01*
X166489048Y-93471905D01*
X168410000Y-91948096D02*
X168362381Y-91852858D01*
X168362381Y-91710001D01*
X168410000Y-91567143D01*
X168505238Y-91471905D01*
X168600476Y-91424286D01*
X168790952Y-91376667D01*
X168933810Y-91376667D01*
X169124286Y-91424286D01*
X169219524Y-91471905D01*
X169314762Y-91567143D01*
X169362381Y-91710001D01*
X169362381Y-91805239D01*
X169314762Y-91948096D01*
X169267143Y-91995715D01*
X168933810Y-91995715D01*
X168933810Y-91805239D01*
X169362381Y-92424286D02*
X168362381Y-92424286D01*
X169362381Y-92995715D01*
X168362381Y-92995715D01*
X169362381Y-93471905D02*
X168362381Y-93471905D01*
X168362381Y-93710000D01*
X168410000Y-93852858D01*
X168505238Y-93948096D01*
X168600476Y-93995715D01*
X168790952Y-94043334D01*
X168933810Y-94043334D01*
X169124286Y-93995715D01*
X169219524Y-93948096D01*
X169314762Y-93852858D01*
X169362381Y-93710000D01*
X169362381Y-93471905D01*
X171902381Y-92043334D02*
X171426190Y-91710000D01*
X171902381Y-91471905D02*
X170902381Y-91471905D01*
X170902381Y-91852858D01*
X170950000Y-91948096D01*
X170997619Y-91995715D01*
X171092857Y-92043334D01*
X171235714Y-92043334D01*
X171330952Y-91995715D01*
X171378571Y-91948096D01*
X171426190Y-91852858D01*
X171426190Y-91471905D01*
X171902381Y-92471905D02*
X170902381Y-92471905D01*
X170902381Y-92710000D01*
X170950000Y-92852858D01*
X171045238Y-92948096D01*
X171140476Y-92995715D01*
X171330952Y-93043334D01*
X171473810Y-93043334D01*
X171664286Y-92995715D01*
X171759524Y-92948096D01*
X171854762Y-92852858D01*
X171902381Y-92710000D01*
X171902381Y-92471905D01*
X171235714Y-93900477D02*
X171902381Y-93900477D01*
X170854762Y-93662381D02*
X171569048Y-93424286D01*
X171569048Y-94043334D01*
X171854762Y-80518095D02*
X171902381Y-80660952D01*
X171902381Y-80899048D01*
X171854762Y-80994286D01*
X171807143Y-81041905D01*
X171711905Y-81089524D01*
X171616667Y-81089524D01*
X171521429Y-81041905D01*
X171473810Y-80994286D01*
X171426190Y-80899048D01*
X171378571Y-80708571D01*
X171330952Y-80613333D01*
X171283333Y-80565714D01*
X171188095Y-80518095D01*
X171092857Y-80518095D01*
X170997619Y-80565714D01*
X170950000Y-80613333D01*
X170902381Y-80708571D01*
X170902381Y-80946667D01*
X170950000Y-81089524D01*
X171235714Y-81946667D02*
X171902381Y-81946667D01*
X170854762Y-81708571D02*
X171569048Y-81470476D01*
X171569048Y-82089524D01*
X170730000Y-80327619D02*
X170730000Y-82232381D01*
X169076667Y-80565714D02*
X169076667Y-81041905D01*
X169362381Y-80470476D02*
X168362381Y-80803809D01*
X169362381Y-81137143D01*
X168362381Y-81375238D02*
X168362381Y-81994286D01*
X168743333Y-81660952D01*
X168743333Y-81803810D01*
X168790952Y-81899048D01*
X168838571Y-81946667D01*
X168933810Y-81994286D01*
X169171905Y-81994286D01*
X169267143Y-81946667D01*
X169314762Y-81899048D01*
X169362381Y-81803810D01*
X169362381Y-81518095D01*
X169314762Y-81422857D01*
X169267143Y-81375238D01*
X166536667Y-80565714D02*
X166536667Y-81041905D01*
X166822381Y-80470476D02*
X165822381Y-80803809D01*
X166822381Y-81137143D01*
X165917619Y-81422857D02*
X165870000Y-81470476D01*
X165822381Y-81565714D01*
X165822381Y-81803810D01*
X165870000Y-81899048D01*
X165917619Y-81946667D01*
X166012857Y-81994286D01*
X166108095Y-81994286D01*
X166250952Y-81946667D01*
X166822381Y-81375238D01*
X166822381Y-81994286D01*
X163996667Y-80565714D02*
X163996667Y-81041905D01*
X164282381Y-80470476D02*
X163282381Y-80803809D01*
X164282381Y-81137143D01*
X164282381Y-81994286D02*
X164282381Y-81422857D01*
X164282381Y-81708571D02*
X163282381Y-81708571D01*
X163425238Y-81613333D01*
X163520476Y-81518095D01*
X163568095Y-81422857D01*
X161456667Y-80565714D02*
X161456667Y-81041905D01*
X161742381Y-80470476D02*
X160742381Y-80803809D01*
X161742381Y-81137143D01*
X160742381Y-81660952D02*
X160742381Y-81756191D01*
X160790000Y-81851429D01*
X160837619Y-81899048D01*
X160932857Y-81946667D01*
X161123333Y-81994286D01*
X161361429Y-81994286D01*
X161551905Y-81946667D01*
X161647143Y-81899048D01*
X161694762Y-81851429D01*
X161742381Y-81756191D01*
X161742381Y-81660952D01*
X161694762Y-81565714D01*
X161647143Y-81518095D01*
X161551905Y-81470476D01*
X161361429Y-81422857D01*
X161123333Y-81422857D01*
X160932857Y-81470476D01*
X160837619Y-81518095D01*
X160790000Y-81565714D01*
X160742381Y-81660952D01*
X156662381Y-80541905D02*
X155662381Y-80541905D01*
X155662381Y-80780000D01*
X155710000Y-80922858D01*
X155805238Y-81018096D01*
X155900476Y-81065715D01*
X156090952Y-81113334D01*
X156233810Y-81113334D01*
X156424286Y-81065715D01*
X156519524Y-81018096D01*
X156614762Y-80922858D01*
X156662381Y-80780000D01*
X156662381Y-80541905D01*
X155995714Y-81970477D02*
X156662381Y-81970477D01*
X155614762Y-81732381D02*
X156329048Y-81494286D01*
X156329048Y-82113334D01*
X154122381Y-80541905D02*
X153122381Y-80541905D01*
X153122381Y-80780000D01*
X153170000Y-80922858D01*
X153265238Y-81018096D01*
X153360476Y-81065715D01*
X153550952Y-81113334D01*
X153693810Y-81113334D01*
X153884286Y-81065715D01*
X153979524Y-81018096D01*
X154074762Y-80922858D01*
X154122381Y-80780000D01*
X154122381Y-80541905D01*
X153122381Y-82018096D02*
X153122381Y-81541905D01*
X153598571Y-81494286D01*
X153550952Y-81541905D01*
X153503333Y-81637143D01*
X153503333Y-81875239D01*
X153550952Y-81970477D01*
X153598571Y-82018096D01*
X153693810Y-82065715D01*
X153931905Y-82065715D01*
X154027143Y-82018096D01*
X154074762Y-81970477D01*
X154122381Y-81875239D01*
X154122381Y-81637143D01*
X154074762Y-81541905D01*
X154027143Y-81494286D01*
X151582381Y-80541905D02*
X150582381Y-80541905D01*
X150582381Y-80780000D01*
X150630000Y-80922858D01*
X150725238Y-81018096D01*
X150820476Y-81065715D01*
X151010952Y-81113334D01*
X151153810Y-81113334D01*
X151344286Y-81065715D01*
X151439524Y-81018096D01*
X151534762Y-80922858D01*
X151582381Y-80780000D01*
X151582381Y-80541905D01*
X150677619Y-81494286D02*
X150630000Y-81541905D01*
X150582381Y-81637143D01*
X150582381Y-81875239D01*
X150630000Y-81970477D01*
X150677619Y-82018096D01*
X150772857Y-82065715D01*
X150868095Y-82065715D01*
X151010952Y-82018096D01*
X151582381Y-81446667D01*
X151582381Y-82065715D01*
X149042381Y-80541905D02*
X148042381Y-80541905D01*
X148042381Y-80780000D01*
X148090000Y-80922858D01*
X148185238Y-81018096D01*
X148280476Y-81065715D01*
X148470952Y-81113334D01*
X148613810Y-81113334D01*
X148804286Y-81065715D01*
X148899524Y-81018096D01*
X148994762Y-80922858D01*
X149042381Y-80780000D01*
X149042381Y-80541905D01*
X149042381Y-82065715D02*
X149042381Y-81494286D01*
X149042381Y-81780000D02*
X148042381Y-81780000D01*
X148185238Y-81684762D01*
X148280476Y-81589524D01*
X148328095Y-81494286D01*
X146502381Y-80541905D02*
X145502381Y-80541905D01*
X145502381Y-80780000D01*
X145550000Y-80922858D01*
X145645238Y-81018096D01*
X145740476Y-81065715D01*
X145930952Y-81113334D01*
X146073810Y-81113334D01*
X146264286Y-81065715D01*
X146359524Y-81018096D01*
X146454762Y-80922858D01*
X146502381Y-80780000D01*
X146502381Y-80541905D01*
X145502381Y-81732381D02*
X145502381Y-81827620D01*
X145550000Y-81922858D01*
X145597619Y-81970477D01*
X145692857Y-82018096D01*
X145883333Y-82065715D01*
X146121429Y-82065715D01*
X146311905Y-82018096D01*
X146407143Y-81970477D01*
X146454762Y-81922858D01*
X146502381Y-81827620D01*
X146502381Y-81732381D01*
X146454762Y-81637143D01*
X146407143Y-81589524D01*
X146311905Y-81541905D01*
X146121429Y-81494286D01*
X145883333Y-81494286D01*
X145692857Y-81541905D01*
X145597619Y-81589524D01*
X145550000Y-81637143D01*
X145502381Y-81732381D01*
X141422381Y-80541905D02*
X140422381Y-80541905D01*
X140422381Y-80780000D01*
X140470000Y-80922858D01*
X140565238Y-81018096D01*
X140660476Y-81065715D01*
X140850952Y-81113334D01*
X140993810Y-81113334D01*
X141184286Y-81065715D01*
X141279524Y-81018096D01*
X141374762Y-80922858D01*
X141422381Y-80780000D01*
X141422381Y-80541905D01*
X140422381Y-81970477D02*
X140422381Y-81780000D01*
X140470000Y-81684762D01*
X140517619Y-81637143D01*
X140660476Y-81541905D01*
X140850952Y-81494286D01*
X141231905Y-81494286D01*
X141327143Y-81541905D01*
X141374762Y-81589524D01*
X141422381Y-81684762D01*
X141422381Y-81875239D01*
X141374762Y-81970477D01*
X141327143Y-82018096D01*
X141231905Y-82065715D01*
X140993810Y-82065715D01*
X140898571Y-82018096D01*
X140850952Y-81970477D01*
X140803333Y-81875239D01*
X140803333Y-81684762D01*
X140850952Y-81589524D01*
X140898571Y-81541905D01*
X140993810Y-81494286D01*
X138834762Y-80518095D02*
X138882381Y-80660952D01*
X138882381Y-80899048D01*
X138834762Y-80994286D01*
X138787143Y-81041905D01*
X138691905Y-81089524D01*
X138596667Y-81089524D01*
X138501429Y-81041905D01*
X138453810Y-80994286D01*
X138406190Y-80899048D01*
X138358571Y-80708571D01*
X138310952Y-80613333D01*
X138263333Y-80565714D01*
X138168095Y-80518095D01*
X138072857Y-80518095D01*
X137977619Y-80565714D01*
X137930000Y-80613333D01*
X137882381Y-80708571D01*
X137882381Y-80946667D01*
X137930000Y-81089524D01*
X137882381Y-81994286D02*
X137882381Y-81518095D01*
X138358571Y-81470476D01*
X138310952Y-81518095D01*
X138263333Y-81613333D01*
X138263333Y-81851429D01*
X138310952Y-81946667D01*
X138358571Y-81994286D01*
X138453810Y-82041905D01*
X138691905Y-82041905D01*
X138787143Y-81994286D01*
X138834762Y-81946667D01*
X138882381Y-81851429D01*
X138882381Y-81613333D01*
X138834762Y-81518095D01*
X138787143Y-81470476D01*
X137710000Y-80327619D02*
X137710000Y-82232381D01*
X135342381Y-79946667D02*
X136342381Y-80280000D01*
X135342381Y-80613334D01*
X136247143Y-81518096D02*
X136294762Y-81470477D01*
X136342381Y-81327620D01*
X136342381Y-81232382D01*
X136294762Y-81089524D01*
X136199524Y-80994286D01*
X136104286Y-80946667D01*
X135913810Y-80899048D01*
X135770952Y-80899048D01*
X135580476Y-80946667D01*
X135485238Y-80994286D01*
X135390000Y-81089524D01*
X135342381Y-81232382D01*
X135342381Y-81327620D01*
X135390000Y-81470477D01*
X135437619Y-81518096D01*
X136247143Y-82518096D02*
X136294762Y-82470477D01*
X136342381Y-82327620D01*
X136342381Y-82232382D01*
X136294762Y-82089524D01*
X136199524Y-81994286D01*
X136104286Y-81946667D01*
X135913810Y-81899048D01*
X135770952Y-81899048D01*
X135580476Y-81946667D01*
X135485238Y-81994286D01*
X135390000Y-82089524D01*
X135342381Y-82232382D01*
X135342381Y-82327620D01*
X135390000Y-82470477D01*
X135437619Y-82518096D01*
X133802381Y-80613334D02*
X133326190Y-80280000D01*
X133802381Y-80041905D02*
X132802381Y-80041905D01*
X132802381Y-80422858D01*
X132850000Y-80518096D01*
X132897619Y-80565715D01*
X132992857Y-80613334D01*
X133135714Y-80613334D01*
X133230952Y-80565715D01*
X133278571Y-80518096D01*
X133326190Y-80422858D01*
X133326190Y-80041905D01*
X133802381Y-81041905D02*
X132802381Y-81041905D01*
X132802381Y-81280000D01*
X132850000Y-81422858D01*
X132945238Y-81518096D01*
X133040476Y-81565715D01*
X133230952Y-81613334D01*
X133373810Y-81613334D01*
X133564286Y-81565715D01*
X133659524Y-81518096D01*
X133754762Y-81422858D01*
X133802381Y-81280000D01*
X133802381Y-81041905D01*
X132802381Y-82518096D02*
X132802381Y-82041905D01*
X133278571Y-81994286D01*
X133230952Y-82041905D01*
X133183333Y-82137143D01*
X133183333Y-82375239D01*
X133230952Y-82470477D01*
X133278571Y-82518096D01*
X133373810Y-82565715D01*
X133611905Y-82565715D01*
X133707143Y-82518096D01*
X133754762Y-82470477D01*
X133802381Y-82375239D01*
X133802381Y-82137143D01*
X133754762Y-82041905D01*
X133707143Y-81994286D01*
X131167143Y-80303810D02*
X131214762Y-80256191D01*
X131262381Y-80113334D01*
X131262381Y-80018096D01*
X131214762Y-79875238D01*
X131119524Y-79780000D01*
X131024286Y-79732381D01*
X130833810Y-79684762D01*
X130690952Y-79684762D01*
X130500476Y-79732381D01*
X130405238Y-79780000D01*
X130310000Y-79875238D01*
X130262381Y-80018096D01*
X130262381Y-80113334D01*
X130310000Y-80256191D01*
X130357619Y-80303810D01*
X131167143Y-81303810D02*
X131214762Y-81256191D01*
X131262381Y-81113334D01*
X131262381Y-81018096D01*
X131214762Y-80875238D01*
X131119524Y-80780000D01*
X131024286Y-80732381D01*
X130833810Y-80684762D01*
X130690952Y-80684762D01*
X130500476Y-80732381D01*
X130405238Y-80780000D01*
X130310000Y-80875238D01*
X130262381Y-81018096D01*
X130262381Y-81113334D01*
X130310000Y-81256191D01*
X130357619Y-81303810D01*
X130262381Y-81589524D02*
X130262381Y-82160953D01*
X131262381Y-81875238D02*
X130262381Y-81875238D01*
X131262381Y-82970477D02*
X131262381Y-82494286D01*
X130262381Y-82494286D01*
X130090000Y-79494286D02*
X130090000Y-83065715D01*
D12*
X169035490Y-108865500D02*
G75*
G03X169035490Y-108865500I-141990J0D01*
G01*
X168957000Y-108865500D02*
G75*
G03X168957000Y-108865500I-63500J0D01*
G01*
D13*
G36*
X162966400Y-100359054D02*
X162955535Y-100472993D01*
X162923918Y-100580616D01*
X162873015Y-100679615D01*
X162804293Y-100767684D01*
X162719219Y-100842516D01*
X162622232Y-100900384D01*
X162515964Y-100940005D01*
X162408950Y-100958573D01*
X162303300Y-100957434D01*
X162201125Y-100937930D01*
X162104534Y-100901406D01*
X162015638Y-100849205D01*
X161936546Y-100782673D01*
X161869369Y-100703152D01*
X161816217Y-100611987D01*
X161779199Y-100510523D01*
X161760427Y-100400102D01*
X161758489Y-100350206D01*
X161758489Y-100262267D01*
X161706560Y-100262267D01*
X161670253Y-100265111D01*
X161643355Y-100276911D01*
X161616249Y-100300649D01*
X161577867Y-100339031D01*
X161577867Y-102530602D01*
X161577876Y-102792739D01*
X161577908Y-103033241D01*
X161577972Y-103253048D01*
X161578076Y-103453101D01*
X161578227Y-103634344D01*
X161578434Y-103797716D01*
X161578706Y-103944160D01*
X161579050Y-104074617D01*
X161579474Y-104190029D01*
X161579987Y-104291338D01*
X161580597Y-104379484D01*
X161581312Y-104455410D01*
X161582140Y-104520057D01*
X161583089Y-104574367D01*
X161584167Y-104619280D01*
X161585383Y-104655740D01*
X161586745Y-104684687D01*
X161588261Y-104707063D01*
X161589938Y-104723809D01*
X161591786Y-104735868D01*
X161593813Y-104744180D01*
X161596025Y-104749687D01*
X161597108Y-104751537D01*
X161601271Y-104758549D01*
X161604805Y-104764996D01*
X161608635Y-104770900D01*
X161613682Y-104776286D01*
X161620871Y-104781178D01*
X161631123Y-104785598D01*
X161645364Y-104789572D01*
X161664514Y-104793121D01*
X161689499Y-104796270D01*
X161721240Y-104799042D01*
X161760662Y-104801461D01*
X161808686Y-104803551D01*
X161866237Y-104805335D01*
X161934237Y-104806837D01*
X162013610Y-104808080D01*
X162105279Y-104809089D01*
X162210166Y-104809885D01*
X162329196Y-104810494D01*
X162463290Y-104810939D01*
X162613373Y-104811243D01*
X162780367Y-104811430D01*
X162965196Y-104811524D01*
X163168783Y-104811548D01*
X163392050Y-104811525D01*
X163635922Y-104811480D01*
X163901321Y-104811437D01*
X163939704Y-104811432D01*
X164206682Y-104811389D01*
X164452002Y-104811318D01*
X164676583Y-104811213D01*
X164881345Y-104811066D01*
X165067206Y-104810869D01*
X165235088Y-104810616D01*
X165385908Y-104810300D01*
X165520587Y-104809913D01*
X165640044Y-104809447D01*
X165745199Y-104808897D01*
X165836971Y-104808253D01*
X165916279Y-104807511D01*
X165984043Y-104806661D01*
X166041182Y-104805697D01*
X166088617Y-104804611D01*
X166127266Y-104803397D01*
X166158049Y-104802047D01*
X166181885Y-104800555D01*
X166199694Y-104798911D01*
X166212395Y-104797111D01*
X166220908Y-104795145D01*
X166225266Y-104793477D01*
X166233728Y-104789906D01*
X166241497Y-104787270D01*
X166248602Y-104784634D01*
X166255073Y-104781062D01*
X166260939Y-104775621D01*
X166266229Y-104767375D01*
X166270974Y-104755390D01*
X166275202Y-104738731D01*
X166278943Y-104716463D01*
X166282227Y-104687652D01*
X166285083Y-104651363D01*
X166287540Y-104606661D01*
X166289629Y-104552611D01*
X166291378Y-104488279D01*
X166292817Y-104412730D01*
X166293976Y-104325030D01*
X166294883Y-104224243D01*
X166295569Y-104109434D01*
X166296063Y-103979670D01*
X166296395Y-103834015D01*
X166296593Y-103671535D01*
X166296687Y-103491295D01*
X166296708Y-103292360D01*
X166296685Y-103073796D01*
X166296646Y-102834668D01*
X166296622Y-102574040D01*
X166296622Y-102531889D01*
X166296636Y-102268992D01*
X166296661Y-102027732D01*
X166296671Y-101807165D01*
X166296642Y-101606352D01*
X166296548Y-101424349D01*
X166296362Y-101260216D01*
X166296059Y-101113011D01*
X166295614Y-100981792D01*
X166295034Y-100871867D01*
X165992197Y-100871867D01*
X165952407Y-100929711D01*
X165941236Y-100945479D01*
X165931166Y-100959441D01*
X165922138Y-100972784D01*
X165914097Y-100986693D01*
X165906986Y-101002356D01*
X165900747Y-101020958D01*
X165895325Y-101043686D01*
X165890662Y-101071727D01*
X165886701Y-101106267D01*
X165883385Y-101148492D01*
X165880659Y-101199589D01*
X165878464Y-101260744D01*
X165876745Y-101333144D01*
X165875444Y-101417975D01*
X165874505Y-101516422D01*
X165873870Y-101629674D01*
X165873484Y-101758916D01*
X165873288Y-101905334D01*
X165873227Y-102070116D01*
X165873243Y-102254447D01*
X165873280Y-102459513D01*
X165873289Y-102582133D01*
X165873265Y-102799082D01*
X165873231Y-102994642D01*
X165873243Y-103169999D01*
X165873358Y-103326341D01*
X165873630Y-103464857D01*
X165874118Y-103586734D01*
X165874876Y-103693160D01*
X165875962Y-103785322D01*
X165877431Y-103864409D01*
X165879340Y-103931608D01*
X165881744Y-103988107D01*
X165884701Y-104035093D01*
X165888266Y-104073755D01*
X165892495Y-104105280D01*
X165897446Y-104130855D01*
X165903173Y-104151670D01*
X165909733Y-104168911D01*
X165917183Y-104183765D01*
X165925579Y-104197422D01*
X165934976Y-104211069D01*
X165945432Y-104225893D01*
X165951523Y-104234783D01*
X165990296Y-104292400D01*
X165458732Y-104292400D01*
X165335483Y-104292365D01*
X165232987Y-104292215D01*
X165149420Y-104291878D01*
X165082956Y-104291286D01*
X165031771Y-104290367D01*
X164994041Y-104289051D01*
X164967940Y-104287269D01*
X164951644Y-104284951D01*
X164943328Y-104282026D01*
X164941168Y-104278424D01*
X164943339Y-104274075D01*
X164944535Y-104272645D01*
X164969685Y-104235573D01*
X164995583Y-104182772D01*
X165019192Y-104120770D01*
X165027461Y-104094357D01*
X165032078Y-104076416D01*
X165035979Y-104055355D01*
X165039248Y-104029089D01*
X165041966Y-103995532D01*
X165044215Y-103952599D01*
X165046077Y-103898204D01*
X165047636Y-103830262D01*
X165048972Y-103746688D01*
X165050169Y-103645395D01*
X165051308Y-103524300D01*
X165051685Y-103479600D01*
X165052702Y-103354449D01*
X165053460Y-103250082D01*
X165053903Y-103164707D01*
X165053970Y-103096533D01*
X165053605Y-103043765D01*
X165052748Y-103004614D01*
X165051341Y-102977285D01*
X165049325Y-102959986D01*
X165046643Y-102950926D01*
X165043236Y-102948312D01*
X165039044Y-102950351D01*
X165034571Y-102954667D01*
X165024216Y-102967602D01*
X165002158Y-102996676D01*
X164969957Y-103039759D01*
X164929174Y-103094718D01*
X164881370Y-103159423D01*
X164828105Y-103231742D01*
X164770940Y-103309544D01*
X164711437Y-103390698D01*
X164651155Y-103473072D01*
X164591655Y-103554536D01*
X164534498Y-103632957D01*
X164481245Y-103706204D01*
X164433457Y-103772147D01*
X164392693Y-103828654D01*
X164360516Y-103873593D01*
X164338485Y-103904834D01*
X164333917Y-103911466D01*
X164310996Y-103948369D01*
X164284188Y-103996359D01*
X164258789Y-104045897D01*
X164255568Y-104052577D01*
X164233890Y-104100772D01*
X164221304Y-104138334D01*
X164215574Y-104174160D01*
X164214456Y-104216200D01*
X164215090Y-104292400D01*
X163060651Y-104292400D01*
X163151815Y-104198669D01*
X163198612Y-104148775D01*
X163248899Y-104092295D01*
X163294944Y-104038026D01*
X163315369Y-104012673D01*
X163345807Y-103973128D01*
X163385862Y-103919916D01*
X163434361Y-103854667D01*
X163490135Y-103779011D01*
X163552011Y-103694577D01*
X163618819Y-103602994D01*
X163689387Y-103505892D01*
X163762545Y-103404901D01*
X163837121Y-103301650D01*
X163911944Y-103197768D01*
X163985843Y-103094885D01*
X164057646Y-102994631D01*
X164126184Y-102898636D01*
X164190284Y-102808527D01*
X164248775Y-102725936D01*
X164300486Y-102652492D01*
X164344247Y-102589824D01*
X164378885Y-102539561D01*
X164403230Y-102503334D01*
X164416111Y-102482771D01*
X164417869Y-102478668D01*
X164409910Y-102467342D01*
X164389115Y-102440162D01*
X164356847Y-102398829D01*
X164314470Y-102345044D01*
X164263347Y-102280506D01*
X164204841Y-102206918D01*
X164140314Y-102125978D01*
X164071131Y-102039388D01*
X163998653Y-101948848D01*
X163924246Y-101856060D01*
X163864517Y-101781702D01*
X162853511Y-101781702D01*
X162847602Y-101794659D01*
X162833272Y-101816908D01*
X162832225Y-101818391D01*
X162813438Y-101848544D01*
X162793791Y-101885375D01*
X162789892Y-101893511D01*
X162786356Y-101901940D01*
X162783230Y-101912059D01*
X162780486Y-101925260D01*
X162778092Y-101942938D01*
X162776019Y-101966484D01*
X162774235Y-101997293D01*
X162772712Y-102036757D01*
X162771419Y-102086269D01*
X162770326Y-102147223D01*
X162769403Y-102221011D01*
X162768619Y-102309028D01*
X162767945Y-102412665D01*
X162767350Y-102533316D01*
X162766805Y-102672374D01*
X162766279Y-102831232D01*
X162765745Y-103010089D01*
X162765206Y-103195207D01*
X162764772Y-103359145D01*
X162764509Y-103503303D01*
X162764484Y-103629079D01*
X162764765Y-103737871D01*
X162765419Y-103831077D01*
X162766514Y-103910097D01*
X162768118Y-103976328D01*
X162770297Y-104031170D01*
X162773119Y-104076021D01*
X162776651Y-104112278D01*
X162780961Y-104141341D01*
X162786117Y-104164609D01*
X162792185Y-104183479D01*
X162799233Y-104199351D01*
X162807329Y-104213622D01*
X162816540Y-104227691D01*
X162825040Y-104240158D01*
X162842176Y-104266452D01*
X162852322Y-104284037D01*
X162853511Y-104287257D01*
X162842604Y-104288334D01*
X162811411Y-104289335D01*
X162762223Y-104290235D01*
X162697333Y-104291010D01*
X162619030Y-104291637D01*
X162529607Y-104292091D01*
X162431356Y-104292349D01*
X162362445Y-104292400D01*
X162257452Y-104292180D01*
X162160610Y-104291548D01*
X162074107Y-104290549D01*
X162000132Y-104289227D01*
X161940874Y-104287626D01*
X161898520Y-104285791D01*
X161875260Y-104283765D01*
X161871378Y-104282493D01*
X161879076Y-104267591D01*
X161887074Y-104259560D01*
X161900246Y-104242434D01*
X161917485Y-104212183D01*
X161929407Y-104187622D01*
X161956045Y-104128711D01*
X161959120Y-102951845D01*
X161962195Y-101774978D01*
X162407853Y-101774978D01*
X162505670Y-101775142D01*
X162596064Y-101775611D01*
X162676630Y-101776347D01*
X162744962Y-101777316D01*
X162798656Y-101778480D01*
X162835305Y-101779803D01*
X162852504Y-101781249D01*
X162853511Y-101781702D01*
X163864517Y-101781702D01*
X163849270Y-101762722D01*
X163775090Y-101670537D01*
X163703069Y-101581204D01*
X163634569Y-101496424D01*
X163570955Y-101417898D01*
X163513588Y-101347326D01*
X163463833Y-101286409D01*
X163423052Y-101236847D01*
X163405888Y-101216178D01*
X163319596Y-101115516D01*
X163242997Y-101032259D01*
X163174183Y-100964438D01*
X163111248Y-100910089D01*
X163101867Y-100902722D01*
X163062356Y-100872117D01*
X164194116Y-100871867D01*
X164188827Y-100919844D01*
X164192130Y-100977188D01*
X164213661Y-101045463D01*
X164253635Y-101125212D01*
X164298943Y-101197495D01*
X164315161Y-101220140D01*
X164343214Y-101257696D01*
X164381430Y-101308021D01*
X164428137Y-101368973D01*
X164481661Y-101438411D01*
X164540331Y-101514194D01*
X164602475Y-101594180D01*
X164666421Y-101676228D01*
X164730495Y-101758196D01*
X164793027Y-101837943D01*
X164852343Y-101913327D01*
X164906771Y-101982207D01*
X164954639Y-102042442D01*
X164994275Y-102091889D01*
X165024006Y-102128408D01*
X165042161Y-102149858D01*
X165045220Y-102153156D01*
X165048079Y-102145149D01*
X165050293Y-102114855D01*
X165051857Y-102062556D01*
X165052767Y-101988531D01*
X165053020Y-101893063D01*
X165052613Y-101776434D01*
X165051704Y-101656445D01*
X165050382Y-101524333D01*
X165048857Y-101412594D01*
X165046881Y-101319025D01*
X165044206Y-101241419D01*
X165040582Y-101177574D01*
X165035761Y-101125283D01*
X165029494Y-101082344D01*
X165021532Y-101046551D01*
X165011627Y-101015700D01*
X164999531Y-100987586D01*
X164984993Y-100960005D01*
X164970311Y-100934966D01*
X164932314Y-100871867D01*
X165992197Y-100871867D01*
X166295034Y-100871867D01*
X166295001Y-100865617D01*
X166294195Y-100763544D01*
X166293170Y-100674633D01*
X166291900Y-100597941D01*
X166290360Y-100532527D01*
X166288524Y-100477449D01*
X166286367Y-100431765D01*
X166283863Y-100394534D01*
X166280987Y-100364813D01*
X166277713Y-100341662D01*
X166274015Y-100324139D01*
X166269869Y-100311301D01*
X166265247Y-100302208D01*
X166260126Y-100295918D01*
X166254478Y-100291488D01*
X166248279Y-100287978D01*
X166241504Y-100284445D01*
X166235508Y-100280876D01*
X166230275Y-100278300D01*
X166222099Y-100275972D01*
X166209886Y-100273878D01*
X166192541Y-100272007D01*
X166168969Y-100270347D01*
X166138077Y-100268884D01*
X166098768Y-100267608D01*
X166049950Y-100266504D01*
X165990527Y-100265561D01*
X165919404Y-100264767D01*
X165835488Y-100264109D01*
X165737683Y-100263575D01*
X165624894Y-100263153D01*
X165496029Y-100262829D01*
X165349991Y-100262592D01*
X165185686Y-100262430D01*
X165002020Y-100262330D01*
X164797897Y-100262280D01*
X164586753Y-100262267D01*
X162966400Y-100262267D01*
X162966400Y-100359054D01*
X162966400Y-100359054D01*
G37*
X162966400Y-100359054D02*
X162955535Y-100472993D01*
X162923918Y-100580616D01*
X162873015Y-100679615D01*
X162804293Y-100767684D01*
X162719219Y-100842516D01*
X162622232Y-100900384D01*
X162515964Y-100940005D01*
X162408950Y-100958573D01*
X162303300Y-100957434D01*
X162201125Y-100937930D01*
X162104534Y-100901406D01*
X162015638Y-100849205D01*
X161936546Y-100782673D01*
X161869369Y-100703152D01*
X161816217Y-100611987D01*
X161779199Y-100510523D01*
X161760427Y-100400102D01*
X161758489Y-100350206D01*
X161758489Y-100262267D01*
X161706560Y-100262267D01*
X161670253Y-100265111D01*
X161643355Y-100276911D01*
X161616249Y-100300649D01*
X161577867Y-100339031D01*
X161577867Y-102530602D01*
X161577876Y-102792739D01*
X161577908Y-103033241D01*
X161577972Y-103253048D01*
X161578076Y-103453101D01*
X161578227Y-103634344D01*
X161578434Y-103797716D01*
X161578706Y-103944160D01*
X161579050Y-104074617D01*
X161579474Y-104190029D01*
X161579987Y-104291338D01*
X161580597Y-104379484D01*
X161581312Y-104455410D01*
X161582140Y-104520057D01*
X161583089Y-104574367D01*
X161584167Y-104619280D01*
X161585383Y-104655740D01*
X161586745Y-104684687D01*
X161588261Y-104707063D01*
X161589938Y-104723809D01*
X161591786Y-104735868D01*
X161593813Y-104744180D01*
X161596025Y-104749687D01*
X161597108Y-104751537D01*
X161601271Y-104758549D01*
X161604805Y-104764996D01*
X161608635Y-104770900D01*
X161613682Y-104776286D01*
X161620871Y-104781178D01*
X161631123Y-104785598D01*
X161645364Y-104789572D01*
X161664514Y-104793121D01*
X161689499Y-104796270D01*
X161721240Y-104799042D01*
X161760662Y-104801461D01*
X161808686Y-104803551D01*
X161866237Y-104805335D01*
X161934237Y-104806837D01*
X162013610Y-104808080D01*
X162105279Y-104809089D01*
X162210166Y-104809885D01*
X162329196Y-104810494D01*
X162463290Y-104810939D01*
X162613373Y-104811243D01*
X162780367Y-104811430D01*
X162965196Y-104811524D01*
X163168783Y-104811548D01*
X163392050Y-104811525D01*
X163635922Y-104811480D01*
X163901321Y-104811437D01*
X163939704Y-104811432D01*
X164206682Y-104811389D01*
X164452002Y-104811318D01*
X164676583Y-104811213D01*
X164881345Y-104811066D01*
X165067206Y-104810869D01*
X165235088Y-104810616D01*
X165385908Y-104810300D01*
X165520587Y-104809913D01*
X165640044Y-104809447D01*
X165745199Y-104808897D01*
X165836971Y-104808253D01*
X165916279Y-104807511D01*
X165984043Y-104806661D01*
X166041182Y-104805697D01*
X166088617Y-104804611D01*
X166127266Y-104803397D01*
X166158049Y-104802047D01*
X166181885Y-104800555D01*
X166199694Y-104798911D01*
X166212395Y-104797111D01*
X166220908Y-104795145D01*
X166225266Y-104793477D01*
X166233728Y-104789906D01*
X166241497Y-104787270D01*
X166248602Y-104784634D01*
X166255073Y-104781062D01*
X166260939Y-104775621D01*
X166266229Y-104767375D01*
X166270974Y-104755390D01*
X166275202Y-104738731D01*
X166278943Y-104716463D01*
X166282227Y-104687652D01*
X166285083Y-104651363D01*
X166287540Y-104606661D01*
X166289629Y-104552611D01*
X166291378Y-104488279D01*
X166292817Y-104412730D01*
X166293976Y-104325030D01*
X166294883Y-104224243D01*
X166295569Y-104109434D01*
X166296063Y-103979670D01*
X166296395Y-103834015D01*
X166296593Y-103671535D01*
X166296687Y-103491295D01*
X166296708Y-103292360D01*
X166296685Y-103073796D01*
X166296646Y-102834668D01*
X166296622Y-102574040D01*
X166296622Y-102531889D01*
X166296636Y-102268992D01*
X166296661Y-102027732D01*
X166296671Y-101807165D01*
X166296642Y-101606352D01*
X166296548Y-101424349D01*
X166296362Y-101260216D01*
X166296059Y-101113011D01*
X166295614Y-100981792D01*
X166295034Y-100871867D01*
X165992197Y-100871867D01*
X165952407Y-100929711D01*
X165941236Y-100945479D01*
X165931166Y-100959441D01*
X165922138Y-100972784D01*
X165914097Y-100986693D01*
X165906986Y-101002356D01*
X165900747Y-101020958D01*
X165895325Y-101043686D01*
X165890662Y-101071727D01*
X165886701Y-101106267D01*
X165883385Y-101148492D01*
X165880659Y-101199589D01*
X165878464Y-101260744D01*
X165876745Y-101333144D01*
X165875444Y-101417975D01*
X165874505Y-101516422D01*
X165873870Y-101629674D01*
X165873484Y-101758916D01*
X165873288Y-101905334D01*
X165873227Y-102070116D01*
X165873243Y-102254447D01*
X165873280Y-102459513D01*
X165873289Y-102582133D01*
X165873265Y-102799082D01*
X165873231Y-102994642D01*
X165873243Y-103169999D01*
X165873358Y-103326341D01*
X165873630Y-103464857D01*
X165874118Y-103586734D01*
X165874876Y-103693160D01*
X165875962Y-103785322D01*
X165877431Y-103864409D01*
X165879340Y-103931608D01*
X165881744Y-103988107D01*
X165884701Y-104035093D01*
X165888266Y-104073755D01*
X165892495Y-104105280D01*
X165897446Y-104130855D01*
X165903173Y-104151670D01*
X165909733Y-104168911D01*
X165917183Y-104183765D01*
X165925579Y-104197422D01*
X165934976Y-104211069D01*
X165945432Y-104225893D01*
X165951523Y-104234783D01*
X165990296Y-104292400D01*
X165458732Y-104292400D01*
X165335483Y-104292365D01*
X165232987Y-104292215D01*
X165149420Y-104291878D01*
X165082956Y-104291286D01*
X165031771Y-104290367D01*
X164994041Y-104289051D01*
X164967940Y-104287269D01*
X164951644Y-104284951D01*
X164943328Y-104282026D01*
X164941168Y-104278424D01*
X164943339Y-104274075D01*
X164944535Y-104272645D01*
X164969685Y-104235573D01*
X164995583Y-104182772D01*
X165019192Y-104120770D01*
X165027461Y-104094357D01*
X165032078Y-104076416D01*
X165035979Y-104055355D01*
X165039248Y-104029089D01*
X165041966Y-103995532D01*
X165044215Y-103952599D01*
X165046077Y-103898204D01*
X165047636Y-103830262D01*
X165048972Y-103746688D01*
X165050169Y-103645395D01*
X165051308Y-103524300D01*
X165051685Y-103479600D01*
X165052702Y-103354449D01*
X165053460Y-103250082D01*
X165053903Y-103164707D01*
X165053970Y-103096533D01*
X165053605Y-103043765D01*
X165052748Y-103004614D01*
X165051341Y-102977285D01*
X165049325Y-102959986D01*
X165046643Y-102950926D01*
X165043236Y-102948312D01*
X165039044Y-102950351D01*
X165034571Y-102954667D01*
X165024216Y-102967602D01*
X165002158Y-102996676D01*
X164969957Y-103039759D01*
X164929174Y-103094718D01*
X164881370Y-103159423D01*
X164828105Y-103231742D01*
X164770940Y-103309544D01*
X164711437Y-103390698D01*
X164651155Y-103473072D01*
X164591655Y-103554536D01*
X164534498Y-103632957D01*
X164481245Y-103706204D01*
X164433457Y-103772147D01*
X164392693Y-103828654D01*
X164360516Y-103873593D01*
X164338485Y-103904834D01*
X164333917Y-103911466D01*
X164310996Y-103948369D01*
X164284188Y-103996359D01*
X164258789Y-104045897D01*
X164255568Y-104052577D01*
X164233890Y-104100772D01*
X164221304Y-104138334D01*
X164215574Y-104174160D01*
X164214456Y-104216200D01*
X164215090Y-104292400D01*
X163060651Y-104292400D01*
X163151815Y-104198669D01*
X163198612Y-104148775D01*
X163248899Y-104092295D01*
X163294944Y-104038026D01*
X163315369Y-104012673D01*
X163345807Y-103973128D01*
X163385862Y-103919916D01*
X163434361Y-103854667D01*
X163490135Y-103779011D01*
X163552011Y-103694577D01*
X163618819Y-103602994D01*
X163689387Y-103505892D01*
X163762545Y-103404901D01*
X163837121Y-103301650D01*
X163911944Y-103197768D01*
X163985843Y-103094885D01*
X164057646Y-102994631D01*
X164126184Y-102898636D01*
X164190284Y-102808527D01*
X164248775Y-102725936D01*
X164300486Y-102652492D01*
X164344247Y-102589824D01*
X164378885Y-102539561D01*
X164403230Y-102503334D01*
X164416111Y-102482771D01*
X164417869Y-102478668D01*
X164409910Y-102467342D01*
X164389115Y-102440162D01*
X164356847Y-102398829D01*
X164314470Y-102345044D01*
X164263347Y-102280506D01*
X164204841Y-102206918D01*
X164140314Y-102125978D01*
X164071131Y-102039388D01*
X163998653Y-101948848D01*
X163924246Y-101856060D01*
X163864517Y-101781702D01*
X162853511Y-101781702D01*
X162847602Y-101794659D01*
X162833272Y-101816908D01*
X162832225Y-101818391D01*
X162813438Y-101848544D01*
X162793791Y-101885375D01*
X162789892Y-101893511D01*
X162786356Y-101901940D01*
X162783230Y-101912059D01*
X162780486Y-101925260D01*
X162778092Y-101942938D01*
X162776019Y-101966484D01*
X162774235Y-101997293D01*
X162772712Y-102036757D01*
X162771419Y-102086269D01*
X162770326Y-102147223D01*
X162769403Y-102221011D01*
X162768619Y-102309028D01*
X162767945Y-102412665D01*
X162767350Y-102533316D01*
X162766805Y-102672374D01*
X162766279Y-102831232D01*
X162765745Y-103010089D01*
X162765206Y-103195207D01*
X162764772Y-103359145D01*
X162764509Y-103503303D01*
X162764484Y-103629079D01*
X162764765Y-103737871D01*
X162765419Y-103831077D01*
X162766514Y-103910097D01*
X162768118Y-103976328D01*
X162770297Y-104031170D01*
X162773119Y-104076021D01*
X162776651Y-104112278D01*
X162780961Y-104141341D01*
X162786117Y-104164609D01*
X162792185Y-104183479D01*
X162799233Y-104199351D01*
X162807329Y-104213622D01*
X162816540Y-104227691D01*
X162825040Y-104240158D01*
X162842176Y-104266452D01*
X162852322Y-104284037D01*
X162853511Y-104287257D01*
X162842604Y-104288334D01*
X162811411Y-104289335D01*
X162762223Y-104290235D01*
X162697333Y-104291010D01*
X162619030Y-104291637D01*
X162529607Y-104292091D01*
X162431356Y-104292349D01*
X162362445Y-104292400D01*
X162257452Y-104292180D01*
X162160610Y-104291548D01*
X162074107Y-104290549D01*
X162000132Y-104289227D01*
X161940874Y-104287626D01*
X161898520Y-104285791D01*
X161875260Y-104283765D01*
X161871378Y-104282493D01*
X161879076Y-104267591D01*
X161887074Y-104259560D01*
X161900246Y-104242434D01*
X161917485Y-104212183D01*
X161929407Y-104187622D01*
X161956045Y-104128711D01*
X161959120Y-102951845D01*
X161962195Y-101774978D01*
X162407853Y-101774978D01*
X162505670Y-101775142D01*
X162596064Y-101775611D01*
X162676630Y-101776347D01*
X162744962Y-101777316D01*
X162798656Y-101778480D01*
X162835305Y-101779803D01*
X162852504Y-101781249D01*
X162853511Y-101781702D01*
X163864517Y-101781702D01*
X163849270Y-101762722D01*
X163775090Y-101670537D01*
X163703069Y-101581204D01*
X163634569Y-101496424D01*
X163570955Y-101417898D01*
X163513588Y-101347326D01*
X163463833Y-101286409D01*
X163423052Y-101236847D01*
X163405888Y-101216178D01*
X163319596Y-101115516D01*
X163242997Y-101032259D01*
X163174183Y-100964438D01*
X163111248Y-100910089D01*
X163101867Y-100902722D01*
X163062356Y-100872117D01*
X164194116Y-100871867D01*
X164188827Y-100919844D01*
X164192130Y-100977188D01*
X164213661Y-101045463D01*
X164253635Y-101125212D01*
X164298943Y-101197495D01*
X164315161Y-101220140D01*
X164343214Y-101257696D01*
X164381430Y-101308021D01*
X164428137Y-101368973D01*
X164481661Y-101438411D01*
X164540331Y-101514194D01*
X164602475Y-101594180D01*
X164666421Y-101676228D01*
X164730495Y-101758196D01*
X164793027Y-101837943D01*
X164852343Y-101913327D01*
X164906771Y-101982207D01*
X164954639Y-102042442D01*
X164994275Y-102091889D01*
X165024006Y-102128408D01*
X165042161Y-102149858D01*
X165045220Y-102153156D01*
X165048079Y-102145149D01*
X165050293Y-102114855D01*
X165051857Y-102062556D01*
X165052767Y-101988531D01*
X165053020Y-101893063D01*
X165052613Y-101776434D01*
X165051704Y-101656445D01*
X165050382Y-101524333D01*
X165048857Y-101412594D01*
X165046881Y-101319025D01*
X165044206Y-101241419D01*
X165040582Y-101177574D01*
X165035761Y-101125283D01*
X165029494Y-101082344D01*
X165021532Y-101046551D01*
X165011627Y-101015700D01*
X164999531Y-100987586D01*
X164984993Y-100960005D01*
X164970311Y-100934966D01*
X164932314Y-100871867D01*
X165992197Y-100871867D01*
X166295034Y-100871867D01*
X166295001Y-100865617D01*
X166294195Y-100763544D01*
X166293170Y-100674633D01*
X166291900Y-100597941D01*
X166290360Y-100532527D01*
X166288524Y-100477449D01*
X166286367Y-100431765D01*
X166283863Y-100394534D01*
X166280987Y-100364813D01*
X166277713Y-100341662D01*
X166274015Y-100324139D01*
X166269869Y-100311301D01*
X166265247Y-100302208D01*
X166260126Y-100295918D01*
X166254478Y-100291488D01*
X166248279Y-100287978D01*
X166241504Y-100284445D01*
X166235508Y-100280876D01*
X166230275Y-100278300D01*
X166222099Y-100275972D01*
X166209886Y-100273878D01*
X166192541Y-100272007D01*
X166168969Y-100270347D01*
X166138077Y-100268884D01*
X166098768Y-100267608D01*
X166049950Y-100266504D01*
X165990527Y-100265561D01*
X165919404Y-100264767D01*
X165835488Y-100264109D01*
X165737683Y-100263575D01*
X165624894Y-100263153D01*
X165496029Y-100262829D01*
X165349991Y-100262592D01*
X165185686Y-100262430D01*
X165002020Y-100262330D01*
X164797897Y-100262280D01*
X164586753Y-100262267D01*
X162966400Y-100262267D01*
X162966400Y-100359054D01*
G36*
X159691571Y-100819071D02*
X159531430Y-100840245D01*
X159367490Y-100880385D01*
X159197687Y-100939889D01*
X159019957Y-101019154D01*
X159008690Y-101024699D01*
X158950995Y-101052725D01*
X158899448Y-101076802D01*
X158857809Y-101095249D01*
X158829838Y-101106386D01*
X158820267Y-101108933D01*
X158801050Y-101113941D01*
X158796439Y-101118147D01*
X158801542Y-101128580D01*
X158817582Y-101154868D01*
X158842712Y-101194257D01*
X158875086Y-101243991D01*
X158912857Y-101301315D01*
X158954178Y-101363476D01*
X158997202Y-101427718D01*
X159040083Y-101491285D01*
X159080974Y-101551425D01*
X159118029Y-101605380D01*
X159149400Y-101650397D01*
X159173241Y-101683721D01*
X159187706Y-101702597D01*
X159189691Y-101704787D01*
X159199809Y-101700138D01*
X159222150Y-101682962D01*
X159252720Y-101656440D01*
X159268464Y-101641964D01*
X159364953Y-101566682D01*
X159471664Y-101511241D01*
X159587168Y-101476141D01*
X159710038Y-101461880D01*
X159779439Y-101463051D01*
X159900577Y-101480212D01*
X160009795Y-101516094D01*
X160107418Y-101570959D01*
X160193772Y-101645070D01*
X160269185Y-101738688D01*
X160333982Y-101852076D01*
X160371399Y-101938667D01*
X160415252Y-102074366D01*
X160447572Y-102221850D01*
X160468443Y-102377314D01*
X160477949Y-102536956D01*
X160476173Y-102696973D01*
X160463197Y-102853561D01*
X160439106Y-103002918D01*
X160403982Y-103141240D01*
X160357908Y-103264724D01*
X160341627Y-103298978D01*
X160273380Y-103413064D01*
X160192921Y-103509557D01*
X160101430Y-103587670D01*
X160000089Y-103646617D01*
X159890080Y-103685612D01*
X159772585Y-103703868D01*
X159731117Y-103705211D01*
X159609559Y-103694290D01*
X159489122Y-103661474D01*
X159371334Y-103607439D01*
X159257723Y-103532865D01*
X159166315Y-103454539D01*
X159119785Y-103410008D01*
X158938517Y-103707271D01*
X158893420Y-103781433D01*
X158852181Y-103849646D01*
X158816265Y-103909459D01*
X158787134Y-103958420D01*
X158766250Y-103994079D01*
X158755076Y-104013984D01*
X158753625Y-104017079D01*
X158761854Y-104026718D01*
X158787433Y-104043999D01*
X158827127Y-104067283D01*
X158877703Y-104094934D01*
X158935926Y-104125315D01*
X158998563Y-104156790D01*
X159062379Y-104187722D01*
X159124140Y-104216473D01*
X159180612Y-104241408D01*
X159228562Y-104260889D01*
X159252014Y-104269318D01*
X159385779Y-104307133D01*
X159523673Y-104332136D01*
X159671378Y-104345140D01*
X159798167Y-104347468D01*
X159866122Y-104346373D01*
X159931723Y-104344275D01*
X159989153Y-104341434D01*
X160032597Y-104338106D01*
X160046702Y-104336422D01*
X160185716Y-104307587D01*
X160327243Y-104262468D01*
X160464725Y-104203750D01*
X160591606Y-104134120D01*
X160669111Y-104081441D01*
X160796519Y-103973239D01*
X160914822Y-103846671D01*
X161021828Y-103704866D01*
X161115348Y-103550951D01*
X161193190Y-103388053D01*
X161237044Y-103270756D01*
X161287292Y-103087128D01*
X161320791Y-102892581D01*
X161337551Y-102691325D01*
X161337584Y-102487568D01*
X161320899Y-102285521D01*
X161287507Y-102089392D01*
X161237420Y-101903391D01*
X161233603Y-101891803D01*
X161170719Y-101729750D01*
X161093972Y-101581832D01*
X161000758Y-101443865D01*
X160888473Y-101311661D01*
X160844608Y-101266399D01*
X160708466Y-101142457D01*
X160568509Y-101039915D01*
X160422589Y-100957656D01*
X160268558Y-100894564D01*
X160104268Y-100849523D01*
X160008711Y-100832033D01*
X159849977Y-100816466D01*
X159691571Y-100819071D01*
X159691571Y-100819071D01*
G37*
X159691571Y-100819071D02*
X159531430Y-100840245D01*
X159367490Y-100880385D01*
X159197687Y-100939889D01*
X159019957Y-101019154D01*
X159008690Y-101024699D01*
X158950995Y-101052725D01*
X158899448Y-101076802D01*
X158857809Y-101095249D01*
X158829838Y-101106386D01*
X158820267Y-101108933D01*
X158801050Y-101113941D01*
X158796439Y-101118147D01*
X158801542Y-101128580D01*
X158817582Y-101154868D01*
X158842712Y-101194257D01*
X158875086Y-101243991D01*
X158912857Y-101301315D01*
X158954178Y-101363476D01*
X158997202Y-101427718D01*
X159040083Y-101491285D01*
X159080974Y-101551425D01*
X159118029Y-101605380D01*
X159149400Y-101650397D01*
X159173241Y-101683721D01*
X159187706Y-101702597D01*
X159189691Y-101704787D01*
X159199809Y-101700138D01*
X159222150Y-101682962D01*
X159252720Y-101656440D01*
X159268464Y-101641964D01*
X159364953Y-101566682D01*
X159471664Y-101511241D01*
X159587168Y-101476141D01*
X159710038Y-101461880D01*
X159779439Y-101463051D01*
X159900577Y-101480212D01*
X160009795Y-101516094D01*
X160107418Y-101570959D01*
X160193772Y-101645070D01*
X160269185Y-101738688D01*
X160333982Y-101852076D01*
X160371399Y-101938667D01*
X160415252Y-102074366D01*
X160447572Y-102221850D01*
X160468443Y-102377314D01*
X160477949Y-102536956D01*
X160476173Y-102696973D01*
X160463197Y-102853561D01*
X160439106Y-103002918D01*
X160403982Y-103141240D01*
X160357908Y-103264724D01*
X160341627Y-103298978D01*
X160273380Y-103413064D01*
X160192921Y-103509557D01*
X160101430Y-103587670D01*
X160000089Y-103646617D01*
X159890080Y-103685612D01*
X159772585Y-103703868D01*
X159731117Y-103705211D01*
X159609559Y-103694290D01*
X159489122Y-103661474D01*
X159371334Y-103607439D01*
X159257723Y-103532865D01*
X159166315Y-103454539D01*
X159119785Y-103410008D01*
X158938517Y-103707271D01*
X158893420Y-103781433D01*
X158852181Y-103849646D01*
X158816265Y-103909459D01*
X158787134Y-103958420D01*
X158766250Y-103994079D01*
X158755076Y-104013984D01*
X158753625Y-104017079D01*
X158761854Y-104026718D01*
X158787433Y-104043999D01*
X158827127Y-104067283D01*
X158877703Y-104094934D01*
X158935926Y-104125315D01*
X158998563Y-104156790D01*
X159062379Y-104187722D01*
X159124140Y-104216473D01*
X159180612Y-104241408D01*
X159228562Y-104260889D01*
X159252014Y-104269318D01*
X159385779Y-104307133D01*
X159523673Y-104332136D01*
X159671378Y-104345140D01*
X159798167Y-104347468D01*
X159866122Y-104346373D01*
X159931723Y-104344275D01*
X159989153Y-104341434D01*
X160032597Y-104338106D01*
X160046702Y-104336422D01*
X160185716Y-104307587D01*
X160327243Y-104262468D01*
X160464725Y-104203750D01*
X160591606Y-104134120D01*
X160669111Y-104081441D01*
X160796519Y-103973239D01*
X160914822Y-103846671D01*
X161021828Y-103704866D01*
X161115348Y-103550951D01*
X161193190Y-103388053D01*
X161237044Y-103270756D01*
X161287292Y-103087128D01*
X161320791Y-102892581D01*
X161337551Y-102691325D01*
X161337584Y-102487568D01*
X161320899Y-102285521D01*
X161287507Y-102089392D01*
X161237420Y-101903391D01*
X161233603Y-101891803D01*
X161170719Y-101729750D01*
X161093972Y-101581832D01*
X161000758Y-101443865D01*
X160888473Y-101311661D01*
X160844608Y-101266399D01*
X160708466Y-101142457D01*
X160568509Y-101039915D01*
X160422589Y-100957656D01*
X160268558Y-100894564D01*
X160104268Y-100849523D01*
X160008711Y-100832033D01*
X159849977Y-100816466D01*
X159691571Y-100819071D01*
G36*
X157346426Y-101736552D02*
X157194508Y-101756567D01*
X157059244Y-101790202D01*
X156939761Y-101837725D01*
X156835185Y-101899405D01*
X156757576Y-101962965D01*
X156688735Y-102037099D01*
X156634994Y-102116871D01*
X156592090Y-102209091D01*
X156576616Y-102252161D01*
X156563756Y-102291142D01*
X156552554Y-102327289D01*
X156542880Y-102362434D01*
X156534604Y-102398410D01*
X156527597Y-102437050D01*
X156521728Y-102480185D01*
X156516869Y-102529649D01*
X156512890Y-102587273D01*
X156509660Y-102654891D01*
X156507051Y-102734334D01*
X156504933Y-102827436D01*
X156503176Y-102936027D01*
X156501651Y-103061942D01*
X156500228Y-103207012D01*
X156498975Y-103349778D01*
X156497649Y-103505968D01*
X156496444Y-103641239D01*
X156495234Y-103757246D01*
X156493894Y-103855645D01*
X156492300Y-103938093D01*
X156490325Y-104006246D01*
X156487844Y-104061760D01*
X156484731Y-104106292D01*
X156480862Y-104141498D01*
X156476111Y-104169034D01*
X156470352Y-104190556D01*
X156463461Y-104207722D01*
X156455311Y-104222186D01*
X156445777Y-104235606D01*
X156434734Y-104249638D01*
X156430434Y-104255071D01*
X156414614Y-104277910D01*
X156407578Y-104293463D01*
X156407556Y-104293922D01*
X156418433Y-104296121D01*
X156449418Y-104298147D01*
X156498043Y-104299942D01*
X156561837Y-104301451D01*
X156638331Y-104302616D01*
X156725056Y-104303380D01*
X156819543Y-104303686D01*
X156830450Y-104303689D01*
X157253343Y-104303689D01*
X157256605Y-104207622D01*
X157259867Y-104111556D01*
X157321956Y-104162543D01*
X157419286Y-104230057D01*
X157529187Y-104284749D01*
X157615651Y-104314978D01*
X157684722Y-104329666D01*
X157768075Y-104339659D01*
X157857841Y-104344646D01*
X157946155Y-104344313D01*
X158025149Y-104338351D01*
X158061378Y-104332638D01*
X158201397Y-104294776D01*
X158327822Y-104239932D01*
X158439740Y-104168924D01*
X158536238Y-104082568D01*
X158616400Y-103981679D01*
X158679313Y-103867076D01*
X158723688Y-103740984D01*
X158736022Y-103684401D01*
X158743632Y-103622202D01*
X158747261Y-103547363D01*
X158747755Y-103513467D01*
X158747690Y-103510282D01*
X157987752Y-103510282D01*
X157978459Y-103585333D01*
X157950272Y-103649160D01*
X157901803Y-103704798D01*
X157896746Y-103709211D01*
X157848452Y-103744037D01*
X157796743Y-103766620D01*
X157736011Y-103778540D01*
X157660648Y-103781383D01*
X157642541Y-103780978D01*
X157588722Y-103778325D01*
X157548692Y-103772909D01*
X157513676Y-103762745D01*
X157474897Y-103745850D01*
X157464255Y-103740672D01*
X157403604Y-103704844D01*
X157356785Y-103662212D01*
X157344048Y-103646973D01*
X157299378Y-103590462D01*
X157299378Y-103394586D01*
X157299914Y-103315939D01*
X157301604Y-103257988D01*
X157304572Y-103218875D01*
X157308943Y-103196741D01*
X157313028Y-103190274D01*
X157328953Y-103187111D01*
X157362736Y-103184488D01*
X157409660Y-103182655D01*
X157465007Y-103181857D01*
X157473894Y-103181842D01*
X157594670Y-103187096D01*
X157697340Y-103203263D01*
X157783894Y-103230961D01*
X157856319Y-103270808D01*
X157911249Y-103317758D01*
X157955796Y-103375645D01*
X157980520Y-103438693D01*
X157987752Y-103510282D01*
X158747690Y-103510282D01*
X158745822Y-103419712D01*
X158737478Y-103340812D01*
X158721232Y-103269590D01*
X158695595Y-103198864D01*
X158671599Y-103146493D01*
X158612980Y-103051196D01*
X158534883Y-102963170D01*
X158439685Y-102884017D01*
X158329762Y-102815340D01*
X158207490Y-102758741D01*
X158075245Y-102715821D01*
X158010578Y-102700882D01*
X157874396Y-102678777D01*
X157725951Y-102664194D01*
X157574495Y-102657813D01*
X157447936Y-102659445D01*
X157286050Y-102666224D01*
X157293470Y-102607245D01*
X157312762Y-102508092D01*
X157343896Y-102427372D01*
X157387731Y-102364466D01*
X157445129Y-102318756D01*
X157516952Y-102289622D01*
X157604059Y-102276447D01*
X157707314Y-102278611D01*
X157745289Y-102282612D01*
X157886480Y-102307780D01*
X158023293Y-102348814D01*
X158117822Y-102386815D01*
X158162982Y-102406190D01*
X158201415Y-102421760D01*
X158227766Y-102431405D01*
X158235454Y-102433452D01*
X158245198Y-102424374D01*
X158261917Y-102395405D01*
X158285768Y-102346217D01*
X158316907Y-102276484D01*
X158355493Y-102185879D01*
X158362090Y-102170089D01*
X158392147Y-102097772D01*
X158419126Y-102032425D01*
X158441864Y-101976906D01*
X158459194Y-101934072D01*
X158469952Y-101906781D01*
X158473059Y-101897942D01*
X158463060Y-101893187D01*
X158436783Y-101887910D01*
X158408511Y-101884231D01*
X158378354Y-101879474D01*
X158330567Y-101870028D01*
X158269388Y-101856820D01*
X158199054Y-101840776D01*
X158123806Y-101822820D01*
X158095245Y-101815797D01*
X157990184Y-101790209D01*
X157902520Y-101770147D01*
X157827932Y-101754969D01*
X157762097Y-101744035D01*
X157700693Y-101736704D01*
X157639398Y-101732335D01*
X157573890Y-101730287D01*
X157515872Y-101729889D01*
X157346426Y-101736552D01*
X157346426Y-101736552D01*
G37*
X157346426Y-101736552D02*
X157194508Y-101756567D01*
X157059244Y-101790202D01*
X156939761Y-101837725D01*
X156835185Y-101899405D01*
X156757576Y-101962965D01*
X156688735Y-102037099D01*
X156634994Y-102116871D01*
X156592090Y-102209091D01*
X156576616Y-102252161D01*
X156563756Y-102291142D01*
X156552554Y-102327289D01*
X156542880Y-102362434D01*
X156534604Y-102398410D01*
X156527597Y-102437050D01*
X156521728Y-102480185D01*
X156516869Y-102529649D01*
X156512890Y-102587273D01*
X156509660Y-102654891D01*
X156507051Y-102734334D01*
X156504933Y-102827436D01*
X156503176Y-102936027D01*
X156501651Y-103061942D01*
X156500228Y-103207012D01*
X156498975Y-103349778D01*
X156497649Y-103505968D01*
X156496444Y-103641239D01*
X156495234Y-103757246D01*
X156493894Y-103855645D01*
X156492300Y-103938093D01*
X156490325Y-104006246D01*
X156487844Y-104061760D01*
X156484731Y-104106292D01*
X156480862Y-104141498D01*
X156476111Y-104169034D01*
X156470352Y-104190556D01*
X156463461Y-104207722D01*
X156455311Y-104222186D01*
X156445777Y-104235606D01*
X156434734Y-104249638D01*
X156430434Y-104255071D01*
X156414614Y-104277910D01*
X156407578Y-104293463D01*
X156407556Y-104293922D01*
X156418433Y-104296121D01*
X156449418Y-104298147D01*
X156498043Y-104299942D01*
X156561837Y-104301451D01*
X156638331Y-104302616D01*
X156725056Y-104303380D01*
X156819543Y-104303686D01*
X156830450Y-104303689D01*
X157253343Y-104303689D01*
X157256605Y-104207622D01*
X157259867Y-104111556D01*
X157321956Y-104162543D01*
X157419286Y-104230057D01*
X157529187Y-104284749D01*
X157615651Y-104314978D01*
X157684722Y-104329666D01*
X157768075Y-104339659D01*
X157857841Y-104344646D01*
X157946155Y-104344313D01*
X158025149Y-104338351D01*
X158061378Y-104332638D01*
X158201397Y-104294776D01*
X158327822Y-104239932D01*
X158439740Y-104168924D01*
X158536238Y-104082568D01*
X158616400Y-103981679D01*
X158679313Y-103867076D01*
X158723688Y-103740984D01*
X158736022Y-103684401D01*
X158743632Y-103622202D01*
X158747261Y-103547363D01*
X158747755Y-103513467D01*
X158747690Y-103510282D01*
X157987752Y-103510282D01*
X157978459Y-103585333D01*
X157950272Y-103649160D01*
X157901803Y-103704798D01*
X157896746Y-103709211D01*
X157848452Y-103744037D01*
X157796743Y-103766620D01*
X157736011Y-103778540D01*
X157660648Y-103781383D01*
X157642541Y-103780978D01*
X157588722Y-103778325D01*
X157548692Y-103772909D01*
X157513676Y-103762745D01*
X157474897Y-103745850D01*
X157464255Y-103740672D01*
X157403604Y-103704844D01*
X157356785Y-103662212D01*
X157344048Y-103646973D01*
X157299378Y-103590462D01*
X157299378Y-103394586D01*
X157299914Y-103315939D01*
X157301604Y-103257988D01*
X157304572Y-103218875D01*
X157308943Y-103196741D01*
X157313028Y-103190274D01*
X157328953Y-103187111D01*
X157362736Y-103184488D01*
X157409660Y-103182655D01*
X157465007Y-103181857D01*
X157473894Y-103181842D01*
X157594670Y-103187096D01*
X157697340Y-103203263D01*
X157783894Y-103230961D01*
X157856319Y-103270808D01*
X157911249Y-103317758D01*
X157955796Y-103375645D01*
X157980520Y-103438693D01*
X157987752Y-103510282D01*
X158747690Y-103510282D01*
X158745822Y-103419712D01*
X158737478Y-103340812D01*
X158721232Y-103269590D01*
X158695595Y-103198864D01*
X158671599Y-103146493D01*
X158612980Y-103051196D01*
X158534883Y-102963170D01*
X158439685Y-102884017D01*
X158329762Y-102815340D01*
X158207490Y-102758741D01*
X158075245Y-102715821D01*
X158010578Y-102700882D01*
X157874396Y-102678777D01*
X157725951Y-102664194D01*
X157574495Y-102657813D01*
X157447936Y-102659445D01*
X157286050Y-102666224D01*
X157293470Y-102607245D01*
X157312762Y-102508092D01*
X157343896Y-102427372D01*
X157387731Y-102364466D01*
X157445129Y-102318756D01*
X157516952Y-102289622D01*
X157604059Y-102276447D01*
X157707314Y-102278611D01*
X157745289Y-102282612D01*
X157886480Y-102307780D01*
X158023293Y-102348814D01*
X158117822Y-102386815D01*
X158162982Y-102406190D01*
X158201415Y-102421760D01*
X158227766Y-102431405D01*
X158235454Y-102433452D01*
X158245198Y-102424374D01*
X158261917Y-102395405D01*
X158285768Y-102346217D01*
X158316907Y-102276484D01*
X158355493Y-102185879D01*
X158362090Y-102170089D01*
X158392147Y-102097772D01*
X158419126Y-102032425D01*
X158441864Y-101976906D01*
X158459194Y-101934072D01*
X158469952Y-101906781D01*
X158473059Y-101897942D01*
X158463060Y-101893187D01*
X158436783Y-101887910D01*
X158408511Y-101884231D01*
X158378354Y-101879474D01*
X158330567Y-101870028D01*
X158269388Y-101856820D01*
X158199054Y-101840776D01*
X158123806Y-101822820D01*
X158095245Y-101815797D01*
X157990184Y-101790209D01*
X157902520Y-101770147D01*
X157827932Y-101754969D01*
X157762097Y-101744035D01*
X157700693Y-101736704D01*
X157639398Y-101732335D01*
X157573890Y-101730287D01*
X157515872Y-101729889D01*
X157346426Y-101736552D01*
G36*
X153833493Y-102342245D02*
X153833474Y-102576662D01*
X153833448Y-102789603D01*
X153833375Y-102982168D01*
X153833218Y-103155459D01*
X153832936Y-103310576D01*
X153832491Y-103448620D01*
X153831844Y-103570692D01*
X153830955Y-103677894D01*
X153829787Y-103771326D01*
X153828299Y-103852090D01*
X153826454Y-103921286D01*
X153824211Y-103980015D01*
X153821531Y-104029379D01*
X153818377Y-104070478D01*
X153814708Y-104104413D01*
X153810487Y-104132286D01*
X153805673Y-104155198D01*
X153800227Y-104174249D01*
X153794112Y-104190540D01*
X153787288Y-104205173D01*
X153779715Y-104219249D01*
X153771355Y-104233868D01*
X153766161Y-104242974D01*
X153731896Y-104303689D01*
X154590045Y-104303689D01*
X154590045Y-104207733D01*
X154590776Y-104164370D01*
X154592728Y-104131205D01*
X154595537Y-104113424D01*
X154596779Y-104111778D01*
X154608201Y-104118662D01*
X154630916Y-104136505D01*
X154653615Y-104155879D01*
X154708200Y-104196614D01*
X154777679Y-104237617D01*
X154854730Y-104275123D01*
X154932035Y-104305364D01*
X154962887Y-104315012D01*
X155031384Y-104329578D01*
X155114236Y-104339539D01*
X155203629Y-104344583D01*
X155291752Y-104344396D01*
X155370793Y-104338666D01*
X155408489Y-104332858D01*
X155546586Y-104294797D01*
X155673887Y-104237073D01*
X155789708Y-104160211D01*
X155893363Y-104064739D01*
X155984167Y-103951179D01*
X156050969Y-103840381D01*
X156105836Y-103723625D01*
X156147837Y-103604276D01*
X156177833Y-103478283D01*
X156196689Y-103341594D01*
X156205268Y-103190158D01*
X156205994Y-103112711D01*
X156203900Y-103055934D01*
X155374783Y-103055934D01*
X155374576Y-103149002D01*
X155371663Y-103236692D01*
X155366000Y-103313772D01*
X155357545Y-103375009D01*
X155354962Y-103387350D01*
X155323160Y-103494633D01*
X155281502Y-103581658D01*
X155229637Y-103648642D01*
X155167219Y-103695805D01*
X155093900Y-103723365D01*
X155009331Y-103731541D01*
X154913165Y-103720551D01*
X154849689Y-103704829D01*
X154800546Y-103686639D01*
X154746417Y-103660791D01*
X154705756Y-103637089D01*
X154635200Y-103590721D01*
X154635200Y-102440530D01*
X154702608Y-102396962D01*
X154781133Y-102356040D01*
X154865319Y-102329389D01*
X154950443Y-102317465D01*
X155031784Y-102320722D01*
X155104620Y-102339615D01*
X155136574Y-102355184D01*
X155194499Y-102398181D01*
X155243456Y-102454953D01*
X155284610Y-102527575D01*
X155319126Y-102618121D01*
X155348167Y-102728666D01*
X155349448Y-102734533D01*
X155359619Y-102796788D01*
X155367261Y-102874594D01*
X155372330Y-102962720D01*
X155374783Y-103055934D01*
X156203900Y-103055934D01*
X156198143Y-102899895D01*
X156176198Y-102704059D01*
X156140214Y-102525332D01*
X156090241Y-102363845D01*
X156026332Y-102219726D01*
X155948538Y-102093106D01*
X155856911Y-101984115D01*
X155751503Y-101892883D01*
X155706338Y-101861932D01*
X155605389Y-101805785D01*
X155502099Y-101766174D01*
X155392011Y-101742014D01*
X155270670Y-101732219D01*
X155178164Y-101733265D01*
X155048510Y-101744231D01*
X154935916Y-101766046D01*
X154837125Y-101799714D01*
X154748879Y-101846236D01*
X154700014Y-101880448D01*
X154670647Y-101902362D01*
X154648957Y-101917333D01*
X154640747Y-101921733D01*
X154639132Y-101910904D01*
X154637841Y-101880251D01*
X154636862Y-101832526D01*
X154636183Y-101770479D01*
X154635790Y-101696862D01*
X154635670Y-101614427D01*
X154635812Y-101525925D01*
X154636203Y-101434107D01*
X154636829Y-101341724D01*
X154637680Y-101251528D01*
X154638740Y-101166271D01*
X154639999Y-101088703D01*
X154641444Y-101021576D01*
X154643062Y-100967641D01*
X154644839Y-100929650D01*
X154645331Y-100922667D01*
X154652908Y-100852251D01*
X154664469Y-100797102D01*
X154682208Y-100749981D01*
X154708318Y-100703647D01*
X154714585Y-100694067D01*
X154739017Y-100657378D01*
X153833689Y-100657378D01*
X153833493Y-102342245D01*
X153833493Y-102342245D01*
G37*
X153833493Y-102342245D02*
X153833474Y-102576662D01*
X153833448Y-102789603D01*
X153833375Y-102982168D01*
X153833218Y-103155459D01*
X153832936Y-103310576D01*
X153832491Y-103448620D01*
X153831844Y-103570692D01*
X153830955Y-103677894D01*
X153829787Y-103771326D01*
X153828299Y-103852090D01*
X153826454Y-103921286D01*
X153824211Y-103980015D01*
X153821531Y-104029379D01*
X153818377Y-104070478D01*
X153814708Y-104104413D01*
X153810487Y-104132286D01*
X153805673Y-104155198D01*
X153800227Y-104174249D01*
X153794112Y-104190540D01*
X153787288Y-104205173D01*
X153779715Y-104219249D01*
X153771355Y-104233868D01*
X153766161Y-104242974D01*
X153731896Y-104303689D01*
X154590045Y-104303689D01*
X154590045Y-104207733D01*
X154590776Y-104164370D01*
X154592728Y-104131205D01*
X154595537Y-104113424D01*
X154596779Y-104111778D01*
X154608201Y-104118662D01*
X154630916Y-104136505D01*
X154653615Y-104155879D01*
X154708200Y-104196614D01*
X154777679Y-104237617D01*
X154854730Y-104275123D01*
X154932035Y-104305364D01*
X154962887Y-104315012D01*
X155031384Y-104329578D01*
X155114236Y-104339539D01*
X155203629Y-104344583D01*
X155291752Y-104344396D01*
X155370793Y-104338666D01*
X155408489Y-104332858D01*
X155546586Y-104294797D01*
X155673887Y-104237073D01*
X155789708Y-104160211D01*
X155893363Y-104064739D01*
X155984167Y-103951179D01*
X156050969Y-103840381D01*
X156105836Y-103723625D01*
X156147837Y-103604276D01*
X156177833Y-103478283D01*
X156196689Y-103341594D01*
X156205268Y-103190158D01*
X156205994Y-103112711D01*
X156203900Y-103055934D01*
X155374783Y-103055934D01*
X155374576Y-103149002D01*
X155371663Y-103236692D01*
X155366000Y-103313772D01*
X155357545Y-103375009D01*
X155354962Y-103387350D01*
X155323160Y-103494633D01*
X155281502Y-103581658D01*
X155229637Y-103648642D01*
X155167219Y-103695805D01*
X155093900Y-103723365D01*
X155009331Y-103731541D01*
X154913165Y-103720551D01*
X154849689Y-103704829D01*
X154800546Y-103686639D01*
X154746417Y-103660791D01*
X154705756Y-103637089D01*
X154635200Y-103590721D01*
X154635200Y-102440530D01*
X154702608Y-102396962D01*
X154781133Y-102356040D01*
X154865319Y-102329389D01*
X154950443Y-102317465D01*
X155031784Y-102320722D01*
X155104620Y-102339615D01*
X155136574Y-102355184D01*
X155194499Y-102398181D01*
X155243456Y-102454953D01*
X155284610Y-102527575D01*
X155319126Y-102618121D01*
X155348167Y-102728666D01*
X155349448Y-102734533D01*
X155359619Y-102796788D01*
X155367261Y-102874594D01*
X155372330Y-102962720D01*
X155374783Y-103055934D01*
X156203900Y-103055934D01*
X156198143Y-102899895D01*
X156176198Y-102704059D01*
X156140214Y-102525332D01*
X156090241Y-102363845D01*
X156026332Y-102219726D01*
X155948538Y-102093106D01*
X155856911Y-101984115D01*
X155751503Y-101892883D01*
X155706338Y-101861932D01*
X155605389Y-101805785D01*
X155502099Y-101766174D01*
X155392011Y-101742014D01*
X155270670Y-101732219D01*
X155178164Y-101733265D01*
X155048510Y-101744231D01*
X154935916Y-101766046D01*
X154837125Y-101799714D01*
X154748879Y-101846236D01*
X154700014Y-101880448D01*
X154670647Y-101902362D01*
X154648957Y-101917333D01*
X154640747Y-101921733D01*
X154639132Y-101910904D01*
X154637841Y-101880251D01*
X154636862Y-101832526D01*
X154636183Y-101770479D01*
X154635790Y-101696862D01*
X154635670Y-101614427D01*
X154635812Y-101525925D01*
X154636203Y-101434107D01*
X154636829Y-101341724D01*
X154637680Y-101251528D01*
X154638740Y-101166271D01*
X154639999Y-101088703D01*
X154641444Y-101021576D01*
X154643062Y-100967641D01*
X154644839Y-100929650D01*
X154645331Y-100922667D01*
X154652908Y-100852251D01*
X154664469Y-100797102D01*
X154682208Y-100749981D01*
X154708318Y-100703647D01*
X154714585Y-100694067D01*
X154739017Y-100657378D01*
X153833689Y-100657378D01*
X153833493Y-102342245D01*
G36*
X162293043Y-99896571D02*
X162196768Y-99920809D01*
X162110184Y-99963641D01*
X162035373Y-100023419D01*
X161974418Y-100098494D01*
X161929399Y-100187220D01*
X161903136Y-100283530D01*
X161897286Y-100380795D01*
X161912140Y-100474654D01*
X161945840Y-100562511D01*
X161996528Y-100641770D01*
X162062345Y-100709836D01*
X162141434Y-100764112D01*
X162231934Y-100802002D01*
X162283200Y-100814426D01*
X162327698Y-100821947D01*
X162361999Y-100824919D01*
X162394960Y-100823094D01*
X162435434Y-100816225D01*
X162468531Y-100809250D01*
X162561947Y-100777741D01*
X162645619Y-100726617D01*
X162717665Y-100657429D01*
X162776200Y-100571728D01*
X162790148Y-100544489D01*
X162806586Y-100508122D01*
X162816894Y-100477582D01*
X162822460Y-100445450D01*
X162824669Y-100404307D01*
X162824948Y-100358222D01*
X162820861Y-100273865D01*
X162807446Y-100204586D01*
X162782256Y-100143961D01*
X162742846Y-100085567D01*
X162704298Y-100041302D01*
X162632406Y-99975484D01*
X162557313Y-99930053D01*
X162474562Y-99902850D01*
X162396928Y-99892576D01*
X162293043Y-99896571D01*
X162293043Y-99896571D01*
G37*
X162293043Y-99896571D02*
X162196768Y-99920809D01*
X162110184Y-99963641D01*
X162035373Y-100023419D01*
X161974418Y-100098494D01*
X161929399Y-100187220D01*
X161903136Y-100283530D01*
X161897286Y-100380795D01*
X161912140Y-100474654D01*
X161945840Y-100562511D01*
X161996528Y-100641770D01*
X162062345Y-100709836D01*
X162141434Y-100764112D01*
X162231934Y-100802002D01*
X162283200Y-100814426D01*
X162327698Y-100821947D01*
X162361999Y-100824919D01*
X162394960Y-100823094D01*
X162435434Y-100816225D01*
X162468531Y-100809250D01*
X162561947Y-100777741D01*
X162645619Y-100726617D01*
X162717665Y-100657429D01*
X162776200Y-100571728D01*
X162790148Y-100544489D01*
X162806586Y-100508122D01*
X162816894Y-100477582D01*
X162822460Y-100445450D01*
X162824669Y-100404307D01*
X162824948Y-100358222D01*
X162820861Y-100273865D01*
X162807446Y-100204586D01*
X162782256Y-100143961D01*
X162742846Y-100085567D01*
X162704298Y-100041302D01*
X162632406Y-99975484D01*
X162557313Y-99930053D01*
X162474562Y-99902850D01*
X162396928Y-99892576D01*
X162293043Y-99896571D01*
G36*
X140338759Y-104339184D02*
X140312247Y-104352282D01*
X140279553Y-104375106D01*
X140255725Y-104399996D01*
X140239406Y-104431249D01*
X140229240Y-104473166D01*
X140223872Y-104530044D01*
X140221944Y-104606184D01*
X140221831Y-104638917D01*
X140222161Y-104710656D01*
X140223527Y-104761927D01*
X140226500Y-104797404D01*
X140231649Y-104821763D01*
X140239543Y-104839680D01*
X140247757Y-104851902D01*
X140300187Y-104903905D01*
X140361930Y-104935184D01*
X140428536Y-104944592D01*
X140495558Y-104930980D01*
X140516792Y-104921354D01*
X140567624Y-104894859D01*
X140567624Y-105310052D01*
X140530525Y-105290868D01*
X140481643Y-105276025D01*
X140421561Y-105272222D01*
X140361564Y-105279243D01*
X140316256Y-105295013D01*
X140278675Y-105325047D01*
X140246564Y-105368024D01*
X140244150Y-105372436D01*
X140233967Y-105393221D01*
X140226530Y-105414170D01*
X140221411Y-105439548D01*
X140218181Y-105473618D01*
X140216413Y-105520641D01*
X140215677Y-105584882D01*
X140215544Y-105657176D01*
X140215544Y-105887822D01*
X140353861Y-105887822D01*
X140353861Y-105462533D01*
X140392549Y-105429979D01*
X140432738Y-105403940D01*
X140470797Y-105399205D01*
X140509066Y-105411389D01*
X140529462Y-105423320D01*
X140544642Y-105440313D01*
X140555438Y-105465995D01*
X140562683Y-105503991D01*
X140567208Y-105557926D01*
X140569844Y-105631425D01*
X140570772Y-105680347D01*
X140573911Y-105881535D01*
X140639926Y-105885336D01*
X140705940Y-105889136D01*
X140705940Y-104640650D01*
X140567624Y-104640650D01*
X140564097Y-104710254D01*
X140552215Y-104758569D01*
X140530020Y-104788631D01*
X140495559Y-104803471D01*
X140460742Y-104806436D01*
X140421329Y-104803028D01*
X140395171Y-104789617D01*
X140378814Y-104771896D01*
X140365937Y-104752835D01*
X140358272Y-104731601D01*
X140354861Y-104701849D01*
X140354749Y-104657236D01*
X140355897Y-104619880D01*
X140358532Y-104563604D01*
X140362456Y-104526658D01*
X140369063Y-104503223D01*
X140379749Y-104487480D01*
X140389833Y-104478380D01*
X140431970Y-104458537D01*
X140481840Y-104455332D01*
X140510476Y-104462168D01*
X140538828Y-104486464D01*
X140557609Y-104533728D01*
X140566712Y-104603624D01*
X140567624Y-104640650D01*
X140705940Y-104640650D01*
X140705940Y-104328614D01*
X140636782Y-104328614D01*
X140595260Y-104330256D01*
X140573838Y-104336087D01*
X140567626Y-104347461D01*
X140567624Y-104347798D01*
X140564742Y-104358938D01*
X140552030Y-104357673D01*
X140526757Y-104345433D01*
X140467869Y-104326707D01*
X140401615Y-104324739D01*
X140338759Y-104339184D01*
X140338759Y-104339184D01*
G37*
X140338759Y-104339184D02*
X140312247Y-104352282D01*
X140279553Y-104375106D01*
X140255725Y-104399996D01*
X140239406Y-104431249D01*
X140229240Y-104473166D01*
X140223872Y-104530044D01*
X140221944Y-104606184D01*
X140221831Y-104638917D01*
X140222161Y-104710656D01*
X140223527Y-104761927D01*
X140226500Y-104797404D01*
X140231649Y-104821763D01*
X140239543Y-104839680D01*
X140247757Y-104851902D01*
X140300187Y-104903905D01*
X140361930Y-104935184D01*
X140428536Y-104944592D01*
X140495558Y-104930980D01*
X140516792Y-104921354D01*
X140567624Y-104894859D01*
X140567624Y-105310052D01*
X140530525Y-105290868D01*
X140481643Y-105276025D01*
X140421561Y-105272222D01*
X140361564Y-105279243D01*
X140316256Y-105295013D01*
X140278675Y-105325047D01*
X140246564Y-105368024D01*
X140244150Y-105372436D01*
X140233967Y-105393221D01*
X140226530Y-105414170D01*
X140221411Y-105439548D01*
X140218181Y-105473618D01*
X140216413Y-105520641D01*
X140215677Y-105584882D01*
X140215544Y-105657176D01*
X140215544Y-105887822D01*
X140353861Y-105887822D01*
X140353861Y-105462533D01*
X140392549Y-105429979D01*
X140432738Y-105403940D01*
X140470797Y-105399205D01*
X140509066Y-105411389D01*
X140529462Y-105423320D01*
X140544642Y-105440313D01*
X140555438Y-105465995D01*
X140562683Y-105503991D01*
X140567208Y-105557926D01*
X140569844Y-105631425D01*
X140570772Y-105680347D01*
X140573911Y-105881535D01*
X140639926Y-105885336D01*
X140705940Y-105889136D01*
X140705940Y-104640650D01*
X140567624Y-104640650D01*
X140564097Y-104710254D01*
X140552215Y-104758569D01*
X140530020Y-104788631D01*
X140495559Y-104803471D01*
X140460742Y-104806436D01*
X140421329Y-104803028D01*
X140395171Y-104789617D01*
X140378814Y-104771896D01*
X140365937Y-104752835D01*
X140358272Y-104731601D01*
X140354861Y-104701849D01*
X140354749Y-104657236D01*
X140355897Y-104619880D01*
X140358532Y-104563604D01*
X140362456Y-104526658D01*
X140369063Y-104503223D01*
X140379749Y-104487480D01*
X140389833Y-104478380D01*
X140431970Y-104458537D01*
X140481840Y-104455332D01*
X140510476Y-104462168D01*
X140538828Y-104486464D01*
X140557609Y-104533728D01*
X140566712Y-104603624D01*
X140567624Y-104640650D01*
X140705940Y-104640650D01*
X140705940Y-104328614D01*
X140636782Y-104328614D01*
X140595260Y-104330256D01*
X140573838Y-104336087D01*
X140567626Y-104347461D01*
X140567624Y-104347798D01*
X140564742Y-104358938D01*
X140552030Y-104357673D01*
X140526757Y-104345433D01*
X140467869Y-104326707D01*
X140401615Y-104324739D01*
X140338759Y-104339184D01*
G36*
X139814210Y-105276555D02*
X139755055Y-105292339D01*
X139710023Y-105320948D01*
X139678246Y-105358419D01*
X139668366Y-105374411D01*
X139661073Y-105391163D01*
X139655974Y-105412592D01*
X139652679Y-105442616D01*
X139650797Y-105485154D01*
X139649937Y-105544122D01*
X139649707Y-105623440D01*
X139649703Y-105644484D01*
X139649703Y-105887822D01*
X139710059Y-105887822D01*
X139748557Y-105885126D01*
X139777023Y-105878295D01*
X139784155Y-105874083D01*
X139803652Y-105866813D01*
X139823566Y-105874083D01*
X139856353Y-105883160D01*
X139903978Y-105886813D01*
X139956764Y-105885228D01*
X140005036Y-105878589D01*
X140033218Y-105870072D01*
X140087753Y-105835063D01*
X140121835Y-105786479D01*
X140137157Y-105721882D01*
X140137299Y-105720223D01*
X140135955Y-105691566D01*
X140014356Y-105691566D01*
X140003726Y-105724161D01*
X139986410Y-105742505D01*
X139951652Y-105756379D01*
X139905773Y-105761917D01*
X139858988Y-105759191D01*
X139821514Y-105748274D01*
X139811015Y-105741269D01*
X139792668Y-105708904D01*
X139788020Y-105672111D01*
X139788020Y-105623763D01*
X139857582Y-105623763D01*
X139923667Y-105628850D01*
X139973764Y-105643263D01*
X140004929Y-105665729D01*
X140014356Y-105691566D01*
X140135955Y-105691566D01*
X140133987Y-105649647D01*
X140110710Y-105593845D01*
X140066948Y-105551647D01*
X140060899Y-105547808D01*
X140034907Y-105535309D01*
X140002735Y-105527740D01*
X139957760Y-105524061D01*
X139904331Y-105523216D01*
X139788020Y-105523169D01*
X139788020Y-105474411D01*
X139792953Y-105436581D01*
X139805543Y-105411236D01*
X139807017Y-105409887D01*
X139835034Y-105398800D01*
X139877326Y-105394503D01*
X139924064Y-105396615D01*
X139965418Y-105404756D01*
X139989957Y-105416965D01*
X140003253Y-105426746D01*
X140017294Y-105428613D01*
X140036671Y-105420600D01*
X140065976Y-105400739D01*
X140109803Y-105367063D01*
X140113825Y-105363909D01*
X140111764Y-105352236D01*
X140094568Y-105332822D01*
X140068433Y-105311248D01*
X140039552Y-105293096D01*
X140030478Y-105288809D01*
X139997380Y-105280256D01*
X139948880Y-105274155D01*
X139894695Y-105271708D01*
X139892161Y-105271703D01*
X139814210Y-105276555D01*
X139814210Y-105276555D01*
G37*
X139814210Y-105276555D02*
X139755055Y-105292339D01*
X139710023Y-105320948D01*
X139678246Y-105358419D01*
X139668366Y-105374411D01*
X139661073Y-105391163D01*
X139655974Y-105412592D01*
X139652679Y-105442616D01*
X139650797Y-105485154D01*
X139649937Y-105544122D01*
X139649707Y-105623440D01*
X139649703Y-105644484D01*
X139649703Y-105887822D01*
X139710059Y-105887822D01*
X139748557Y-105885126D01*
X139777023Y-105878295D01*
X139784155Y-105874083D01*
X139803652Y-105866813D01*
X139823566Y-105874083D01*
X139856353Y-105883160D01*
X139903978Y-105886813D01*
X139956764Y-105885228D01*
X140005036Y-105878589D01*
X140033218Y-105870072D01*
X140087753Y-105835063D01*
X140121835Y-105786479D01*
X140137157Y-105721882D01*
X140137299Y-105720223D01*
X140135955Y-105691566D01*
X140014356Y-105691566D01*
X140003726Y-105724161D01*
X139986410Y-105742505D01*
X139951652Y-105756379D01*
X139905773Y-105761917D01*
X139858988Y-105759191D01*
X139821514Y-105748274D01*
X139811015Y-105741269D01*
X139792668Y-105708904D01*
X139788020Y-105672111D01*
X139788020Y-105623763D01*
X139857582Y-105623763D01*
X139923667Y-105628850D01*
X139973764Y-105643263D01*
X140004929Y-105665729D01*
X140014356Y-105691566D01*
X140135955Y-105691566D01*
X140133987Y-105649647D01*
X140110710Y-105593845D01*
X140066948Y-105551647D01*
X140060899Y-105547808D01*
X140034907Y-105535309D01*
X140002735Y-105527740D01*
X139957760Y-105524061D01*
X139904331Y-105523216D01*
X139788020Y-105523169D01*
X139788020Y-105474411D01*
X139792953Y-105436581D01*
X139805543Y-105411236D01*
X139807017Y-105409887D01*
X139835034Y-105398800D01*
X139877326Y-105394503D01*
X139924064Y-105396615D01*
X139965418Y-105404756D01*
X139989957Y-105416965D01*
X140003253Y-105426746D01*
X140017294Y-105428613D01*
X140036671Y-105420600D01*
X140065976Y-105400739D01*
X140109803Y-105367063D01*
X140113825Y-105363909D01*
X140111764Y-105352236D01*
X140094568Y-105332822D01*
X140068433Y-105311248D01*
X140039552Y-105293096D01*
X140030478Y-105288809D01*
X139997380Y-105280256D01*
X139948880Y-105274155D01*
X139894695Y-105271708D01*
X139892161Y-105271703D01*
X139814210Y-105276555D01*
G36*
X139423356Y-105273020D02*
X139404539Y-105278660D01*
X139398473Y-105291053D01*
X139398218Y-105296647D01*
X139397129Y-105312230D01*
X139389632Y-105314676D01*
X139369381Y-105303993D01*
X139357351Y-105296694D01*
X139319400Y-105281063D01*
X139274072Y-105273334D01*
X139226544Y-105272740D01*
X139181995Y-105278513D01*
X139145602Y-105289884D01*
X139122543Y-105306088D01*
X139117996Y-105326355D01*
X139120291Y-105331843D01*
X139137020Y-105354626D01*
X139162963Y-105382647D01*
X139167655Y-105387177D01*
X139192383Y-105408005D01*
X139213718Y-105414735D01*
X139243555Y-105410038D01*
X139255508Y-105406917D01*
X139292705Y-105399421D01*
X139318859Y-105402792D01*
X139340946Y-105414681D01*
X139361178Y-105430635D01*
X139376079Y-105450700D01*
X139386434Y-105478702D01*
X139393029Y-105518467D01*
X139396649Y-105573823D01*
X139398078Y-105648594D01*
X139398218Y-105693740D01*
X139398218Y-105887822D01*
X139523960Y-105887822D01*
X139523960Y-105271683D01*
X139461089Y-105271683D01*
X139423356Y-105273020D01*
X139423356Y-105273020D01*
G37*
X139423356Y-105273020D02*
X139404539Y-105278660D01*
X139398473Y-105291053D01*
X139398218Y-105296647D01*
X139397129Y-105312230D01*
X139389632Y-105314676D01*
X139369381Y-105303993D01*
X139357351Y-105296694D01*
X139319400Y-105281063D01*
X139274072Y-105273334D01*
X139226544Y-105272740D01*
X139181995Y-105278513D01*
X139145602Y-105289884D01*
X139122543Y-105306088D01*
X139117996Y-105326355D01*
X139120291Y-105331843D01*
X139137020Y-105354626D01*
X139162963Y-105382647D01*
X139167655Y-105387177D01*
X139192383Y-105408005D01*
X139213718Y-105414735D01*
X139243555Y-105410038D01*
X139255508Y-105406917D01*
X139292705Y-105399421D01*
X139318859Y-105402792D01*
X139340946Y-105414681D01*
X139361178Y-105430635D01*
X139376079Y-105450700D01*
X139386434Y-105478702D01*
X139393029Y-105518467D01*
X139396649Y-105573823D01*
X139398078Y-105648594D01*
X139398218Y-105693740D01*
X139398218Y-105887822D01*
X139523960Y-105887822D01*
X139523960Y-105271683D01*
X139461089Y-105271683D01*
X139423356Y-105273020D01*
G36*
X138631188Y-105887822D02*
X138700346Y-105887822D01*
X138740488Y-105886645D01*
X138761394Y-105881772D01*
X138768922Y-105871186D01*
X138769505Y-105864029D01*
X138770774Y-105849676D01*
X138778779Y-105846923D01*
X138799815Y-105855771D01*
X138816173Y-105864029D01*
X138878977Y-105883597D01*
X138947248Y-105884729D01*
X139002752Y-105870135D01*
X139054438Y-105834877D01*
X139093838Y-105782835D01*
X139115413Y-105721450D01*
X139115962Y-105718018D01*
X139119167Y-105680571D01*
X139120761Y-105626813D01*
X139120633Y-105586155D01*
X138983279Y-105586155D01*
X138980097Y-105640194D01*
X138972859Y-105684735D01*
X138963060Y-105709888D01*
X138925989Y-105744260D01*
X138881974Y-105756582D01*
X138836584Y-105746618D01*
X138797797Y-105716895D01*
X138783108Y-105696905D01*
X138774519Y-105673050D01*
X138770496Y-105638230D01*
X138769505Y-105585930D01*
X138771278Y-105534139D01*
X138775963Y-105488634D01*
X138782603Y-105458181D01*
X138783710Y-105455452D01*
X138810491Y-105423000D01*
X138849579Y-105405183D01*
X138893315Y-105402306D01*
X138934038Y-105414674D01*
X138964087Y-105442593D01*
X138967204Y-105448148D01*
X138976961Y-105482022D01*
X138982277Y-105530728D01*
X138983279Y-105586155D01*
X139120633Y-105586155D01*
X139120568Y-105565540D01*
X139119664Y-105532563D01*
X139113514Y-105450981D01*
X139100733Y-105389730D01*
X139079471Y-105344449D01*
X139047878Y-105310779D01*
X139017207Y-105291014D01*
X138974354Y-105277120D01*
X138921056Y-105272354D01*
X138866480Y-105276236D01*
X138819792Y-105288282D01*
X138795124Y-105302693D01*
X138769505Y-105325878D01*
X138769505Y-105032773D01*
X138631188Y-105032773D01*
X138631188Y-105887822D01*
X138631188Y-105887822D01*
G37*
X138631188Y-105887822D02*
X138700346Y-105887822D01*
X138740488Y-105886645D01*
X138761394Y-105881772D01*
X138768922Y-105871186D01*
X138769505Y-105864029D01*
X138770774Y-105849676D01*
X138778779Y-105846923D01*
X138799815Y-105855771D01*
X138816173Y-105864029D01*
X138878977Y-105883597D01*
X138947248Y-105884729D01*
X139002752Y-105870135D01*
X139054438Y-105834877D01*
X139093838Y-105782835D01*
X139115413Y-105721450D01*
X139115962Y-105718018D01*
X139119167Y-105680571D01*
X139120761Y-105626813D01*
X139120633Y-105586155D01*
X138983279Y-105586155D01*
X138980097Y-105640194D01*
X138972859Y-105684735D01*
X138963060Y-105709888D01*
X138925989Y-105744260D01*
X138881974Y-105756582D01*
X138836584Y-105746618D01*
X138797797Y-105716895D01*
X138783108Y-105696905D01*
X138774519Y-105673050D01*
X138770496Y-105638230D01*
X138769505Y-105585930D01*
X138771278Y-105534139D01*
X138775963Y-105488634D01*
X138782603Y-105458181D01*
X138783710Y-105455452D01*
X138810491Y-105423000D01*
X138849579Y-105405183D01*
X138893315Y-105402306D01*
X138934038Y-105414674D01*
X138964087Y-105442593D01*
X138967204Y-105448148D01*
X138976961Y-105482022D01*
X138982277Y-105530728D01*
X138983279Y-105586155D01*
X139120633Y-105586155D01*
X139120568Y-105565540D01*
X139119664Y-105532563D01*
X139113514Y-105450981D01*
X139100733Y-105389730D01*
X139079471Y-105344449D01*
X139047878Y-105310779D01*
X139017207Y-105291014D01*
X138974354Y-105277120D01*
X138921056Y-105272354D01*
X138866480Y-105276236D01*
X138819792Y-105288282D01*
X138795124Y-105302693D01*
X138769505Y-105325878D01*
X138769505Y-105032773D01*
X138631188Y-105032773D01*
X138631188Y-105887822D01*
G36*
X138148476Y-105274237D02*
X138098745Y-105277971D01*
X137968709Y-105667773D01*
X137948322Y-105598614D01*
X137936054Y-105555874D01*
X137919915Y-105498115D01*
X137902488Y-105434625D01*
X137893274Y-105400570D01*
X137858612Y-105271683D01*
X137715609Y-105271683D01*
X137758354Y-105406857D01*
X137779404Y-105473342D01*
X137804833Y-105553539D01*
X137831390Y-105637193D01*
X137855098Y-105711782D01*
X137909098Y-105881535D01*
X137967402Y-105885328D01*
X138025705Y-105889122D01*
X138057321Y-105784734D01*
X138076818Y-105719889D01*
X138098096Y-105648400D01*
X138116692Y-105585263D01*
X138117426Y-105582750D01*
X138131316Y-105539969D01*
X138143571Y-105510779D01*
X138152154Y-105499741D01*
X138153918Y-105501018D01*
X138160109Y-105518130D01*
X138171872Y-105554787D01*
X138187775Y-105606378D01*
X138206386Y-105668294D01*
X138216457Y-105702352D01*
X138270993Y-105887822D01*
X138386736Y-105887822D01*
X138479263Y-105595471D01*
X138505256Y-105513462D01*
X138528934Y-105438987D01*
X138549180Y-105375544D01*
X138564874Y-105326632D01*
X138574898Y-105295749D01*
X138577945Y-105286726D01*
X138575533Y-105277487D01*
X138556592Y-105273441D01*
X138517177Y-105273846D01*
X138511007Y-105274152D01*
X138437914Y-105277971D01*
X138390043Y-105454010D01*
X138372447Y-105518211D01*
X138356723Y-105574649D01*
X138344254Y-105618422D01*
X138336426Y-105644630D01*
X138334980Y-105648903D01*
X138328986Y-105643990D01*
X138316899Y-105618532D01*
X138300107Y-105575997D01*
X138279997Y-105519850D01*
X138262997Y-105469130D01*
X138198206Y-105270504D01*
X138148476Y-105274237D01*
X138148476Y-105274237D01*
G37*
X138148476Y-105274237D02*
X138098745Y-105277971D01*
X137968709Y-105667773D01*
X137948322Y-105598614D01*
X137936054Y-105555874D01*
X137919915Y-105498115D01*
X137902488Y-105434625D01*
X137893274Y-105400570D01*
X137858612Y-105271683D01*
X137715609Y-105271683D01*
X137758354Y-105406857D01*
X137779404Y-105473342D01*
X137804833Y-105553539D01*
X137831390Y-105637193D01*
X137855098Y-105711782D01*
X137909098Y-105881535D01*
X137967402Y-105885328D01*
X138025705Y-105889122D01*
X138057321Y-105784734D01*
X138076818Y-105719889D01*
X138098096Y-105648400D01*
X138116692Y-105585263D01*
X138117426Y-105582750D01*
X138131316Y-105539969D01*
X138143571Y-105510779D01*
X138152154Y-105499741D01*
X138153918Y-105501018D01*
X138160109Y-105518130D01*
X138171872Y-105554787D01*
X138187775Y-105606378D01*
X138206386Y-105668294D01*
X138216457Y-105702352D01*
X138270993Y-105887822D01*
X138386736Y-105887822D01*
X138479263Y-105595471D01*
X138505256Y-105513462D01*
X138528934Y-105438987D01*
X138549180Y-105375544D01*
X138564874Y-105326632D01*
X138574898Y-105295749D01*
X138577945Y-105286726D01*
X138575533Y-105277487D01*
X138556592Y-105273441D01*
X138517177Y-105273846D01*
X138511007Y-105274152D01*
X138437914Y-105277971D01*
X138390043Y-105454010D01*
X138372447Y-105518211D01*
X138356723Y-105574649D01*
X138344254Y-105618422D01*
X138336426Y-105644630D01*
X138334980Y-105648903D01*
X138328986Y-105643990D01*
X138316899Y-105618532D01*
X138300107Y-105575997D01*
X138279997Y-105519850D01*
X138262997Y-105469130D01*
X138198206Y-105270504D01*
X138148476Y-105274237D01*
G36*
X137391589Y-105275417D02*
X137338589Y-105288290D01*
X137323269Y-105295110D01*
X137293572Y-105312974D01*
X137270780Y-105333093D01*
X137253917Y-105358962D01*
X137242002Y-105394073D01*
X137234058Y-105441920D01*
X137229106Y-105505996D01*
X137226169Y-105589794D01*
X137225053Y-105645768D01*
X137220948Y-105887822D01*
X137291068Y-105887822D01*
X137333607Y-105886038D01*
X137355524Y-105879942D01*
X137361188Y-105869706D01*
X137364179Y-105858637D01*
X137377549Y-105860754D01*
X137395767Y-105869629D01*
X137441376Y-105883233D01*
X137499993Y-105886899D01*
X137561646Y-105880903D01*
X137616362Y-105865521D01*
X137621270Y-105863386D01*
X137671277Y-105828255D01*
X137704244Y-105779419D01*
X137719413Y-105722333D01*
X137718254Y-105701824D01*
X137594492Y-105701824D01*
X137583587Y-105729425D01*
X137551255Y-105749204D01*
X137499090Y-105759819D01*
X137471213Y-105761228D01*
X137424753Y-105757620D01*
X137393871Y-105743597D01*
X137386336Y-105736931D01*
X137365924Y-105700666D01*
X137361188Y-105667773D01*
X137361188Y-105623763D01*
X137422487Y-105623763D01*
X137493744Y-105627395D01*
X137543724Y-105638818D01*
X137575304Y-105658824D01*
X137582374Y-105667743D01*
X137594492Y-105701824D01*
X137718254Y-105701824D01*
X137716029Y-105662456D01*
X137693337Y-105605244D01*
X137662376Y-105566580D01*
X137643624Y-105549864D01*
X137625267Y-105538878D01*
X137601381Y-105532180D01*
X137566043Y-105528326D01*
X137513331Y-105525873D01*
X137492423Y-105525168D01*
X137361188Y-105520879D01*
X137361380Y-105481158D01*
X137366463Y-105439405D01*
X137384838Y-105414158D01*
X137421961Y-105398030D01*
X137422957Y-105397742D01*
X137475590Y-105391400D01*
X137527094Y-105399684D01*
X137565370Y-105419827D01*
X137580728Y-105429773D01*
X137597270Y-105428397D01*
X137622725Y-105413987D01*
X137637672Y-105403817D01*
X137666909Y-105382088D01*
X137685020Y-105365800D01*
X137687926Y-105361137D01*
X137675960Y-105337005D01*
X137640604Y-105308185D01*
X137625247Y-105298461D01*
X137581099Y-105281714D01*
X137521602Y-105272227D01*
X137455513Y-105270095D01*
X137391589Y-105275417D01*
X137391589Y-105275417D01*
G37*
X137391589Y-105275417D02*
X137338589Y-105288290D01*
X137323269Y-105295110D01*
X137293572Y-105312974D01*
X137270780Y-105333093D01*
X137253917Y-105358962D01*
X137242002Y-105394073D01*
X137234058Y-105441920D01*
X137229106Y-105505996D01*
X137226169Y-105589794D01*
X137225053Y-105645768D01*
X137220948Y-105887822D01*
X137291068Y-105887822D01*
X137333607Y-105886038D01*
X137355524Y-105879942D01*
X137361188Y-105869706D01*
X137364179Y-105858637D01*
X137377549Y-105860754D01*
X137395767Y-105869629D01*
X137441376Y-105883233D01*
X137499993Y-105886899D01*
X137561646Y-105880903D01*
X137616362Y-105865521D01*
X137621270Y-105863386D01*
X137671277Y-105828255D01*
X137704244Y-105779419D01*
X137719413Y-105722333D01*
X137718254Y-105701824D01*
X137594492Y-105701824D01*
X137583587Y-105729425D01*
X137551255Y-105749204D01*
X137499090Y-105759819D01*
X137471213Y-105761228D01*
X137424753Y-105757620D01*
X137393871Y-105743597D01*
X137386336Y-105736931D01*
X137365924Y-105700666D01*
X137361188Y-105667773D01*
X137361188Y-105623763D01*
X137422487Y-105623763D01*
X137493744Y-105627395D01*
X137543724Y-105638818D01*
X137575304Y-105658824D01*
X137582374Y-105667743D01*
X137594492Y-105701824D01*
X137718254Y-105701824D01*
X137716029Y-105662456D01*
X137693337Y-105605244D01*
X137662376Y-105566580D01*
X137643624Y-105549864D01*
X137625267Y-105538878D01*
X137601381Y-105532180D01*
X137566043Y-105528326D01*
X137513331Y-105525873D01*
X137492423Y-105525168D01*
X137361188Y-105520879D01*
X137361380Y-105481158D01*
X137366463Y-105439405D01*
X137384838Y-105414158D01*
X137421961Y-105398030D01*
X137422957Y-105397742D01*
X137475590Y-105391400D01*
X137527094Y-105399684D01*
X137565370Y-105419827D01*
X137580728Y-105429773D01*
X137597270Y-105428397D01*
X137622725Y-105413987D01*
X137637672Y-105403817D01*
X137666909Y-105382088D01*
X137685020Y-105365800D01*
X137687926Y-105361137D01*
X137675960Y-105337005D01*
X137640604Y-105308185D01*
X137625247Y-105298461D01*
X137581099Y-105281714D01*
X137521602Y-105272227D01*
X137455513Y-105270095D01*
X137391589Y-105275417D01*
G36*
X136794745Y-105271486D02*
X136746405Y-105281015D01*
X136718886Y-105295125D01*
X136689936Y-105318568D01*
X136731124Y-105370571D01*
X136756518Y-105402064D01*
X136773762Y-105417428D01*
X136790898Y-105419776D01*
X136815973Y-105412217D01*
X136827743Y-105407941D01*
X136875730Y-105401631D01*
X136919676Y-105415156D01*
X136951940Y-105445710D01*
X136957181Y-105455452D01*
X136962888Y-105481258D01*
X136967294Y-105528817D01*
X136970189Y-105594758D01*
X136971369Y-105675710D01*
X136971386Y-105687226D01*
X136971386Y-105887822D01*
X137109703Y-105887822D01*
X137109703Y-105271683D01*
X137040544Y-105271683D01*
X137000667Y-105272725D01*
X136979893Y-105277358D01*
X136972211Y-105287849D01*
X136971386Y-105297745D01*
X136971386Y-105323806D01*
X136938255Y-105297745D01*
X136900265Y-105279965D01*
X136849230Y-105271174D01*
X136794745Y-105271486D01*
X136794745Y-105271486D01*
G37*
X136794745Y-105271486D02*
X136746405Y-105281015D01*
X136718886Y-105295125D01*
X136689936Y-105318568D01*
X136731124Y-105370571D01*
X136756518Y-105402064D01*
X136773762Y-105417428D01*
X136790898Y-105419776D01*
X136815973Y-105412217D01*
X136827743Y-105407941D01*
X136875730Y-105401631D01*
X136919676Y-105415156D01*
X136951940Y-105445710D01*
X136957181Y-105455452D01*
X136962888Y-105481258D01*
X136967294Y-105528817D01*
X136970189Y-105594758D01*
X136971369Y-105675710D01*
X136971386Y-105687226D01*
X136971386Y-105887822D01*
X137109703Y-105887822D01*
X137109703Y-105271683D01*
X137040544Y-105271683D01*
X137000667Y-105272725D01*
X136979893Y-105277358D01*
X136972211Y-105287849D01*
X136971386Y-105297745D01*
X136971386Y-105323806D01*
X136938255Y-105297745D01*
X136900265Y-105279965D01*
X136849230Y-105271174D01*
X136794745Y-105271486D01*
G36*
X136397419Y-105274970D02*
X136337315Y-105290597D01*
X136286979Y-105322848D01*
X136262607Y-105346940D01*
X136222655Y-105403895D01*
X136199758Y-105469965D01*
X136191892Y-105551182D01*
X136191852Y-105557748D01*
X136191782Y-105623763D01*
X136571736Y-105623763D01*
X136563637Y-105658342D01*
X136549013Y-105689659D01*
X136523419Y-105722291D01*
X136518065Y-105727500D01*
X136472057Y-105755694D01*
X136419590Y-105760475D01*
X136359197Y-105741926D01*
X136348960Y-105736931D01*
X136317561Y-105721745D01*
X136296530Y-105713094D01*
X136292861Y-105712293D01*
X136280052Y-105720063D01*
X136255622Y-105739072D01*
X136243221Y-105749460D01*
X136217524Y-105773321D01*
X136209085Y-105789077D01*
X136214942Y-105803571D01*
X136218072Y-105807534D01*
X136239275Y-105824879D01*
X136274262Y-105845959D01*
X136298663Y-105858265D01*
X136367928Y-105879946D01*
X136444612Y-105886971D01*
X136517235Y-105878647D01*
X136537574Y-105872686D01*
X136600524Y-105838952D01*
X136647185Y-105787045D01*
X136677827Y-105716459D01*
X136692718Y-105626692D01*
X136694353Y-105579753D01*
X136689579Y-105511413D01*
X136569010Y-105511413D01*
X136557348Y-105516465D01*
X136526002Y-105520429D01*
X136480429Y-105522768D01*
X136449554Y-105523169D01*
X136394019Y-105522783D01*
X136358967Y-105520975D01*
X136339738Y-105516773D01*
X136331670Y-105509203D01*
X136330099Y-105498218D01*
X136340879Y-105464381D01*
X136368020Y-105430940D01*
X136403723Y-105405272D01*
X136439440Y-105394772D01*
X136487952Y-105404086D01*
X136529947Y-105431013D01*
X136559064Y-105469827D01*
X136569010Y-105511413D01*
X136689579Y-105511413D01*
X136687401Y-105480236D01*
X136665945Y-105400949D01*
X136629530Y-105341263D01*
X136577703Y-105300549D01*
X136510010Y-105278179D01*
X136473338Y-105273871D01*
X136397419Y-105274970D01*
X136397419Y-105274970D01*
G37*
X136397419Y-105274970D02*
X136337315Y-105290597D01*
X136286979Y-105322848D01*
X136262607Y-105346940D01*
X136222655Y-105403895D01*
X136199758Y-105469965D01*
X136191892Y-105551182D01*
X136191852Y-105557748D01*
X136191782Y-105623763D01*
X136571736Y-105623763D01*
X136563637Y-105658342D01*
X136549013Y-105689659D01*
X136523419Y-105722291D01*
X136518065Y-105727500D01*
X136472057Y-105755694D01*
X136419590Y-105760475D01*
X136359197Y-105741926D01*
X136348960Y-105736931D01*
X136317561Y-105721745D01*
X136296530Y-105713094D01*
X136292861Y-105712293D01*
X136280052Y-105720063D01*
X136255622Y-105739072D01*
X136243221Y-105749460D01*
X136217524Y-105773321D01*
X136209085Y-105789077D01*
X136214942Y-105803571D01*
X136218072Y-105807534D01*
X136239275Y-105824879D01*
X136274262Y-105845959D01*
X136298663Y-105858265D01*
X136367928Y-105879946D01*
X136444612Y-105886971D01*
X136517235Y-105878647D01*
X136537574Y-105872686D01*
X136600524Y-105838952D01*
X136647185Y-105787045D01*
X136677827Y-105716459D01*
X136692718Y-105626692D01*
X136694353Y-105579753D01*
X136689579Y-105511413D01*
X136569010Y-105511413D01*
X136557348Y-105516465D01*
X136526002Y-105520429D01*
X136480429Y-105522768D01*
X136449554Y-105523169D01*
X136394019Y-105522783D01*
X136358967Y-105520975D01*
X136339738Y-105516773D01*
X136331670Y-105509203D01*
X136330099Y-105498218D01*
X136340879Y-105464381D01*
X136368020Y-105430940D01*
X136403723Y-105405272D01*
X136439440Y-105394772D01*
X136487952Y-105404086D01*
X136529947Y-105431013D01*
X136559064Y-105469827D01*
X136569010Y-105511413D01*
X136689579Y-105511413D01*
X136687401Y-105480236D01*
X136665945Y-105400949D01*
X136629530Y-105341263D01*
X136577703Y-105300549D01*
X136510010Y-105278179D01*
X136473338Y-105273871D01*
X136397419Y-105274970D01*
G36*
X140968261Y-104335148D02*
X140902479Y-104364231D01*
X140852540Y-104412793D01*
X140818374Y-104480908D01*
X140799907Y-104568651D01*
X140798583Y-104582351D01*
X140797546Y-104678939D01*
X140810993Y-104763602D01*
X140838108Y-104832221D01*
X140852627Y-104854294D01*
X140903201Y-104901011D01*
X140967609Y-104931268D01*
X141039666Y-104943824D01*
X141113185Y-104937439D01*
X141169072Y-104917772D01*
X141217132Y-104884629D01*
X141256412Y-104841175D01*
X141257092Y-104840158D01*
X141273044Y-104813338D01*
X141283410Y-104786368D01*
X141289688Y-104752332D01*
X141293373Y-104704310D01*
X141294997Y-104664931D01*
X141295672Y-104629219D01*
X141169955Y-104629219D01*
X141168726Y-104664770D01*
X141164266Y-104712094D01*
X141156397Y-104742465D01*
X141142207Y-104764072D01*
X141128917Y-104776694D01*
X141081802Y-104803122D01*
X141032505Y-104806653D01*
X140986593Y-104787639D01*
X140963638Y-104766331D01*
X140947096Y-104744859D01*
X140937421Y-104724313D01*
X140933174Y-104697574D01*
X140932920Y-104657523D01*
X140934228Y-104620638D01*
X140937043Y-104567947D01*
X140941505Y-104533772D01*
X140949548Y-104511480D01*
X140963103Y-104494442D01*
X140973845Y-104484703D01*
X141018777Y-104459123D01*
X141067249Y-104457847D01*
X141107894Y-104472999D01*
X141142567Y-104504642D01*
X141163224Y-104556620D01*
X141169955Y-104629219D01*
X141295672Y-104629219D01*
X141296479Y-104586621D01*
X141293948Y-104528056D01*
X141286362Y-104484007D01*
X141272681Y-104449248D01*
X141251865Y-104418551D01*
X141244147Y-104409436D01*
X141195889Y-104364021D01*
X141144128Y-104337493D01*
X141080828Y-104326379D01*
X141049961Y-104325471D01*
X140968261Y-104335148D01*
X140968261Y-104335148D01*
G37*
X140968261Y-104335148D02*
X140902479Y-104364231D01*
X140852540Y-104412793D01*
X140818374Y-104480908D01*
X140799907Y-104568651D01*
X140798583Y-104582351D01*
X140797546Y-104678939D01*
X140810993Y-104763602D01*
X140838108Y-104832221D01*
X140852627Y-104854294D01*
X140903201Y-104901011D01*
X140967609Y-104931268D01*
X141039666Y-104943824D01*
X141113185Y-104937439D01*
X141169072Y-104917772D01*
X141217132Y-104884629D01*
X141256412Y-104841175D01*
X141257092Y-104840158D01*
X141273044Y-104813338D01*
X141283410Y-104786368D01*
X141289688Y-104752332D01*
X141293373Y-104704310D01*
X141294997Y-104664931D01*
X141295672Y-104629219D01*
X141169955Y-104629219D01*
X141168726Y-104664770D01*
X141164266Y-104712094D01*
X141156397Y-104742465D01*
X141142207Y-104764072D01*
X141128917Y-104776694D01*
X141081802Y-104803122D01*
X141032505Y-104806653D01*
X140986593Y-104787639D01*
X140963638Y-104766331D01*
X140947096Y-104744859D01*
X140937421Y-104724313D01*
X140933174Y-104697574D01*
X140932920Y-104657523D01*
X140934228Y-104620638D01*
X140937043Y-104567947D01*
X140941505Y-104533772D01*
X140949548Y-104511480D01*
X140963103Y-104494442D01*
X140973845Y-104484703D01*
X141018777Y-104459123D01*
X141067249Y-104457847D01*
X141107894Y-104472999D01*
X141142567Y-104504642D01*
X141163224Y-104556620D01*
X141169955Y-104629219D01*
X141295672Y-104629219D01*
X141296479Y-104586621D01*
X141293948Y-104528056D01*
X141286362Y-104484007D01*
X141272681Y-104449248D01*
X141251865Y-104418551D01*
X141244147Y-104409436D01*
X141195889Y-104364021D01*
X141144128Y-104337493D01*
X141080828Y-104326379D01*
X141049961Y-104325471D01*
X140968261Y-104335148D01*
G36*
X139786699Y-104342614D02*
X139774168Y-104348514D01*
X139730799Y-104380283D01*
X139689790Y-104426646D01*
X139659168Y-104477696D01*
X139650459Y-104501166D01*
X139642512Y-104543091D01*
X139637774Y-104593757D01*
X139637199Y-104614679D01*
X139637129Y-104680693D01*
X140017083Y-104680693D01*
X140008983Y-104715273D01*
X139989104Y-104756170D01*
X139954347Y-104791514D01*
X139912998Y-104814282D01*
X139886649Y-104819010D01*
X139850916Y-104813273D01*
X139808282Y-104798882D01*
X139793799Y-104792262D01*
X139740240Y-104765513D01*
X139694533Y-104800376D01*
X139668158Y-104823955D01*
X139654124Y-104843417D01*
X139653414Y-104849129D01*
X139665951Y-104862973D01*
X139693428Y-104884012D01*
X139718366Y-104900425D01*
X139785664Y-104929930D01*
X139861110Y-104943284D01*
X139935888Y-104939812D01*
X139995495Y-104921663D01*
X140056941Y-104882784D01*
X140100608Y-104831595D01*
X140127926Y-104765367D01*
X140140322Y-104681371D01*
X140141421Y-104642936D01*
X140137022Y-104554861D01*
X140136482Y-104552299D01*
X140010582Y-104552299D01*
X140007115Y-104560558D01*
X139992863Y-104565113D01*
X139963470Y-104567065D01*
X139914575Y-104567517D01*
X139895748Y-104567525D01*
X139838467Y-104566843D01*
X139802141Y-104564364D01*
X139782604Y-104559443D01*
X139775690Y-104551434D01*
X139775445Y-104548862D01*
X139783336Y-104528423D01*
X139803085Y-104499789D01*
X139811575Y-104489763D01*
X139843094Y-104461408D01*
X139875949Y-104450259D01*
X139893651Y-104449327D01*
X139941539Y-104460981D01*
X139981699Y-104492285D01*
X140007173Y-104537752D01*
X140007625Y-104539233D01*
X140010582Y-104552299D01*
X140136482Y-104552299D01*
X140122392Y-104485510D01*
X140096038Y-104430025D01*
X140063807Y-104390639D01*
X140004217Y-104347931D01*
X139934168Y-104325109D01*
X139859661Y-104323046D01*
X139786699Y-104342614D01*
X139786699Y-104342614D01*
G37*
X139786699Y-104342614D02*
X139774168Y-104348514D01*
X139730799Y-104380283D01*
X139689790Y-104426646D01*
X139659168Y-104477696D01*
X139650459Y-104501166D01*
X139642512Y-104543091D01*
X139637774Y-104593757D01*
X139637199Y-104614679D01*
X139637129Y-104680693D01*
X140017083Y-104680693D01*
X140008983Y-104715273D01*
X139989104Y-104756170D01*
X139954347Y-104791514D01*
X139912998Y-104814282D01*
X139886649Y-104819010D01*
X139850916Y-104813273D01*
X139808282Y-104798882D01*
X139793799Y-104792262D01*
X139740240Y-104765513D01*
X139694533Y-104800376D01*
X139668158Y-104823955D01*
X139654124Y-104843417D01*
X139653414Y-104849129D01*
X139665951Y-104862973D01*
X139693428Y-104884012D01*
X139718366Y-104900425D01*
X139785664Y-104929930D01*
X139861110Y-104943284D01*
X139935888Y-104939812D01*
X139995495Y-104921663D01*
X140056941Y-104882784D01*
X140100608Y-104831595D01*
X140127926Y-104765367D01*
X140140322Y-104681371D01*
X140141421Y-104642936D01*
X140137022Y-104554861D01*
X140136482Y-104552299D01*
X140010582Y-104552299D01*
X140007115Y-104560558D01*
X139992863Y-104565113D01*
X139963470Y-104567065D01*
X139914575Y-104567517D01*
X139895748Y-104567525D01*
X139838467Y-104566843D01*
X139802141Y-104564364D01*
X139782604Y-104559443D01*
X139775690Y-104551434D01*
X139775445Y-104548862D01*
X139783336Y-104528423D01*
X139803085Y-104499789D01*
X139811575Y-104489763D01*
X139843094Y-104461408D01*
X139875949Y-104450259D01*
X139893651Y-104449327D01*
X139941539Y-104460981D01*
X139981699Y-104492285D01*
X140007173Y-104537752D01*
X140007625Y-104539233D01*
X140010582Y-104552299D01*
X140136482Y-104552299D01*
X140122392Y-104485510D01*
X140096038Y-104430025D01*
X140063807Y-104390639D01*
X140004217Y-104347931D01*
X139934168Y-104325109D01*
X139859661Y-104323046D01*
X139786699Y-104342614D01*
G36*
X138415983Y-104326452D02*
X138368366Y-104335482D01*
X138318966Y-104354370D01*
X138313688Y-104356777D01*
X138276226Y-104376476D01*
X138250283Y-104394781D01*
X138241897Y-104406508D01*
X138249883Y-104425632D01*
X138269280Y-104453850D01*
X138277890Y-104464384D01*
X138313372Y-104505847D01*
X138359115Y-104478858D01*
X138402650Y-104460878D01*
X138452950Y-104451267D01*
X138501188Y-104450660D01*
X138538533Y-104459691D01*
X138547495Y-104465327D01*
X138564563Y-104491171D01*
X138566637Y-104520941D01*
X138553866Y-104544197D01*
X138546312Y-104548708D01*
X138523675Y-104554309D01*
X138483885Y-104560892D01*
X138434834Y-104567183D01*
X138425785Y-104568170D01*
X138347004Y-104581798D01*
X138289864Y-104604946D01*
X138251970Y-104639752D01*
X138230921Y-104688354D01*
X138224365Y-104747718D01*
X138233423Y-104815198D01*
X138262836Y-104868188D01*
X138312722Y-104906783D01*
X138383200Y-104931081D01*
X138461435Y-104940667D01*
X138525234Y-104940552D01*
X138576984Y-104931845D01*
X138612327Y-104919825D01*
X138656983Y-104898880D01*
X138698253Y-104874574D01*
X138712921Y-104863876D01*
X138750643Y-104833084D01*
X138705148Y-104787049D01*
X138659653Y-104741013D01*
X138607928Y-104775243D01*
X138556048Y-104800952D01*
X138500649Y-104814399D01*
X138447395Y-104815818D01*
X138401951Y-104805443D01*
X138369984Y-104783507D01*
X138359662Y-104764998D01*
X138361211Y-104735314D01*
X138386860Y-104712615D01*
X138436540Y-104696940D01*
X138490969Y-104689695D01*
X138574736Y-104675873D01*
X138636967Y-104649796D01*
X138678493Y-104610699D01*
X138700147Y-104557820D01*
X138703147Y-104495126D01*
X138688329Y-104429642D01*
X138654546Y-104380144D01*
X138601495Y-104346408D01*
X138528874Y-104328207D01*
X138475072Y-104324639D01*
X138415983Y-104326452D01*
X138415983Y-104326452D01*
G37*
X138415983Y-104326452D02*
X138368366Y-104335482D01*
X138318966Y-104354370D01*
X138313688Y-104356777D01*
X138276226Y-104376476D01*
X138250283Y-104394781D01*
X138241897Y-104406508D01*
X138249883Y-104425632D01*
X138269280Y-104453850D01*
X138277890Y-104464384D01*
X138313372Y-104505847D01*
X138359115Y-104478858D01*
X138402650Y-104460878D01*
X138452950Y-104451267D01*
X138501188Y-104450660D01*
X138538533Y-104459691D01*
X138547495Y-104465327D01*
X138564563Y-104491171D01*
X138566637Y-104520941D01*
X138553866Y-104544197D01*
X138546312Y-104548708D01*
X138523675Y-104554309D01*
X138483885Y-104560892D01*
X138434834Y-104567183D01*
X138425785Y-104568170D01*
X138347004Y-104581798D01*
X138289864Y-104604946D01*
X138251970Y-104639752D01*
X138230921Y-104688354D01*
X138224365Y-104747718D01*
X138233423Y-104815198D01*
X138262836Y-104868188D01*
X138312722Y-104906783D01*
X138383200Y-104931081D01*
X138461435Y-104940667D01*
X138525234Y-104940552D01*
X138576984Y-104931845D01*
X138612327Y-104919825D01*
X138656983Y-104898880D01*
X138698253Y-104874574D01*
X138712921Y-104863876D01*
X138750643Y-104833084D01*
X138705148Y-104787049D01*
X138659653Y-104741013D01*
X138607928Y-104775243D01*
X138556048Y-104800952D01*
X138500649Y-104814399D01*
X138447395Y-104815818D01*
X138401951Y-104805443D01*
X138369984Y-104783507D01*
X138359662Y-104764998D01*
X138361211Y-104735314D01*
X138386860Y-104712615D01*
X138436540Y-104696940D01*
X138490969Y-104689695D01*
X138574736Y-104675873D01*
X138636967Y-104649796D01*
X138678493Y-104610699D01*
X138700147Y-104557820D01*
X138703147Y-104495126D01*
X138688329Y-104429642D01*
X138654546Y-104380144D01*
X138601495Y-104346408D01*
X138528874Y-104328207D01*
X138475072Y-104324639D01*
X138415983Y-104326452D01*
G36*
X137819238Y-104336055D02*
X137755637Y-104370692D01*
X137705877Y-104425372D01*
X137682432Y-104469842D01*
X137672366Y-104509121D01*
X137665844Y-104565116D01*
X137663049Y-104629621D01*
X137664164Y-104694429D01*
X137669374Y-104751334D01*
X137675459Y-104781727D01*
X137695986Y-104823306D01*
X137731537Y-104867468D01*
X137774381Y-104906087D01*
X137816789Y-104931034D01*
X137817823Y-104931430D01*
X137870447Y-104942331D01*
X137932812Y-104942601D01*
X137992076Y-104932676D01*
X138014960Y-104924722D01*
X138073898Y-104891300D01*
X138116110Y-104847511D01*
X138143844Y-104789538D01*
X138159349Y-104713565D01*
X138162857Y-104673771D01*
X138162410Y-104623766D01*
X138027624Y-104623766D01*
X138023083Y-104696732D01*
X138010014Y-104752334D01*
X137989244Y-104787861D01*
X137974448Y-104798020D01*
X137936536Y-104805104D01*
X137891473Y-104803007D01*
X137852513Y-104792812D01*
X137842296Y-104787204D01*
X137815341Y-104754538D01*
X137797549Y-104704545D01*
X137789976Y-104643705D01*
X137793675Y-104578497D01*
X137801943Y-104539253D01*
X137825680Y-104493805D01*
X137863151Y-104465396D01*
X137908280Y-104455573D01*
X137954989Y-104465887D01*
X137990868Y-104491112D01*
X138009723Y-104511925D01*
X138020728Y-104532439D01*
X138025974Y-104560203D01*
X138027551Y-104602762D01*
X138027624Y-104623766D01*
X138162410Y-104623766D01*
X138161906Y-104567580D01*
X138144612Y-104480501D01*
X138110971Y-104412530D01*
X138060982Y-104363664D01*
X137994644Y-104333899D01*
X137980399Y-104330448D01*
X137894790Y-104322345D01*
X137819238Y-104336055D01*
X137819238Y-104336055D01*
G37*
X137819238Y-104336055D02*
X137755637Y-104370692D01*
X137705877Y-104425372D01*
X137682432Y-104469842D01*
X137672366Y-104509121D01*
X137665844Y-104565116D01*
X137663049Y-104629621D01*
X137664164Y-104694429D01*
X137669374Y-104751334D01*
X137675459Y-104781727D01*
X137695986Y-104823306D01*
X137731537Y-104867468D01*
X137774381Y-104906087D01*
X137816789Y-104931034D01*
X137817823Y-104931430D01*
X137870447Y-104942331D01*
X137932812Y-104942601D01*
X137992076Y-104932676D01*
X138014960Y-104924722D01*
X138073898Y-104891300D01*
X138116110Y-104847511D01*
X138143844Y-104789538D01*
X138159349Y-104713565D01*
X138162857Y-104673771D01*
X138162410Y-104623766D01*
X138027624Y-104623766D01*
X138023083Y-104696732D01*
X138010014Y-104752334D01*
X137989244Y-104787861D01*
X137974448Y-104798020D01*
X137936536Y-104805104D01*
X137891473Y-104803007D01*
X137852513Y-104792812D01*
X137842296Y-104787204D01*
X137815341Y-104754538D01*
X137797549Y-104704545D01*
X137789976Y-104643705D01*
X137793675Y-104578497D01*
X137801943Y-104539253D01*
X137825680Y-104493805D01*
X137863151Y-104465396D01*
X137908280Y-104455573D01*
X137954989Y-104465887D01*
X137990868Y-104491112D01*
X138009723Y-104511925D01*
X138020728Y-104532439D01*
X138025974Y-104560203D01*
X138027551Y-104602762D01*
X138027624Y-104623766D01*
X138162410Y-104623766D01*
X138161906Y-104567580D01*
X138144612Y-104480501D01*
X138110971Y-104412530D01*
X138060982Y-104363664D01*
X137994644Y-104333899D01*
X137980399Y-104330448D01*
X137894790Y-104322345D01*
X137819238Y-104336055D01*
G36*
X137436633Y-104524342D02*
X137435445Y-104616563D01*
X137431103Y-104686610D01*
X137422442Y-104737381D01*
X137408296Y-104771772D01*
X137387500Y-104792679D01*
X137358890Y-104803000D01*
X137323465Y-104805636D01*
X137286364Y-104802682D01*
X137258182Y-104791889D01*
X137237757Y-104770360D01*
X137223921Y-104735199D01*
X137215509Y-104683510D01*
X137211357Y-104612394D01*
X137210297Y-104524342D01*
X137210297Y-104328614D01*
X137071980Y-104328614D01*
X137071980Y-104932179D01*
X137141138Y-104932179D01*
X137182830Y-104930489D01*
X137204299Y-104924556D01*
X137210297Y-104913293D01*
X137213909Y-104903261D01*
X137228286Y-104905383D01*
X137257264Y-104919580D01*
X137323681Y-104941480D01*
X137394125Y-104939928D01*
X137461623Y-104916147D01*
X137493767Y-104897362D01*
X137518285Y-104877022D01*
X137536196Y-104851573D01*
X137548521Y-104817458D01*
X137556277Y-104771121D01*
X137560484Y-104709007D01*
X137562160Y-104627561D01*
X137562376Y-104564578D01*
X137562376Y-104328614D01*
X137436633Y-104328614D01*
X137436633Y-104524342D01*
X137436633Y-104524342D01*
G37*
X137436633Y-104524342D02*
X137435445Y-104616563D01*
X137431103Y-104686610D01*
X137422442Y-104737381D01*
X137408296Y-104771772D01*
X137387500Y-104792679D01*
X137358890Y-104803000D01*
X137323465Y-104805636D01*
X137286364Y-104802682D01*
X137258182Y-104791889D01*
X137237757Y-104770360D01*
X137223921Y-104735199D01*
X137215509Y-104683510D01*
X137211357Y-104612394D01*
X137210297Y-104524342D01*
X137210297Y-104328614D01*
X137071980Y-104328614D01*
X137071980Y-104932179D01*
X137141138Y-104932179D01*
X137182830Y-104930489D01*
X137204299Y-104924556D01*
X137210297Y-104913293D01*
X137213909Y-104903261D01*
X137228286Y-104905383D01*
X137257264Y-104919580D01*
X137323681Y-104941480D01*
X137394125Y-104939928D01*
X137461623Y-104916147D01*
X137493767Y-104897362D01*
X137518285Y-104877022D01*
X137536196Y-104851573D01*
X137548521Y-104817458D01*
X137556277Y-104771121D01*
X137560484Y-104709007D01*
X137562160Y-104627561D01*
X137562376Y-104564578D01*
X137562376Y-104328614D01*
X137436633Y-104328614D01*
X137436633Y-104524342D01*
G36*
X136212774Y-104333880D02*
X136139920Y-104364830D01*
X136116973Y-104379895D01*
X136087646Y-104403048D01*
X136069236Y-104421253D01*
X136066039Y-104427183D01*
X136075065Y-104440340D01*
X136098163Y-104462667D01*
X136116656Y-104478250D01*
X136167272Y-104518926D01*
X136207240Y-104485295D01*
X136238126Y-104463584D01*
X136268241Y-104456090D01*
X136302708Y-104457920D01*
X136357439Y-104471528D01*
X136395114Y-104499772D01*
X136418009Y-104545433D01*
X136428403Y-104611289D01*
X136428405Y-104611331D01*
X136427506Y-104684939D01*
X136413537Y-104738946D01*
X136385672Y-104775716D01*
X136366675Y-104788168D01*
X136316224Y-104803673D01*
X136262337Y-104803683D01*
X136215454Y-104788638D01*
X136204356Y-104781287D01*
X136176524Y-104762511D01*
X136154764Y-104759434D01*
X136131296Y-104773409D01*
X136105351Y-104798510D01*
X136064284Y-104840880D01*
X136109879Y-104878464D01*
X136180326Y-104920882D01*
X136259767Y-104941785D01*
X136342785Y-104940272D01*
X136397306Y-104926411D01*
X136461030Y-104892135D01*
X136511995Y-104838212D01*
X136535149Y-104800149D01*
X136553901Y-104745536D01*
X136563285Y-104676369D01*
X136563357Y-104601407D01*
X136554176Y-104529409D01*
X136535801Y-104469137D01*
X136532907Y-104462958D01*
X136490048Y-104402351D01*
X136432021Y-104358224D01*
X136363409Y-104331493D01*
X136288799Y-104323073D01*
X136212774Y-104333880D01*
X136212774Y-104333880D01*
G37*
X136212774Y-104333880D02*
X136139920Y-104364830D01*
X136116973Y-104379895D01*
X136087646Y-104403048D01*
X136069236Y-104421253D01*
X136066039Y-104427183D01*
X136075065Y-104440340D01*
X136098163Y-104462667D01*
X136116656Y-104478250D01*
X136167272Y-104518926D01*
X136207240Y-104485295D01*
X136238126Y-104463584D01*
X136268241Y-104456090D01*
X136302708Y-104457920D01*
X136357439Y-104471528D01*
X136395114Y-104499772D01*
X136418009Y-104545433D01*
X136428403Y-104611289D01*
X136428405Y-104611331D01*
X136427506Y-104684939D01*
X136413537Y-104738946D01*
X136385672Y-104775716D01*
X136366675Y-104788168D01*
X136316224Y-104803673D01*
X136262337Y-104803683D01*
X136215454Y-104788638D01*
X136204356Y-104781287D01*
X136176524Y-104762511D01*
X136154764Y-104759434D01*
X136131296Y-104773409D01*
X136105351Y-104798510D01*
X136064284Y-104840880D01*
X136109879Y-104878464D01*
X136180326Y-104920882D01*
X136259767Y-104941785D01*
X136342785Y-104940272D01*
X136397306Y-104926411D01*
X136461030Y-104892135D01*
X136511995Y-104838212D01*
X136535149Y-104800149D01*
X136553901Y-104745536D01*
X136563285Y-104676369D01*
X136563357Y-104601407D01*
X136554176Y-104529409D01*
X136535801Y-104469137D01*
X136532907Y-104462958D01*
X136490048Y-104402351D01*
X136432021Y-104358224D01*
X136363409Y-104331493D01*
X136288799Y-104323073D01*
X136212774Y-104333880D01*
G36*
X135752102Y-104326457D02*
X135719904Y-104334279D01*
X135658175Y-104362921D01*
X135605390Y-104406667D01*
X135568859Y-104459117D01*
X135563840Y-104470893D01*
X135556955Y-104501740D01*
X135552136Y-104547371D01*
X135550495Y-104593492D01*
X135550495Y-104680693D01*
X135732822Y-104680693D01*
X135808021Y-104680978D01*
X135860997Y-104682704D01*
X135894675Y-104687181D01*
X135911980Y-104695720D01*
X135915837Y-104709630D01*
X135909171Y-104730222D01*
X135897230Y-104754315D01*
X135863920Y-104794525D01*
X135817632Y-104814558D01*
X135761056Y-104813905D01*
X135696969Y-104792101D01*
X135641583Y-104765193D01*
X135595625Y-104801532D01*
X135549667Y-104837872D01*
X135592904Y-104877819D01*
X135650626Y-104915563D01*
X135721614Y-104938320D01*
X135797971Y-104944688D01*
X135871801Y-104933268D01*
X135883713Y-104929393D01*
X135948601Y-104895506D01*
X135996870Y-104844986D01*
X136029535Y-104776325D01*
X136047615Y-104688014D01*
X136047825Y-104686121D01*
X136049444Y-104589878D01*
X136042900Y-104555542D01*
X135915148Y-104555542D01*
X135903416Y-104560822D01*
X135871562Y-104564867D01*
X135824603Y-104567176D01*
X135794846Y-104567525D01*
X135739352Y-104567306D01*
X135704654Y-104565916D01*
X135686399Y-104562251D01*
X135680234Y-104555210D01*
X135681805Y-104543690D01*
X135683122Y-104539233D01*
X135705618Y-104497355D01*
X135740997Y-104463604D01*
X135772220Y-104448773D01*
X135813699Y-104449668D01*
X135855731Y-104468164D01*
X135890988Y-104498786D01*
X135912146Y-104536062D01*
X135915148Y-104555542D01*
X136042900Y-104555542D01*
X136033310Y-104505229D01*
X136001302Y-104434191D01*
X135955299Y-104378779D01*
X135897179Y-104341009D01*
X135828820Y-104322896D01*
X135752102Y-104326457D01*
X135752102Y-104326457D01*
G37*
X135752102Y-104326457D02*
X135719904Y-104334279D01*
X135658175Y-104362921D01*
X135605390Y-104406667D01*
X135568859Y-104459117D01*
X135563840Y-104470893D01*
X135556955Y-104501740D01*
X135552136Y-104547371D01*
X135550495Y-104593492D01*
X135550495Y-104680693D01*
X135732822Y-104680693D01*
X135808021Y-104680978D01*
X135860997Y-104682704D01*
X135894675Y-104687181D01*
X135911980Y-104695720D01*
X135915837Y-104709630D01*
X135909171Y-104730222D01*
X135897230Y-104754315D01*
X135863920Y-104794525D01*
X135817632Y-104814558D01*
X135761056Y-104813905D01*
X135696969Y-104792101D01*
X135641583Y-104765193D01*
X135595625Y-104801532D01*
X135549667Y-104837872D01*
X135592904Y-104877819D01*
X135650626Y-104915563D01*
X135721614Y-104938320D01*
X135797971Y-104944688D01*
X135871801Y-104933268D01*
X135883713Y-104929393D01*
X135948601Y-104895506D01*
X135996870Y-104844986D01*
X136029535Y-104776325D01*
X136047615Y-104688014D01*
X136047825Y-104686121D01*
X136049444Y-104589878D01*
X136042900Y-104555542D01*
X135915148Y-104555542D01*
X135903416Y-104560822D01*
X135871562Y-104564867D01*
X135824603Y-104567176D01*
X135794846Y-104567525D01*
X135739352Y-104567306D01*
X135704654Y-104565916D01*
X135686399Y-104562251D01*
X135680234Y-104555210D01*
X135681805Y-104543690D01*
X135683122Y-104539233D01*
X135705618Y-104497355D01*
X135740997Y-104463604D01*
X135772220Y-104448773D01*
X135813699Y-104449668D01*
X135855731Y-104468164D01*
X135890988Y-104498786D01*
X135912146Y-104536062D01*
X135915148Y-104555542D01*
X136042900Y-104555542D01*
X136033310Y-104505229D01*
X136001302Y-104434191D01*
X135955299Y-104378779D01*
X135897179Y-104341009D01*
X135828820Y-104322896D01*
X135752102Y-104326457D01*
G36*
X139184012Y-104339002D02*
X139152717Y-104353950D01*
X139122409Y-104375541D01*
X139099318Y-104400391D01*
X139082500Y-104432087D01*
X139071006Y-104474214D01*
X139063891Y-104530358D01*
X139060207Y-104604106D01*
X139059008Y-104699044D01*
X139058989Y-104708985D01*
X139058713Y-104932179D01*
X139197030Y-104932179D01*
X139197030Y-104726418D01*
X139197128Y-104650189D01*
X139197809Y-104594939D01*
X139199651Y-104556501D01*
X139203233Y-104530706D01*
X139209132Y-104513384D01*
X139217927Y-104500368D01*
X139230180Y-104487507D01*
X139273047Y-104459873D01*
X139319843Y-104454745D01*
X139364424Y-104472217D01*
X139379928Y-104485221D01*
X139391310Y-104497447D01*
X139399481Y-104510540D01*
X139404974Y-104528615D01*
X139408320Y-104555787D01*
X139410051Y-104596170D01*
X139410697Y-104653879D01*
X139410792Y-104724132D01*
X139410792Y-104932179D01*
X139549109Y-104932179D01*
X139549109Y-104328614D01*
X139479950Y-104328614D01*
X139438428Y-104330256D01*
X139417006Y-104336087D01*
X139410795Y-104347461D01*
X139410792Y-104347798D01*
X139407910Y-104358938D01*
X139395199Y-104357674D01*
X139369926Y-104345434D01*
X139312605Y-104327424D01*
X139247037Y-104325421D01*
X139184012Y-104339002D01*
X139184012Y-104339002D01*
G37*
X139184012Y-104339002D02*
X139152717Y-104353950D01*
X139122409Y-104375541D01*
X139099318Y-104400391D01*
X139082500Y-104432087D01*
X139071006Y-104474214D01*
X139063891Y-104530358D01*
X139060207Y-104604106D01*
X139059008Y-104699044D01*
X139058989Y-104708985D01*
X139058713Y-104932179D01*
X139197030Y-104932179D01*
X139197030Y-104726418D01*
X139197128Y-104650189D01*
X139197809Y-104594939D01*
X139199651Y-104556501D01*
X139203233Y-104530706D01*
X139209132Y-104513384D01*
X139217927Y-104500368D01*
X139230180Y-104487507D01*
X139273047Y-104459873D01*
X139319843Y-104454745D01*
X139364424Y-104472217D01*
X139379928Y-104485221D01*
X139391310Y-104497447D01*
X139399481Y-104510540D01*
X139404974Y-104528615D01*
X139408320Y-104555787D01*
X139410051Y-104596170D01*
X139410697Y-104653879D01*
X139410792Y-104724132D01*
X139410792Y-104932179D01*
X139549109Y-104932179D01*
X139549109Y-104328614D01*
X139479950Y-104328614D01*
X139438428Y-104330256D01*
X139417006Y-104336087D01*
X139410795Y-104347461D01*
X139410792Y-104347798D01*
X139407910Y-104358938D01*
X139395199Y-104357674D01*
X139369926Y-104345434D01*
X139312605Y-104327424D01*
X139247037Y-104325421D01*
X139184012Y-104339002D01*
G36*
X136630540Y-104328030D02*
X136587289Y-104341245D01*
X136559442Y-104357941D01*
X136550371Y-104371145D01*
X136552868Y-104386797D01*
X136569069Y-104411385D01*
X136582768Y-104428800D01*
X136611008Y-104460283D01*
X136632225Y-104473529D01*
X136650312Y-104472664D01*
X136703965Y-104459010D01*
X136743370Y-104459630D01*
X136775368Y-104475104D01*
X136786110Y-104484161D01*
X136820495Y-104516027D01*
X136820495Y-104932179D01*
X136958812Y-104932179D01*
X136958812Y-104328614D01*
X136889653Y-104328614D01*
X136848131Y-104330256D01*
X136826709Y-104336087D01*
X136820498Y-104347461D01*
X136820495Y-104347798D01*
X136817561Y-104359713D01*
X136804296Y-104358159D01*
X136785916Y-104349563D01*
X136747954Y-104333568D01*
X136717128Y-104323945D01*
X136677464Y-104321478D01*
X136630540Y-104328030D01*
X136630540Y-104328030D01*
G37*
X136630540Y-104328030D02*
X136587289Y-104341245D01*
X136559442Y-104357941D01*
X136550371Y-104371145D01*
X136552868Y-104386797D01*
X136569069Y-104411385D01*
X136582768Y-104428800D01*
X136611008Y-104460283D01*
X136632225Y-104473529D01*
X136650312Y-104472664D01*
X136703965Y-104459010D01*
X136743370Y-104459630D01*
X136775368Y-104475104D01*
X136786110Y-104484161D01*
X136820495Y-104516027D01*
X136820495Y-104932179D01*
X136958812Y-104932179D01*
X136958812Y-104328614D01*
X136889653Y-104328614D01*
X136848131Y-104330256D01*
X136826709Y-104336087D01*
X136820498Y-104347461D01*
X136820495Y-104347798D01*
X136817561Y-104359713D01*
X136804296Y-104358159D01*
X136785916Y-104349563D01*
X136747954Y-104333568D01*
X136717128Y-104323945D01*
X136677464Y-104321478D01*
X136630540Y-104328030D01*
G36*
X138053036Y-100160018D02*
X137996188Y-100461570D01*
X137576662Y-100634512D01*
X137325016Y-100463395D01*
X137254542Y-100415750D01*
X137190837Y-100373210D01*
X137136874Y-100337715D01*
X137095627Y-100311210D01*
X137070066Y-100295636D01*
X137063105Y-100292278D01*
X137050565Y-100300914D01*
X137023769Y-100324792D01*
X136985720Y-100360859D01*
X136939421Y-100406067D01*
X136887877Y-100457364D01*
X136834091Y-100511701D01*
X136781065Y-100566028D01*
X136731805Y-100617295D01*
X136689313Y-100662451D01*
X136656593Y-100698446D01*
X136636649Y-100722230D01*
X136631881Y-100730190D01*
X136638743Y-100744865D01*
X136657980Y-100777014D01*
X136687570Y-100823492D01*
X136725490Y-100881156D01*
X136769718Y-100946860D01*
X136795346Y-100984336D01*
X136842059Y-101052768D01*
X136883568Y-101114520D01*
X136917860Y-101166519D01*
X136942920Y-101205692D01*
X136956736Y-101228965D01*
X136958812Y-101233855D01*
X136954105Y-101247755D01*
X136941277Y-101280150D01*
X136922262Y-101326485D01*
X136898997Y-101382206D01*
X136873416Y-101442758D01*
X136847455Y-101503586D01*
X136823050Y-101560136D01*
X136802137Y-101607852D01*
X136786651Y-101642181D01*
X136778528Y-101658568D01*
X136778048Y-101659212D01*
X136765293Y-101662341D01*
X136731323Y-101669321D01*
X136679660Y-101679467D01*
X136613824Y-101692092D01*
X136537336Y-101706509D01*
X136492710Y-101714823D01*
X136410979Y-101730384D01*
X136337157Y-101745192D01*
X136274979Y-101758436D01*
X136228178Y-101769305D01*
X136200491Y-101776989D01*
X136194926Y-101779427D01*
X136189474Y-101795930D01*
X136185076Y-101833200D01*
X136181728Y-101886880D01*
X136179426Y-101952612D01*
X136178168Y-102026037D01*
X136177952Y-102102796D01*
X136178773Y-102178532D01*
X136180629Y-102248886D01*
X136183518Y-102309500D01*
X136187435Y-102356016D01*
X136192378Y-102384075D01*
X136195343Y-102389916D01*
X136213066Y-102396917D01*
X136250619Y-102406927D01*
X136303036Y-102418769D01*
X136365348Y-102431267D01*
X136387100Y-102435310D01*
X136491976Y-102454520D01*
X136574820Y-102469991D01*
X136638370Y-102482337D01*
X136685363Y-102492173D01*
X136718537Y-102500114D01*
X136740629Y-102506776D01*
X136754376Y-102512773D01*
X136762516Y-102518719D01*
X136763655Y-102519894D01*
X136775023Y-102538826D01*
X136792365Y-102575669D01*
X136813950Y-102625913D01*
X136838046Y-102685046D01*
X136862921Y-102748556D01*
X136886843Y-102811932D01*
X136908081Y-102870662D01*
X136924903Y-102920235D01*
X136935578Y-102956139D01*
X136938373Y-102973862D01*
X136938140Y-102974483D01*
X136928669Y-102988970D01*
X136907182Y-103020844D01*
X136875937Y-103066789D01*
X136837193Y-103123485D01*
X136793207Y-103187617D01*
X136780681Y-103205842D01*
X136736016Y-103271914D01*
X136696712Y-103332200D01*
X136664912Y-103383235D01*
X136642755Y-103421560D01*
X136632383Y-103443711D01*
X136631881Y-103446432D01*
X136640595Y-103460736D01*
X136664675Y-103489072D01*
X136701024Y-103528396D01*
X136746547Y-103575661D01*
X136798148Y-103627823D01*
X136852733Y-103681835D01*
X136907206Y-103734653D01*
X136958471Y-103783231D01*
X137003433Y-103824523D01*
X137038996Y-103855485D01*
X137062065Y-103873070D01*
X137068446Y-103875941D01*
X137083301Y-103869178D01*
X137113714Y-103850939D01*
X137154732Y-103824297D01*
X137186291Y-103802852D01*
X137243475Y-103763503D01*
X137311194Y-103717171D01*
X137379120Y-103670913D01*
X137415639Y-103646155D01*
X137539248Y-103562547D01*
X137643009Y-103618650D01*
X137690280Y-103643228D01*
X137730477Y-103662331D01*
X137757674Y-103673227D01*
X137764598Y-103674743D01*
X137772923Y-103663549D01*
X137789346Y-103631917D01*
X137812643Y-103582765D01*
X137841586Y-103519010D01*
X137874950Y-103443571D01*
X137911509Y-103359364D01*
X137950036Y-103269308D01*
X137989306Y-103176321D01*
X138028092Y-103083320D01*
X138065170Y-102993223D01*
X138099311Y-102908948D01*
X138129292Y-102833413D01*
X138153884Y-102769534D01*
X138171864Y-102720231D01*
X138182003Y-102688421D01*
X138183634Y-102677496D01*
X138170709Y-102663561D01*
X138142411Y-102640940D01*
X138104654Y-102614333D01*
X138101485Y-102612228D01*
X138003900Y-102534114D01*
X137925214Y-102442982D01*
X137866109Y-102341745D01*
X137827268Y-102233318D01*
X137809372Y-102120614D01*
X137813103Y-102006548D01*
X137839143Y-101894034D01*
X137888175Y-101785985D01*
X137902600Y-101762345D01*
X137977631Y-101666887D01*
X138066270Y-101590232D01*
X138165451Y-101532780D01*
X138272105Y-101494929D01*
X138383164Y-101477078D01*
X138495561Y-101479625D01*
X138606227Y-101502970D01*
X138712094Y-101547510D01*
X138810095Y-101613645D01*
X138840410Y-101640487D01*
X138917562Y-101724512D01*
X138973782Y-101812966D01*
X139012347Y-101912115D01*
X139033826Y-102010303D01*
X139039128Y-102120697D01*
X139021448Y-102231640D01*
X138982581Y-102339381D01*
X138924323Y-102440169D01*
X138848469Y-102530256D01*
X138756817Y-102605892D01*
X138744772Y-102613864D01*
X138706611Y-102639974D01*
X138677601Y-102662595D01*
X138663732Y-102677039D01*
X138663531Y-102677496D01*
X138666508Y-102693121D01*
X138678311Y-102728582D01*
X138697714Y-102780962D01*
X138723488Y-102847345D01*
X138754409Y-102924814D01*
X138789249Y-103010450D01*
X138826783Y-103101337D01*
X138865783Y-103194559D01*
X138905023Y-103287197D01*
X138943276Y-103376335D01*
X138979317Y-103459055D01*
X139011917Y-103532441D01*
X139039852Y-103593575D01*
X139061895Y-103639541D01*
X139076818Y-103667421D01*
X139082828Y-103674743D01*
X139101191Y-103669041D01*
X139135552Y-103653749D01*
X139179984Y-103631599D01*
X139204417Y-103618650D01*
X139308178Y-103562547D01*
X139431787Y-103646155D01*
X139494886Y-103688987D01*
X139563970Y-103736122D01*
X139628707Y-103780503D01*
X139661134Y-103802852D01*
X139706741Y-103833477D01*
X139745360Y-103857747D01*
X139771952Y-103872587D01*
X139780590Y-103875724D01*
X139793161Y-103867261D01*
X139820984Y-103843636D01*
X139861361Y-103807302D01*
X139911595Y-103760711D01*
X139968988Y-103706317D01*
X140005286Y-103671392D01*
X140068790Y-103608996D01*
X140123673Y-103553188D01*
X140167714Y-103506354D01*
X140198695Y-103470882D01*
X140214398Y-103449161D01*
X140215905Y-103444752D01*
X140208914Y-103427985D01*
X140189594Y-103394082D01*
X140160091Y-103346476D01*
X140122545Y-103288599D01*
X140079100Y-103223884D01*
X140066745Y-103205842D01*
X140021727Y-103140267D01*
X139981340Y-103081228D01*
X139947840Y-103032042D01*
X139923486Y-102996028D01*
X139910536Y-102976502D01*
X139909285Y-102974483D01*
X139911156Y-102958922D01*
X139921087Y-102924709D01*
X139937347Y-102876355D01*
X139958205Y-102818371D01*
X139981927Y-102755270D01*
X140006784Y-102691563D01*
X140031042Y-102631761D01*
X140052971Y-102580376D01*
X140070838Y-102541919D01*
X140082913Y-102520902D01*
X140083771Y-102519894D01*
X140091154Y-102513888D01*
X140103625Y-102507948D01*
X140123920Y-102501460D01*
X140154778Y-102493809D01*
X140198934Y-102484380D01*
X140259126Y-102472559D01*
X140338093Y-102457729D01*
X140438570Y-102439277D01*
X140460325Y-102435310D01*
X140524802Y-102422853D01*
X140581011Y-102410666D01*
X140623987Y-102399926D01*
X140648760Y-102391809D01*
X140652082Y-102389916D01*
X140657556Y-102373138D01*
X140662006Y-102335645D01*
X140665428Y-102281794D01*
X140667819Y-102215944D01*
X140669177Y-102142453D01*
X140669499Y-102065680D01*
X140668781Y-101989983D01*
X140667021Y-101919720D01*
X140664216Y-101859250D01*
X140660362Y-101812930D01*
X140655457Y-101785119D01*
X140652500Y-101779427D01*
X140636037Y-101773686D01*
X140598551Y-101764345D01*
X140543775Y-101752215D01*
X140475445Y-101738107D01*
X140397294Y-101722830D01*
X140354716Y-101714823D01*
X140273929Y-101699721D01*
X140201887Y-101686040D01*
X140142111Y-101674467D01*
X140098121Y-101665687D01*
X140073439Y-101660387D01*
X140069377Y-101659212D01*
X140062511Y-101645965D01*
X140047998Y-101614057D01*
X140027771Y-101568047D01*
X140003766Y-101512492D01*
X139977918Y-101451953D01*
X139952160Y-101390986D01*
X139928427Y-101334151D01*
X139908654Y-101286006D01*
X139894776Y-101251110D01*
X139888726Y-101234021D01*
X139888614Y-101233274D01*
X139895472Y-101219793D01*
X139914698Y-101188770D01*
X139944272Y-101143289D01*
X139982173Y-101086432D01*
X140026380Y-101021283D01*
X140052079Y-100983862D01*
X140098907Y-100915247D01*
X140140499Y-100852952D01*
X140174825Y-100800129D01*
X140199857Y-100759927D01*
X140213565Y-100735500D01*
X140215544Y-100730024D01*
X140207034Y-100717278D01*
X140183507Y-100690063D01*
X140147968Y-100651428D01*
X140103423Y-100604423D01*
X140052877Y-100552095D01*
X139999336Y-100497495D01*
X139945805Y-100443670D01*
X139895289Y-100393670D01*
X139850794Y-100350543D01*
X139815325Y-100317339D01*
X139791887Y-100297106D01*
X139784046Y-100292278D01*
X139771280Y-100299067D01*
X139740744Y-100318142D01*
X139695410Y-100347561D01*
X139638244Y-100385381D01*
X139572216Y-100429661D01*
X139522410Y-100463395D01*
X139270764Y-100634512D01*
X139061001Y-100548041D01*
X138851237Y-100461570D01*
X138794389Y-100160018D01*
X138737540Y-99858466D01*
X138109885Y-99858466D01*
X138053036Y-100160018D01*
X138053036Y-100160018D01*
G37*
X138053036Y-100160018D02*
X137996188Y-100461570D01*
X137576662Y-100634512D01*
X137325016Y-100463395D01*
X137254542Y-100415750D01*
X137190837Y-100373210D01*
X137136874Y-100337715D01*
X137095627Y-100311210D01*
X137070066Y-100295636D01*
X137063105Y-100292278D01*
X137050565Y-100300914D01*
X137023769Y-100324792D01*
X136985720Y-100360859D01*
X136939421Y-100406067D01*
X136887877Y-100457364D01*
X136834091Y-100511701D01*
X136781065Y-100566028D01*
X136731805Y-100617295D01*
X136689313Y-100662451D01*
X136656593Y-100698446D01*
X136636649Y-100722230D01*
X136631881Y-100730190D01*
X136638743Y-100744865D01*
X136657980Y-100777014D01*
X136687570Y-100823492D01*
X136725490Y-100881156D01*
X136769718Y-100946860D01*
X136795346Y-100984336D01*
X136842059Y-101052768D01*
X136883568Y-101114520D01*
X136917860Y-101166519D01*
X136942920Y-101205692D01*
X136956736Y-101228965D01*
X136958812Y-101233855D01*
X136954105Y-101247755D01*
X136941277Y-101280150D01*
X136922262Y-101326485D01*
X136898997Y-101382206D01*
X136873416Y-101442758D01*
X136847455Y-101503586D01*
X136823050Y-101560136D01*
X136802137Y-101607852D01*
X136786651Y-101642181D01*
X136778528Y-101658568D01*
X136778048Y-101659212D01*
X136765293Y-101662341D01*
X136731323Y-101669321D01*
X136679660Y-101679467D01*
X136613824Y-101692092D01*
X136537336Y-101706509D01*
X136492710Y-101714823D01*
X136410979Y-101730384D01*
X136337157Y-101745192D01*
X136274979Y-101758436D01*
X136228178Y-101769305D01*
X136200491Y-101776989D01*
X136194926Y-101779427D01*
X136189474Y-101795930D01*
X136185076Y-101833200D01*
X136181728Y-101886880D01*
X136179426Y-101952612D01*
X136178168Y-102026037D01*
X136177952Y-102102796D01*
X136178773Y-102178532D01*
X136180629Y-102248886D01*
X136183518Y-102309500D01*
X136187435Y-102356016D01*
X136192378Y-102384075D01*
X136195343Y-102389916D01*
X136213066Y-102396917D01*
X136250619Y-102406927D01*
X136303036Y-102418769D01*
X136365348Y-102431267D01*
X136387100Y-102435310D01*
X136491976Y-102454520D01*
X136574820Y-102469991D01*
X136638370Y-102482337D01*
X136685363Y-102492173D01*
X136718537Y-102500114D01*
X136740629Y-102506776D01*
X136754376Y-102512773D01*
X136762516Y-102518719D01*
X136763655Y-102519894D01*
X136775023Y-102538826D01*
X136792365Y-102575669D01*
X136813950Y-102625913D01*
X136838046Y-102685046D01*
X136862921Y-102748556D01*
X136886843Y-102811932D01*
X136908081Y-102870662D01*
X136924903Y-102920235D01*
X136935578Y-102956139D01*
X136938373Y-102973862D01*
X136938140Y-102974483D01*
X136928669Y-102988970D01*
X136907182Y-103020844D01*
X136875937Y-103066789D01*
X136837193Y-103123485D01*
X136793207Y-103187617D01*
X136780681Y-103205842D01*
X136736016Y-103271914D01*
X136696712Y-103332200D01*
X136664912Y-103383235D01*
X136642755Y-103421560D01*
X136632383Y-103443711D01*
X136631881Y-103446432D01*
X136640595Y-103460736D01*
X136664675Y-103489072D01*
X136701024Y-103528396D01*
X136746547Y-103575661D01*
X136798148Y-103627823D01*
X136852733Y-103681835D01*
X136907206Y-103734653D01*
X136958471Y-103783231D01*
X137003433Y-103824523D01*
X137038996Y-103855485D01*
X137062065Y-103873070D01*
X137068446Y-103875941D01*
X137083301Y-103869178D01*
X137113714Y-103850939D01*
X137154732Y-103824297D01*
X137186291Y-103802852D01*
X137243475Y-103763503D01*
X137311194Y-103717171D01*
X137379120Y-103670913D01*
X137415639Y-103646155D01*
X137539248Y-103562547D01*
X137643009Y-103618650D01*
X137690280Y-103643228D01*
X137730477Y-103662331D01*
X137757674Y-103673227D01*
X137764598Y-103674743D01*
X137772923Y-103663549D01*
X137789346Y-103631917D01*
X137812643Y-103582765D01*
X137841586Y-103519010D01*
X137874950Y-103443571D01*
X137911509Y-103359364D01*
X137950036Y-103269308D01*
X137989306Y-103176321D01*
X138028092Y-103083320D01*
X138065170Y-102993223D01*
X138099311Y-102908948D01*
X138129292Y-102833413D01*
X138153884Y-102769534D01*
X138171864Y-102720231D01*
X138182003Y-102688421D01*
X138183634Y-102677496D01*
X138170709Y-102663561D01*
X138142411Y-102640940D01*
X138104654Y-102614333D01*
X138101485Y-102612228D01*
X138003900Y-102534114D01*
X137925214Y-102442982D01*
X137866109Y-102341745D01*
X137827268Y-102233318D01*
X137809372Y-102120614D01*
X137813103Y-102006548D01*
X137839143Y-101894034D01*
X137888175Y-101785985D01*
X137902600Y-101762345D01*
X137977631Y-101666887D01*
X138066270Y-101590232D01*
X138165451Y-101532780D01*
X138272105Y-101494929D01*
X138383164Y-101477078D01*
X138495561Y-101479625D01*
X138606227Y-101502970D01*
X138712094Y-101547510D01*
X138810095Y-101613645D01*
X138840410Y-101640487D01*
X138917562Y-101724512D01*
X138973782Y-101812966D01*
X139012347Y-101912115D01*
X139033826Y-102010303D01*
X139039128Y-102120697D01*
X139021448Y-102231640D01*
X138982581Y-102339381D01*
X138924323Y-102440169D01*
X138848469Y-102530256D01*
X138756817Y-102605892D01*
X138744772Y-102613864D01*
X138706611Y-102639974D01*
X138677601Y-102662595D01*
X138663732Y-102677039D01*
X138663531Y-102677496D01*
X138666508Y-102693121D01*
X138678311Y-102728582D01*
X138697714Y-102780962D01*
X138723488Y-102847345D01*
X138754409Y-102924814D01*
X138789249Y-103010450D01*
X138826783Y-103101337D01*
X138865783Y-103194559D01*
X138905023Y-103287197D01*
X138943276Y-103376335D01*
X138979317Y-103459055D01*
X139011917Y-103532441D01*
X139039852Y-103593575D01*
X139061895Y-103639541D01*
X139076818Y-103667421D01*
X139082828Y-103674743D01*
X139101191Y-103669041D01*
X139135552Y-103653749D01*
X139179984Y-103631599D01*
X139204417Y-103618650D01*
X139308178Y-103562547D01*
X139431787Y-103646155D01*
X139494886Y-103688987D01*
X139563970Y-103736122D01*
X139628707Y-103780503D01*
X139661134Y-103802852D01*
X139706741Y-103833477D01*
X139745360Y-103857747D01*
X139771952Y-103872587D01*
X139780590Y-103875724D01*
X139793161Y-103867261D01*
X139820984Y-103843636D01*
X139861361Y-103807302D01*
X139911595Y-103760711D01*
X139968988Y-103706317D01*
X140005286Y-103671392D01*
X140068790Y-103608996D01*
X140123673Y-103553188D01*
X140167714Y-103506354D01*
X140198695Y-103470882D01*
X140214398Y-103449161D01*
X140215905Y-103444752D01*
X140208914Y-103427985D01*
X140189594Y-103394082D01*
X140160091Y-103346476D01*
X140122545Y-103288599D01*
X140079100Y-103223884D01*
X140066745Y-103205842D01*
X140021727Y-103140267D01*
X139981340Y-103081228D01*
X139947840Y-103032042D01*
X139923486Y-102996028D01*
X139910536Y-102976502D01*
X139909285Y-102974483D01*
X139911156Y-102958922D01*
X139921087Y-102924709D01*
X139937347Y-102876355D01*
X139958205Y-102818371D01*
X139981927Y-102755270D01*
X140006784Y-102691563D01*
X140031042Y-102631761D01*
X140052971Y-102580376D01*
X140070838Y-102541919D01*
X140082913Y-102520902D01*
X140083771Y-102519894D01*
X140091154Y-102513888D01*
X140103625Y-102507948D01*
X140123920Y-102501460D01*
X140154778Y-102493809D01*
X140198934Y-102484380D01*
X140259126Y-102472559D01*
X140338093Y-102457729D01*
X140438570Y-102439277D01*
X140460325Y-102435310D01*
X140524802Y-102422853D01*
X140581011Y-102410666D01*
X140623987Y-102399926D01*
X140648760Y-102391809D01*
X140652082Y-102389916D01*
X140657556Y-102373138D01*
X140662006Y-102335645D01*
X140665428Y-102281794D01*
X140667819Y-102215944D01*
X140669177Y-102142453D01*
X140669499Y-102065680D01*
X140668781Y-101989983D01*
X140667021Y-101919720D01*
X140664216Y-101859250D01*
X140660362Y-101812930D01*
X140655457Y-101785119D01*
X140652500Y-101779427D01*
X140636037Y-101773686D01*
X140598551Y-101764345D01*
X140543775Y-101752215D01*
X140475445Y-101738107D01*
X140397294Y-101722830D01*
X140354716Y-101714823D01*
X140273929Y-101699721D01*
X140201887Y-101686040D01*
X140142111Y-101674467D01*
X140098121Y-101665687D01*
X140073439Y-101660387D01*
X140069377Y-101659212D01*
X140062511Y-101645965D01*
X140047998Y-101614057D01*
X140027771Y-101568047D01*
X140003766Y-101512492D01*
X139977918Y-101451953D01*
X139952160Y-101390986D01*
X139928427Y-101334151D01*
X139908654Y-101286006D01*
X139894776Y-101251110D01*
X139888726Y-101234021D01*
X139888614Y-101233274D01*
X139895472Y-101219793D01*
X139914698Y-101188770D01*
X139944272Y-101143289D01*
X139982173Y-101086432D01*
X140026380Y-101021283D01*
X140052079Y-100983862D01*
X140098907Y-100915247D01*
X140140499Y-100852952D01*
X140174825Y-100800129D01*
X140199857Y-100759927D01*
X140213565Y-100735500D01*
X140215544Y-100730024D01*
X140207034Y-100717278D01*
X140183507Y-100690063D01*
X140147968Y-100651428D01*
X140103423Y-100604423D01*
X140052877Y-100552095D01*
X139999336Y-100497495D01*
X139945805Y-100443670D01*
X139895289Y-100393670D01*
X139850794Y-100350543D01*
X139815325Y-100317339D01*
X139791887Y-100297106D01*
X139784046Y-100292278D01*
X139771280Y-100299067D01*
X139740744Y-100318142D01*
X139695410Y-100347561D01*
X139638244Y-100385381D01*
X139572216Y-100429661D01*
X139522410Y-100463395D01*
X139270764Y-100634512D01*
X139061001Y-100548041D01*
X138851237Y-100461570D01*
X138794389Y-100160018D01*
X138737540Y-99858466D01*
X138109885Y-99858466D01*
X138053036Y-100160018D01*
D12*
X133412857Y-107363286D02*
X133841429Y-107363286D01*
X133627143Y-107363286D02*
X133627143Y-106613286D01*
X133698572Y-106720429D01*
X133770000Y-106791857D01*
X133841429Y-106827571D01*
X132734286Y-106613286D02*
X133091429Y-106613286D01*
X133127143Y-106970429D01*
X133091429Y-106934714D01*
X133020000Y-106899000D01*
X132841429Y-106899000D01*
X132770000Y-106934714D01*
X132734286Y-106970429D01*
X132698571Y-107041857D01*
X132698571Y-107220429D01*
X132734286Y-107291857D01*
X132770000Y-107327571D01*
X132841429Y-107363286D01*
X133020000Y-107363286D01*
X133091429Y-107327571D01*
X133127143Y-107291857D01*
X168615714Y-107363286D02*
X169044286Y-107363286D01*
X168830000Y-107363286D02*
X168830000Y-106613286D01*
X168901429Y-106720429D01*
X168972857Y-106791857D01*
X169044286Y-106827571D01*
X155938952Y-107968571D02*
X155796095Y-108016190D01*
X155748476Y-108063810D01*
X155700857Y-108159048D01*
X155700857Y-108301905D01*
X155748476Y-108397143D01*
X155796095Y-108444762D01*
X155891333Y-108492381D01*
X156272286Y-108492381D01*
X156272286Y-107492381D01*
X155938952Y-107492381D01*
X155843714Y-107540000D01*
X155796095Y-107587619D01*
X155748476Y-107682857D01*
X155748476Y-107778095D01*
X155796095Y-107873333D01*
X155843714Y-107920952D01*
X155938952Y-107968571D01*
X156272286Y-107968571D01*
X154843714Y-108492381D02*
X154843714Y-107968571D01*
X154891333Y-107873333D01*
X154986571Y-107825714D01*
X155177048Y-107825714D01*
X155272286Y-107873333D01*
X154843714Y-108444762D02*
X154938952Y-108492381D01*
X155177048Y-108492381D01*
X155272286Y-108444762D01*
X155319905Y-108349524D01*
X155319905Y-108254286D01*
X155272286Y-108159048D01*
X155177048Y-108111429D01*
X154938952Y-108111429D01*
X154843714Y-108063810D01*
X153938952Y-108444762D02*
X154034190Y-108492381D01*
X154224667Y-108492381D01*
X154319905Y-108444762D01*
X154367524Y-108397143D01*
X154415143Y-108301905D01*
X154415143Y-108016190D01*
X154367524Y-107920952D01*
X154319905Y-107873333D01*
X154224667Y-107825714D01*
X154034190Y-107825714D01*
X153938952Y-107873333D01*
X153510381Y-108492381D02*
X153510381Y-107492381D01*
X153415143Y-108111429D02*
X153129428Y-108492381D01*
X153129428Y-107825714D02*
X153510381Y-108206667D01*
X151986571Y-107444762D02*
X152843714Y-108730476D01*
X151319904Y-107968571D02*
X151177047Y-108016190D01*
X151129428Y-108063810D01*
X151081809Y-108159048D01*
X151081809Y-108301905D01*
X151129428Y-108397143D01*
X151177047Y-108444762D01*
X151272285Y-108492381D01*
X151653238Y-108492381D01*
X151653238Y-107492381D01*
X151319904Y-107492381D01*
X151224666Y-107540000D01*
X151177047Y-107587619D01*
X151129428Y-107682857D01*
X151129428Y-107778095D01*
X151177047Y-107873333D01*
X151224666Y-107920952D01*
X151319904Y-107968571D01*
X151653238Y-107968571D01*
X150510381Y-108492381D02*
X150605619Y-108444762D01*
X150653238Y-108397143D01*
X150700857Y-108301905D01*
X150700857Y-108016190D01*
X150653238Y-107920952D01*
X150605619Y-107873333D01*
X150510381Y-107825714D01*
X150367523Y-107825714D01*
X150272285Y-107873333D01*
X150224666Y-107920952D01*
X150177047Y-108016190D01*
X150177047Y-108301905D01*
X150224666Y-108397143D01*
X150272285Y-108444762D01*
X150367523Y-108492381D01*
X150510381Y-108492381D01*
X149891333Y-107825714D02*
X149510381Y-107825714D01*
X149748476Y-107492381D02*
X149748476Y-108349524D01*
X149700857Y-108444762D01*
X149605619Y-108492381D01*
X149510381Y-108492381D01*
X149319904Y-107825714D02*
X148938952Y-107825714D01*
X149177047Y-107492381D02*
X149177047Y-108349524D01*
X149129428Y-108444762D01*
X149034190Y-108492381D01*
X148938952Y-108492381D01*
X148462761Y-108492381D02*
X148557999Y-108444762D01*
X148605618Y-108397143D01*
X148653237Y-108301905D01*
X148653237Y-108016190D01*
X148605618Y-107920952D01*
X148557999Y-107873333D01*
X148462761Y-107825714D01*
X148319903Y-107825714D01*
X148224665Y-107873333D01*
X148177046Y-107920952D01*
X148129427Y-108016190D01*
X148129427Y-108301905D01*
X148177046Y-108397143D01*
X148224665Y-108444762D01*
X148319903Y-108492381D01*
X148462761Y-108492381D01*
X147700856Y-108492381D02*
X147700856Y-107825714D01*
X147700856Y-107920952D02*
X147653237Y-107873333D01*
X147557999Y-107825714D01*
X147415141Y-107825714D01*
X147319903Y-107873333D01*
X147272284Y-107968571D01*
X147272284Y-108492381D01*
X147272284Y-107968571D02*
X147224665Y-107873333D01*
X147129427Y-107825714D01*
X146986570Y-107825714D01*
X146891332Y-107873333D01*
X146843713Y-107968571D01*
X146843713Y-108492381D01*
X133627143Y-109095810D02*
X133674762Y-109048191D01*
X133722381Y-108905334D01*
X133722381Y-108810096D01*
X133674762Y-108667238D01*
X133579524Y-108572000D01*
X133484286Y-108524381D01*
X133293810Y-108476762D01*
X133150952Y-108476762D01*
X132960476Y-108524381D01*
X132865238Y-108572000D01*
X132770000Y-108667238D01*
X132722381Y-108810096D01*
X132722381Y-108905334D01*
X132770000Y-109048191D01*
X132817619Y-109095810D01*
X133627143Y-110095810D02*
X133674762Y-110048191D01*
X133722381Y-109905334D01*
X133722381Y-109810096D01*
X133674762Y-109667238D01*
X133579524Y-109572000D01*
X133484286Y-109524381D01*
X133293810Y-109476762D01*
X133150952Y-109476762D01*
X132960476Y-109524381D01*
X132865238Y-109572000D01*
X132770000Y-109667238D01*
X132722381Y-109810096D01*
X132722381Y-109905334D01*
X132770000Y-110048191D01*
X132817619Y-110095810D01*
X132722381Y-110381524D02*
X132722381Y-110952953D01*
X133722381Y-110667238D02*
X132722381Y-110667238D01*
X133722381Y-111762477D02*
X133722381Y-111286286D01*
X132722381Y-111286286D01*
X132550000Y-108286286D02*
X132550000Y-111857715D01*
X136262381Y-109913334D02*
X135786190Y-109580000D01*
X136262381Y-109341905D02*
X135262381Y-109341905D01*
X135262381Y-109722858D01*
X135310000Y-109818096D01*
X135357619Y-109865715D01*
X135452857Y-109913334D01*
X135595714Y-109913334D01*
X135690952Y-109865715D01*
X135738571Y-109818096D01*
X135786190Y-109722858D01*
X135786190Y-109341905D01*
X136262381Y-110341905D02*
X135262381Y-110341905D01*
X135262381Y-110580000D01*
X135310000Y-110722858D01*
X135405238Y-110818096D01*
X135500476Y-110865715D01*
X135690952Y-110913334D01*
X135833810Y-110913334D01*
X136024286Y-110865715D01*
X136119524Y-110818096D01*
X136214762Y-110722858D01*
X136262381Y-110580000D01*
X136262381Y-110341905D01*
X135262381Y-111818096D02*
X135262381Y-111341905D01*
X135738571Y-111294286D01*
X135690952Y-111341905D01*
X135643333Y-111437143D01*
X135643333Y-111675239D01*
X135690952Y-111770477D01*
X135738571Y-111818096D01*
X135833810Y-111865715D01*
X136071905Y-111865715D01*
X136167143Y-111818096D01*
X136214762Y-111770477D01*
X136262381Y-111675239D01*
X136262381Y-111437143D01*
X136214762Y-111341905D01*
X136167143Y-111294286D01*
X141294762Y-110326095D02*
X141342381Y-110468952D01*
X141342381Y-110707048D01*
X141294762Y-110802286D01*
X141247143Y-110849905D01*
X141151905Y-110897524D01*
X141056667Y-110897524D01*
X140961429Y-110849905D01*
X140913810Y-110802286D01*
X140866190Y-110707048D01*
X140818571Y-110516571D01*
X140770952Y-110421333D01*
X140723333Y-110373714D01*
X140628095Y-110326095D01*
X140532857Y-110326095D01*
X140437619Y-110373714D01*
X140390000Y-110421333D01*
X140342381Y-110516571D01*
X140342381Y-110754667D01*
X140390000Y-110897524D01*
X140342381Y-111802286D02*
X140342381Y-111326095D01*
X140818571Y-111278476D01*
X140770952Y-111326095D01*
X140723333Y-111421333D01*
X140723333Y-111659429D01*
X140770952Y-111754667D01*
X140818571Y-111802286D01*
X140913810Y-111849905D01*
X141151905Y-111849905D01*
X141247143Y-111802286D01*
X141294762Y-111754667D01*
X141342381Y-111659429D01*
X141342381Y-111421333D01*
X141294762Y-111326095D01*
X141247143Y-111278476D01*
X140170000Y-110135619D02*
X140170000Y-112040381D01*
X151502381Y-110349905D02*
X150502381Y-110349905D01*
X150502381Y-110588000D01*
X150550000Y-110730858D01*
X150645238Y-110826096D01*
X150740476Y-110873715D01*
X150930952Y-110921334D01*
X151073810Y-110921334D01*
X151264286Y-110873715D01*
X151359524Y-110826096D01*
X151454762Y-110730858D01*
X151502381Y-110588000D01*
X151502381Y-110349905D01*
X150597619Y-111302286D02*
X150550000Y-111349905D01*
X150502381Y-111445143D01*
X150502381Y-111683239D01*
X150550000Y-111778477D01*
X150597619Y-111826096D01*
X150692857Y-111873715D01*
X150788095Y-111873715D01*
X150930952Y-111826096D01*
X151502381Y-111254667D01*
X151502381Y-111873715D01*
X148962381Y-110349905D02*
X147962381Y-110349905D01*
X147962381Y-110588000D01*
X148010000Y-110730858D01*
X148105238Y-110826096D01*
X148200476Y-110873715D01*
X148390952Y-110921334D01*
X148533810Y-110921334D01*
X148724286Y-110873715D01*
X148819524Y-110826096D01*
X148914762Y-110730858D01*
X148962381Y-110588000D01*
X148962381Y-110349905D01*
X148962381Y-111873715D02*
X148962381Y-111302286D01*
X148962381Y-111588000D02*
X147962381Y-111588000D01*
X148105238Y-111492762D01*
X148200476Y-111397524D01*
X148248095Y-111302286D01*
X146422381Y-110349905D02*
X145422381Y-110349905D01*
X145422381Y-110588000D01*
X145470000Y-110730858D01*
X145565238Y-110826096D01*
X145660476Y-110873715D01*
X145850952Y-110921334D01*
X145993810Y-110921334D01*
X146184286Y-110873715D01*
X146279524Y-110826096D01*
X146374762Y-110730858D01*
X146422381Y-110588000D01*
X146422381Y-110349905D01*
X145422381Y-111540381D02*
X145422381Y-111635620D01*
X145470000Y-111730858D01*
X145517619Y-111778477D01*
X145612857Y-111826096D01*
X145803333Y-111873715D01*
X146041429Y-111873715D01*
X146231905Y-111826096D01*
X146327143Y-111778477D01*
X146374762Y-111730858D01*
X146422381Y-111635620D01*
X146422381Y-111540381D01*
X146374762Y-111445143D01*
X146327143Y-111397524D01*
X146231905Y-111349905D01*
X146041429Y-111302286D01*
X145803333Y-111302286D01*
X145612857Y-111349905D01*
X145517619Y-111397524D01*
X145470000Y-111445143D01*
X145422381Y-111540381D01*
X143882381Y-110349905D02*
X142882381Y-110349905D01*
X142882381Y-110588000D01*
X142930000Y-110730858D01*
X143025238Y-110826096D01*
X143120476Y-110873715D01*
X143310952Y-110921334D01*
X143453810Y-110921334D01*
X143644286Y-110873715D01*
X143739524Y-110826096D01*
X143834762Y-110730858D01*
X143882381Y-110588000D01*
X143882381Y-110349905D01*
X142882381Y-111778477D02*
X142882381Y-111588000D01*
X142930000Y-111492762D01*
X142977619Y-111445143D01*
X143120476Y-111349905D01*
X143310952Y-111302286D01*
X143691905Y-111302286D01*
X143787143Y-111349905D01*
X143834762Y-111397524D01*
X143882381Y-111492762D01*
X143882381Y-111683239D01*
X143834762Y-111778477D01*
X143787143Y-111826096D01*
X143691905Y-111873715D01*
X143453810Y-111873715D01*
X143358571Y-111826096D01*
X143310952Y-111778477D01*
X143263333Y-111683239D01*
X143263333Y-111492762D01*
X143310952Y-111397524D01*
X143358571Y-111349905D01*
X143453810Y-111302286D01*
X154042381Y-110349905D02*
X153042381Y-110349905D01*
X153042381Y-110588000D01*
X153090000Y-110730858D01*
X153185238Y-110826096D01*
X153280476Y-110873715D01*
X153470952Y-110921334D01*
X153613810Y-110921334D01*
X153804286Y-110873715D01*
X153899524Y-110826096D01*
X153994762Y-110730858D01*
X154042381Y-110588000D01*
X154042381Y-110349905D01*
X153042381Y-111826096D02*
X153042381Y-111349905D01*
X153518571Y-111302286D01*
X153470952Y-111349905D01*
X153423333Y-111445143D01*
X153423333Y-111683239D01*
X153470952Y-111778477D01*
X153518571Y-111826096D01*
X153613810Y-111873715D01*
X153851905Y-111873715D01*
X153947143Y-111826096D01*
X153994762Y-111778477D01*
X154042381Y-111683239D01*
X154042381Y-111445143D01*
X153994762Y-111349905D01*
X153947143Y-111302286D01*
X156582381Y-110349905D02*
X155582381Y-110349905D01*
X155582381Y-110588000D01*
X155630000Y-110730858D01*
X155725238Y-110826096D01*
X155820476Y-110873715D01*
X156010952Y-110921334D01*
X156153810Y-110921334D01*
X156344286Y-110873715D01*
X156439524Y-110826096D01*
X156534762Y-110730858D01*
X156582381Y-110588000D01*
X156582381Y-110349905D01*
X155915714Y-111778477D02*
X156582381Y-111778477D01*
X155534762Y-111540381D02*
X156249048Y-111302286D01*
X156249048Y-111921334D01*
X158836667Y-110373714D02*
X158836667Y-110849905D01*
X159122381Y-110278476D02*
X158122381Y-110611809D01*
X159122381Y-110945143D01*
X158122381Y-111468952D02*
X158122381Y-111564191D01*
X158170000Y-111659429D01*
X158217619Y-111707048D01*
X158312857Y-111754667D01*
X158503333Y-111802286D01*
X158741429Y-111802286D01*
X158931905Y-111754667D01*
X159027143Y-111707048D01*
X159074762Y-111659429D01*
X159122381Y-111564191D01*
X159122381Y-111468952D01*
X159074762Y-111373714D01*
X159027143Y-111326095D01*
X158931905Y-111278476D01*
X158741429Y-111230857D01*
X158503333Y-111230857D01*
X158312857Y-111278476D01*
X158217619Y-111326095D01*
X158170000Y-111373714D01*
X158122381Y-111468952D01*
X161376667Y-110373714D02*
X161376667Y-110849905D01*
X161662381Y-110278476D02*
X160662381Y-110611809D01*
X161662381Y-110945143D01*
X161662381Y-111802286D02*
X161662381Y-111230857D01*
X161662381Y-111516571D02*
X160662381Y-111516571D01*
X160805238Y-111421333D01*
X160900476Y-111326095D01*
X160948095Y-111230857D01*
X163916667Y-110373714D02*
X163916667Y-110849905D01*
X164202381Y-110278476D02*
X163202381Y-110611809D01*
X164202381Y-110945143D01*
X163297619Y-111230857D02*
X163250000Y-111278476D01*
X163202381Y-111373714D01*
X163202381Y-111611810D01*
X163250000Y-111707048D01*
X163297619Y-111754667D01*
X163392857Y-111802286D01*
X163488095Y-111802286D01*
X163630952Y-111754667D01*
X164202381Y-111183238D01*
X164202381Y-111802286D01*
X166456667Y-110373714D02*
X166456667Y-110849905D01*
X166742381Y-110278476D02*
X165742381Y-110611809D01*
X166742381Y-110945143D01*
X165742381Y-111183238D02*
X165742381Y-111802286D01*
X166123333Y-111468952D01*
X166123333Y-111611810D01*
X166170952Y-111707048D01*
X166218571Y-111754667D01*
X166313810Y-111802286D01*
X166551905Y-111802286D01*
X166647143Y-111754667D01*
X166694762Y-111707048D01*
X166742381Y-111611810D01*
X166742381Y-111326095D01*
X166694762Y-111230857D01*
X166647143Y-111183238D01*
X169234762Y-110326095D02*
X169282381Y-110468952D01*
X169282381Y-110707048D01*
X169234762Y-110802286D01*
X169187143Y-110849905D01*
X169091905Y-110897524D01*
X168996667Y-110897524D01*
X168901429Y-110849905D01*
X168853810Y-110802286D01*
X168806190Y-110707048D01*
X168758571Y-110516571D01*
X168710952Y-110421333D01*
X168663333Y-110373714D01*
X168568095Y-110326095D01*
X168472857Y-110326095D01*
X168377619Y-110373714D01*
X168330000Y-110421333D01*
X168282381Y-110516571D01*
X168282381Y-110754667D01*
X168330000Y-110897524D01*
X168615714Y-111754667D02*
X169282381Y-111754667D01*
X168234762Y-111516571D02*
X168949048Y-111278476D01*
X168949048Y-111897524D01*
X168110000Y-110135619D02*
X168110000Y-112040381D01*
X137802381Y-110897524D02*
X137802381Y-110421333D01*
X138278571Y-110373714D01*
X138230952Y-110421333D01*
X138183333Y-110516571D01*
X138183333Y-110754667D01*
X138230952Y-110849905D01*
X138278571Y-110897524D01*
X138373810Y-110945143D01*
X138611905Y-110945143D01*
X138707143Y-110897524D01*
X138754762Y-110849905D01*
X138802381Y-110754667D01*
X138802381Y-110516571D01*
X138754762Y-110421333D01*
X138707143Y-110373714D01*
X137802381Y-111230857D02*
X138802381Y-111564190D01*
X137802381Y-111897524D01*
M02*
